<svg width="30" height="21" fill="none" xmlns="http://www.w3.org/2000/svg"><path fill-rule="evenodd" clip-rule="evenodd" d="M29.194 4.886s-.284-1.96-1.152-2.823C26.94.931 25.706.925 25.14.86 21.087.571 15.006.571 15.006.571h-.013S8.913.571 4.86.86c-.566.066-1.8.072-2.902 1.204C1.09 2.926.807 4.886.807 4.886s-.29 2.301-.29 4.602v2.158c0 2.3.29 4.601.29 4.601s.282 1.96 1.151 2.823c1.102 1.133 2.549 1.097 3.194 1.215 2.317.219 9.848.286 9.848.286s6.087-.009 10.14-.296c.566-.067 1.8-.072 2.902-1.205.868-.863 1.152-2.823 1.152-2.823s.289-2.3.289-4.601V9.488c0-2.301-.29-4.602-.29-4.602zM12.01 14.259l-.002-7.989 7.827 4.009-7.825 3.98z" fill="#fff"/></svg>