<svg width="59" height="57" fill="none" xmlns="http://www.w3.org/2000/svg"><path d="M29.538 21.306c0-3.988-3.245-7.234-7.234-7.234s-7.233 3.245-7.233 7.234c0 3.988 3.244 7.233 7.233 7.233 3.989 0 7.234-3.246 7.234-7.233zm-13.013 0a5.787 5.787 0 015.78-5.78 5.786 5.786 0 015.781 5.78 5.786 5.786 0 01-5.78 5.78 5.787 5.787 0 01-5.78-5.78zm20.17 7.156c-3.988 0-7.234 3.245-7.234 7.234s3.245 7.233 7.234 7.233c3.988 0 7.233-3.244 7.233-7.233 0-3.989-3.246-7.234-7.233-7.234zm0 13.013a5.787 5.787 0 01-5.78-5.78 5.786 5.786 0 015.78-5.781 5.786 5.786 0 015.78 5.78 5.786 5.786 0 01-5.78 5.78zm3.051-27.131L17.721 41.746l1.132.91L40.88 15.255l-1.133-.91z" fill="#007CC3"/><path d="M56.13 23.405c-.767-1.027-1.492-1.998-1.81-2.971-.335-1.036-.325-2.288-.312-3.611.018-1.908.035-3.88-1.049-5.368-1.095-1.507-2.987-2.098-4.815-2.671-1.256-.392-2.443-.763-3.308-1.394-.848-.619-1.557-1.621-2.31-2.686-1.113-1.576-2.266-3.205-4.063-3.789-1.562-.504-3.543.054-5.36.663-1.22.408-2.48.831-3.603.831-1.123 0-2.383-.423-3.602-.831-1.81-.606-3.803-1.17-5.36-.663-1.797.584-2.95 2.213-4.064 3.79-.751 1.062-1.459 2.068-2.307 2.685-.866.631-2.052 1-3.308 1.394-1.83.573-3.721 1.163-4.817 2.67-1.084 1.489-1.065 3.462-1.049 5.367.013 1.325.025 2.577-.312 3.613-.317.973-1.042 1.944-1.81 2.971C1.709 24.962.505 26.572.505 28.5s1.204 3.538 2.368 5.095c.767 1.027 1.492 1.998 1.809 2.971.335 1.036.325 2.287.312 3.611-.017 1.908-.035 3.88 1.05 5.368 1.095 1.507 2.987 2.099 4.815 2.671 1.255.392 2.443.763 3.307 1.394.849.619 1.558 1.621 2.31 2.686 1.114 1.576 2.266 3.205 4.064 3.789 1.566.505 3.542-.054 5.359-.663 1.22-.408 2.48-.831 3.602-.831 1.122 0 2.383.423 3.602.831 1.292.433 2.628.88 3.91.88.515 0 1.003-.074 1.45-.217 1.797-.584 2.95-2.213 4.064-3.79.751-1.062 1.459-2.068 2.307-2.685.867-.631 2.052-1 3.308-1.394 1.83-.572 3.721-1.163 4.817-2.67 1.084-1.489 1.065-3.462 1.049-5.367-.013-1.326-.025-2.577.312-3.613.317-.973 1.042-1.944 1.81-2.971 1.163-1.557 2.367-3.167 2.367-5.095s-1.202-3.538-2.366-5.095zm-1.164 9.32c-.805 1.076-1.638 2.19-2.029 3.392-.41 1.26-.395 2.692-.383 4.075.016 1.748.03 3.399-.77 4.502-.816 1.117-2.398 1.611-4.078 2.137-1.312.41-2.67.834-3.727 1.604-1.043.759-1.854 1.908-2.64 3.021-1.022 1.446-1.987 2.814-3.325 3.247-1.171.382-2.779-.098-4.451-.659-1.33-.446-2.704-.906-4.064-.906-1.36 0-2.735.46-4.065.907-1.67.56-3.28 1.04-4.45.658-1.339-.435-2.304-1.8-3.326-3.245-.786-1.113-1.6-2.264-2.641-3.023-1.06-.77-2.415-1.194-3.727-1.605-1.677-.523-3.263-1.019-4.077-2.138-.802-1.101-.786-2.752-.77-4.5.013-1.383.028-2.815-.383-4.075-.391-1.203-1.224-2.316-2.029-3.393-1.068-1.428-2.078-2.778-2.078-4.224 0-1.446 1.009-2.796 2.078-4.224.805-1.077 1.638-2.19 2.029-3.393.41-1.26.395-2.691.383-4.075-.016-1.748-.03-3.399.77-4.502.816-1.117 2.398-1.611 4.078-2.137 1.312-.41 2.67-.834 3.727-1.604 1.044-.759 1.854-1.908 2.64-3.021 1.022-1.446 1.987-2.814 3.325-3.247 1.171-.38 2.779.098 4.451.659 1.33.446 2.704.906 4.065.906 1.36 0 2.734-.46 4.064-.906 1.671-.561 3.28-1.04 4.45-.659 1.34.435 2.304 1.8 3.326 3.245.786 1.113 1.6 2.264 2.641 3.023 1.06.77 2.416 1.194 3.728 1.605 1.677.523 3.262 1.019 4.076 2.138.802 1.101.786 2.752.77 4.5-.013 1.384-.028 2.815.383 4.075.391 1.203 1.224 2.316 2.03 3.393 1.067 1.428 2.077 2.778 2.077 4.224 0 1.446-1.008 2.796-2.078 4.224z" fill="#007CC3"/></svg>