<svg width="60" height="60" fill="none" xmlns="http://www.w3.org/2000/svg"><path d="M39 4.2c-9.61.033-19.474 0-27.712 0a.62.62 0 00-.488.6v50.4c0 .314.286.6.6.6h37.2c.314 0 .6-.286.6-.6v-21a.624.624 0 00-.6-.608.624.624 0 00-.6.608v20.4H12V5.4h26.4v9c0 .314.286.6.6.6h9v14.4a.624.624 0 00.6.609.624.624 0 00.6-.609V14.325c0-.201-.119-.287-.188-.356l-9.58-9.6c-.114-.124-.3-.169-.432-.169zm.6 2.044l7.556 7.556H39.6V6.244zM24.6 9c-1.663 0-3.187.51-4.5 1.275a.626.626 0 00-.275.85c.17.29.605.38.875.181 1.168-.68 2.485-1.106 3.9-1.106a7.79 7.79 0 017.8 7.8 7.79 7.79 0 01-7.8 7.8 7.791 7.791 0 01-7.8-7.8c0-2.172.827-4.186 2.231-5.587a.627.627 0 00-.009-.854.627.627 0 00-.853.01C16.526 13.209 15.6 15.527 15.6 18c0 4.964 4.037 9 9 9s9-4.036 9-9c0-4.963-4.037-9-9-9zm2.981 5.981a.608.608 0 00-.412.188L22.8 19.538l-1.369-1.37a.627.627 0 00-.853-.009.627.627 0 00-.01.854l1.8 1.8c.224.23.64.23.863 0l4.8-4.8c.35-.338.036-1.059-.45-1.032zm5.307 15.02a.626.626 0 00-.544.655c.03.315.342.574.656.544h10.2a.624.624 0 00.609-.6.624.624 0 00-.609-.6H32.887zm-16.2 4.8a.626.626 0 00-.544.655c.03.315.342.574.656.544h26.4a.624.624 0 00.609-.6.624.624 0 00-.609-.6H16.687zm0 4.8a.626.626 0 00-.544.655c.03.315.342.574.656.544h26.4a.624.624 0 00.609-.6.624.624 0 00-.609-.6H16.687zm0 4.8a.626.626 0 00-.544.655c.03.315.342.574.656.544h26.4a.624.624 0 00.609-.6.624.624 0 00-.609-.6H16.687zm0 4.8a.626.626 0 00-.544.655c.03.315.342.574.656.544h26.4a.624.624 0 00.609-.6.624.624 0 00-.609-.6H16.687z" fill="#007CC3"/></svg>