<svg width="65" height="65" fill="none" xmlns="http://www.w3.org/2000/svg"><path d="M37.245 36.075a.683.683 0 01-.585-.325c-.195-.325-.065-.715.26-.91l16.835-9.75-5.915-3.38c-.325-.195-.455-.585-.26-.91.195-.325.585-.455.91-.26l6.89 3.965c.195.13.325.325.325.585 0 .26-.13.455-.325.585L37.57 36.01c-.13.065-.26.065-.325.065zm-9.49 0c-.13 0-.195 0-.325-.065L9.555 25.675a.683.683 0 01-.325-.585c0-.26.13-.455.325-.585l6.89-3.965c.325-.195.715-.065.91.26.195.325.065.715-.26.91l-5.915 3.38 16.835 9.685c.325.195.455.585.26.91-.065.26-.325.39-.52.39zM32.5 65L9.23 51.61V39.65c0-.39.325-.65.65-.65.39 0 .65.325.65.65v11.115L32.5 63.44l21.905-12.675V40.04c0-.39.325-.65.65-.65.39 0 .65.325.65.65v11.57L32.5 65z" fill="#007CC3"/><path d="M32.5 56.16a.651.651 0 01-.65-.65v-11.7c0-.39.325-.65.65-.65s.65.325.65.65v11.7c0 .325-.26.65-.65.65zm8.775-12.285c-.13 0-.26 0-.325-.065l-8.775-5.07c-.325-.195-.455-.585-.26-.91.195-.325.585-.455.91-.26l8.385 4.875L62.465 30.16l-7.735-4.485c-.325-.195-.455-.585-.26-.91.195-.325.585-.455.91-.26l8.775 5.07c.195.13.325.325.325.585 0 .26-.13.455-.325.585L41.6 43.81c-.13 0-.26.065-.325.065z" fill="#007CC3"/><path d="M23.725 43.875c-.13 0-.26 0-.325-.065L.845 30.745a.682.682 0 01-.325-.585c0-.26.13-.455.325-.585l8.775-5.07c.325-.195.715-.065.91.26.195.325.065.715-.26.91l-7.8 4.485 21.255 12.285 8.385-4.875c.325-.195.715-.065.91.26.195.325.065.715-.26.91l-8.775 5.07s-.13.065-.26.065zM32.5 16.25c-.13 0-.26 0-.325-.065l-13-7.54a.683.683 0 01-.325-.585c0-.26.13-.455.325-.585l13-7.41a.59.59 0 01.65 0l13 7.41c.195.13.325.325.325.585 0 .26-.13.455-.325.585l-13 7.54c-.065 0-.195.065-.325.065zM20.8 8.06l11.7 6.76 11.7-6.76-11.7-6.63-11.7 6.63z" fill="#007CC3"/><path d="M32.5 31.265c-.13 0-.195 0-.325-.065L18.85 23.465V8.06c0-.39.325-.65.65-.65s.65.325.65.65v14.625l12.675 7.345c.325.195.455.585.26.91a.683.683 0 01-.585.325z" fill="#007CC3"/><path d="M32.5 31.265a.683.683 0 01-.585-.325c-.195-.325-.065-.715.26-.91l12.675-7.345V8.06c0-.39.325-.65.65-.65.39 0 .65.325.65.65v15.405L32.825 31.2c-.13.065-.195.065-.325.065zm0-5.07a.651.651 0 01-.65-.65V15.6c0-.39.325-.65.65-.65s.65.325.65.65v10.01c0 .325-.26.585-.65.585z" fill="#007CC3"/></svg>