<svg width="61" height="61" fill="none" xmlns="http://www.w3.org/2000/svg"><path d="M26.66 23.633c0 .35.284.635.635.635h5.566a.635.635 0 100-1.27h-5.566a.636.636 0 00-.636.634z" fill="#007CC3"/><path d="M2.153 56.323h43.362a4.62 4.62 0 003.463-1.578c.027-.023.057-.034.08-.062l8.229-9.69c.005-.005.005-.013.01-.018.01-.013.015-.026.023-.04a.598.598 0 00.106-.317c.003-.016.013-.023.013-.035v-20.95a.635.635 0 00-.635-.636h-3.662a.636.636 0 000 1.27h3.026v19.83l-9.655 2.638a.877.877 0 00-.537.414.886.886 0 00.515 1.295 3.353 3.353 0 012.403 3.232 3.376 3.376 0 01-3.375 3.373H2.789V24.264a.635.635 0 00-.068-1.267h-.568a.636.636 0 00-.636.636v32.055c0 .35.284.635.636.635zm45.73-8.644l7.103-1.94-4.843 5.7a4.592 4.592 0 00-2.26-3.76z" fill="#007CC3"/><path d="M5.923 25.249c0 .016-.007.03-.006.047s.01.031.013.048c.132 2.02.654 4.016 1.554 5.864.002.007.001.015.005.022.004.005.01.008.014.016a15.64 15.64 0 003.708 4.864.662.662 0 00.421.16c.014 0 .027 0 .04-.003.045-.003.086-.023.13-.035.032-.007.066-.01.097-.025a.608.608 0 00.21-.154l3.097-3.512 5.042-5.72h.002l3.684-4.176c0-.002 0-.002.002-.003l5.039-5.713.004-.003.002-.004 1.99-2.256a.058.058 0 00.012-.014l1.092-1.237a.625.625 0 00.153-.487v-.003a.626.626 0 00-.21-.405 15.65 15.65 0 00-5.276-3.067c-.011-.003-.019-.014-.03-.017-.007-.003-.014 0-.022-.003a15.794 15.794 0 00-6.01-.808c-.017 0-.032-.008-.05-.007-.018.002-.031.01-.048.013a15.761 15.761 0 00-5.867 1.554c-.005.003-.011.002-.017.004-.007.004-.012.012-.02.015a15.623 15.623 0 00-4.86 3.707 15.623 15.623 0 00-3.067 5.282c-.004.009-.012.015-.016.025-.002.007 0 .013-.002.02a15.685 15.685 0 00-.81 6.01zm8.359-7.405c3.423-3.882 9.262-4.384 13.3-1.263L23.36 21.37a3.395 3.395 0 00-1.96-.474 3.401 3.401 0 00-2.352 1.151 3.396 3.396 0 00-.849 2.477c.044.696.295 1.347.716 1.885l-4.222 4.787c-3.603-3.614-3.837-9.468-.41-13.352zm5.501 7.58a2.127 2.127 0 01-.318-.979A2.142 2.142 0 0120 22.887a2.14 2.14 0 011.478-.724c.353-.018.697.055 1.01.193l-2.704 3.068zM14.695 11.63l.434.887a.636.636 0 001.141-.559l-.438-.894a14.522 14.522 0 014.242-1.119l.062.99c.022.337.3.595.634.595l.04-.001a.637.637 0 00.595-.675l-.063-.98c.092-.001.185-.014.277-.014 1.37 0 2.74.206 4.068.594l-.32.932a.635.635 0 001.202.412l.32-.934a14.276 14.276 0 013.798 2.193l-2.266 2.571c-4.565-3.582-11.205-3.032-15.094 1.375-3.887 4.409-3.603 11.066.523 15.148l-1.607 1.822-.47.534-.19.216a14.37 14.37 0 01-2.655-3.493l.89-.437a.635.635 0 10-.559-1.14l-.893.438a14.467 14.467 0 01-1.108-4.241l.977-.061a.637.637 0 00.595-.674.626.626 0 00-.674-.595l-.98.061c-.026-1.46.168-2.924.582-4.342l.93.318a.74.74 0 00.208.032.634.634 0 00.206-1.237l-.932-.319a14.334 14.334 0 012.203-3.788l.737.65a.636.636 0 00.842-.953l-.734-.648a14.339 14.339 0 013.477-2.664zM55.18 7.912L40.604 24.747a.633.633 0 00.48 1.051.636.636 0 00.481-.22L56.143 8.743a.636.636 0 00-.963-.83z" fill="#007CC3"/><path d="M54.196 4.69a4.891 4.891 0 00-3.375 1.692L36.244 23.217c-.002.001-.002.005-.005.008-.008.008-.01.02-.018.029a.634.634 0 00-.111.244c-.003.012-.013.02-.016.033l-1.297 8.066a.634.634 0 00.816.708l7.796-2.438c.01-.002.018-.012.027-.018a.612.612 0 00.221-.14c.013-.01.027-.017.037-.027.002-.003.005-.003.007-.005L58.28 12.842a4.907 4.907 0 001.192-3.583 4.903 4.903 0 00-1.69-3.376 4.876 4.876 0 00-3.585-1.192zM36.214 30.787l.955-5.926 4.774 4.134-5.73 1.792zM57.32 12.009L43.156 28.364l-5.537-4.795L51.783 7.213a3.635 3.635 0 012.507-1.255 3.616 3.616 0 012.661.884 3.644 3.644 0 011.256 2.506 3.665 3.665 0 01-.887 2.661zM31.498 48.662c3.909 0 7.09-3.18 7.09-7.089 0-3.91-3.181-7.089-7.09-7.089a7.03 7.03 0 00-3.114.73l-.19-5.931a.634.634 0 00-.971-.519l-10.83 6.727a.633.633 0 00-.3.56.64.64 0 00.335.542l8.018 4.289a7.092 7.092 0 007.052 7.78zm0-12.907a5.826 5.826 0 015.82 5.818 5.826 5.826 0 01-5.82 5.818 5.827 5.827 0 01-5.818-5.818l.002-.027 1.987 1.063a.624.624 0 00.635-.019.634.634 0 00.3-.56l-.174-5.379a5.741 5.741 0 013.068-.896zm-4.2 5.214L25.86 40.2a5.773 5.773 0 011.333-2.504l.106 3.273zm-9.3-4.979l8.961-5.565.181 5.568a7.1 7.1 0 00-2.439 3.584l-6.703-3.587z" fill="#007CC3"/></svg>