<svg width="120" height="120" fill="none" xmlns="http://www.w3.org/2000/svg"><path d="M117.273 87.274H62.727V46.721c4.693-1.22 8.182-5.453 8.182-10.522 0-6.016-4.893-10.91-10.909-10.91-6.015 0-10.91 4.893-10.91 10.91 0 5.07 3.491 9.302 8.183 10.522v40.553H2.727A2.727 2.727 0 000 90.001v21.819a2.727 2.727 0 002.727 2.727h114.546A2.726 2.726 0 00120 111.82V90.001a2.726 2.726 0 00-2.727-2.727zM54.546 36.2A5.46 5.46 0 0160 30.745a5.462 5.462 0 015.454 5.454A5.462 5.462 0 0160 41.654a5.46 5.46 0 01-5.455-5.455zm59.999 72.893H5.455V92.729h109.09v16.363z" fill="#333"/><path d="M34.922 71.893a2.721 2.721 0 003.8-.66 2.725 2.725 0 00-.66-3.799C27.891 60.275 21.818 48.6 21.818 36.2c0-12.401 6.074-24.08 16.247-31.242a2.725 2.725 0 00.66-3.798 2.723 2.723 0 00-3.8-.66C23.303 8.68 16.364 22.025 16.364 36.2c0 14.174 6.938 27.517 18.558 35.694z" fill="#333"/><path d="M44.34 58.512a2.721 2.721 0 003.8-.66 2.725 2.725 0 00-.66-3.799c-5.822-4.098-9.298-10.773-9.298-17.855 0-7.084 3.477-13.759 9.3-17.858a2.725 2.725 0 00.66-3.797 2.718 2.718 0 00-3.8-.661c-7.272 5.116-11.615 13.46-11.615 22.316 0 8.856 4.342 17.197 11.613 22.314zm53.842-22.314c0 12.4-6.075 24.08-16.247 31.241a2.723 2.723 0 00-.66 3.798 2.717 2.717 0 002.232 1.159c.54 0 1.089-.163 1.566-.498 11.625-8.18 18.563-21.525 18.563-35.7 0-14.174-6.938-27.518-18.558-35.694a2.715 2.715 0 00-3.798.66 2.722 2.722 0 00.66 3.798c10.17 7.16 16.242 18.836 16.242 31.236z" fill="#333"/><path d="M72.518 54.056a2.722 2.722 0 00-.66 3.798 2.717 2.717 0 002.231 1.159c.54 0 1.09-.16 1.566-.496 7.274-5.119 11.618-13.463 11.618-22.319 0-8.855-4.342-17.197-11.612-22.313a2.718 2.718 0 00-3.798.66 2.722 2.722 0 00.66 3.798c5.82 4.099 9.295 10.773 9.295 17.855 0 7.085-3.475 13.76-9.3 17.858zM30 98.183H19.09a2.727 2.727 0 100 5.455H30a2.727 2.727 0 100-5.455zm60 5.455h10.909a2.725 2.725 0 002.727-2.727 2.725 2.725 0 00-2.727-2.728H90a2.726 2.726 0 00-2.727 2.728A2.726 2.726 0 0090 103.638z" fill="#333"/></svg>