<svg width="66" height="66" fill="none" xmlns="http://www.w3.org/2000/svg"><path fill-rule="evenodd" clip-rule="evenodd" d="M47.733 5.352a.64.64 0 100 1.28h11.635v11.635a.641.641 0 101.28 0V5.992a.64.64 0 00-.64-.64H47.733zm-41.741 0a.64.64 0 00-.64.64v12.275a.64.64 0 101.28 0V6.632h11.635a.64.64 0 100-1.28H5.992zm-.01 41.732a.64.64 0 00-.63.649v12.275a.64.64 0 00.64.64h12.275a.64.64 0 100-1.28H6.632V47.733a.64.64 0 00-.65-.65zm54.016 0a.64.64 0 00-.63.649v11.635H47.733a.64.64 0 100 1.28h12.275a.64.64 0 00.64-.64V47.733a.641.641 0 00-.65-.65zM33.137 21.547c-8.696.046-17.4 3.759-26.08 10.9-.429.37-.324.765.06 1.12 8.661 7.125 17.342 10.836 26.02 10.88 8.675.045 17.28-3.58 25.78-10.88.463-.49.354-.803-.02-1.16-8.496-7.28-17.09-10.904-25.76-10.86zm0 1.28c8.162-.042 16.302 3.284 24.48 10.16-8.178 6.89-16.318 10.223-24.48 10.18-8.152-.042-16.37-3.46-24.7-10.18 8.33-6.707 16.548-10.117 24.7-10.16z" fill="#007CC3" stroke="#007CC3" stroke-width=".3"/><path fill-rule="evenodd" clip-rule="evenodd" d="M33.012 25.945c-3.899 0-7.041 3.17-7.041 7.042a7.033 7.033 0 007.041 7.042c3.874 0 7.043-3.143 7.043-7.042 0-3.876-3.166-7.042-7.043-7.042zm0 1.28a5.763 5.763 0 015.763 5.762 5.744 5.744 0 01-5.763 5.763 5.724 5.724 0 01-5.762-5.763 5.744 5.744 0 015.762-5.762z" fill="#007CC3" stroke="#007CC3" stroke-width=".3"/><path stroke="#fff" d="M.5.5h65v65H.5z"/></svg>