<svg width="53" height="48" fill="none" xmlns="http://www.w3.org/2000/svg"><g clip-path="url(#clip0)" fill="#fff" stroke="#fff" stroke-width=".4"><path d="M48.845 13.129H38.291V3.323c0-.179-.158-.323-.353-.323H3.633c-.195 0-.353.144-.353.323V40.51c0 2.476 1.797 4.49 4.005 4.49h35.77c3.388 0 6.143-2.52 6.143-5.619v-25.93c0-.178-.158-.322-.353-.322zm-.353 26.252c0 2.742-2.44 4.973-5.437 4.973H7.285c-1.819 0-3.299-1.724-3.299-3.844V3.646h33.599v33.117c0 .179.158.324.353.324.195 0 .353-.145.353-.324V13.775h10.2V39.38z"/><path d="M7.727 20.428H18.32c.195 0 .353-.144.353-.323v-13.2c0-.178-.158-.322-.353-.322H7.727c-.196 0-.354.144-.354.323v13.2c0 .178.158.322.354.322zm.353-13.2h9.886v12.554H8.08V7.229zm25.576-.287H22.172c-.195 0-.354.145-.354.323 0 .18.159.324.354.324h11.484c.195 0 .354-.145.354-.324 0-.178-.159-.323-.354-.323zm0 6.42H22.172c-.195 0-.354.145-.354.323 0 .179.159.324.354.324h11.484c.195 0 .354-.145.354-.324 0-.178-.159-.323-.354-.323zm0 6.421H22.172c-.195 0-.354.144-.354.323 0 .178.159.323.354.323h11.484c.195 0 .354-.145.354-.323 0-.179-.159-.323-.354-.323zm0 6.42H7.726c-.195 0-.353.144-.353.323 0 .178.158.323.354.323h25.93c.194 0 .353-.145.353-.323 0-.179-.159-.323-.354-.323zm0 6.42H7.726c-.195 0-.353.145-.353.323 0 .179.158.323.354.323h25.93c.194 0 .353-.144.353-.323 0-.178-.159-.323-.354-.323zm0 6.42H7.726c-.195 0-.353.145-.353.324 0 .178.158.323.354.323h25.93c.194 0 .353-.145.353-.323 0-.179-.159-.324-.354-.324z"/></g><defs><clipPath id="clip0"><path fill="#fff" transform="translate(3.28 3)" d="M0 0h45.918v42H0z"/></clipPath></defs></svg>