<svg width="56" height="56" fill="none" xmlns="http://www.w3.org/2000/svg"><path d="M51.156 9.836H27.109a.656.656 0 000 1.31h24.047a1.614 1.614 0 011.612 1.614v33.193a1.615 1.615 0 01-1.612 1.613H34.835a.655.655 0 100 1.312h16.32a2.927 2.927 0 002.925-2.925V12.76a2.928 2.928 0 00-2.924-2.924z" fill="#007CC3"/><path d="M13.852 32.819a2.246 2.246 0 001.8.887c.37 0 .734-.091 1.06-.266L20.44 45.8a4.34 4.34 0 001.034 1.766h-6.329a1.614 1.614 0 01-1.613-1.613V30.438a.656.656 0 00-1.311 0v15.515a2.927 2.927 0 002.924 2.925h19.047a2.176 2.176 0 002.067-2.856l-2.36-7.178a5.714 5.714 0 003.244.096 1.96 1.96 0 001.41-1.333 1.992 1.992 0 00-.416-1.927 39.458 39.458 0 01-3.253-4.213 6.183 6.183 0 00-3.97-2.636l-4.66-.88-.9-1.09.12-.091a2.264 2.264 0 00.42-3.17l-9.532-12.453h10.114a1.212 1.212 0 011.21 1.211v7.658a1.725 1.725 0 002.503 1.54l2.961-1.493 2.96 1.494a1.725 1.725 0 002.503-1.54v-9.298a.656.656 0 00-1.311 0v9.298a.414.414 0 01-.6.37l-3.094-1.561a1.021 1.021 0 00-.916 0l-3.093 1.56a.413.413 0 01-.6-.37V12.36a2.526 2.526 0 00-2.523-2.523H15.359l-1.124-1.469a2.974 2.974 0 00-4.17-.554l-7.319 5.603a2.975 2.975 0 00-.554 4.17l11.66 15.233zm11.541-3.85a.656.656 0 00.385.227l4.895.923a4.862 4.862 0 013.12 2.076 40.804 40.804 0 003.364 4.355.69.69 0 01-.032.956.655.655 0 01-.296.161c-2.235.554-3.567-.614-3.619-.66a.655.655 0 00-1.068.686l2.873 8.739a.865.865 0 01-.822 1.134h-1.238l-1.046-3.492a.656.656 0 00-1.256.377l.933 3.115H29.58l-1.046-3.492a.656.656 0 00-1.256.377l.933 3.115h-2.007l-1.046-3.492a.655.655 0 00-1.256.376l.933 3.116h-.25a3 3 0 01-2.889-2.146l-3.861-12.802 6.48-4.96 1.08 1.31zM2.906 15.559a1.653 1.653 0 01.637-1.102l7.32-5.602a1.65 1.65 0 011.23-.328 1.652 1.652 0 011.1.637l11.661 15.234a.95.95 0 01-.177 1.33l-.659.505-3.338 2.555-4.456 3.41a.948.948 0 01-1.33-.176L3.234 16.788a1.652 1.652 0 01-.328-1.23z" fill="#007CC3"/></svg>