<svg width="76" height="76" fill="none" xmlns="http://www.w3.org/2000/svg"><path d="M15.563 34.635c6.147 0 11.148-4.993 11.148-11.131 0-6.137-5-11.131-11.148-11.131-6.147 0-11.148 4.993-11.148 11.131 0 6.137 5 11.131 11.148 11.131zm-1.056-20.681v2.012a.76.76 0 101.52 0v-2.05c4.86.234 8.779 4.07 9.128 8.89h-2.288a.76.76 0 100 1.52h2.282c-.407 4.762-4.305 8.534-9.122 8.766v-1.926a.76.76 0 10-1.52 0v1.888c-4.543-.497-8.14-4.162-8.53-8.728h1.69a.76.76 0 100-1.52H5.97c.335-4.623 3.952-8.35 8.536-8.852z" fill="#007CC3"/><path d="M12.515 22.627l2.024 1.165a1.065 1.065 0 002.091-.289l-.002-.02 3.21-3.387a.76.76 0 10-1.103-1.044l-3.214 3.39a1.065 1.065 0 00-.222.033l-2.026-1.166a.763.763 0 00-1.038.28.762.762 0 00.28 1.038zm39.992 15.378v7.6h11.252l-4.75-7.6h-6.502zm1.52 6.08v-4.56h4.138l2.85 4.56h-6.988zm-25.161 9.909a2.313 2.313 0 00-2.312 2.31 2.313 2.313 0 004.624 0 2.313 2.313 0 00-2.312-2.31zm0 3.099a.792.792 0 01-.792-.789.792.792 0 011.584 0 .792.792 0 01-.792.789z" fill="#007CC3"/><path d="M71.507 49.185l-9.461-14.98h-12.58v-11.4H30.749c-.201-4.473-2.326-8.573-5.907-11.33a.76.76 0 10-.927 1.204c3.39 2.611 5.335 6.556 5.335 10.824 0 7.533-6.14 13.662-13.686 13.662-2.304 0-4.555-.581-6.56-1.675l.799-1.082-4.218-.477 1.696 3.891.813-1.101a15.186 15.186 0 006.438 1.93l-.026 16.075h7.49a7.02 7.02 0 00-.185 1.578c0 3.884 3.165 7.046 7.056 7.046 3.89 0 7.055-3.161 7.055-7.046a7.01 7.01 0 00-.184-1.578h16.837a7.015 7.015 0 00-.185 1.578c0 3.884 3.165 7.046 7.056 7.046s7.056-3.161 7.056-7.046a7.01 7.01 0 00-.184-1.578h5.19v-5.54zM28.867 61.83c-3.054 0-5.537-2.48-5.537-5.526 0-3.048 2.484-5.526 5.536-5.526 3.053 0 5.536 2.48 5.536 5.526 0 3.047-2.483 5.526-5.536 5.526zm0-12.572a7.057 7.057 0 00-6.328 3.948h-6.512v-14.53c.194-.006.413-.032.606-.045 7.611-.533 13.681-6.674 14.094-14.306h17.22v28.88H35.194a7.057 7.057 0 00-6.328-3.948zM59.446 61.83c-3.053 0-5.536-2.48-5.536-5.526 0-3.048 2.484-5.526 5.536-5.526 3.052 0 5.536 2.48 5.536 5.526 0 3.047-2.483 5.526-5.536 5.526zm10.54-8.624h-4.212a7.058 7.058 0 00-6.328-3.948c-2.777 0-5.177 1.614-6.328 3.948h-3.651v-17.48h11.741l8.779 13.9v3.58z" fill="#007CC3"/><path d="M59.446 53.994a2.313 2.313 0 00-2.312 2.31 2.313 2.313 0 004.624 0 2.314 2.314 0 00-2.312-2.31zm0 3.099a.792.792 0 01-.792-.789.792.792 0 011.584 0 .791.791 0 01-.792.789z" fill="#007CC3"/></svg>