<svg width="64" height="64" fill="none" xmlns="http://www.w3.org/2000/svg"><mask id="a" fill="#fff"><path fill-rule="evenodd" clip-rule="evenodd" d="M32 62.868a.503.503 0 01-.303-.102L12.936 48.507A12.567 12.567 0 018 38.557V7.506a.5.5 0 01.379-.485l23.5-5.875a.473.473 0 01.242 0l23.5 5.875a.5.5 0 01.379.485v31.048c0 3.882-1.845 7.602-4.936 9.951l-18.761 14.26a.51.51 0 01-.303.102zM9 16.5v22.056c0 3.572 1.698 6.994 4.542 9.155L32 61.741l18.459-14.03A11.562 11.562 0 0055 38.556V7.898l-23-5.75-23 5.75V16.5zm23 41.2a.503.503 0 01-.303-.102L16.129 45.765A10.515 10.515 0 0112 37.44V11.676a.5.5 0 01.379-.485l19.5-4.875a.473.473 0 01.242 0l19.5 4.875a.5.5 0 01.379.485V37.44c0 3.247-1.544 6.359-4.129 8.325L32.303 57.597a.503.503 0 01-.303.102zM13 12.067V37.44a9.51 9.51 0 003.735 7.529L32 56.571l15.266-11.602A9.513 9.513 0 0051 37.44V12.067l-19-4.75-19 4.75zM21.49 42a2.503 2.503 0 01-2.5-2.5v-12c0-1.378 1.122-2.5 2.5-2.5s2.5 1.122 2.5 2.5v12c0 1.378-1.121 2.5-2.5 2.5zm0-16c-.827 0-1.5.673-1.5 1.5v12c0 .827.673 1.5 1.5 1.5s1.5-.673 1.5-1.5v-12c0-.827-.673-1.5-1.5-1.5zm7.497 16h9.773a3.991 3.991 0 003.877-3.027l2.252-9.006a3.977 3.977 0 00-.728-3.429A3.971 3.971 0 0041.011 25H35.99v-5.5c0-1.93-1.57-3.5-3.5-3.5a.5.5 0 00-.474.342L29.13 25h-.143a4.001 4.001 0 00-3.997 3.997v9.006A4.001 4.001 0 0028.987 42zM25.99 28.997A3 3 0 0128.987 26h.503a.5.5 0 00.474-.342l2.878-8.633A2.504 2.504 0 0134.99 19.5v6a.5.5 0 00.5.5h5.522c.928 0 1.79.42 2.362 1.153.571.732.771 1.67.545 2.571l-2.252 9.005A2.993 2.993 0 0138.76 41h-9.773a3 3 0 01-2.997-2.997v-9.006z"/></mask><path fill-rule="evenodd" clip-rule="evenodd" d="M32 62.868a.503.503 0 01-.303-.102L12.936 48.507A12.567 12.567 0 018 38.557V7.506a.5.5 0 01.379-.485l23.5-5.875a.473.473 0 01.242 0l23.5 5.875a.5.5 0 01.379.485v31.048c0 3.882-1.845 7.602-4.936 9.951l-18.761 14.26a.51.51 0 01-.303.102zM9 16.5v22.056c0 3.572 1.698 6.994 4.542 9.155L32 61.741l18.459-14.03A11.562 11.562 0 0055 38.556V7.898l-23-5.75-23 5.75V16.5zm23 41.2a.503.503 0 01-.303-.102L16.129 45.765A10.515 10.515 0 0112 37.44V11.676a.5.5 0 01.379-.485l19.5-4.875a.473.473 0 01.242 0l19.5 4.875a.5.5 0 01.379.485V37.44c0 3.247-1.544 6.359-4.129 8.325L32.303 57.597a.503.503 0 01-.303.102zM13 12.067V37.44a9.51 9.51 0 003.735 7.529L32 56.571l15.266-11.602A9.513 9.513 0 0051 37.44V12.067l-19-4.75-19 4.75zM21.49 42a2.503 2.503 0 01-2.5-2.5v-12c0-1.378 1.122-2.5 2.5-2.5s2.5 1.122 2.5 2.5v12c0 1.378-1.121 2.5-2.5 2.5zm0-16c-.827 0-1.5.673-1.5 1.5v12c0 .827.673 1.5 1.5 1.5s1.5-.673 1.5-1.5v-12c0-.827-.673-1.5-1.5-1.5zm7.497 16h9.773a3.991 3.991 0 003.877-3.027l2.252-9.006a3.977 3.977 0 00-.728-3.429A3.971 3.971 0 0041.011 25H35.99v-5.5c0-1.93-1.57-3.5-3.5-3.5a.5.5 0 00-.474.342L29.13 25h-.143a4.001 4.001 0 00-3.997 3.997v9.006A4.001 4.001 0 0028.987 42zM25.99 28.997A3 3 0 0128.987 26h.503a.5.5 0 00.474-.342l2.878-8.633A2.504 2.504 0 0134.99 19.5v6a.5.5 0 00.5.5h5.522c.928 0 1.79.42 2.362 1.153.571.732.771 1.67.545 2.571l-2.252 9.005A2.993 2.993 0 0138.76 41h-9.773a3 3 0 01-2.997-2.997v-9.006z" fill="#007CC3"/><path d="M31.697 62.766l-.06.08.06-.08zM12.936 48.507l.06-.08-.06.08zM8.379 7.022l-.024-.097.024.097zm23.5-5.875l.024.097h.002l-.026-.097zm.242 0l-.026.097h.002l.024-.097zm23.5 5.875l.024-.097-.024.097zm-4.557 41.484l-.06-.08.06.08zm-18.761 14.26l.06.08-.06-.08zM13.542 47.711l.06-.08-.06.08zM32 61.741l-.06.079.06.046.06-.046-.06-.08zm18.459-14.03l-.06-.08.06.08zM55 7.898h.1V7.82l-.076-.019-.024.097zm-23-5.75l.024-.097L32 2.045l-.024.006.024.097zM9 7.898l-.024-.097-.076.019v.078H9zm22.697 49.699l-.06.08.06-.08zM16.129 45.765l-.06.08.06-.08zm-3.75-34.574l-.024-.097.024.097zm19.5-4.875l.024.097h.002l-.026-.097zm.242 0l-.026.097h.002l.024-.097zm19.5 4.875l.024-.097-.024.097zm-3.75 34.574l.06.08-.06-.08zM32.303 57.597l.06.08-.06-.08zM13 12.067l-.024-.097-.076.019v.078h.1zm3.735 32.902l-.06.08.06-.08zM32 56.571l-.06.08.06.046.06-.046-.06-.08zm15.266-11.602l.06.08-.06-.08zM51 12.067h.1v-.078l-.076-.019-.024.097zm-19-4.75l.024-.097L32 7.214l-.024.006.024.097zm10.637 31.656l.097.024-.097-.024zm2.252-9.006l.097.024-.097-.024zm-.728-3.429l-.079.062.079-.062zM35.99 25h-.1v.1h.1V25zm-3.974-8.658l.095.032-.095-.032zM29.13 25v.1h.072l.023-.068L29.13 25zm.834.658l-.095-.032.095.032zm2.878-8.633l.014-.099-.083-.012-.026.08.095.031zm10.532 10.128l.079-.061-.079.061zm.545 2.571l-.097-.024.097.024zm-2.252 9.005l-.097-.024.097.024zm-10.03 24.117a.603.603 0 00.363.122v-.2a.403.403 0 01-.243-.082l-.12.16zm-18.762-14.26l18.762 14.26.12-.16-18.76-14.258-.121.159zM7.9 38.557c0 3.913 1.86 7.663 4.976 10.03l.12-.158A12.467 12.467 0 018.1 38.556h-.2zm0-17.056v17.056h.2V21.5h-.2zm0-5v5h.2v-5h-.2zm0-3v3h.2v-3h-.2zm0-.78v.78h.2v-.78h-.2zm0-5.213v5.213h.2V7.507h-.2zm.455-.582a.6.6 0 00-.455.582h.2a.4.4 0 01.303-.388l-.048-.194zm23.5-5.875l-23.5 5.875.048.194 23.5-5.875-.048-.194zm.292 0a.573.573 0 00-.294 0l.052.194a.373.373 0 01.19 0l.052-.194zm23.498 5.875l-23.5-5.875-.048.194 23.5 5.875.048-.194zm.455.582a.6.6 0 00-.455-.582l-.048.194a.4.4 0 01.303.388h.2zm0 31.048V7.507h-.2v31.048h.2zm-4.976 10.03a12.667 12.667 0 004.976-10.03h-.2c0 3.85-1.83 7.541-4.896 9.871l.12.16zm-18.76 14.26l18.76-14.26-.12-.159-18.761 14.26.12.16zm-.364.123a.609.609 0 00.363-.122l-.12-.16a.41.41 0 01-.243.082v.2zM9.1 21.5v-5h-.2v5h.2zm0 11.028V21.5h-.2v11.028h.2zm0 6.028v-6.028h-.2v6.028h.2zm4.502 9.076A11.461 11.461 0 019.1 38.556h-.2c0 3.603 1.713 7.055 4.582 9.235l.12-.16zM32.06 61.66L13.602 47.63l-.12.16 18.457 14.03.121-.16zm18.338-14.03L31.94 61.662l.121.159 18.46-14.03-.122-.158zm4.502-9.075c0 3.54-1.682 6.933-4.502 9.076l.121.159a11.662 11.662 0 004.581-9.235h-.2zm0-30.658v30.658h.2V7.898h-.2zM31.976 2.245l23 5.75.048-.194-23-5.75-.048.194zM9.024 7.995l23-5.75-.048-.194-23 5.75.048.194zM9.1 12.72V7.898h-.2v4.822h.2zm0 .78v-.78h-.2v.78h.2zm0 3v-3h-.2v3h.2zm22.537 41.177a.603.603 0 00.363.122v-.2a.403.403 0 01-.243-.082l-.12.16zM16.068 45.845l15.569 11.832.12-.16L16.19 45.685l-.12.16zM11.9 37.44c0 3.28 1.559 6.42 4.168 8.405l.121-.16A10.415 10.415 0 0112.1 37.44h-.2zm0-25.764V37.44h.2V11.676h-.2zm.455-.582a.6.6 0 00-.455.582h.2a.4.4 0 01.303-.388l-.048-.194zm19.5-4.875l-19.5 4.875.048.194 19.5-4.875-.048-.194zm.292 0a.573.573 0 00-.294 0l.052.194a.373.373 0 01.19 0l.052-.194zm19.498 4.875l-19.5-4.875-.048.194 19.5 4.875.048-.194zm.455.582a.6.6 0 00-.455-.582l-.048.194a.4.4 0 01.303.388h.2zm0 25.764V11.676h-.2V37.44h.2zm-4.169 8.405A10.618 10.618 0 0052.1 37.44h-.2c0 3.216-1.53 6.298-4.09 8.245l.121.16zM32.364 57.677l15.568-11.832-.122-.16-15.568 11.832.122.16zm-.364.122c.127 0 .256-.04.363-.122l-.12-.16A.403.403 0 0132 57.6v.2zM13.1 37.44V12.067h-.2V37.44h.2zm3.696 7.45a9.41 9.41 0 01-3.696-7.45h-.2a9.61 9.61 0 003.774 7.609l.122-.16zm15.264 11.6l-15.265-11.6-.12.16 15.263 11.6.121-.16zm15.146-11.6L31.94 56.491l.12.16 15.267-11.602-.121-.16zm3.694-7.45a9.413 9.413 0 01-3.694 7.45l.12.159A9.613 9.613 0 0051.1 37.44h-.2zm0-25.373V37.44h.2V12.067h-.2zM31.976 7.414l19 4.75.048-.194-19-4.75-.048.194zm-18.952 4.75l19-4.75-.048-.194-19 4.75.048.194zM18.89 39.5c0 1.433 1.167 2.6 2.6 2.6v-.2a2.404 2.404 0 01-2.4-2.4h-.2zm0-12v12h.2v-12h-.2zm2.6-2.6a2.603 2.603 0 00-2.6 2.6h.2c0-1.323 1.077-2.4 2.4-2.4v-.2zm2.6 2.6c0-1.433-1.167-2.6-2.6-2.6v.2c1.323 0 2.4 1.077 2.4 2.4h.2zm0 12v-12h-.2v12h.2zm-2.6 2.6c1.434 0 2.6-1.167 2.6-2.6h-.2c0 1.323-1.076 2.4-2.4 2.4v.2zm-1.4-14.6c0-.772.628-1.4 1.4-1.4v-.2c-.882 0-1.6.718-1.6 1.6h.2zm0 12v-12h-.2v12h.2zm1.4 1.4c-.772 0-1.4-.628-1.4-1.4h-.2c0 .882.718 1.6 1.6 1.6v-.2zm1.4-1.4c0 .772-.628 1.4-1.4 1.4v.2c.882 0 1.6-.718 1.6-1.6h-.2zm0-12v12h.2v-12h-.2zm-1.4-1.4c.772 0 1.4.628 1.4 1.4h.2c0-.882-.718-1.6-1.6-1.6v.2zm17.27 15.8h-9.773v.2h9.773v-.2zm3.78-2.951a3.891 3.891 0 01-3.78 2.951v.2a4.091 4.091 0 003.974-3.103l-.194-.048zm2.252-9.006l-2.252 9.006.194.048 2.252-9.006-.194-.048zm-.71-3.343a3.877 3.877 0 01.71 3.343l.194.048a4.077 4.077 0 00-.746-3.514l-.158.123zm-3.071-1.5a3.87 3.87 0 013.071 1.5l.158-.123a4.071 4.071 0 00-3.23-1.577v.2zm-5.021 0h5.021v-.2H35.99v.2zm-.1-5.6V25h.2v-5.5h-.2zm-3.4-3.4c1.875 0 3.4 1.525 3.4 3.4h.2c0-1.985-1.615-3.6-3.6-3.6v.2zm-.38.274a.4.4 0 01.38-.274v-.2a.6.6 0 00-.569.41l.19.064zm-2.885 8.658l2.886-8.658-.19-.064-2.886 8.658.19.064zm-.238.068h.143v-.2h-.143v.2zm-3.897 3.897a3.901 3.901 0 013.897-3.897v-.2a4.101 4.101 0 00-4.097 4.097h.2zm0 9.006v-9.006h-.2v9.006h.2zm3.897 3.897a3.901 3.901 0 01-3.897-3.897h-.2a4.102 4.102 0 004.097 4.097v-.2zm0-16a3.1 3.1 0 00-3.097 3.097h.2a2.9 2.9 0 012.897-2.897v-.2zm.503 0h-.503v.2h.503v-.2zm.38-.274a.4.4 0 01-.38.274v.2a.6.6 0 00.569-.41l-.19-.064zm2.877-8.633l-2.878 8.633.19.064 2.878-8.633-.19-.064zM35.09 19.5c0-1.31-.973-2.396-2.234-2.574l-.028.198A2.404 2.404 0 0134.89 19.5h.2zm0 6v-6h-.2v6h.2zm.4.4a.4.4 0 01-.4-.4h-.2a.6.6 0 00.6.6v-.2zm5.522 0H35.49v.2h5.522v-.2zm2.44 1.192a3.078 3.078 0 00-2.44-1.192v.2c.897 0 1.73.406 2.283 1.115l.158-.123zm.564 2.656c.233-.93.027-1.9-.563-2.657l-.158.124a2.88 2.88 0 01.527 2.485l.194.048zm-2.252 9.005l2.252-9.005-.194-.048-2.252 9.005.194.048zM38.76 41.1a3.093 3.093 0 003.004-2.347l-.194-.048a2.893 2.893 0 01-2.81 2.195v.2zm-9.773 0h9.773v-.2h-9.773v.2zm-3.097-3.097a3.1 3.1 0 003.097 3.097v-.2a2.9 2.9 0 01-2.897-2.897h-.2zm0-9.006v9.006h.2v-9.006h-.2z" fill="#fff" mask="url(#a)"/></svg>