<svg width="20" height="20" fill="none" xmlns="http://www.w3.org/2000/svg"><path d="M10.792 18.628h1.456c.652 0 1.292-.008 1.928-.184 1.824-.508 3.288-2.088 3.596-3.968.072-.444.08-.88.08-1.324V8.52a7.933 7.933 0 00-2.216-5.496A7.908 7.908 0 009.768.636 7.917 7.917 0 004.684 2.7C3.3 3.96 2.432 5.696 2.196 7.548c-.12.944-.06 1.916-.06 2.864v3.556c0 .312.276.616.6.6.324-.016.6-.264.6-.6V8.696c0-.256 0-.508.02-.764.008-.092.016-.184.028-.276 0-.016.028-.196.008-.06l.024-.164a7.169 7.169 0 01.328-1.252c.036-.1.076-.2.116-.3-.052.124.016-.036.024-.052.02-.048.044-.096.068-.144.18-.38.396-.744.636-1.088l.092-.128c.008-.012.116-.148.032-.044a7.762 7.762 0 01.628-.704 5.838 5.838 0 01.592-.52c-.02.016-.088.064.004-.004.1-.072.196-.144.3-.212a7.27 7.27 0 011.104-.616c.012-.008.176-.076.052-.024l.148-.06c.084-.032.168-.064.252-.092.22-.076.444-.14.672-.196.196-.048.392-.08.588-.116.18-.032-.124.012.06-.008.056-.008.108-.012.164-.02a7.248 7.248 0 011.808.048c.504.088.992.228 1.468.416.116.044.056.024.032.012l.172.076a7.558 7.558 0 011.004.568 6.734 6.734 0 012.256 2.636c.12.244.16.34.256.612a7.684 7.684 0 01.284 1.048 3.2 3.2 0 01.032.192c.008.044.012.084.02.128-.008-.052-.004-.04.004.036.104.952.048 1.936.048 2.892v2.992c0 .212-.008.424-.036.632.016-.136-.008.04-.012.056-.008.052-.02.108-.032.16-.024.104-.048.212-.08.312a3.185 3.185 0 01-.084.256c-.02.052-.036.1-.056.148.048-.124-.036.08-.044.1a4.664 4.664 0 01-.464.768c.08-.108-.028.032-.036.044l-.136.16c-.136.148-.28.288-.432.416l-.1.084c.104-.084-.032.024-.048.032a4.482 4.482 0 01-.824.464 2.274 2.274 0 01-.208.072c-.12.04-.24.076-.36.104-.104.024-.212.044-.32.064-.116.02-.028.004-.004.004a5.007 5.007 0 01-.588.032H10.8c-.312 0-.616.276-.6.6.008.336.256.612.592.612z" fill="#007CC3"/><path d="M4.276 14.168H3.88c-.04 0-.216-.024-.092 0-.032-.008-.068-.02-.104-.024-.152-.024.052.032-.028-.004-.036-.016-.208-.136-.116-.06a1.954 1.954 0 01-.092-.088c-.024-.024-.084-.112-.02-.016-.02-.028-.036-.056-.056-.088-.024-.04-.052-.144-.024-.048l-.036-.128c-.024-.092-.004.136-.004-.028V10.22c0-.028 0-.056.004-.084-.008.072-.008.072.004 0 .012-.032.02-.068.028-.1-.032.108-.008.008.012-.024.024-.036.044-.076.068-.112-.016.024-.076.076.004 0 .032-.028.06-.06.092-.088.068-.06-.112.056.024-.012.032-.016.06-.036.092-.052.108-.06-.064.004.052-.016-.004 0 .168-.036.076-.02-.088.016.084-.004.084-.004h.416c.044 0 .084 0 .128.004-.168-.016.2.076.056.012.04.016.076.04.116.06.028.016.116.084.024.012.028.02.052.044.076.068.032.032.092.12.036.036.024.036.044.072.068.112.02.032.044.132.012.024l.028.1c.048.144.008-.06.008.028 0 .044.004.088.004.132v3.336s-.016.172-.004.084c.012-.068-.032.108-.036.128.008-.024.056-.1 0 0a2.322 2.322 0 01-.08.132c.064-.096.004-.004-.02.016-.012.012-.128.112-.072.072.068-.052-.068.04-.068.04-.028.016-.16.06-.048.024l-.1.028c-.068.012-.068.016 0 .004-.044.004-.08.008-.116.008-.312.008-.616.272-.6.6.016.32.264.608.6.6a1.77 1.77 0 001.74-1.748c.008-.356 0-.716 0-1.076v-1.636c0-.388.04-.82-.084-1.192A1.74 1.74 0 005 8.668c-.348-.152-.692-.16-1.064-.16-.948 0-1.748.66-1.824 1.628-.024.324-.004.652-.004.976V12.8c0 .432-.056.94.084 1.36a1.78 1.78 0 001.128 1.128c.308.104.64.084.96.084.312 0 .616-.276.6-.6-.016-.328-.268-.604-.604-.604zm11.756-.076h-.272c-.048 0-.096-.004-.144-.004.112.004.028.004 0-.004l-.152-.044c.112.04.008.004-.02-.016-.036-.024-.072-.044-.108-.068.1.068-.06-.064-.088-.096-.06-.068.06.116-.016-.02l-.052-.088c-.056-.088-.012-.028-.004 0-.016-.048-.028-.1-.044-.152-.044-.144-.008.06-.004-.028l-.004-.084v-3.316c0-.116 0-.028-.004 0 .012-.052.028-.104.04-.152.036-.152-.036.056.008-.024l.064-.112c.052-.092.016-.024-.004-.004.028-.032.06-.06.088-.092.024-.024.112-.088.016-.02.028-.02.056-.04.088-.056.028-.016.06-.032.092-.048-.116.056.024-.004.052-.012 0 0 .168-.032.076-.02-.092.012.084 0 .084 0h.096c.108 0 .212-.004.32.004-.12-.008-.008 0 .024.012.04.012.084.024.124.04-.112-.04.072.048.108.068.076.048-.088-.096.02.016l.072.072c.076.072.02.024.004 0 .028.044.052.088.08.132.084.132-.016-.064.012.024l.036.128c.032.104.008.028.004 0a.975.975 0 01.004.108v3.256c0 .032-.024.192.004.06l-.024.104c-.012.04-.06.144-.012.052-.02.04-.04.076-.06.112a.362.362 0 01-.028.044c-.028.032-.06.06-.088.092-.08.084.068-.028-.04.032l-.088.052c-.108.068.068-.008-.048.02-.036.008-.092.016-.128.032-.044.008-.036.008.028 0h-.112c-.312.008-.616.272-.6.6.016.32.264.608.6.6a1.83 1.83 0 001.8-1.8c.004-.316 0-.636 0-.952v-1.6c0-.372.032-.768-.052-1.136a1.814 1.814 0 00-.816-1.112c-.344-.212-.728-.26-1.124-.26-.392 0-.78.076-1.112.3a1.8 1.8 0 00-.768 1.148c-.064.356-.036.732-.036 1.092v1.64c0 .424-.044.888.052 1.308.112.496.476.952.932 1.176.364.18.732.196 1.124.196.312 0 .616-.276.6-.6-.016-.324-.264-.6-.6-.6zm-5.84 3.9c0 .016-.008.12 0 .024 0 .004-.032.092-.008.04s-.02.036-.024.036c.06-.068-.008.008-.016.016 0 0-.076.064-.032.028.052-.044-.084.036-.024.012.052-.024-.04.008-.04.008.068-.004.008 0-.024 0H9.72c-.284 0-.572.016-.856 0 .132.008-.08-.04-.024-.012.08.036-.116-.076-.044-.032.068.044-.044-.072 0 0 .04.064-.012-.024-.016-.02-.008.004-.056-.128-.008.004-.012-.032-.02-.068-.028-.1.008.028 0 .112.004 0 0 0 .008-.104 0-.044-.004.056.012-.036.016-.04-.056.072.008-.012.016-.02-.072.084.096-.088.048-.044-.044.036.036-.016.04-.016-.064.012-.004 0 .024-.004-.088.008.04 0 .068 0h.72c.12 0 .248.012.368 0 .088-.008-.084-.024 0 0 .012.004.112.04.052.012-.068-.032.02.016.02.016.048.032.056.04.024.016-.028-.02-.028-.02-.004.004.048.048-.004-.016-.012-.024 0 0 .076.132.044.064-.032-.072.012.028.008.024.012.06.016.068.008.024.004-.048.004-.036.004.028.012.312.268.616.6.6.316-.016.612-.264.6-.6a1.4 1.4 0 00-.664-1.172c-.256-.156-.544-.196-.836-.196-.436 0-.956-.068-1.38.06C7.48 17 7.22 18.392 8.064 19.06c.46.364 1.016.304 1.56.304.244 0 .504.02.74-.044.612-.16 1-.704 1.024-1.324.012-.312-.284-.616-.6-.6a.603.603 0 00-.596.596z" fill="#007CC3"/></svg>