<svg width="48" height="48" fill="none" xmlns="http://www.w3.org/2000/svg"><path fill-rule="evenodd" clip-rule="evenodd" d="M44.64 44.16c0 .126-.052.25-.14.34a.485.485 0 01-.34.14H3.84a.486.486 0 01-.34-.14.486.486 0 01-.14-.34V3.84c0-.126.052-.25.14-.34a.486.486 0 01.34-.14h40.32c.126 0 .25.052.34.14.088.09.14.214.14.34v40.32zm-.96-.48v-19.2H4.32v19.2h39.36zm0-20.16V4.32H4.32v19.2h39.36z" fill="#007CC3"/><path fill-rule="evenodd" clip-rule="evenodd" d="M35.733 34.574a.483.483 0 01-.146.346l-5.553 5.37a.48.48 0 11-.668-.69l4.7-4.545h-21.32a.494.494 0 01-.343-.139.486.486 0 01-.143-.341c0-.127.053-.253.143-.342a.486.486 0 01.344-.138h21.319l-4.699-4.541a.485.485 0 01-.15-.338.486.486 0 01.134-.345.485.485 0 01.34-.146c.127 0 .253.05.343.138l5.553 5.367a.486.486 0 01.146.344zm.007-21.146a.486.486 0 01-.146.337.486.486 0 01-.34.136h-21.32l4.699 4.546c.093.086.15.211.153.338a.486.486 0 01-.135.347.486.486 0 01-.342.146.486.486 0 01-.343-.141l-5.553-5.371a.481.481 0 010-.69l5.553-5.367a.486.486 0 01.343-.14.486.486 0 01.342.146.488.488 0 01.135.346.486.486 0 01-.153.339l-4.699 4.54h21.32a.48.48 0 01.486.488z" fill="#007CC3"/></svg>