<svg width="40" height="40" fill="none" xmlns="http://www.w3.org/2000/svg"><path d="M4.346 14.386h31.846a.346.346 0 00.185-.64l-14.949-9.41a2.161 2.161 0 00-2.317 0l-14.95 9.41a.347.347 0 00.185.64zm30.647-.692H5.546L19.48 4.923a1.47 1.47 0 011.579 0l13.934 8.77zM4.346 36.54h31.847a.346.346 0 00.346-.346v-1.385c0-.954-.776-1.73-1.73-1.73H5.73c-.955 0-1.73.776-1.73 1.73v1.385c0 .191.154.346.345.346zm31.501-.693H4.692V34.81a1.04 1.04 0 011.039-1.038h29.078a1.04 1.04 0 011.038 1.038v1.038z" fill="#007CC3"/><path d="M34.115 33.77a.346.346 0 00.347-.346V14.04a.346.346 0 10-.693 0v19.384c0 .192.155.347.346.347zm-2.769 0a.346.346 0 00.346-.346V14.04a.346.346 0 10-.692 0v19.384c0 .192.155.347.346.347zm-22.154 0a.346.346 0 00.347-.346V14.04a.346.346 0 10-.693 0v19.384c0 .192.155.347.346.347zm-2.769 0a.346.346 0 00.346-.346V14.04a.346.346 0 10-.692 0v19.384c0 .192.155.347.346.347zm18 0a.346.346 0 00.346-.346V14.04a.346.346 0 10-.692 0v19.384c0 .192.155.347.346.347zm-8.307 0a.346.346 0 00.346-.346V14.04a.346.346 0 10-.693 0v19.384c0 .192.155.347.347.347zm4.154-22.846c.954 0 1.73-.776 1.73-1.73a1.732 1.732 0 00-3.462-.001c0 .955.777 1.731 1.731 1.731zm0-2.769a1.04 1.04 0 011.038 1.039 1.04 1.04 0 11-1.04-1.038z" fill="#007CC3"/></svg>