<svg width="64" height="64" fill="none" xmlns="http://www.w3.org/2000/svg"><path d="M5 11.52a.661.661 0 00-.52.64v33.28c0 .335.305.64.64.64h4.52c.325 3.581 3.335 6.4 7 6.4s6.676-2.819 7-6.4h16.72c.323 3.581 3.334 6.4 7 6.4 3.664 0 6.674-2.819 7-6.4h4.519c.335 0 .64-.305.64-.64V31.36a.642.642 0 00-.04-.26l-4.48-10.88a.656.656 0 00-.6-.38H42.88v-7.68a.665.665 0 00-.64-.64H5zm.76 1.28H41.6v28.54a.628.628 0 000 .08 6.943 6.943 0 00-1.24 3.38H23.64c-.324-3.583-3.335-6.4-7-6.4s-6.675 2.817-7 6.4H5.76v-32zm37.12 8.32h11.08l4.28 10.38v13.3h-3.88c-.326-3.583-3.336-6.4-7-6.4a7.019 7.019 0 00-4.48 1.62v-18.9zM46.6 32a.668.668 0 00-.58.7.668.668 0 00.7.58h2.56a.664.664 0 00.647-.64.665.665 0 00-.648-.64h-2.56a.377.377 0 00-.12 0zm-29.96 7.68a5.75 5.75 0 015.76 5.76 5.75 5.75 0 01-5.76 5.76 5.75 5.75 0 01-5.76-5.76 5.75 5.75 0 015.76-5.76zm30.72 0a5.75 5.75 0 015.76 5.76 5.75 5.75 0 01-5.76 5.76 5.75 5.75 0 01-5.76-5.76 5.75 5.75 0 015.76-5.76zm-30.72 2.56a3.21 3.21 0 00-3.2 3.2c0 1.76 1.44 3.2 3.2 3.2 1.76 0 3.2-1.44 3.2-3.2 0-1.76-1.44-3.2-3.2-3.2zm30.72 0a3.21 3.21 0 00-3.2 3.2c0 1.76 1.44 3.2 3.2 3.2a3.21 3.21 0 003.2-3.2 3.21 3.21 0 00-3.2-3.2zm-30.72 1.28a1.91 1.91 0 011.92 1.92 1.91 1.91 0 01-1.92 1.92 1.91 1.91 0 01-1.92-1.92 1.91 1.91 0 011.92-1.92zm30.72 0a1.91 1.91 0 011.92 1.92 1.91 1.91 0 01-1.92 1.92 1.91 1.91 0 01-1.92-1.92 1.91 1.91 0 011.92-1.92z" fill="#007CC3"/></svg>