<svg width="64" height="64" fill="none" xmlns="http://www.w3.org/2000/svg"><path d="M52.67 40.833V1.519c0-.601-.49-1.09-1.09-1.09H1.518A1.089 1.089 0 00.43 1.518v50.065c0 .6.488 1.085 1.088 1.085h39.314c.253 6.054 5.242 10.903 11.357 10.903 6.276 0 11.382-5.106 11.382-11.382 0-6.114-4.85-11.103-10.902-11.357zM31.14 1.388v16.03l-4.259-4.086a.481.481 0 00-.665 0l-4.254 4.086V1.388h9.178zM1.39 51.584V1.52a.13.13 0 01.128-.13h19.485v17.156a.48.48 0 00.813.346l4.733-4.547 4.739 4.547a.48.48 0 00.812-.346V1.388h19.48a.13.13 0 01.13.13v39.315c-5.893.247-10.63 4.985-10.878 10.877H27.029V41.65a.48.48 0 00-.96 0v10.06H1.52a.126.126 0 01-.13-.126zm50.8 11.028c-5.747 0-10.423-4.675-10.423-10.422 0-5.746 4.675-10.422 10.422-10.422 5.747 0 10.422 4.676 10.422 10.422 0 5.747-4.675 10.422-10.422 10.422z" fill="#007CC3"/><path d="M52.189 45.444c-1.557 0-2.968 1.026-3.684 2.678-.494 1.138-1.714 5.271 3.333 10.663.004.004.009.005.013.009.004.004.005.01.01.013.029.027.063.042.096.06.017.011.033.025.051.033.058.023.12.037.18.037a.496.496 0 00.181-.037c.018-.008.034-.022.051-.032.033-.019.067-.034.096-.061.005-.004.006-.01.01-.013.004-.004.01-.005.013-.01 5.047-5.39 3.827-9.524 3.333-10.662-.716-1.652-2.127-2.678-3.683-2.678zm0 12.286c-4.224-4.76-3.227-8.252-2.804-9.227.562-1.295 1.636-2.1 2.804-2.1 1.167 0 2.242.805 2.803 2.1.423.976 1.42 4.468-2.803 9.227z" fill="#007CC3"/><path d="M52.189 47.576a2.136 2.136 0 00-2.134 2.133c0 1.176.958 2.133 2.134 2.133a2.136 2.136 0 002.134-2.133 2.136 2.136 0 00-2.134-2.133zm0 3.306a1.174 1.174 0 110-2.344 1.174 1.174 0 010 2.344z" fill="#007CC3"/></svg>