<svg width="64" height="64" fill="none" xmlns="http://www.w3.org/2000/svg"><mask id="a" fill="#fff"><path fill-rule="evenodd" clip-rule="evenodd" d="M47.056 7.794A28.584 28.584 0 0030.85 3.525a28.623 28.623 0 00-13.83 4.228.736.736 0 00-.076.04 28.94 28.94 0 00-9.15 9.15.53.53 0 00-.056.125c-1.3 2.1-2.33 4.37-3.044 6.757a28.682 28.682 0 00.075 16.606A28.2 28.2 0 007.73 46.94a.535.535 0 00.057.124 28.94 28.94 0 009.15 9.15.524.524 0 00.065.034 28.643 28.643 0 0014.147 4.247c5.65.169 11.319-1.369 16.094-4.4a28.666 28.666 0 006.331-5.479 28.82 28.82 0 002.648-3.593.537.537 0 00.011-.024 28.532 28.532 0 002.41-4.848c2.019-5.269 2.394-11.131 1.119-16.625a28.326 28.326 0 00-4.001-9.262 28.467 28.467 0 00-5.056-5.763c-1.15-1-2.368-1.9-3.65-2.706zm-1.324.662a27.63 27.63 0 00-2.844-1.45c-4.92-2.156-10.52-2.787-15.8-1.812a27.33 27.33 0 00-8.805 3.27l.605.605 5.168 5.168 2.953 2.954a15.615 15.615 0 016.01-.785 15.715 15.715 0 013.97.792l.905-.904 5.169-5.169 2.669-2.669zm-7.907 10.403a14.545 14.545 0 016.415 5.616 14.482 14.482 0 011.923 5.05 14.338 14.338 0 01-.682 7.469c-1.254 3.398-3.818 6.234-7.042 7.861a14.554 14.554 0 01-7.701 1.463 14.529 14.529 0 01-7.15-2.69c-2.406-1.752-4.274-4.234-5.233-7.109a14.528 14.528 0 01-.186-8.425 14.31 14.31 0 012.821-5.325 14.592 14.592 0 013.856-3.237c3.929-2.239 8.823-2.494 12.979-.673zm8.986 8.143l2.945-2.946 5.17-5.168.621-.623a26.593 26.593 0 011.853 3.829c1.944 5.025 2.381 10.594 1.2 15.856a27.25 27.25 0 01-3.07 7.787l-2.661-2.662-5.169-5.169-.896-.896a15.744 15.744 0 00.007-10.008zm3.29-15.37a27.61 27.61 0 014.768 5.542l-2.875 2.876-5.169 5.169-.51.51a15.648 15.648 0 00-4.465-5.86 15.812 15.812 0 00-3.585-2.177l2.566-2.567 5.17-5.169.825-.825a27.56 27.56 0 013.275 2.502zM9.134 46.823a27.65 27.65 0 008.04 8.047l.82-.819 5.169-5.169 2.558-2.557a15.663 15.663 0 01-5.552-4.099 15.634 15.634 0 01-2.484-3.954l-.516.517L12 43.956l-2.866 2.866zm10.185 9.31a27.146 27.146 0 01-1.056-.589l2.662-2.662 5.169-5.168.896-.897c.34.115.682.218 1.029.31 2.936.763 6.1.661 8.976-.312l2.949 2.949 5.169 5.168.616.617A27.19 27.19 0 0135 59.093c-5.381.581-10.887-.438-15.681-2.963zM16.45 33.587c.123 1.168.374 2.311.745 3.411l-2.957 2.957-5.17 5.17-.607.607a27.09 27.09 0 01-1.092-2.058 27.333 27.333 0 01-2.325-15.7 27.437 27.437 0 013.42-9.704l2.661 2.66 5.169 5.169.9.9a15.608 15.608 0 00-.744 6.588zM54.864 46.82a27.533 27.533 0 01-2.498 3.283 27.531 27.531 0 01-5.54 4.766l-2.876-2.875-5.169-5.169-.51-.51a15.828 15.828 0 00.998-.484 15.68 15.68 0 006.525-6.48c.188-.354.36-.715.52-1.081l2.561 2.561 5.169 5.17.82.819zM15.125 23.169l2.56 2.56c.06-.137.122-.273.186-.409 1.272-2.718 3.37-5.039 5.917-6.62.62-.384 1.27-.723 1.94-1.016l-.51-.509-5.168-5.169-2.866-2.866a27.341 27.341 0 00-4.809 3.96 26.97 26.97 0 00-3.24 4.08l.821.82 5.17 5.169z"/></mask><path fill-rule="evenodd" clip-rule="evenodd" d="M47.056 7.794A28.584 28.584 0 0030.85 3.525a28.623 28.623 0 00-13.83 4.228.736.736 0 00-.076.04 28.94 28.94 0 00-9.15 9.15.53.53 0 00-.056.125c-1.3 2.1-2.33 4.37-3.044 6.757a28.682 28.682 0 00.075 16.606A28.2 28.2 0 007.73 46.94a.535.535 0 00.057.124 28.94 28.94 0 009.15 9.15.524.524 0 00.065.034 28.643 28.643 0 0014.147 4.247c5.65.169 11.319-1.369 16.094-4.4a28.666 28.666 0 006.331-5.479 28.82 28.82 0 002.648-3.593.537.537 0 00.011-.024 28.532 28.532 0 002.41-4.848c2.019-5.269 2.394-11.131 1.119-16.625a28.326 28.326 0 00-4.001-9.262 28.467 28.467 0 00-5.056-5.763c-1.15-1-2.368-1.9-3.65-2.706zm-1.324.662a27.63 27.63 0 00-2.844-1.45c-4.92-2.156-10.52-2.787-15.8-1.812a27.33 27.33 0 00-8.805 3.27l.605.605 5.168 5.168 2.953 2.954a15.615 15.615 0 016.01-.785 15.715 15.715 0 013.97.792l.905-.904 5.169-5.169 2.669-2.669zm-7.907 10.403a14.545 14.545 0 016.415 5.616 14.482 14.482 0 011.923 5.05 14.338 14.338 0 01-.682 7.469c-1.254 3.398-3.818 6.234-7.042 7.861a14.554 14.554 0 01-7.701 1.463 14.529 14.529 0 01-7.15-2.69c-2.406-1.752-4.274-4.234-5.233-7.109a14.528 14.528 0 01-.186-8.425 14.31 14.31 0 012.821-5.325 14.592 14.592 0 013.856-3.237c3.929-2.239 8.823-2.494 12.979-.673zm8.986 8.143l2.945-2.946 5.17-5.168.621-.623a26.593 26.593 0 011.853 3.829c1.944 5.025 2.381 10.594 1.2 15.856a27.25 27.25 0 01-3.07 7.787l-2.661-2.662-5.169-5.169-.896-.896a15.744 15.744 0 00.007-10.008zm3.29-15.37a27.61 27.61 0 014.768 5.542l-2.875 2.876-5.169 5.169-.51.51a15.648 15.648 0 00-4.465-5.86 15.812 15.812 0 00-3.585-2.177l2.566-2.567 5.17-5.169.825-.825a27.56 27.56 0 013.275 2.502zM9.134 46.823a27.65 27.65 0 008.04 8.047l.82-.819 5.169-5.169 2.558-2.557a15.663 15.663 0 01-5.552-4.099 15.634 15.634 0 01-2.484-3.954l-.516.517L12 43.956l-2.866 2.866zm10.185 9.31a27.146 27.146 0 01-1.056-.589l2.662-2.662 5.169-5.168.896-.897c.34.115.682.218 1.029.31 2.936.763 6.1.661 8.976-.312l2.949 2.949 5.169 5.168.616.617A27.19 27.19 0 0135 59.093c-5.381.581-10.887-.438-15.681-2.963zM16.45 33.587c.123 1.168.374 2.311.745 3.411l-2.957 2.957-5.17 5.17-.607.607a27.09 27.09 0 01-1.092-2.058 27.333 27.333 0 01-2.325-15.7 27.437 27.437 0 013.42-9.704l2.661 2.66 5.169 5.169.9.9a15.608 15.608 0 00-.744 6.588zM54.864 46.82a27.533 27.533 0 01-2.498 3.283 27.531 27.531 0 01-5.54 4.766l-2.876-2.875-5.169-5.169-.51-.51a15.828 15.828 0 00.998-.484 15.68 15.68 0 006.525-6.48c.188-.354.36-.715.52-1.081l2.561 2.561 5.169 5.17.82.819zM15.125 23.169l2.56 2.56c.06-.137.122-.273.186-.409 1.272-2.718 3.37-5.039 5.917-6.62.62-.384 1.27-.723 1.94-1.016l-.51-.509-5.168-5.169-2.866-2.866a27.341 27.341 0 00-4.809 3.96 26.97 26.97 0 00-3.24 4.08l.821.82 5.17 5.169z" fill="#007CC3"/><path d="M30.85 3.525l.008.2-.008-.2zm16.206 4.269l.107-.17h-.001l-.106.17zM17.02 7.753l.085.181.01-.005.01-.006-.105-.17zm-.075.04l-.105-.17-.001.001.106.17zm-9.15 9.15l-.17-.105.17.106zm-.056.125l.17.105.013-.022.008-.024-.191-.06zm-3.044 6.757l.191.057-.191-.057zm.075 16.606l.19-.059-.19.06zm2.96 6.509l.191-.06-.007-.024-.014-.022-.17.105zm.057.124l-.17.105.17-.105zm9.15 9.15l-.107.17h.001l.106-.17zm.065.034l.105-.17-.012-.008-.013-.005-.08.183zm14.147 4.247l-.006.2.006-.2zm16.094-4.4l.107.169-.107-.17zm6.331-5.479l-.15-.13h-.001l.151.13zm2.625-3.552l.17.106-.17-.106zm.013-.022l.175.097-.175-.097zm.01-.02l.179.09-.18-.09zm.011-.023l-.17-.106-.007.012-.006.013.183.08zm2.41-4.848l.187.072-.187-.072zm1.119-16.625l-.195.045.195-.045zm-3.533-8.532l-.179.09.004.008.005.008.17-.106zm-.024-.043l.17-.105v-.001l-.17.106zm-.444-.687l-.167.11v.001l.167-.11zM50.706 10.5l-.13.151.13-.15zm-7.818-3.494l.08-.183-.08.183zm2.844 1.45l.141.141.183-.183-.223-.13-.101.172zM27.088 5.194l.036.197-.036-.197zm-8.805 3.27l-.1-.172-.225.13.184.184.141-.142zm.605.605l.141-.142-.141.142zm5.168 5.168l-.141.142.141-.141zm2.953 2.954l-.141.141.088.088.117-.04-.064-.19zm6.01-.785l-.014.2.014-.2zm3.627.68l-.06.191.06-.19zm.344.112l-.064.19.117.04.088-.089-.141-.141zm.904-.904l-.142-.142.142.142zm5.169-5.169l.141.142-.141-.142zm-5.239 7.734l.082-.183h-.001l-.08.183zm6.416 5.616l.17-.105-.17.105zm1.923 5.05l-.197.035.197-.035zm-.18 5.824l.195.048v-.001l-.194-.047zm-.416 1.42l.188.066v-.001l-.188-.065zm-.055.154l.18.087.004-.01.004-.009-.188-.068zm-.017.037l.184.078-.184-.078zm-.014.034l-.187-.07.187.07zm-7.042 7.861l.089.179-.09-.179zm-7.701 1.463l-.018.199.018-.2zm-7.15-2.69l-.118.162.117-.161zm-5.233-7.109l-.19.062v.002l.19-.064zm-.186-8.425l.192.054-.192-.054zm2.821-5.325l-.153-.129.153.13zm3.856-3.237l-.099-.174.1.174zm21.965 7.47l-.142-.142-.088.088.04.118.19-.064zm2.945-2.946l-.141-.141.141.141zm5.17-5.168l.14.141-.14-.141zm.621-.623l.173-.1-.131-.224-.183.183.141.141zm1.853 3.829l.187-.072-.187.072zm1.2 15.856l-.195-.044.195.044zm-3.07 7.787l-.14.142.183.183.13-.224-.172-.1zm-8.726-8.727l-.19-.064-.04.118.089.088.141-.142zm.177-9.472l.192-.058-.192.058zm3.12-15.905l.133-.15-.133.15zm2.048 2.023l.148-.135-.148.135zm2.72 3.519l.142.141.114-.115-.088-.136-.168.11zm-2.875 2.875l.141.142-.141-.142zm-5.169 5.169l-.141-.142.141.142zm-.51.51l-.182.08.117.267.207-.206-.141-.142zm-4.465-5.86l.126-.156-.126.156zm-3.585-2.177l-.142-.142-.207.207.269.118.08-.183zm2.566-2.567l-.141-.141.141.141zm5.17-5.169l-.142-.141.141.141zm.825-.825l.109-.168-.136-.088-.115.114.142.142zM17.175 54.869l-.11.168.136.088.115-.114-.141-.142zm-8.04-8.047l-.142-.141-.115.114.089.136.167-.109zm8.859 7.228l-.142-.141.142.141zm5.169-5.169l-.142-.141.142.141zm2.558-2.557l.14.14.208-.206-.268-.118-.08.184zm-5.552-4.099l.151-.13-.151.13zm-2.484-3.954l.183-.08-.117-.269-.207.208.141.141zm-.516.517l-.142-.142.142.142zM12 43.956l-.141-.141.141.141zm6.263 11.587l-.141-.141-.183.183.223.13.101-.172zm1.056.588l-.094.177.094-.177zm1.606-3.25l.142.142-.142-.142zm5.169-5.168l.141.141-.141-.141zm.896-.897l.064-.189-.118-.04-.087.088.14.142zm1.029.31l-.05.193.05-.194zm8.976-.312l.141-.142-.088-.088-.117.04.064.19zm2.949 2.949l-.142.141.142-.141zm5.169 5.168l-.142.142.142-.142zm.616.617l.1.172.225-.13-.184-.184-.141.142zM35 59.093l.022.199-.022-.2zM17.195 36.999l.141.142.088-.088-.04-.117-.19.063zm-.745-3.411l-.199.02.2-.02zm-2.212 6.368l-.142-.141.142.141zm-5.17 5.17l-.14-.142.14.141zm-.607.607l-.173.102.131.223.183-.183-.141-.142zm-1.092-2.058l-.18.086.18-.086zm-2.325-15.7l-.198-.03.198.03zm3.42-9.704l.142-.142-.183-.183-.131.224.173.1zm2.661 2.66l-.141.142.141-.142zm5.169 5.169l.141-.141-.141.141zm.9.9l.19.064.04-.117-.088-.088-.142.141zm35.172 23.103l.15.133-.15-.133zm2.498-3.283l.167.109.089-.136-.115-.114-.141.14zm-8.038 8.05l-.142.14.115.115.136-.088-.11-.168zm-2.876-2.876l-.141.141.141-.141zm-5.169-5.169l-.141.142.141-.142zm-.51-.51l-.08-.183-.267.118.206.206.141-.141zm.835-.4l-.09-.178h-.001l.091.178zm.163-.084l.093.178-.093-.178zm6.525-6.48l-.177-.095.177.094zm.52-1.081l.14-.142-.207-.208-.117.27.183.08zm2.561 2.561l-.141.142.141-.142zm5.169 5.17l.141-.142-.141.141zM17.685 25.728l-.141.141.207.207.117-.268-.183-.08zm-2.56-2.56l-.141.141.141-.141zm2.745 2.151l.181.086-.18-.085zm5.918-6.62l-.106-.17.106.17zm1.94-1.016l.08.183.269-.117-.208-.207-.141.141zm-.51-.509l.142-.141-.141.141zm-5.168-5.169l-.141.142.141-.142zM17.184 9.14l.142-.14-.115-.114-.136.087.11.168zm-4.809 3.96l.144.139-.144-.139zm-3.24 4.08l-.167-.11-.088.136.114.115.142-.142zm.821.82l.142-.141-.142.141zM30.858 3.725a28.384 28.384 0 0116.093 4.239l.21-.34a28.784 28.784 0 00-16.32-4.299l.017.4zM17.125 7.923a28.422 28.422 0 0113.733-4.198l-.016-.4a28.823 28.823 0 00-13.928 4.258l.21.34zm-.076.04a.534.534 0 01.055-.029l-.17-.362a.928.928 0 00-.095.052l.21.34zM7.963 17.05a28.74 28.74 0 019.087-9.087l-.212-.339a29.14 29.14 0 00-9.214 9.214l.34.212zm-.034.077a.331.331 0 01.035-.078l-.34-.21a.732.732 0 00-.077.17l.382.118zm-3.044 6.755a28.03 28.03 0 013.023-6.71l-.34-.21a28.43 28.43 0 00-3.066 6.806l.383.114zm.075 16.49a28.482 28.482 0 01-.075-16.49l-.383-.114a28.882 28.882 0 00.076 16.722l.382-.118zm2.94 6.461a27.996 27.996 0 01-2.941-6.46l-.382.117a28.395 28.395 0 002.983 6.554l.34-.21zm.056.124a.335.335 0 01-.035-.078l-.382.119a.736.736 0 00.078.17l.34-.211zm9.087 9.086a28.74 28.74 0 01-9.087-9.087l-.339.213a29.14 29.14 0 009.213 9.213l.213-.339zm.04.02a.32.32 0 01-.04-.02l-.212.34c.03.018.06.034.09.047l.161-.366zm14.072 4.23a28.443 28.443 0 01-14.048-4.216l-.21.34a28.843 28.843 0 0014.246 4.277l.012-.4zm15.98-4.368c-4.74 3.01-10.37 4.537-15.98 4.369l-.012.4c5.69.17 11.398-1.378 16.207-4.431l-.214-.338zm6.288-5.44a28.467 28.467 0 01-6.287 5.44l.214.338a28.867 28.867 0 006.376-5.517l-.303-.261zm2.607-3.529a28.626 28.626 0 01-2.607 3.529l.303.261a29.014 29.014 0 002.643-3.577l-.34-.212zm.007-.012a.29.29 0 01-.008.013l.34.211a.68.68 0 00.018-.03l-.35-.194zm.006-.012a.256.256 0 01-.006.012l.35.194a.923.923 0 00.014-.026l-.358-.18zm.007-.015a.415.415 0 01-.007.015l.358.18a.679.679 0 00.015-.034l-.366-.16zm2.406-4.839a28.337 28.337 0 01-2.393 4.814l.34.211a28.74 28.74 0 002.427-4.881l-.374-.144zm1.11-16.508c1.267 5.456.894 11.278-1.11 16.508l.374.144c2.033-5.307 2.41-11.21 1.126-16.742l-.39.09zM56.06 17.1a28.122 28.122 0 013.508 8.471l.39-.09a28.528 28.528 0 00-3.558-8.592l-.34.21zm.35-.195a.748.748 0 00-.034-.06l-.34.212c.006.008.01.017.015.026l.358-.178zm-.034-.06a29.338 29.338 0 00-.448-.692l-.332.222c.15.226.297.453.44.682l.34-.212zm-5.8-6.193a28.266 28.266 0 015.02 5.723l.333-.221a28.673 28.673 0 00-5.092-5.804l-.262.302zM46.95 7.963a29.273 29.273 0 013.625 2.688l.263-.302a29.68 29.68 0 00-3.675-2.724l-.213.338zm-4.143-.774c.97.426 1.912.907 2.824 1.44l.202-.346a27.832 27.832 0 00-2.865-1.46l-.16.366zM27.124 5.391c5.242-.968 10.802-.342 15.683 1.798l.16-.366c-4.955-2.172-10.596-2.808-15.916-1.826l.073.394zm-8.74 3.246a27.129 27.129 0 018.74-3.246l-.073-.394a27.529 27.529 0 00-8.868 3.295l.201.345zm.645.29l-.604-.604-.283.283.604.604.283-.283zm5.169 5.17l-5.169-5.17-.283.283 5.169 5.169.283-.283zm2.953 2.952l-2.953-2.953-.283.283 2.953 2.953.283-.283zm5.881-.842a15.814 15.814 0 00-6.086.794l.127.38a15.404 15.404 0 015.932-.775l.027-.4zm3.674.688a15.914 15.914 0 00-3.674-.688l-.027.399c1.223.083 2.425.31 3.581.671l.12-.382zm.348.113a20.29 20.29 0 00-.349-.113l-.118.382c.113.036.226.072.339.11l.128-.379zm.698-.855l-.904.903.283.283.904-.904-.283-.282zm5.17-5.17l-5.17 5.17.283.282 5.169-5.168-.283-.283zm2.668-2.668l-2.669 2.669.283.283 2.67-2.67-.284-.282zm-7.847 10.727a14.344 14.344 0 016.327 5.538l.34-.21a14.744 14.744 0 00-6.504-5.694l-.163.366zm6.326 5.538a14.28 14.28 0 011.897 4.98l.393-.07a14.68 14.68 0 00-1.949-5.12l-.34.21zm1.897 4.98a14.139 14.139 0 01-.177 5.743l.389.093c.46-1.93.53-3.957.181-5.906l-.393.07zm-.177 5.741c-.116.473-.253.942-.412 1.403l.379.13c.162-.473.303-.953.422-1.437l-.389-.096zm-.411 1.402l-.054.151.376.137.055-.156-.377-.132zm-.046.133a.382.382 0 00-.021.046l.368.156a.799.799 0 01.013-.028l-.36-.174zm-.021.046a1.029 1.029 0 00-.017.042l.375.14a.665.665 0 01.01-.026l-.368-.156zm-.017.043c-1.237 3.35-3.765 6.147-6.945 7.752l.18.357c3.269-1.65 5.868-4.524 7.14-7.97l-.375-.14zm-6.945 7.751a14.354 14.354 0 01-7.595 1.442l-.033.399c2.685.225 5.4-.282 7.807-1.483l-.179-.358zm-7.593 1.442a14.33 14.33 0 01-7.052-2.652l-.233.325a14.73 14.73 0 007.248 2.726l.037-.399zm-7.05-2.651c-2.374-1.73-4.216-4.177-5.161-7.011l-.38.127c.973 2.915 2.867 5.431 5.305 7.207l.235-.323zm-5.16-7.01a14.328 14.328 0 01-.185-8.309l-.385-.108a14.716 14.716 0 00.19 8.541l.38-.124zm-.185-8.31a14.113 14.113 0 012.783-5.25l-.307-.256a14.509 14.509 0 00-2.86 5.399l.384.108zm2.782-5.25a14.392 14.392 0 013.803-3.192l-.2-.346a14.793 14.793 0 00-3.909 3.281l.306.258zm3.802-3.191c3.874-2.208 8.701-2.46 12.8-.664l.16-.366c-4.214-1.846-9.174-1.588-13.158.682l.198.348zm22.007 7.437l2.946-2.945-.283-.283-2.946 2.945.283.283zm2.946-2.945l5.168-5.169-.282-.283-5.17 5.169.284.283zm5.168-5.169l.623-.622-.283-.283-.622.622.282.283zm.309-.662a26.38 26.38 0 011.839 3.8l.373-.146a26.79 26.79 0 00-1.867-3.857l-.345.203zm1.839 3.799c1.93 4.989 2.363 10.517 1.191 15.74l.39.088c1.19-5.302.75-10.91-1.208-15.972l-.373.144zm1.19 15.74a27.047 27.047 0 01-3.046 7.73l.346.202a27.444 27.444 0 003.091-7.844l-.39-.088zm-2.732 7.69l-2.662-2.662-.283.283 2.663 2.662.282-.283zm-2.662-2.662l-5.168-5.17-.283.284 5.168 5.169.283-.283zm-5.168-5.17l-.897-.895-.282.283.896.896.283-.283zm-.849-.69a15.944 15.944 0 00.18-9.594l-.383.115c.906 3.04.838 6.348-.175 9.351l.378.128zm.18-9.594a15.472 15.472 0 00-.173-.542l-.379.128c.06.175.116.352.169.529l.383-.115zm2.795-15.698a27.33 27.33 0 012.033 2.009l.296-.27a27.904 27.904 0 00-2.063-2.038l-.266.3zm2.033 2.008a27.402 27.402 0 012.7 3.494l.336-.218a27.792 27.792 0 00-2.74-3.545l-.296.27zm2.727 3.243l-2.876 2.876.283.283 2.876-2.876-.283-.283zm-2.876 2.876l-5.168 5.168.283.283 5.168-5.168-.283-.283zm-5.168 5.169l-.51.509.283.283.51-.51-.283-.282zm-.185.57a15.85 15.85 0 00-4.523-5.935l-.252.311a15.45 15.45 0 014.409 5.785l.366-.161zm-4.523-5.935a16.014 16.014 0 00-3.63-2.205l-.161.367a15.616 15.616 0 013.54 2.15l.25-.312zm-3.57-1.88l2.567-2.566-.283-.283-2.567 2.566.283.283zm2.567-2.566l5.169-5.17-.283-.282-5.17 5.169.284.283zm5.169-5.17l.825-.825-.283-.283-.825.826.282.283zm.575-.799a27.35 27.35 0 013.251 2.484l.266-.299a27.76 27.76 0 00-3.3-2.52l-.217.335zM17.284 54.702a27.451 27.451 0 01-7.982-7.99l-.335.22a27.85 27.85 0 008.099 8.105l.218-.335zm.568-.793l-.819.819.283.282.82-.819-.284-.282zm5.17-5.17l-5.17 5.17.283.282 5.169-5.168-.283-.283zm2.557-2.557l-2.558 2.558.283.283 2.558-2.558-.283-.283zm-5.562-3.827a15.862 15.862 0 005.623 4.152l.161-.367a15.461 15.461 0 01-5.48-4.045l-.304.26zm-2.515-4.004a15.836 15.836 0 002.515 4.005l.303-.262a15.437 15.437 0 01-2.452-3.903l-.366.16zm-.192.578l.517-.516-.283-.283-.517.516.283.283zm-5.168 5.169l5.168-5.169-.283-.283-5.168 5.169.283.283zm-2.866 2.866l2.866-2.866-.283-.283-2.866 2.866.283.283zm8.886 8.752c.35.205.704.402 1.063.592l.187-.353a26.747 26.747 0 01-1.047-.584l-.203.345zm2.622-2.976l-2.662 2.662.283.282 2.662-2.661-.283-.283zm5.168-5.169l-5.168 5.169.283.283 5.168-5.169-.283-.283zm.896-.896l-.896.896.283.283.896-.896-.282-.283zm1.222.257a15.11 15.11 0 01-1.016-.305l-.128.379c.343.116.691.22 1.042.313l.102-.387zm8.86-.308a15.589 15.589 0 01-8.86.307l-.102.388c2.974.774 6.178.67 9.09-.316l-.127-.379zm3.155 2.997l-2.949-2.949-.283.283 2.95 2.949.282-.283zm5.169 5.169l-5.169-5.169-.283.283 5.17 5.169.282-.283zm.616.616l-.616-.616-.283.283.616.616.283-.283zm-10.848 3.887a27.392 27.392 0 0010.807-3.573l-.201-.345a26.992 26.992 0 01-10.65 3.52l.044.398zm-15.796-2.985c4.83 2.544 10.376 3.57 15.796 2.985l-.043-.398c-5.343.577-10.81-.435-15.567-2.94l-.186.353zm-1.842-19.373a15.727 15.727 0 01-.735-3.369l-.398.043a16.15 16.15 0 00.754 3.454l.38-.128zm-3.005 3.163l2.957-2.957-.283-.283-2.957 2.957.283.283zM9.21 45.267l5.169-5.17-.283-.282-5.169 5.169.283.282zm-.608.608l.608-.608-.283-.283-.608.608.283.283zM7.188 43.76c.337.708.705 1.4 1.1 2.073l.345-.202a26.853 26.853 0 01-1.084-2.043l-.36.172zM4.846 27.945a27.532 27.532 0 002.342 15.816l.361-.172a27.133 27.133 0 01-2.307-15.584l-.396-.06zm3.446-9.775a27.638 27.638 0 00-3.446 9.775l.396.06a27.238 27.238 0 013.395-9.633l-.345-.202zm2.975 2.62l-2.66-2.66-.284.282 2.66 2.66.284-.282zm5.168 5.169l-5.168-5.17-.283.284 5.168 5.168.283-.282zm.9.9l-.9-.9-.283.282.9.9.284-.282zm-.686 6.708c-.23-2.186.032-4.42.735-6.503l-.38-.128a15.809 15.809 0 00-.753 6.672l.398-.041zm35.867 16.668a27.752 27.752 0 002.515-3.306l-.335-.218a27.343 27.343 0 01-2.48 3.259l.3.265zm-5.581 4.802a27.732 27.732 0 005.58-4.801l-.298-.266a27.329 27.329 0 01-5.5 4.732l.218.335zm-3.126-2.902l2.875 2.876.283-.283-2.875-2.876-.283.283zm-5.17-5.168l5.17 5.168.283-.283-5.17-5.168-.282.283zm-.51-.51l.51.51.284-.283-.51-.51-.283.282zm.886-.72c-.271.14-.546.271-.825.395l.162.366c.286-.127.568-.262.846-.405l-.183-.356zm.161-.083l-.16.083.18.356.166-.084-.186-.355zm6.441-6.398a15.48 15.48 0 01-6.44 6.398l.184.355a15.88 15.88 0 006.61-6.565l-.354-.188zm.513-1.066c-.157.362-.327.718-.513 1.066l.353.188c.192-.358.366-.724.527-1.095l-.367-.159zm2.886 2.5l-2.561-2.562-.283.283 2.562 2.562.282-.283zm5.17 5.169l-5.17-5.17-.282.284 5.168 5.169.283-.283zm.82.82l-.82-.82-.284.282.82.82.283-.282zm-37.18-21.092l-2.56-2.56-.282.283 2.56 2.56.282-.283zm-.136-.352c-.065.137-.128.275-.188.414l.366.16c.06-.135.12-.27.183-.403l-.361-.17zm5.992-6.705c-2.578 1.601-4.703 3.951-5.993 6.706l.363.17c1.255-2.683 3.326-4.975 5.841-6.536l-.21-.34zm1.966-1.03a15.64 15.64 0 00-1.966 1.03l.21.34c.614-.38 1.255-.714 1.916-1.003l-.16-.366zm-.57-.184l.509.51.282-.283-.509-.51-.283.283zm-5.17-5.168l5.17 5.168.282-.282-5.168-5.17-.283.284zm-2.865-2.866l2.866 2.866.283-.283-2.866-2.866-.283.283zm-4.524 3.957a27.145 27.145 0 014.774-3.93l-.218-.337a27.54 27.54 0 00-4.844 3.99l.288.277zm-3.215 4.049a26.768 26.768 0 013.215-4.049l-.288-.278a27.168 27.168 0 00-3.263 4.11l.336.217zm.794.57l-.82-.82-.284.283.82.82.284-.282zm5.168 5.17l-5.168-5.17-.283.283 5.169 5.17.283-.284z" fill="#fff" mask="url(#a)"/></svg>