<svg width="64" height="64" fill="none" xmlns="http://www.w3.org/2000/svg"><path d="M32.24 58.815l.515-.482c12.561-11.618 23.03-21.306 23.883-51.847-5.854 2.462-9.875 3.846-13.462 3.846-3.714.016-6.866-1.448-10.935-4.698-4.07 3.25-7.222 4.715-10.953 4.698-3.587 0-7.591-1.384-13.462-3.846.868 30.541 11.339 40.228 23.883 51.847l.532.482zm1.544.628l-1.029.95-.514.482-.515-.483-1.046-.949C17.718 47.44 6.926 37.446 6.298 5.345l-.032-1.16 1.078.451C13.616 7.307 17.766 8.82 21.288 8.82c3.474.016 6.449-1.465 10.47-4.747l.483-.402.482.402c4.004 3.282 6.995 4.763 10.453 4.747 3.539 0 7.671-1.513 13.945-4.184l1.077-.45-.015 1.159c-.627 32.101-11.42 42.094-24.399 54.098z" fill="#007CC3"/></svg>