<svg width="24" height="13" fill="none" xmlns="http://www.w3.org/2000/svg"><path d="M23.058.56h-3.894a.926.926 0 00-.452.116.85.85 0 00-.323.317s-1.553 2.675-2.052 3.576c-1.342 2.424-2.212 1.663-2.212.538V1.228a1.18 1.18 0 00-.383-.864 1.354 1.354 0 00-.924-.358H9.89a2.488 2.488 0 00-1.16.198 2.319 2.319 0 00-.911.701s1.487-.224 1.487 1.65c0 .464.025 1.8.049 2.922a.77.77 0 01-.143.465.854.854 0 01-.403.305.92.92 0 01-.516.035.877.877 0 01-.445-.247 23.427 23.427 0 01-2.957-5.03.785.785 0 00-.303-.325.862.862 0 00-.443-.12H.605a.635.635 0 00-.28.062A.591.591 0 00.11.8a.541.541 0 00-.071.519C1.112 4.074 5.74 12.736 11.023 12.736h2.224a.91.91 0 00.621-.241.796.796 0 00.257-.58v-1.257c0-.157.05-.311.142-.443a.852.852 0 01.379-.298.918.918 0 01.491-.054c.166.027.32.1.442.207l2.662 2.339c.239.21.555.327.883.327h3.495c1.685 0 1.685-1.094.766-1.94-.647-.596-2.98-2.897-2.98-2.897a1.095 1.095 0 01-.337-.717c-.017-.268.07-.534.244-.748.754-.929 1.988-2.448 2.511-3.1.715-.89 2.01-2.775.235-2.775z" fill="#fff"/></svg>