<svg width="23" height="24" fill="none" xmlns="http://www.w3.org/2000/svg"><path d="M21.04.571H2.283c-.9 0-1.628.733-1.628 1.639v19.58c0 .905.728 1.638 1.626 1.638h18.76c.898 0 1.625-.734 1.625-1.638V2.21c0-.904-.727-1.638-1.625-1.638zM7.329 19.704H4.003V9.384h3.325v10.32zM5.666 7.974h-.023c-1.115 0-1.838-.791-1.838-1.783 0-1.011.744-1.782 1.882-1.782 1.137 0 1.837.77 1.859 1.782 0 .992-.722 1.784-1.88 1.784zm13.65 11.73h-3.324v-5.521c0-1.387-.482-2.334-1.684-2.334-.92 0-1.466.639-1.706 1.255-.088.22-.11.528-.11.836v5.764H9.166s.044-9.352 0-10.32h3.325v1.463c.441-.703 1.23-1.705 2.995-1.705 2.189 0 3.83 1.474 3.83 4.645v5.917zm-6.845-8.824a.53.53 0 01.021-.032v.032h-.022z" fill="#fff"/></svg>