<svg width="65" height="65" fill="none" xmlns="http://www.w3.org/2000/svg"><path d="M10.4 8.45c-1.79 0-3.25 1.46-3.25 3.25v10.4c0 1.062.527 2.006 1.32 2.6a3.255 3.255 0 00-1.32 2.6v10.4c0 1.062.527 2.006 1.32 2.6a3.255 3.255 0 00-1.32 2.6v10.4c0 1.79 1.46 3.25 3.25 3.25h44.2c1.79 0 3.25-1.46 3.25-3.25V42.9a3.255 3.255 0 00-1.32-2.6 3.255 3.255 0 001.32-2.6V27.3a3.255 3.255 0 00-1.32-2.6 3.255 3.255 0 001.32-2.6V11.7c0-1.79-1.46-3.25-3.25-3.25H10.4zm0 1.3h44.2c1.092 0 1.95.858 1.95 1.95v10.4c0 1.091-.858 1.95-1.95 1.95H10.4a1.932 1.932 0 01-1.95-1.95V11.7c0-1.092.858-1.95 1.95-1.95zm5.2 4.55a2.61 2.61 0 00-2.6 2.6 2.61 2.61 0 002.6 2.6 2.61 2.61 0 002.6-2.6 2.61 2.61 0 00-2.6-2.6zm9.75 0a2.61 2.61 0 00-2.6 2.6 2.61 2.61 0 002.6 2.6 2.61 2.61 0 002.6-2.6 2.61 2.61 0 00-2.6-2.6zm-9.75 1.3c.726 0 1.3.574 1.3 1.3 0 .726-.574 1.3-1.3 1.3a1.29 1.29 0 01-1.3-1.3c0-.726.574-1.3 1.3-1.3zm9.75 0c.726 0 1.3.574 1.3 1.3 0 .726-.574 1.3-1.3 1.3a1.29 1.29 0 01-1.3-1.3c0-.726.574-1.3 1.3-1.3zm12.35.65a.65.65 0 100 1.3h10.4a.65.65 0 000-1.3H37.7zm-27.3 9.1h44.2c1.092 0 1.95.858 1.95 1.95v10.4c0 1.091-.858 1.95-1.95 1.95H10.4a1.932 1.932 0 01-1.95-1.95V27.3c0-1.092.858-1.95 1.95-1.95zm5.2 4.55a2.61 2.61 0 00-2.6 2.6 2.61 2.61 0 002.6 2.6 2.61 2.61 0 002.6-2.6 2.61 2.61 0 00-2.6-2.6zm9.75 0a2.61 2.61 0 00-2.6 2.6 2.61 2.61 0 002.6 2.6 2.61 2.61 0 002.6-2.6 2.61 2.61 0 00-2.6-2.6zm-9.75 1.3c.726 0 1.3.574 1.3 1.3 0 .726-.574 1.3-1.3 1.3a1.29 1.29 0 01-1.3-1.3c0-.726.574-1.3 1.3-1.3zm9.75 0c.726 0 1.3.574 1.3 1.3 0 .726-.574 1.3-1.3 1.3a1.29 1.29 0 01-1.3-1.3c0-.726.574-1.3 1.3-1.3zm12.35.65a.65.65 0 100 1.3h10.4a.65.65 0 000-1.3H37.7zm-27.3 9.1h44.2c1.092 0 1.95.858 1.95 1.95v10.4c0 1.092-.858 1.95-1.95 1.95H10.4a1.932 1.932 0 01-1.95-1.95V42.9c0-1.092.858-1.95 1.95-1.95zm5.2 4.55a2.61 2.61 0 00-2.6 2.6 2.61 2.61 0 002.6 2.6 2.61 2.61 0 002.6-2.6 2.61 2.61 0 00-2.6-2.6zm9.75 0a2.61 2.61 0 00-2.6 2.6 2.61 2.61 0 002.6 2.6 2.61 2.61 0 002.6-2.6 2.61 2.61 0 00-2.6-2.6zm-9.75 1.3c.726 0 1.3.574 1.3 1.3 0 .726-.574 1.3-1.3 1.3a1.29 1.29 0 01-1.3-1.3c0-.726.574-1.3 1.3-1.3zm9.75 0c.726 0 1.3.574 1.3 1.3 0 .726-.574 1.3-1.3 1.3a1.29 1.29 0 01-1.3-1.3c0-.726.574-1.3 1.3-1.3zm12.35.65a.65.65 0 100 1.3h10.4a.65.65 0 100-1.3H37.7z" fill="#007CC3"/></svg>