<svg width="64" height="64" fill="none" xmlns="http://www.w3.org/2000/svg"><path d="M62.006 19.844v-.188c0-.093 0-.093-.093-.187v-.094L53.569 6.156C52.725 4.75 51.225 4 49.63 4H14.38a4.728 4.728 0 00-3.937 2.156l-8.25 13.219v.094c0 .093-.094.093-.094.187v34.969c0 3.094 2.531 5.625 5.625 5.625h48.75c3.094 0 5.625-2.531 5.625-5.625l-.094-34.781c0 .093 0 .093 0 0zM51.976 7.187L59.38 19H32.944V5.875H49.63c.938 0 1.875.469 2.344 1.313zm-39.938 0c.562-.843 1.406-1.312 2.343-1.312H31.07V19H4.63l7.407-11.813zm11.53 51.188v-7.5h16.876v7.5H23.569zm36.563-3.75a3.761 3.761 0 01-3.75 3.75H42.32v-8.438c0-.562-.375-.937-.938-.937h-18.75c-.562 0-.937.375-.937.938v8.437H7.63a3.761 3.761 0 01-3.75-3.75v-33.75h56.25v33.75z" fill="#007CC3"/><path d="M62.006 19.844v-.188c0-.093 0-.093-.093-.187v-.094L53.569 6.156C52.725 4.75 51.225 4 49.63 4H14.38a4.728 4.728 0 00-3.937 2.156l-8.25 13.219v.094c0 .093-.094.093-.094.187v34.969c0 3.094 2.531 5.625 5.625 5.625h48.75c3.094 0 5.625-2.531 5.625-5.625l-.094-34.781zm0 0c0 .093 0 .093 0 0zM51.976 7.187L59.38 19H32.944V5.875H49.63c.938 0 1.875.469 2.344 1.313zm-39.938 0c.562-.843 1.406-1.312 2.343-1.312H31.07V19H4.63l7.407-11.813zm11.53 51.188v-7.5h16.876v7.5H23.569zm36.563-3.75a3.761 3.761 0 01-3.75 3.75H42.32v-8.438c0-.562-.375-.937-.938-.937h-18.75c-.562 0-.937.375-.937.938v8.437H7.63a3.761 3.761 0 01-3.75-3.75v-33.75h56.25v33.75z" stroke="#fff" stroke-width=".6"/><path d="M22.163 37.094c0 .562.375.937.937.937h17.813c.562 0 .937-.375.937-.937 0-.563-.375-.938-.937-.938H23.1a.94.94 0 00-.937.938z" fill="#007CC3" stroke="#fff" stroke-width=".6"/></svg>