<svg width="66" height="66" fill="none" xmlns="http://www.w3.org/2000/svg"><path d="M37.683 62.4c-1.03 0-2.063-.14-3.076-.42l-16.224-4.498h-4.346a.6.6 0 01-.6-.6V41.398a.6.6 0 01.6-.6h6.546a6.06 6.06 0 013.893 1.419l3.1 2.605a4.856 4.856 0 003.122 1.137h9.456a3.911 3.911 0 013.906 3.907c0 .69-.18 1.34-.496 1.903.115-.05.228-.1.342-.155l13.825-6.581a3.07 3.07 0 013.01.184c1.039.656 1.659 1.827 1.659 3.132 0 1.382-.706 2.624-1.843 3.24l-17.305 9.384a11.656 11.656 0 01-5.569 1.427zm-23.046-6.118h3.828c.053 0 .107.007.16.022l16.303 4.52c2.594.717 5.348.397 7.752-.906l17.305-9.383c.738-.4 1.215-1.259 1.215-2.186 0-.891-.411-1.682-1.1-2.117a1.89 1.89 0 00-1.853-.116l-13.825 6.581c-1.155.55-2.363.89-3.603 1.018a3.99 3.99 0 01-.665.057h-7.139a.6.6 0 110-1.2h6.693a9.9 9.9 0 00.945-.046 2.712 2.712 0 002.207-2.66 2.71 2.71 0 00-2.706-2.707h-9.456a6.065 6.065 0 01-3.894-1.418l-3.1-2.605a4.857 4.857 0 00-3.121-1.138h-5.946v14.284z" fill="#007CC3"/><path d="M14.037 61.275H4.2a.6.6 0 110-1.2h9.237v-21.87H4.2a.6.6 0 110-1.2h9.837a.6.6 0 01.6.6v23.07a.6.6 0 01-.6.6zM59.86 31.2H22.673c-1.4 0-2.54-1.139-2.54-2.538V6.14c0-1.4 1.14-2.54 2.54-2.54h37.189c1.4 0 2.539 1.14 2.539 2.54v22.522a2.542 2.542 0 01-2.54 2.538zM22.673 4.8c-.739 0-1.34.601-1.34 1.34v22.522A1.34 1.34 0 0022.673 30h37.189c.738 0 1.339-.6 1.339-1.338V6.14c0-.739-.6-1.34-1.34-1.34H22.673z" fill="#007CC3"/><path d="M61.8 10.442H20.733a.6.6 0 110-1.2H61.8a.6.6 0 110 1.2zm0 6.318H20.733a.6.6 0 110-1.2H61.8a.6.6 0 110 1.2zM28.066 27.026h-2.482a.6.6 0 110-1.2h2.482a.6.6 0 110 1.2zm5.811 0h-2.482a.6.6 0 110-1.2h2.482a.6.6 0 110 1.2z" fill="#007CC3"/></svg>