<svg width="64" height="64" fill="none" xmlns="http://www.w3.org/2000/svg"><path d="M63.653 41.904a.496.496 0 00.04-.081.47.47 0 00.018-.094c.003-.02.012-.038.012-.058 0-.012-.006-.023-.007-.035 0-.013.004-.024.002-.037L61.69 28.03c-.002-.01-.009-.019-.011-.03-.007-.032-.02-.06-.033-.09-.013-.028-.023-.056-.04-.08s-.038-.043-.059-.064a.468.468 0 00-.077-.065c-.008-.006-.013-.014-.022-.02l-7.019-3.898c-.008-.005-.016-.004-.024-.008-.028-.013-.06-.02-.09-.028-.032-.008-.063-.017-.094-.02-.009 0-.016-.004-.025-.004H45.63V17.48a.48.48 0 00-.48-.48H1.48a.48.48 0 00-.48.48v24.19c0 .266.215.48.48.48h1.885a4.62 4.62 0 004.587 4.134 4.619 4.619 0 004.588-4.133h22.025a4.62 4.62 0 004.589 4.133 4.62 4.62 0 004.588-4.133h5.866a4.62 4.62 0 004.588 4.133 4.62 4.62 0 004.588-4.133h4.459a.531.531 0 00.07-.005c.022-.004.039-.016.059-.022.03-.009.06-.017.087-.03a.534.534 0 00.143-.113.525.525 0 00.051-.077zm-9.581-17.221l6.703 3.723 1.91 12.785h-3.9a4.62 4.62 0 00-4.589-4.133 4.62 4.62 0 00-4.588 4.133H45.63V24.683h8.442zM44.67 17.96v16.481H31.23v-8.927a.594.594 0 00-.593-.593H21.71v-.565a.608.608 0 00-.606-.607H10.665a.608.608 0 00-.607.607v10.086H1.96V17.96h42.71zM25.99 32.484a.48.48 0 00-.48.48v1.477h-3.8v-8.56h2.859v2.793a.48.48 0 00.812.347l.61-.584.607.583a.479.479 0 00.812-.346v-2.793h2.86v8.56h-3.8v-1.477a.48.48 0 00-.48-.48zm-10.105-.241a.48.48 0 00-.48.48v1.718h-4.388V24.71h3.33v3.197a.48.48 0 00.813.347l.724-.696.724.696a.478.478 0 00.812-.347V24.71h3.33v9.73h-4.386v-1.718a.48.48 0 00-.48-.48zm-.577-7.534h1.152v2.07l-.243-.234a.48.48 0 00-.665 0l-.244.235v-2.071zm10.221 1.172h.922v1.668l-.128-.123a.48.48 0 00-.665 0l-.13.123v-1.668h.001zM1.96 35.4h42.71v5.79h-.928a4.62 4.62 0 00-4.588-4.133 4.62 4.62 0 00-4.589 4.133H12.541a4.62 4.62 0 00-4.588-4.133 4.62 4.62 0 00-4.588 4.133H1.961V35.4H1.96zm5.992 9.923A3.658 3.658 0 014.3 41.67a3.658 3.658 0 013.653-3.653 3.658 3.658 0 013.653 3.653 3.657 3.657 0 01-3.653 3.653zm31.202 0A3.658 3.658 0 0135.5 41.67a3.658 3.658 0 013.654-3.653 3.658 3.658 0 013.653 3.653 3.657 3.657 0 01-3.653 3.653zm15.042 0a3.658 3.658 0 01-3.653-3.653 3.658 3.658 0 013.653-3.653 3.658 3.658 0 013.653 3.653 3.657 3.657 0 01-3.653 3.653z" fill="#007CC3"/><path d="M47.908 33.774h10.138c.06 0 .12-.013.176-.036.023-.01.041-.025.063-.038.026-.014.053-.025.076-.044.004-.004.005-.01.01-.013.025-.025.044-.055.064-.085.016-.022.035-.042.045-.066.012-.026.015-.054.022-.081.009-.034.02-.067.02-.101 0-.006.004-.01.004-.016 0-.024-.01-.044-.014-.066-.004-.035-.007-.068-.02-.1-.012-.034-.032-.061-.05-.09-.013-.02-.018-.04-.034-.059l-4.21-4.835-.014-.01c-.024-.026-.053-.043-.081-.063-.024-.016-.044-.035-.07-.047-.024-.01-.051-.013-.078-.02-.035-.01-.068-.02-.105-.021-.005 0-.01-.003-.014-.003h-5.927a.48.48 0 00-.48.48v4.834c0 .266.214.48.48.48zm5.708-4.835l3.375 3.875h-8.603v-3.875h5.228z" fill="#007CC3"/></svg>