<svg width="48" height="61" fill="none" xmlns="http://www.w3.org/2000/svg"><path d="M20.237 55.12H.515V.312h46.97V55.12H27.28v-1.25h18.955V1.563H1.765V53.87h18.472v1.25z" fill="#007CC3"/><path d="M7.672 8.15h32.656V9.4H7.672V8.15zm0 9.144h32.656v1.25H7.672v-1.25zm0 9.144h32.656v1.25H7.672v-1.25zm0 9.144h32.656v1.25H7.672v-1.25zM24 37.968c.771 0 1.235.6 1.69 1.189.225.293.448.581.604.647.162.069.531.02.9-.03.716-.096 1.43-.192 1.946.323.515.516.42 1.229.324 1.944-.05.37-.099.74-.03.902.066.157.354.38.647.605.588.455 1.189.919 1.189 1.69 0 .77-.6 1.234-1.19 1.689-.292.226-.58.449-.647.605-.068.161-.018.53.03.9h.001c.096.716.192 1.43-.324 1.946-.515.515-1.23.42-1.946.324-.369-.05-.738-.1-.9-.031-.156.066-.379.355-.605.647-.455.59-.918 1.19-1.689 1.19s-1.234-.6-1.69-1.19c-.225-.292-.448-.58-.604-.647-.162-.068-.533-.019-.903.03-.715.097-1.428.192-1.943-.323-.515-.515-.42-1.229-.324-1.944.05-.37.099-.74.03-.902-.066-.156-.354-.38-.647-.605-.588-.455-1.189-.918-1.189-1.69 0-.77.6-1.234 1.19-1.688.292-.226.58-.45.647-.606.068-.16.018-.53-.03-.9h-.001c-.096-.716-.192-1.43.324-1.946.515-.515 1.228-.42 1.943-.324.37.05.741.1.903.031.156-.066.379-.354.605-.647.455-.589.918-1.189 1.689-1.189zm.703 1.95c-.268-.346-.541-.7-.703-.7-.162 0-.435.354-.703.7-.326.423-.647.839-1.108 1.034-.474.2-1.011.129-1.547.057-.409-.055-.817-.11-.898-.028-.082.082-.027.489.027.896v.003c.072.535.144 1.072-.057 1.547-.195.46-.611.782-1.033 1.108-.347.268-.7.54-.7.703 0 .161.353.434.7.702.422.326.838.648 1.033 1.109.2.474.129 1.01.057 1.547-.055.408-.11.816-.027.898.081.082.49.027.898-.027.536-.072 1.073-.144 1.547.057.461.195.782.61 1.108 1.033.268.346.541.7.703.7.162 0 .435-.353.703-.7.326-.422.647-.839 1.108-1.033.474-.201 1.011-.13 1.547-.057h.002c.408.054.815.109.896.027.082-.081.027-.488-.027-.896v-.002c-.072-.536-.144-1.073.057-1.547.195-.461.611-.783 1.033-1.109.347-.267.7-.54.7-.702 0-.162-.353-.435-.7-.703-.422-.326-.838-.647-1.033-1.108-.2-.475-.129-1.011-.057-1.547.055-.409.11-.817.027-.899-.081-.081-.488-.027-.896.028h-.002c-.536.072-1.073.143-1.547-.057-.461-.195-.782-.611-1.108-1.033z" fill="#007CC3"/><path d="M28.325 50.135v10.43l-1.065-1.06-3.249-3.238-3.27 3.237-1.066 1.054V50.135h1.25v7.432l2.648-2.62.441-.437.438.437 2.622 2.613v-7.425h1.25z" fill="#007CC3"/></svg>