<svg width="53" height="48" fill="none" xmlns="http://www.w3.org/2000/svg"><path d="M5.277 42.85c.01.032.02.062.037.09.006.012.006.024.014.035.017.026.04.047.061.069.007.006.012.013.018.02a.522.522 0 00.146.09l.038.013c.058.02.119.033.18.033h40.935c.29 0 .524-.215.524-.48V19.29c0-.006-.004-.012-.004-.019a.44.44 0 00-.034-.155c-.002-.006-.003-.011-.006-.016a.476.476 0 00-.126-.16c-.01-.008-.018-.018-.029-.026l-6.009-4.355c-.017-.012-.037-.015-.055-.025v-4.246c0-.265-.235-.48-.525-.48h-5.976l-5.843-4.234a4.172 4.172 0 00-4.853.004l-5.805 4.226-.005.004h-6.34c-.29 0-.525.215-.525.48v4.515l-5.65 4.112c-.01.008-.018.018-.028.027a.477.477 0 00-.125.159c-.003.004-.003.01-.006.014a.443.443 0 00-.034.156c0 .007-.004.012-.004.02v23.43c0 .012.007.023.008.036.002.032.01.062.02.093zM25.25 31.005L6.297 41.854V20.157L25.25 31.005zm20.93-10.848v21.697L27.229 31.005l18.953-10.848zM44.879 42.24H7.6l18.64-10.669 18.638 10.67zm.919-22.996l-4.83 2.765v-6.265l4.83 3.5zM24.424 6.33a3.047 3.047 0 013.547-.004l4.805 3.482H19.645l4.78-3.478zm15.493 4.438V22.61L26.24 30.44l-14.096-8.07V10.768h27.773zm-28.822 5.263v5.74L6.68 19.242l4.415-3.212z" fill="#fff"/><path d="M16.514 14.554h5.76c.29 0 .524-.215.524-.48s-.234-.48-.525-.48h-5.759c-.29 0-.525.215-.525.48s.235.48.525.48zm0 3.671h5.76c.29 0 .524-.215.524-.48s-.234-.48-.525-.48h-5.759c-.29 0-.525.215-.525.48s.235.48.525.48zm-.466 4.109c0 .265.235.48.525.48h19.332c.29 0 .525-.215.525-.48s-.235-.48-.525-.48H16.573c-.29 0-.525.215-.525.48z" fill="#fff"/></svg>