<svg width="64" height="64" fill="none" xmlns="http://www.w3.org/2000/svg"><path d="M47.441 13.18c-1.371 0-2.581.652-3.378 1.648V9.803a4.348 4.348 0 00-4.342-4.343c-1.372 0-2.582.652-3.378 1.647V5.943A4.348 4.348 0 0032 1.6a4.348 4.348 0 00-4.343 4.343v1.164c-.796-.995-2.006-1.647-3.378-1.647a4.348 4.348 0 00-4.343 4.343V24.48c-.796-.996-2.006-1.647-3.377-1.647a4.348 4.348 0 00-4.343 4.343v15.44C12.216 53.526 21.09 62.4 32 62.4c10.909 0 19.784-8.875 19.784-19.784V17.524a4.348 4.348 0 00-4.343-4.343zM32 61.436c-10.377 0-18.82-8.443-18.82-18.82v-15.44a3.382 3.382 0 013.379-3.378 3.382 3.382 0 013.377 3.378v15.44h.965V9.804a3.382 3.382 0 013.378-3.378 3.382 3.382 0 013.378 3.378v23.162h.965V5.943A3.382 3.382 0 0132 2.565a3.382 3.382 0 013.378 3.378v27.022h.965V9.803a3.382 3.382 0 013.378-3.378 3.382 3.382 0 013.377 3.378v23.162h.965V17.524a3.382 3.382 0 013.378-3.378 3.382 3.382 0 013.378 3.378v25.092c0 10.376-8.443 18.819-18.82 18.819z" fill="#007CC3"/></svg>