<svg width="25" height="24" fill="none" xmlns="http://www.w3.org/2000/svg"><path d="M12.364 10.2a1.8 1.8 0 100 3.6 1.8 1.8 0 000-3.6zm0 7.2a1.8 1.8 0 100 3.6 1.8 1.8 0 000-3.6zm0-14.4a1.8 1.8 0 100 3.6 1.8 1.8 0 000-3.6zm-7.2 7.2a1.8 1.8 0 100 3.6 1.8 1.8 0 000-3.6zm14.4 0a1.8 1.8 0 100 3.6 1.8 1.8 0 000-3.6zm-14.4 7.2a1.8 1.8 0 100 3.6 1.8 1.8 0 000-3.6zm14.4 0a1.8 1.8 0 100 3.6 1.8 1.8 0 000-3.6zM5.164 3a1.8 1.8 0 100 3.6 1.8 1.8 0 000-3.6zm14.398 0a1.8 1.8 0 100 3.6 1.8 1.8 0 000-3.6z" fill="#fff"/></svg>