<svg width="64" height="64" fill="none" xmlns="http://www.w3.org/2000/svg"><path d="M3.23 21.58h1.32v9.72h13.68v-9.72h1.32V43h-1.32V32.44H4.55V43H3.23V21.58zm36.838 26.94V43h-16.77v5.52h-1.29v-6.66h1.89c.76-1.4 1.35-2.86 1.77-4.38.44-1.54.76-3.06.96-4.56.22-1.52.35-2.99.39-4.41.06-1.44.09-2.76.09-3.96v-2.97h12.09v20.28h2.16v6.66h-1.29zm-2.19-25.8h-9.45v2.04c0 1.2-.03 2.51-.09 3.93-.04 1.4-.17 2.85-.39 4.35-.2 1.48-.51 2.98-.93 4.5-.4 1.5-.96 2.94-1.68 4.32h12.54V22.72zm4.738 9.57c0-1.56.23-3.02.69-4.38.46-1.38 1.12-2.57 1.98-3.57a9.341 9.341 0 013.21-2.4c1.28-.58 2.72-.87 4.32-.87 1.26 0 2.35.17 3.27.51.92.32 1.69.73 2.31 1.23a6.89 6.89 0 011.56 1.59c.4.58.7 1.13.9 1.65.22.5.37.94.45 1.32.08.36.12.56.12.6h-1.32c-.14-.9-.43-1.7-.87-2.4-.44-.72-.99-1.33-1.65-1.83-.66-.5-1.4-.88-2.22-1.14a8.2 8.2 0 00-2.55-.39c-1.4 0-2.65.27-3.75.81s-2.03 1.27-2.79 2.19c-.76.9-1.34 1.96-1.74 3.18-.4 1.22-.6 2.52-.6 3.9s.2 2.68.6 3.9c.4 1.22.98 2.29 1.74 3.21.76.9 1.69 1.62 2.79 2.16s2.35.81 3.75.81c1.04 0 2.01-.21 2.91-.63.92-.44 1.72-1.01 2.4-1.71.68-.72 1.22-1.54 1.62-2.46a8.3 8.3 0 00.72-2.91h1.32c-.12 1.28-.44 2.46-.96 3.54a9.725 9.725 0 01-1.95 2.82 8.508 8.508 0 01-6.06 2.49c-1.6 0-3.04-.29-4.32-.87a9.521 9.521 0 01-3.21-2.37c-.86-1.02-1.52-2.21-1.98-3.57-.46-1.38-.69-2.85-.69-4.41z" fill="#007CC3"/></svg>