<svg width="64" height="64" fill="none" xmlns="http://www.w3.org/2000/svg"><path d="M5.746 59c-.068 0-.203 0-.271-.068-.271-.135-.475-.406-.475-.677V32.103c0-3.997 3.256-7.182 7.191-7.182h11.058c.407 0 .746.34.746.746 0 .406-.34.745-.746.745H12.19c-3.12 0-5.699 2.574-5.699 5.691v24.458l4.953-4.81a.77.77 0 01.542-.204h22.32c3.12 0 5.698-2.574 5.698-5.69v-7.453c0-.407.34-.746.746-.746.407 0 .747.34.747.746v7.452c0 3.998-3.257 7.182-7.191 7.182H12.259L6.22 58.797a.616.616 0 01-.475.203z" fill="#007CC3"/><path d="M51.741 39.081H29.694a7.19 7.19 0 01-7.191-7.181V18.214c0-3.997 3.256-7.181 7.19-7.181h21.98l6.038-5.827a.722.722 0 01.814-.136c.272.136.475.407.475.678v26.22c0 3.861-3.256 7.113-7.259 7.113zM29.694 12.455c-3.121 0-5.699 2.575-5.699 5.691v13.686c0 3.117 2.578 5.691 5.698 5.691h22.048c3.12 0 5.699-2.575 5.699-5.691V7.442l-4.953 4.81a.77.77 0 01-.542.203H29.693z" fill="#007CC3"/><path d="M35.392 26.48a1.153 1.153 0 10.001-2.305 1.153 1.153 0 00-.001 2.305zm6.038 0a1.153 1.153 0 100-2.305 1.153 1.153 0 000 2.305zm6.105 0a1.153 1.153 0 10.002-2.305 1.153 1.153 0 00-.002 2.305z" fill="#007CC3"/></svg>