<svg width="64" height="64" fill="none" xmlns="http://www.w3.org/2000/svg"><g clip-path="url(#clip0)" fill="#007CC3"><path d="M14.282 62h35.436A4.296 4.296 0 0054 57.718V6.282A4.296 4.296 0 0049.718 2H14.282A4.296 4.296 0 0010 6.282v51.436A4.296 4.296 0 0014.282 62zM11 6.282A3.285 3.285 0 0114.282 3h35.436A3.285 3.285 0 0153 6.282v51.436A3.285 3.285 0 0149.718 61H14.282A3.285 3.285 0 0111 57.718V6.282z"/><path d="M26.404 9.266l-.82-.574-4.46 6.372L17.5 12.54l-.57.82 4.442 3.094 5.032-7.188zm19.992 2.604h-16.39v1h16.39v-1zm0 13.086h-16.39v1h16.39v-1zm0 13.086h-16.39v1h16.39v-1zm0 13.088h-16.39v1h16.39v-1zm-25.108-15.6a3.015 3.015 0 10.001 6.03 3.015 3.015 0 00-.001-6.03zm0 5.028a2.017 2.017 0 01-2.014-2.014c0-1.11.904-2.014 2.014-2.014 1.11 0 2.014.904 2.014 2.014 0 1.11-.902 2.014-2.014 2.014zm0-18.116a3.015 3.015 0 10.001 6.03 3.015 3.015 0 00-.001-6.03zm0 5.028a2.017 2.017 0 01-2.014-2.014c0-1.11.904-2.014 2.014-2.014 1.11 0 2.014.904 2.014 2.014 0 1.11-.902 2.014-2.014 2.014zm0 21.146a3.015 3.015 0 10.001 6.03 3.015 3.015 0 00-.001-6.03zm0 5.03a2.017 2.017 0 01-2.014-2.014c0-1.11.904-2.014 2.014-2.014 1.11 0 2.014.904 2.014 2.014 0 1.11-.902 2.014-2.014 2.014z"/></g><defs><clipPath id="clip0"><path fill="#fff" d="M0 0h64v64H0z"/></clipPath></defs></svg>