<svg width="40" height="40" fill="none" xmlns="http://www.w3.org/2000/svg"><path d="M18.764 14.8h-5.328v.72h5.328v-.72zm4.32 4.68h-9.648v.72h9.648v-.72zm0 4.68h-9.648v.72h9.648v-.72z" fill="#007CC3"/><path d="M12.32 8.248H8v26.856l3.6-3.312 3.312 2.988 3.348-3.024 3.312 2.988 3.312-2.988 3.6 3.312v-6.876l.72-.648 3.6 3.312V4h-20.52l.036 4.248zM27.8 33.484l-2.88-2.664-3.312 2.988-3.348-3.024-3.312 2.988-3.348-2.988-2.88 2.664V8.968H27.8v24.516zm4.32-28.728v24.48l-2.88-2.664-.72.648V8.248H13.04V4.72l19.08.036z" fill="#007CC3"/></svg>