<svg width="70" height="70" fill="none" xmlns="http://www.w3.org/2000/svg"><path d="M54.26 61.239V8.76H15.74v52.478h38.522zM16.834 9.854h36.323v50.291H16.833V9.855z" fill="#007CC3"/><path d="M19.928 24.916h30.133V14.044H19.928v10.872zm1.094-9.778h27.945v8.684H21.022v-8.684zm-.536 21.382H27.3v-6.814h-6.814v6.814zm1.094-5.72h4.626v4.626H21.58V30.8zm10.007 5.72h6.815v-6.814h-6.815v6.814zm1.094-5.72h4.627v4.626H32.68V30.8zm10.009 5.72h6.813v-6.814H42.69v6.814zm1.093-5.72h4.626v4.626h-4.626V30.8zM20.486 46.44H27.3v-6.813h-6.814v6.813zm1.094-5.73h4.626v4.626H21.58v-4.627zm10.007 5.73h6.815v-6.813h-6.815v6.813zm1.094-5.73h4.627v4.626H32.68v-4.627zm10.009 5.73h6.813v-6.813H42.69v6.813zm1.093-5.73h4.626v4.626h-4.626v-4.627zM20.486 56.35H27.3v-6.814h-6.814v6.814zm1.094-5.72h4.626v4.626H21.58V50.63zm10.007 5.72h6.815v-6.814h-6.815v6.814zm1.094-5.72h4.627v4.626H32.68V50.63zm10.009 5.72h6.813v-6.814H42.69v6.814zm1.093-5.72h4.626v4.626h-4.626V50.63z" fill="#007CC3"/></svg>