<svg width="56" height="56" fill="none" xmlns="http://www.w3.org/2000/svg"><path d="M28.547 28.766H7.766a.219.219 0 01-.22-.22V3.392a.22.22 0 01.22-.22h13.343c4.222 0 7.657 3.435 7.657 7.657v17.719a.22.22 0 01-.22.219zm-20.563-.438h20.344v-17.5c0-3.98-3.238-7.219-7.219-7.219H7.984v24.72z" fill="#fff" stroke="#fff" stroke-width=".3"/><path d="M49.328 28.766H28.547a.219.219 0 01-.219-.22V10.829c0-4.222 3.435-7.656 7.656-7.656h13.344a.22.22 0 01.219.219v25.156a.22.22 0 01-.219.219zm-20.562-.438h20.343V3.61H35.984c-3.98 0-7.218 3.239-7.218 7.22v17.5z" fill="#fff" stroke="#fff" stroke-width=".3"/><path d="M44.953 23.297H32.922a.219.219 0 01-.219-.219v-6.562a.22.22 0 01.219-.22h12.031a.22.22 0 01.219.22v6.562a.22.22 0 01-.219.219zm-11.812-.438h11.593v-6.125H33.141v6.125zm11.812-9.406H32.922a.219.219 0 010-.437h12.031a.219.219 0 010 .437zm0-3.281H32.922a.219.219 0 010-.438h12.031a.219.219 0 010 .438zm-20.781 0H12.14a.219.219 0 010-.438h12.03a.219.219 0 010 .438zm-5.469 3.281h-6.562a.219.219 0 010-.437h6.562a.219.219 0 010 .437zm5.469 3.281h-6.563a.219.219 0 010-.437h6.563a.219.219 0 010 .437zm-10.938.219h-1.093a.219.219 0 010-.437h1.093a.219.219 0 010 .437z" fill="#fff" stroke="#fff" stroke-width=".3"/><path d="M53.703 33.14H31.828a.219.219 0 01-.175-.087l-3.281-4.375a.219.219 0 01.35-.262l3.215 4.287h21.547V8.86a.219.219 0 01.438 0v24.063a.22.22 0 01-.219.219z" fill="#fff" stroke="#fff" stroke-width=".3"/><path d="M25.266 33.14H3.39a.219.219 0 01-.22-.218V8.859a.219.219 0 01.438 0v23.844h21.547l3.216-4.287a.219.219 0 11.35.262l-3.282 4.375a.219.219 0 01-.174.088zm25.63 19.688H33.542a1.935 1.935 0 01-1.933-1.932V39.01c0-1.065.867-1.932 1.933-1.932h17.354c1.065 0 1.932.867 1.932 1.932v11.886a1.935 1.935 0 01-1.932 1.932zM33.542 37.516c-.825 0-1.495.67-1.495 1.495v11.885c0 .824.67 1.495 1.495 1.495h17.354c.824 0 1.495-.671 1.495-1.495V39.01c0-.824-.671-1.494-1.495-1.494H33.542z" fill="#fff" stroke="#fff" stroke-width=".3"/><path d="M39.484 48.453a.22.22 0 01-.218-.219v-6.562a.219.219 0 01.31-.198l6.563 3.062a.219.219 0 01.01.391l-6.562 3.5a.218.218 0 01-.103.026zm.22-6.438v5.855l5.853-3.123-5.854-2.732zm8.53-4.499a.219.219 0 01-.218-.22v-4.374a.219.219 0 01.437 0v4.375a.22.22 0 01-.219.219zm-4.374 0a.219.219 0 01-.22-.22v-4.374a.219.219 0 01.438 0v4.375a.22.22 0 01-.219.219zM27.453 52.828H5.578a.219.219 0 010-.437h21.875a.219.219 0 010 .437zm-25.156 0a.215.215 0 01-.154-.064.215.215 0 01-.065-.154c0-.057.023-.114.065-.156a.226.226 0 01.308 0 .22.22 0 01-.154.374zm25.156-5.469a.218.218 0 01-.102-.025L8.757 37.49a.219.219 0 11.205-.387l18.593 9.844a.219.219 0 01-.102.412z" fill="#fff" stroke="#fff" stroke-width=".3"/></svg>