<svg width="40" height="40" fill="none" xmlns="http://www.w3.org/2000/svg"><path d="M1.714 34.217h6.4a.286.286 0 00.286-.286v-1.442l10.805 3.482a8.168 8.168 0 006.184-.472l12.502-6.26a1.22 1.22 0 00.666-.913 1.217 1.217 0 00-.358-1.07 4.576 4.576 0 00-4.669-1.065l-5.926 1.99c.044-.179.07-.365.07-.557 0-1.3-1.059-2.358-2.359-2.358h-4.106a3.27 3.27 0 01-1.632-.436l-1.588-.911a6.843 6.843 0 00-3.402-.908H8.4v-1.766a.286.286 0 00-.286-.286h-6.4a.286.286 0 00-.286.286V33.93c0 .158.128.286.286.286zM8.4 23.582h6.187a6.27 6.27 0 013.118.832l1.587.912a3.855 3.855 0 001.917.511h4.106a1.79 1.79 0 011.787 1.787c0 .986-.802 1.787-1.787 1.787h-8.91a.286.286 0 100 .572h8.91c.837 0 1.571-.44 1.99-1.098l6.407-2.152a4.007 4.007 0 014.088.932c.155.15.225.36.192.574a.652.652 0 01-.357.488l-12.503 6.26a7.582 7.582 0 01-5.752.44L8.4 31.889v-8.307zM2 21.53h5.829v12.115h-5.83V21.53z" fill="#007CC3"/><path d="M5.25 29.747c-.78 0-1.414.633-1.414 1.412a1.414 1.414 0 002.828 0c0-.779-.634-1.412-1.414-1.412zm0 2.252a.842.842 0 01-.842-.84.842.842 0 011.684 0c0 .463-.378.84-.842.84zM6.54 3.92v14.638c0 .158.127.286.285.286h26.35a.286.286 0 00.285-.286V3.92a.286.286 0 00-.285-.286H6.825a.286.286 0 00-.285.286zm26.349 14.352h-2.996c.127-1.745 1.4-3.141 2.996-3.292v3.292zm0-14.066v3.292c-1.597-.151-2.869-1.547-2.996-3.292h2.996zm-25.778 0h2.996C9.98 5.95 8.707 7.347 7.11 7.498V4.206zm0 3.863c1.91-.151 3.436-1.802 3.567-3.863h18.644c.13 2.06 1.657 3.712 3.567 3.863v6.34c-1.91.151-3.436 1.802-3.567 3.863H10.678c-.131-2.06-1.657-3.712-3.567-3.863v-6.34zm0 6.911c1.596.15 2.869 1.547 2.996 3.292H7.11V14.98z" fill="#007CC3"/><path d="M20 16.904c2.558 0 4.639-2.541 4.639-5.665S22.558 5.574 20 5.574c-2.558 0-4.639 2.541-4.639 5.665s2.081 5.665 4.639 5.665zm0-10.759c2.243 0 4.068 2.286 4.068 5.094 0 2.809-1.825 5.094-4.068 5.094-2.243 0-4.068-2.285-4.068-5.094 0-2.808 1.825-5.094 4.068-5.094zm7.28 5.38h2.134a.286.286 0 100-.572H27.28a.286.286 0 100 .572zm-16.694 0h2.134a.286.286 0 100-.572h-2.134a.286.286 0 100 .572z" fill="#007CC3"/></svg>