<svg width="20" height="20" fill="none" xmlns="http://www.w3.org/2000/svg"><g clip-path="url(#clip0)"><path d="M.576 7.878c-1.448 6.508 4.253 12.42 10.949 11.286C15.16 21.42 20 18.87 20 14.545a5.38 5.38 0 00-.76-2.759C20.586 5.263 14.838-.564 8.148.648c-4.73-2.5-9.956 2.487-7.572 7.23zM6.94 3.953c1.756-.723 4.647-.727 6.397.19 2.494 1.33 2.937 4.323.785 4.323-1.621 0-1.108-1.89-2.745-2.661-.752-.348-2.368-.384-3.307.25-.928.62-.843 1.597-.338 2.064 1.335 1.233 5.158.743 6.905 2.902.76.937.903 2.59-.03 3.788-1.627 2.093-6.4 2.22-8.453.64-1.895-1.467-1.383-3.414.146-3.414 1.839 0 .872 2.407 3.841 2.407 2.153 0 3-1.53 1.484-2.276-2.055-1.02-7.292-.68-7.292-4.669.004-1.66 1.022-2.897 2.607-3.544z" fill="#4BAEEA"/></g><defs><clipPath id="clip0"><path fill="#fff" transform="rotate(-180 10 10)" d="M0 0h20v20H0z"/></clipPath></defs></svg>