<svg width="16" height="15" fill="none" xmlns="http://www.w3.org/2000/svg"><path d="M8.49 1.036a2.125 2.125 0 011.632 2.066A2.125 2.125 0 018.49 5.168v8.383a.49.49 0 01-.98 0V5.168a2.125 2.125 0 01-1.633-2.066c0-1.003.698-1.844 1.633-2.065V.49a.49.49 0 01.98 0v.546zM6.857 3.103a1.144 1.144 0 002.286 0 1.144 1.144 0 00-2.286 0zm-4.245 5.77a2.125 2.125 0 011.633 2.066 2.125 2.125 0 01-1.633 2.065v.547a.49.49 0 11-.98 0v-.547A2.125 2.125 0 010 10.94c0-1.003.697-1.844 1.633-2.066V.49a.49.49 0 01.98 0v8.383zM.98 10.94a1.144 1.144 0 002.285 0 1.144 1.144 0 00-2.285 0zm13.387-5.006A2.125 2.125 0 0116 8a2.125 2.125 0 01-1.633 2.066v3.485a.49.49 0 01-.98 0v-3.485A2.125 2.125 0 0111.756 8c0-1.003.697-1.844 1.633-2.066V.49a.49.49 0 01.98 0v5.444zM12.735 8a1.144 1.144 0 002.285 0 1.144 1.144 0 00-2.285 0z" fill="#fff"/></svg>