<svg width="40" height="40" fill="none" xmlns="http://www.w3.org/2000/svg"><path d="M6.472 6h28.383v28.855H6V6h.472zm27.438.945H6.945V33.91H33.91V6.945z" fill="#007CC3"/><path d="M28.668 12.281L12.423 28.479l-.662-.66 16.246-16.2.661.662zm-13.884.047c.897 0 1.7.378 2.267.945a3.21 3.21 0 01.944 2.267c0 .85-.378 1.652-.944 2.22a3.211 3.211 0 01-2.267.944c-.85 0-1.653-.378-2.22-.945-.614-.567-.944-1.37-.944-2.22 0-.897.33-1.7.944-2.266.567-.567 1.37-.945 2.22-.945zm1.606 1.606c-.425-.378-.992-.661-1.606-.661-.614 0-1.18.283-1.559.66a2.249 2.249 0 00-.66 1.607c0 .614.236 1.18.66 1.558.378.425.945.661 1.559.661s1.18-.236 1.606-.661c.377-.378.66-.944.66-1.558 0-.614-.283-1.181-.66-1.606zm9.256 8.926c.85 0 1.653.377 2.22.944.566.567.944 1.37.944 2.22 0 .897-.378 1.7-.944 2.266-.567.567-1.37.945-2.22.945-.897 0-1.7-.378-2.267-.945a3.211 3.211 0 01-.944-2.266c0-.85.377-1.653.944-2.22a3.211 3.211 0 012.267-.944zm1.558 1.605c-.425-.425-.944-.661-1.558-.661-.614 0-1.18.236-1.606.661a2.252 2.252 0 00-.66 1.559c0 .613.282 1.18.66 1.605.425.378.945.661 1.606.661a2.253 2.253 0 002.22-2.266c0-.614-.237-1.181-.662-1.559z" fill="#007CC3"/></svg>