<svg width="64" height="64" fill="none" xmlns="http://www.w3.org/2000/svg"><path d="M55.295 11c.935 0 1.705.77 1.705 1.704v37.5c0 .935-.77 1.705-1.705 1.705H15.523a.569.569 0 01-.409-.178L7.16 43.777a.568.568 0 01-.16-.39V12.703C7 11.77 7.77 11 8.705 11h46.59zm0 1.136H8.705a.555.555 0 00-.569.569v9.659h47.728v-9.66a.555.555 0 00-.569-.568zM45.069 14.41a2.85 2.85 0 012.841 2.841 2.85 2.85 0 01-2.84 2.84 2.85 2.85 0 01-2.842-2.84 2.85 2.85 0 012.841-2.84zm-26.136 0a2.85 2.85 0 012.84 2.841 2.85 2.85 0 01-2.84 2.84 2.85 2.85 0 01-2.841-2.84 2.85 2.85 0 012.84-2.84zm26.136 1.136c-.948 0-1.704.757-1.704 1.705 0 .948.756 1.704 1.704 1.704s1.705-.756 1.705-1.704-.757-1.704-1.705-1.704zm-26.136 0c-.948 0-1.705.757-1.705 1.705 0 .948.757 1.704 1.705 1.704.948 0 1.704-.756 1.704-1.704s-.756-1.704-1.704-1.704zM55.864 23.5H8.136v19.318h6.25c.935 0 1.705.77 1.705 1.705v6.25h39.204a.555.555 0 00.569-.569V23.5zm-5.114 3.977v19.318H22.34v-9.09h-9.09V27.477h37.5zm-1.136 1.137h-7.955v7.954h7.955v-7.954zm-9.091 0h-7.955v7.954h7.955v-7.954zm-9.091 0h-7.955v7.954h7.955v-7.954zm-9.091 0h-7.955v7.954h7.955v-7.954zm27.273 9.09h-7.955v7.955h7.955v-7.954zm-9.091 0h-7.955v7.955h7.955v-7.954zm-9.091 0h-7.955v7.955h7.955v-7.954zm-17.046 6.25H8.953l6.002 6.002v-5.433a.555.555 0 00-.569-.569z" fill="#007CC3" stroke="#007CC3" stroke-width=".2"/></svg>