<svg width="40" height="40" fill="none" xmlns="http://www.w3.org/2000/svg"><path d="M3.325 9A.413.413 0 003 9.4v20.8c0 .21.19.4.4.4h2.825a4.401 4.401 0 004.375 4 4.4 4.4 0 004.375-4h10.45a4.4 4.4 0 004.375 4 4.401 4.401 0 004.375-4h2.824c.21 0 .4-.19.4-.4v-8.8a.402.402 0 00-.025-.162l-2.8-6.8a.41.41 0 00-.374-.238H27V9.4c0-.21-.191-.4-.4-.4H3.325zm.475.8h22.4v17.837a.417.417 0 000 .05 4.339 4.339 0 00-.775 2.113h-10.45a4.4 4.4 0 00-4.375-4 4.4 4.4 0 00-4.375 4H3.8v-20zM27 15h6.925l2.674 6.488V29.8h-2.424a4.4 4.4 0 00-4.375-4c-1.062 0-2.04.383-2.8 1.012V15zm2.325 6.8a.417.417 0 00-.363.438c.02.209.228.382.438.362H31a.415.415 0 00.405-.4.416.416 0 00-.405-.4h-1.6a.236.236 0 00-.075 0zM10.6 26.6c1.993 0 3.6 1.607 3.6 3.6s-1.607 3.6-3.6 3.6A3.594 3.594 0 017 30.2c0-1.993 1.607-3.6 3.6-3.6zm19.2 0c1.992 0 3.6 1.607 3.6 3.6s-1.607 3.6-3.6 3.6a3.594 3.594 0 01-3.6-3.6c0-1.993 1.607-3.6 3.6-3.6zm-19.2 1.6c-1.1 0-2 .9-2 2s.9 2 2 2 2-.9 2-2-.9-2-2-2zm19.2 0c-1.1 0-2 .9-2 2s.9 2 2 2 2-.9 2-2-.9-2-2-2zm-19.2.8c.667 0 1.2.532 1.2 1.2 0 .668-.533 1.2-1.2 1.2-.668 0-1.2-.532-1.2-1.2 0-.668.532-1.2 1.2-1.2zm19.2 0c.667 0 1.2.532 1.2 1.2 0 .668-.533 1.2-1.2 1.2-.668 0-1.2-.532-1.2-1.2 0-.668.532-1.2 1.2-1.2z" fill="#007CC3"/></svg>