<svg width="64" height="48" fill="none" xmlns="http://www.w3.org/2000/svg"><path d="M20.96 9.237l-6.493.334C18.763 4.364 25.22 1.293 32 1.293c7.223 0 14.083 3.488 18.35 9.328l1.016-.743C46.865 3.714 39.624.034 32 .034c-7.07 0-13.803 3.167-18.335 8.542l-.32-6.208-1.258.063.403 7.871a.631.631 0 00.663.597l7.87-.404-.063-1.258zM64 24c0-4.776-3.885-8.662-8.662-8.662-4.776 0-8.663 3.886-8.663 8.662 0 4.777 3.886 8.662 8.662 8.662C60.114 32.662 64 28.777 64 24zm-16.066 0c0-4.081 3.322-7.402 7.403-7.402 4.082 0 7.402 3.32 7.402 7.402 0 4.081-3.32 7.402-7.402 7.402-4.08 0-7.403-3.321-7.403-7.402zm-30.608 0c0-4.776-3.886-8.662-8.662-8.662C3.89 15.338 0 19.224 0 24c0 4.777 3.886 8.662 8.662 8.662 4.776 0 8.664-3.885 8.664-8.662zM1.261 24c0-4.081 3.322-7.402 7.402-7.402 4.082 0 7.402 3.32 7.402 7.402 0 4.081-3.32 7.402-7.402 7.402C4.58 31.402 1.26 28.08 1.26 24zm49.075 15.425l.319 6.207 1.258-.064-.404-7.87a.632.632 0 00-.662-.597l-7.871.404.064 1.258 6.491-.334C45.236 43.635 38.777 46.706 32 46.706c-7.223 0-14.083-3.486-18.35-9.327l-1.017.744c4.505 6.162 11.744 9.843 19.367 9.843 7.068 0 13.804-3.167 18.336-8.54z" fill="#007CC3"/></svg>