<svg width="53" height="48" fill="none" xmlns="http://www.w3.org/2000/svg"><path d="M6.79 3.36a.543.543 0 00-.311.169.452.452 0 00-.119.311v35.52c0 .127.056.25.155.34.1.09.234.14.375.14h8.298c.07 0 .14-.01.205-.035a.54.54 0 00.174-.103.481.481 0 00.117-.157.442.442 0 00-.117-.527.58.58 0 00-.38-.138H7.42V4.32h20.14v6.24c0 .127.056.25.155.34.1.09.234.14.375.14h6.89v7.035a16.276 16.276 0 00-3.18-.315c-8.19 0-14.84 6.023-14.84 13.44s6.65 13.44 14.84 13.44 14.84-6.023 14.84-13.44c0-6.082-4.474-11.228-10.6-12.885V10.56a.438.438 0 00-.036-.186.479.479 0 00-.113-.159l-7.42-6.72a.58.58 0 00-.381-.135H6.89a.587.587 0 00-.1 0zm21.83 1.635l5.615 5.085H28.62V4.995zM12.09 10.08a.551.551 0 00-.36.172.452.452 0 00.07.68.57.57 0 00.39.108h10.6a.541.541 0 00.38-.138.481.481 0 00.116-.157.442.442 0 00-.116-.527.58.58 0 00-.38-.138h-10.6a.588.588 0 00-.1 0zm0 4.32a.551.551 0 00-.36.172.452.452 0 00.07.68.57.57 0 00.39.108h10.6a.541.541 0 00.38-.138.481.481 0 00.116-.157.442.442 0 00-.116-.527.58.58 0 00-.38-.138h-10.6a.588.588 0 00-.1 0zm0 4.32a.551.551 0 00-.36.172.452.452 0 00.07.68.57.57 0 00.39.108h5.482c.07 0 .14-.01.205-.035a.541.541 0 00.175-.103.481.481 0 00.117-.157.442.442 0 00-.117-.527.58.58 0 00-.38-.138H12.19a.588.588 0 00-.1 0zm19.71 0c7.617 0 13.78 5.582 13.78 12.48 0 6.898-6.163 12.48-13.78 12.48-7.617 0-13.78-5.582-13.78-12.48 0-6.898 6.163-12.48 13.78-12.48zm-.066 4.365a.548.548 0 00-.333.16.455.455 0 00-.131.32v1.86c-.757.082-1.501.312-2.104.735-.744.522-1.258 1.345-1.258 2.37.019.976.487 1.721 1.192 2.19.705.469 1.589.719 2.567.945.946.218 1.73.455 2.22.78.485.322.727.683.745 1.41v.015c-.005.739-.328 1.242-.845 1.605-.52.365-1.25.564-1.987.57-1.7 0-2.484-.734-2.899-1.5a.475.475 0 00-.115-.173.535.535 0 00-.184-.114.577.577 0 00-.435.012.524.524 0 00-.175.126.466.466 0 00-.103.179.437.437 0 00.068.39c.5.922 1.565 1.866 3.313 2.025v1.83a.44.44 0 00.038.186.48.48 0 00.114.158c.05.045.109.081.173.106a.58.58 0 00.582-.106.48.48 0 00.115-.158.44.44 0 00.038-.186v-1.845c.757-.078 1.5-.312 2.103-.735.745-.522 1.26-1.36 1.26-2.385-.02-.976-.488-1.721-1.193-2.19-.706-.469-1.589-.704-2.568-.93-.945-.218-1.73-.455-2.219-.78-.485-.322-.727-.698-.745-1.425v-.015c.005-.739.328-1.242.844-1.605.521-.365 1.252-.564 1.988-.57 1.7 0 2.484.734 2.898 1.5a.473.473 0 00.116.173c.051.05.114.089.183.115a.581.581 0 00.436-.013.525.525 0 00.175-.126.466.466 0 00.103-.179.436.436 0 00-.069-.39c-.498-.922-1.564-1.85-3.312-2.01v-1.845a.44.44 0 00-.046-.199.487.487 0 00-.132-.163.583.583 0 00-.418-.117z" fill="#fff"/></svg>