<svg width="66" height="66" fill="none" xmlns="http://www.w3.org/2000/svg"><path d="M14.427 29.936a12.375 12.375 0 01-1.168-.316c-.484-.185-1.348-.595-2.598-1.233a15.641 15.641 0 01-3.283-2.303c-.939-.893-1.802-2.146-2.587-3.764-.755-1.637-1.133-3.433-1.133-5.39 0-3.725 1.468-6.949 4.414-9.675h0c2.972-2.753 6.606-4.13 10.908-4.13 4.33 0 7.976 1.377 10.947 4.13h.001c2.973 2.727 4.454 5.95 4.454 9.674 0 1.959-.378 3.755-1.132 5.392-.757 1.615-1.66 2.866-2.705 3.76a26.115 26.115 0 01-3.17 2.269c-1.03.61-1.906 1.032-2.629 1.268l-1.182.32.016.244c.374.053.859.158 1.456.317.585.157 1.636.617 3.163 1.392h.001c1.517.743 2.855 1.631 4.018 2.664 1.155 1.026 2.223 2.52 3.199 4.485.971 1.956 1.458 4.151 1.458 6.589 0 4.554-1.688 8.404-5.068 11.556-3.379 3.125-7.652 4.69-12.827 4.69-5.149 0-9.408-1.565-12.787-4.69-3.38-3.152-5.068-7.002-5.068-11.556 0-2.44.46-4.635 1.377-6.591.921-1.963 2.028-3.467 3.317-4.52 1.302-1.063 2.603-1.939 3.902-2.628h0l.002-.001c1.302-.717 2.421-1.178 3.359-1.388h.001l1.349-.321-.005-.244zm-7.22 26.312h.001c3.105 2.853 7.046 4.276 11.812 4.276 4.767 0 8.695-1.423 11.772-4.276h0c3.104-2.879 4.658-6.421 4.658-10.62 0-4.197-1.554-7.726-4.658-10.578-3.077-2.88-7.005-4.316-11.772-4.316S10.313 32.17 7.208 35.05C4.104 37.902 2.55 41.43 2.55 45.629s1.554 7.74 4.658 10.619zM28.913 8.19c-2.669-2.45-5.983-3.674-9.933-3.674-3.924 0-7.225 1.224-9.892 3.676-2.666 2.45-4.004 5.364-4.004 8.737 0 3.374 1.338 6.288 4.004 8.738 2.668 2.452 5.968 3.676 9.892 3.676 3.95 0 7.264-1.224 9.932-3.675 2.693-2.45 4.045-5.365 4.045-8.739 0-3.373-1.352-6.288-4.045-8.738z" fill="#007CC3" stroke="#fff" stroke-width=".25"/></svg>