<svg width="48" height="48" fill="none" xmlns="http://www.w3.org/2000/svg"><path d="M9.265 32.88c2.939-.732 7.383-.904 9.883-.939l-1.251.82a.53.53 0 00-.208.622l.962 2.669-.627 7.701a.53.53 0 001.054.086l.598-7.325h2.279l.597 7.325a.529.529 0 001.055-.086l-.629-7.718.956-2.652a.528.528 0 00-.207-.623l-1.259-.824c2.379.021 7.211.164 10.339.943a9.312 9.312 0 011.642.568.53.53 0 00.444-.96c-.59-.269-1.202-.48-1.83-.635-2.65-.66-6.365-.88-8.967-.949 3.29-1.787 5.613-6.058 5.613-11.034 0-.193-.011-.383-.021-.573.418-.535 1.652-2.582 1.033-7.58-.204-1.157-1.1-3.195-3.056-3.283a3.464 3.464 0 00-.964-1.757c-.068-.06-6.906-5.986-14.87 1.978a.528.528 0 00.154.856l.51.232c-.972.808-2.309 2.589-1.758 6.074l.631 3.473a.522.522 0 00.254.355c-.001.075-.006.15-.006.225 0 4.998 2.344 9.284 5.657 11.057a44.176 44.176 0 00-8.263.927C2.806 33.396 2.999 38.63 3 38.67l.137 5.06a.53.53 0 00.528.515h.015a.53.53 0 00.515-.543l-.137-5.073c-.003-.044-.162-4.415 5.206-5.75zm12.798 2.575H19.56l-.735-2.038 1.986-1.301 1.985 1.3-.734 2.04zm7.612-23.583c.49 3.97-.26 5.846-.646 6.514-2.027-1.211-2.372-4.053-2.378-5.817.022-.025.044-.05.073-.087.119-.184.228-.374.326-.57a6.254 6.254 0 00.696-2.406c1.511.196 1.916 2.293 1.93 2.366zM13.793 10.15a.528.528 0 00.02-.972l-.68-.309c6.99-6.452 12.621-1.617 12.841-1.424.426.416.682.976.717 1.57a4.879 4.879 0 01-.584 2.417c-.13.256-.237.421-.234.421-.026.032-.053.061-.08.09l-.066.072c-3.624 4.077-11.24 1.283-11.316 1.254a.528.528 0 00-.713.447c-.284 3.128-.984 4.282-1.413 4.703l-.505-2.78c-.678-4.293 1.907-5.444 2.013-5.49zm-1.119 9.72c0-.14.007-.276.011-.414.765-.497 1.618-1.794 1.997-4.98 1.878.581 7.369 1.92 10.949-.923.146 2.007.795 4.604 3.001 5.816.009.166.019.331.019.5 0 5.994-3.584 10.871-7.988 10.871-4.405 0-7.989-4.877-7.989-10.87z" fill="#007CC3"/><path d="M43.611 35.396l-3-.315a.493.493 0 01-.383-.254l-1.443-2.65a1.55 1.55 0 00-2.778.111l-1.226 2.757a.495.495 0 01-.36.284l-2.967.553a1.552 1.552 0 00-.752 2.678l2.243 2.018a.495.495 0 01.159.43l-.39 2.991a1.547 1.547 0 002.312 1.544l2.613-1.51a.49.49 0 01.458-.018l2.725 1.295a1.551 1.551 0 002.184-1.723l-.63-2.951a.493.493 0 01.125-.441l2.074-2.191a1.55 1.55 0 00-.964-2.608zm.197 1.88l-2.075 2.191a1.55 1.55 0 00-.391 1.39l.628 2.95a.493.493 0 01-.693.548l-2.725-1.295a1.55 1.55 0 00-1.442.057l-2.613 1.51a.492.492 0 01-.735-.49l.39-2.993a1.55 1.55 0 00-.5-1.353l-2.242-2.018a.492.492 0 01.239-.85l2.966-.554a1.551 1.551 0 001.133-.894l1.226-2.757a.482.482 0 01.43-.292h.021a.485.485 0 01.431.257l1.443 2.65a1.55 1.55 0 001.2.8l3.002.315a.493.493 0 01.307.829z" fill="#007CC3"/></svg>