<svg width="64" height="64" fill="none" xmlns="http://www.w3.org/2000/svg"><path d="M51.167 8.36V5.932h-1.334V8.36H14.167V5.933h-1.334V8.36H4.146v49.708h55.709V8.359h-8.688zm-.667 4.7a1.187 1.187 0 010 2.372 1.187 1.187 0 01-1.186-1.185c0-.654.532-1.186 1.186-1.186zm-37 0a1.187 1.187 0 010 2.372 1.187 1.187 0 01-1.186-1.185c0-.654.532-1.186 1.186-1.186zm45.02 43.673H5.48V20.134h53.04v36.6zm0-37.932H5.48V9.693h7.353v2.136a2.516 2.516 0 00-1.852 2.418c0 1.389 1.13 2.52 2.519 2.52 1.39 0 2.52-1.13 2.52-2.52a2.516 2.516 0 00-1.853-2.418V9.693h35.666v2.136a2.516 2.516 0 00-1.852 2.418c0 1.389 1.13 2.52 2.519 2.52 1.39 0 2.52-1.13 2.52-2.52a2.516 2.516 0 00-1.853-2.418V9.693h7.354V18.8z" fill="#007CC3"/><path d="M19.911 27.095h-8.744v8.744h8.744v-8.744zm-1.333 7.411H12.5v-6.078h6.078v6.078zm17.795-7.411h-8.746v8.744h8.745v-8.744zm-1.334 7.411h-6.078v-6.078h6.078v6.078zm17.794-7.411H44.09v8.744h8.744v-8.744zM51.5 34.506h-6.078v-6.078H51.5v6.078zm-31.589 6.522h-8.744v8.745h8.744v-8.745zm-1.333 7.411H12.5v-6.078h6.078v6.078zm17.795-7.411h-8.746v8.745h8.745v-8.745zm-1.334 7.411h-6.078v-6.078h6.078v6.078zm17.794-7.411H44.09v8.745h8.744v-8.745zM51.5 48.439h-6.078v-6.078H51.5v6.078z" fill="#007CC3"/></svg>