<svg width="48" height="56" fill="none" xmlns="http://www.w3.org/2000/svg"><path d="M1.48.48a.64.64 0 00-.52.64v45.1a.64.64 0 00.64.64h21.08a.64.64 0 100-1.28H2.24V1.76h36.78v17.5a12.819 12.819 0 00-4.72-.9c-7.025 0-12.72 5.652-12.72 12.62 0 4.33 2.209 8.146 5.56 10.42v13.48a.64.64 0 001 .52l6.18-4.12 6.16 4.12a.64.64 0 001-.52V46.7a.64.64 0 10-1.28 0v6.98l-5.54-3.7a.64.64 0 00-.7 0l-5.54 3.7V42.16a12.701 12.701 0 005.88 1.44c7.025 0 12.74-5.651 12.74-12.62 0-4.822-2.73-9.015-6.74-11.14V1.12a.64.64 0 00-.64-.64H1.6a.64.64 0 00-.12 0zm6.06 6.46a.64.64 0 100 1.28H23.5a.64.64 0 100-1.28H7.54zm-.06 6.02a.64.64 0 10.06 1.28h26.18a.64.64 0 100-1.28H7.48zm-.06 6.02a.643.643 0 10.12 1.28h12.6a.64.64 0 100-1.28H7.54a.633.633 0 00-.12 0zm26.88.64c6.33 0 11.46 5.08 11.46 11.36 0 6.28-5.13 11.36-11.46 11.36-6.33 0-11.44-5.08-11.44-11.36 0-6.28 5.11-11.36 11.44-11.36zM7.42 25a.643.643 0 10.12 1.28h6.3a.64.64 0 100-1.28h-6.3a.633.633 0 00-.12 0zm32.36 1.64a.64.64 0 00-.36.22l-6.98 7.8-3.26-3.22a.644.644 0 10-.9.92l3.74 3.68a.64.64 0 00.92-.02l7.42-8.32a.64.64 0 00-.58-1.06z" fill="#007CC3"/></svg>