<svg width="40" height="40" fill="none" xmlns="http://www.w3.org/2000/svg"><path d="M6.347 31.817H34.05c1.296 0 2.347-1.066 2.347-2.376V11.376c0-1.314-1.05-2.376-2.347-2.376H6.347C5.051 9 4 10.066 4 11.376v18.061c0 1.314 1.051 2.38 2.347 2.38zM4.914 11.282c0-.756.612-1.368 1.368-1.368h27.836c.756 0 1.368.612 1.368 1.368v3.194H4.914v-3.194zm0 4.108H35.49v3.193H4.914V15.39zm0 4.104H35.49v10.04c0 .756-.612 1.368-1.368 1.368H6.282a1.367 1.367 0 01-1.368-1.368v-10.04z" fill="#007CC3"/><path d="M32.75 26.341h-4.565a.458.458 0 000 .915h4.564a.458.458 0 000-.915zm-9.127-2.282h9.126a.458.458 0 000-.915h-9.126a.458.458 0 000 .915z" fill="#007CC3"/></svg>