<svg width="47" height="42" fill="none" xmlns="http://www.w3.org/2000/svg"><g clip-path="url(#clip0)" fill="#fff"><path d="M.712 20.675c0 11.173 9.906 20.22 22.14 20.22 3.656 0 7.113-.79 10.171-2.247l11.967 2.247-2.46-10.99a18.614 18.614 0 002.46-9.29c0-11.173-9.906-20.22-22.139-20.22C10.618.395.711 9.382.711 20.675zm1.529-.06c0-10.444 9.241-18.945 20.677-18.884 11.435 0 20.676 8.44 20.676 18.884 0 3.036-.798 5.95-2.327 8.683l-.266.425.067.425 1.994 8.925-9.84-1.821-.465-.06-.465.242a21.797 21.797 0 01-9.44 2.125c-11.436 0-20.677-8.5-20.61-18.944z"/><path d="M23.317 25.169h-.998c-.266 0-.399.182-.399.364v.91c0 .243.2.365.4.365h.997c.265 0 .398-.182.398-.364v-.911c.067-.182-.133-.364-.398-.364zm2.659-9.837c-.798-.668-1.862-.972-3.125-.972s-2.26.304-2.992.911c-.665.547-1.063 1.275-1.263 2.247 0 .121 0 .243.067.303.066.061.2.122.266.182l.864.122c.2 0 .399-.122.465-.304.133-.668.466-1.214.865-1.518.465-.425 1.063-.607 1.795-.607.731 0 1.33.243 1.861.668.532.425.732.972.732 1.579a1.6 1.6 0 01-.266.91c-.2.304-.532.668-1.13 1.094-.599.485-.998.789-1.197 1.032-.266.303-.532.668-.665.971-.2.425-.266.972-.266 1.64 0 .243.2.364.399.364h.731c.2 0 .399-.182.399-.364 0-.425.067-.729.133-.911.066-.243.2-.486.399-.729.133-.182.532-.546 1.064-.971.797-.668 1.33-1.215 1.595-1.64.266-.425.4-.971.4-1.518.066-1.032-.333-1.821-1.131-2.49z"/></g><defs><clipPath id="clip0"><path fill="#fff" transform="translate(.28)" d="M0 0h45.918v42H0z"/></clipPath></defs></svg>