<svg width="64" height="64" fill="none" xmlns="http://www.w3.org/2000/svg"><path d="M27.38 49.368c-.424 0-.464-.449-.489-.716-.009-.105-.029-.322-.072-.354a1.82 1.82 0 00-.136-.006c-.527 0-1.131.2-1.715.393-.556.183-1.08.358-1.528.358-.716 0-1.11-.463-1.173-1.374-.01-.14-.006-.297.093-.404.115-.123.313-.087.493-.01.098.042.208.09.308.09.066 0 .17-.018.29-.178l.066-.087c.503-.66 1.548-2.039 1.541-2.936 0-.191-.017-.363-.03-.516-.05-.547-.096-1.063.821-1.165.487-.05.72.116.95.277.188.132.363.255.712.304.21.03.38.16.532.276.066.05.176.135.22.142 0-.005.023-.028.056-.097.424-.915-.078-1.495-.712-2.23-.294-.343-.6-.7-.845-1.123-.15-.262.08-.534.265-.753l.014-.015c-.23-.02-.378 0-.486.013a1.356 1.356 0 01-.16.013c-.307 0-.4-.186-.743-.885-.217-.441-.274-.947-.328-1.438-.078-.688-.143-1.284-.627-1.524-.437-.215-.84-.44-1.219-.65-.902-.504-1.681-.936-2.402-.936-.898.002-3.035.81-4.164 1.917-.388.382-1.241.567-2.608.567-3.049 0-7.627-.94-8.233-1.355-2.053-1.404-2.798-2.012-2.886-2.627-.067-.463.238-.835.7-1.4.39-.475.874-1.068 1.367-1.97.024-.045 4.206-5.626 4.447-5.785 1.314-.859 1.005-1.523.536-2.528-.306-.66-.655-1.408-.563-2.337.123-1.248.216-1.416.825-1.498.306-.04.767-.103 1.553-.624.593-.391 1.59-.474 2.323-.474 2.78 0 7.41 1.216 8.05 3.05.08.23.693.486 1.444.486.425 0 .819-.082 1.138-.237.395-.191.691-.28.933-.28.348 0 .522.192.648.333.138.152.233.24.513.198.217-.033.429-.05.63-.05.936 0 1.487.36 1.89.622.206.133.369.239.497.239.048 0 .127-.014.25-.124.528-.478.477-.975.422-1.502-.047-.452-.094-.92.256-1.323.506-.585 1.805-.89 4.21-.987.067-.033.117-.322.142-.462.06-.346.136-.775.52-.795.69-.035 1.297-.095 1.833-.148.594-.058 1.107-.109 1.557-.109 1.632 0 2.368.734 3.03 3.021.043.154.08.349-.022.487-.06.08-.218.15-.494.096-.065-.013-.135-.027-.203-.027-.066 0-.134 0-.173.186-.13.632-.086 1.067.517 1.42.213.127.3.14.327.14.011 0 .015 0 .073-.059.102-.104.256-.261.622-.261.287 0 .675.098 1.186.301.871.344 1.037 1.276 1.198 2.178.13.73.254 1.42.728 1.744a.196.196 0 00.116.041c.102 0 .23-.09.367-.185.235-.164.54-.345.852-.24.426.143.765.212 1.036.212.343 0 .55-.108.814-.245.414-.216.934-.49 2.159-.399.703.055 1.057.816 1.37 1.488.179.38.38.812.557.85.015.004.03.008.045.01-.044-.213-.01-.493.43-.724.06-.03.12-.046.184-.046.184 0 .31.127.422.24.07.071.15.152.205.152a3.06 3.06 0 01.333-.017c.924 0 2.129.364 3.523.786.503.152 1.025.31 1.557.456.803.223.722 1.464.568 2.09a4.813 4.813 0 01-.64 1.504c-.233.381-.264.43.078.797.823.889 1.102 3.008.185 4.63-.197.347-.54.516-1.047.516-.28 0-.59-.049-.89-.096-.476-.075-.985-.139-1.306-.046-.113.163-.36.904-.524 1.4-.459 1.38-.574 1.632-.777 1.686.005.01-.098.152-.189.278-.665.911-2.451 3.361-6.325 3.254-.538 0-2.814 1.083-3.239 1.304-1.066.557-2.057.646-3.517.306-.619-.144-.978.09-1.506.464-.262.185-.558.395-.94.584a.35.35 0 01-.156.037c-.246 0-.409-.242-.564-.476a7.797 7.797 0 00-.12-.173c-.63.7-1.609.849-2.33.849-1.241 0-2.715-.467-2.755-1.071-.013-.187.094-.333.317-.443a4.989 4.989 0 00-.317-.016c-.17-.002-.375-.142-.786-.432-.347-.247-.871-.618-1.11-.618-.035 0-.04 0-.053.042-.087.274-.161.523-.23.755-.384 1.283-.616 2.058-1.774 3.064-.522.454-.825 1.008-1.091 1.498-.376.688-.732 1.34-1.58 1.442h-.067zm0-.412v.205l.019-.206c.636-.078.9-.561 1.266-1.231.283-.52.605-1.11 1.182-1.612 1.068-.927 1.274-1.617 1.649-2.87.07-.233.145-.487.232-.762a.445.445 0 01.445-.329c.37 0 .89.367 1.35.691.202.146.482.343.563.36.503.007 1.368.067 1.386.383.013.23-.256.265-.386.284-.528.07-.608.189-.608.19.044.19 1.074.673 2.346.673.66 0 1.558-.136 2.082-.78a.306.306 0 01.238-.12c.202 0 .327.188.473.407.064.095.181.272.237.295.31-.172.592-.373.841-.549.444-.312.827-.583 1.386-.583.145 0 .292.017.452.055 1.357.316 2.257.241 3.234-.27.026-.013 2.692-1.351 3.422-1.351l.264.003c3.481 0 5.06-2.165 5.736-3.087.178-.246.265-.365.367-.415.113-.152.369-.92.54-1.435.446-1.341.558-1.587.75-1.65.402-.133.992-.068 1.535.02.297.045.577.09.825.09.36 0 .567-.092.688-.307.807-1.425.597-3.363-.128-4.147-.53-.57-.407-.835-.125-1.293.174-.284.413-.675.59-1.388.14-.573.15-1.474-.279-1.593a64.96 64.96 0 01-1.565-.46c-1.517-.458-2.805-.856-3.684-.752l-.054.002c-.226 0-.383-.16-.498-.275a.652.652 0 00-.137-.119c-.263.147-.228.236-.173.371.03.08.078.2.001.314-.085.125-.185.15-.566.068-.376-.082-.592-.544-.84-1.079-.267-.57-.57-1.215-1.03-1.251-1.09-.083-1.53.139-1.937.352-.29.15-.562.293-1.005.293-.316 0-.698-.077-1.166-.234-.148-.048-.308.063-.486.187-.174.121-.372.26-.603.26a.616.616 0 01-.348-.113c-.617-.421-.76-1.23-.9-2.012-.147-.827-.287-1.608-.944-1.868-.456-.18-.805-.271-1.036-.271-.193 0-.25.057-.328.137-.13.135-.36.306-.903-.013-.859-.505-.84-1.223-.71-1.859.087-.425.361-.515.576-.515.094 0 .192.017.281.035l.06.012a.975.975 0 00-.019-.076c-.674-2.33-1.357-2.724-2.633-2.724-.43 0-.934.05-1.515.107-.542.053-1.155.114-1.854.15-.062.036-.111.319-.135.456-.062.35-.139.786-.53.802-2.251.091-3.495.36-3.916.845-.233.268-.2.597-.157 1.01.056.55.126 1.232-.556 1.85-.172.156-.344.231-.526.231-.251 0-.469-.142-.722-.306-.38-.247-.852-.555-1.666-.555-.18 0-.37.015-.568.046-.527.08-.728-.161-.88-.33-.12-.133-.184-.197-.343-.197-.172 0-.426.08-.753.24a3.053 3.053 0 01-1.318.277c-.778 0-1.658-.261-1.832-.762-.512-1.468-4.711-2.774-7.661-2.774-.97 0-1.694.14-2.096.407-.865.572-1.402.644-1.724.688-.336.045-.363.05-.47 1.131-.082.816.227 1.48.527 2.123.476 1.024.927 1.991-.684 3.046-.21.207-4.138 5.333-4.312 5.638-.511.935-1.03 1.57-1.41 2.033-.392.48-.651.797-.61 1.08.066.466.926 1.127 2.71 2.347.482.331 4.99 1.283 8 1.283 1.62 0 2.15-.28 2.32-.448 1.144-1.123 3.366-2.032 4.443-2.037.837 0 1.659.46 2.611.99.373.206.77.428 1.201.642.686.337.771 1.105.854 1.845.05.455.103.926.288 1.302.171.348.306.622.361.655.044 0 .08-.005.123-.01.174-.021.478-.038.82.014.15.023.206.116.226.17.063.168-.058.312-.21.493-.068.08-.209.246-.214.308.217.362.51.703.792 1.031.673.78 1.308 1.519.773 2.674-.104.223-.247.336-.427.336-.176 0-.327-.116-.473-.228-.116-.09-.236-.18-.337-.194a1.836 1.836 0 01-.892-.375c-.205-.143-.347-.238-.668-.204-.517.057-.507.158-.457.719.015.163.031.345.032.55.008 1.037-1.054 2.436-1.625 3.187l-.065.086c-.172.228-.38.342-.619.342a1.175 1.175 0 01-.483-.13v.014c.059.869.401.99.762.99.382 0 .876-.163 1.399-.337.667-.22 1.36-.452 1.994-.409.405.026.443.449.468.73.01.107.028.306.068.342h.011v-.002z" fill="#007CC3" stroke="#007CC3" stroke-width=".5"/></svg>