<svg width="64" height="64" fill="none" xmlns="http://www.w3.org/2000/svg"><path d="M61.701 15.985H31.37a.85.85 0 00-.849.85v30.333a.85.85 0 00.85.847H61.7a.85.85 0 00.85-.847V16.835a.85.85 0 00-.85-.85zm-12.572.96v9.08l-2.26-2.169a.48.48 0 00-.666 0l-2.257 2.168v-9.079h5.183zm12.46 30.11H47.017v-5.907a.48.48 0 00-.96 0v5.907H31.481v-30.11h11.505V27.15a.48.48 0 00.812.346l2.738-2.629 2.74 2.63a.48.48 0 00.812-.347V16.945H61.59v30.11zM25.556 26.92H10.71a.48.48 0 000 .96h14.845a.48.48 0 000-.96zm-.001 4.6H6.843a.48.48 0 000 .96h18.712a.48.48 0 000-.96zm0 9.199H1.931a.48.48 0 000 .96h23.624a.48.48 0 000-.96zm0-4.599H4.335a.48.48 0 000 .96h21.22a.48.48 0 000-.96zm0-13.799H16.67a.48.48 0 000 .96h8.886a.48.48 0 000-.96z" fill="#007CC3"/></svg>