<svg width="23" height="20" fill="none" xmlns="http://www.w3.org/2000/svg"><path d="M22.724 2.913a9.18 9.18 0 01-2.607.74 4.634 4.634 0 001.99-2.59c-.874.54-1.84.921-2.868 1.134A4.462 4.462 0 0015.934.714c-2.505 0-4.522 2.106-4.522 4.688 0 .37.03.728.105 1.068-3.761-.19-7.09-2.057-9.325-4.901a4.847 4.847 0 00-.62 2.368c0 1.623.807 3.062 2.01 3.895a4.35 4.35 0 01-2.044-.578v.052c0 2.277 1.568 4.168 3.625 4.604-.369.104-.77.154-1.186.154a3.87 3.87 0 01-.857-.08c.586 1.856 2.25 3.22 4.228 3.265a8.893 8.893 0 01-6.693 1.934 12.42 12.42 0 006.94 2.103c8.326 0 12.878-7.143 12.878-13.335 0-.207-.007-.407-.017-.605a9.21 9.21 0 002.268-2.433z" fill="#fff"/></svg>