<svg width="64" height="64" fill="none" xmlns="http://www.w3.org/2000/svg"><g clip-path="url(#clip0)" fill="#007CC3" stroke="#fff"><path d="M27.03 46.563a1.208 1.208 0 10-2.23-.93 1.208 1.208 0 002.23.93z"/><path d="M51.12 29.828l-3.69 2.885c-1.074.872-1.61 2.08-1.677 3.354l-4.562.134-1.275.403-5.165-1.41c-.067-.469-.135-.871-.336-1.34-.47-1.074-1.274-1.946-2.348-2.349l-4.36-1.811-8.05 19.254 4.36 1.81c.537.202 1.14.336 1.677.336.537 0 1.14-.134 1.677-.335a4.29 4.29 0 00.94-.537l10.666 8.118c.47.335 1.073.536 1.61.536.805 0 1.61-.335 2.147-1.073.134-.201.268-.403.335-.604l.403.269a2.73 2.73 0 001.61.536h.335c.738-.067 1.342-.47 1.744-1.006.135-.201.269-.47.336-.671.335.134.604.201.94.201.804 0 1.61-.335 2.146-1.073.268-.335.402-.671.47-1.073h.536c.738-.068 1.342-.47 1.744-1.007a2.872 2.872 0 00.537-1.945v-.134l1.677-1.745c.671.336 1.409.537 2.08.537.94 0 1.878-.335 2.683-.94L64 46.265 51.12 29.828zm-9.594 8.386l4.763-.134c.134.268.269.536.47.738l7.38 9.257-1.342 1.41-6.508-4.898c.94-.537 1.543-1.543 1.61-2.684.068-.536-.402-1.006-.939-1.073-.537-.067-1.006.403-1.073.94-.067.804-.738 1.408-1.61 1.341l-3.489-2.616-3.488.67a.81.81 0 01-.872-.469.768.768 0 010-.67.724.724 0 01.47-.403l4.628-1.41zM26.633 48.948a2.139 2.139 0 01-1.811 0L22.34 47.94l6.507-15.564 2.482 1.007c.604.268 1.007.67 1.275 1.274a2.138 2.138 0 010 1.812l-4.696 11.203a2.925 2.925 0 01-1.275 1.275zm25.157 3.22c-.134.134-.268.2-.402.268-.201 0-.336 0-.47-.134l-1.341-1.006c-.067-.068-.135-.068-.202-.135l-5.5-4.159c-.47-.335-1.074-.268-1.41.201-.402.336-.335 1.007.135 1.342l6.306 4.763c.268.201.335.604.134.94-.201.268-.604.335-.94.134l-1.14-.873c-.067-.067-.134-.067-.201-.134l-.134-.134-4.83-3.69c-.47-.335-1.074-.268-1.41.202-.335.47-.268 1.073.202 1.408l4.897 3.69c.134.134.202.269.269.403 0 .2 0 .335-.135.47-.134.133-.268.2-.402.268-.201 0-.336 0-.47-.135l-1.945-1.475c-.067-.068-.134-.068-.201-.135-.068-.067-.135-.2-.269-.268l-1.677-1.073c-.47-.336-1.073-.269-1.409.2-.335.47-.268 1.074.202 1.41l1.543 1.14c.134.134.2.269.268.403 0 .2 0 .335-.134.47-.202.268-.604.335-.94.133l-10.599-8.05c.067-.067.067-.134.134-.201l4.696-11.203 1.879.536c-.738.269-1.275.738-1.61 1.476a2.711 2.711 0 000 2.281c.536 1.208 1.81 1.878 3.085 1.61l2.617-.47 11.337 8.587a1.4 1.4 0 01.269.403c0 .201-.067.335-.202.537zm7.38-4.696c-1.006.805-2.482.603-3.287-.403l-7.581-9.459c-.805-1.006-.604-2.482.402-3.287l2.08-1.677L61.25 45.862l-2.08 1.61z"/><path d="M58.178 46a1.208 1.208 0 10-1.501-1.892A1.208 1.208 0 0058.178 46zm-41.541 4.088h-8.05V8.361c0-.873-.268-1.678-.67-2.348h30.12c1.275 0 2.349 1.073 2.349 2.348v22.473c0 .537.47 1.007 1.006 1.007.537 0 1.006-.47 1.006-1.007V8.361A4.352 4.352 0 0038.038 4H4.092A4.346 4.346 0 000 8.36v1.946h6.574v41.727h10.063c.537 0 1.007-.47 1.007-1.006 0-.537-.403-.939-1.007-.939zM4.293 6.013c1.208.067 2.214 1.073 2.281 2.28H2.013c.067-1.207 1.073-2.213 2.28-2.28z"/><path d="M14.624 14.8h20.73a1.03 1.03 0 001.006-1.005c0-.537-.47-1.007-1.006-1.007h-20.73c-.536 0-1.006.47-1.006 1.007a.988.988 0 001.006 1.006zm0 5.703h20.73c.537 0 1.006-.47 1.006-1.006 0-.537-.47-1.006-1.006-1.006h-20.73c-.536 0-1.006.47-1.006 1.006a.988.988 0 001.006 1.006zM36.427 25.2c0-.537-.47-1.007-1.006-1.007H14.624c-.536 0-1.006.47-1.006 1.006 0 .537.47 1.006 1.006 1.006h20.797c.537 0 1.006-.47 1.006-1.006zm-12.545 5.701c0-.536-.47-1.006-1.006-1.006h-8.252c-.536 0-1.006.47-1.006 1.006 0 .537.47 1.007 1.006 1.007h8.252c.537 0 1.006-.47 1.006-1.007zm-9.258 4.629c-.536 0-1.006.47-1.006 1.007 0 .536.47 1.006 1.006 1.006h6.24c.536 0 1.006-.47 1.006-1.006 0-.537-.47-1.007-1.007-1.007h-6.239zm4.093 5.636h-4.092c-.537 0-1.007.47-1.007 1.006 0 .537.47 1.006 1.006 1.006h4.16c.537 0 1.006-.47 1.006-1.006 0-.537-.47-1.006-1.073-1.006z"/></g><defs><clipPath id="clip0"><path fill="#fff" d="M0 0h64v64H0z"/></clipPath></defs></svg>