<svg width="56" height="56" fill="none" xmlns="http://www.w3.org/2000/svg"><path d="M10.344 13.125L0 30.101l7.676 4.646 1.35-2.214 1.354.99a2.654 2.654 0 00.977 3.963c.469.229.994.316 1.512.251a2.651 2.651 0 00.873 2.57 2.675 2.675 0 002.683.471 2.652 2.652 0 001.398 2.5 2.68 2.68 0 002.863-.208 2.653 2.653 0 001.544 2.386 2.679 2.679 0 002.828-.36l1.857-1.526v-.01l2.464 1.766a2.488 2.488 0 003.59-.757c.234-.397.352-.85.34-1.31a2.679 2.679 0 003.812-1.16c.21-.454.288-.96.224-1.456a2.68 2.68 0 002.62-.641 2.658 2.658 0 00.722-2.589 2.593 2.593 0 002.05-.785 2.573 2.573 0 00.704-2.073l3.414-3.121 1.524 2.43L56 29.124 46.11 13.35l-7.621 4.74 1.091 1.742-3.177 1.156-4.523-1.61a4.363 4.363 0 00-3.523.268 11.793 11.793 0 00-6.097.186c-1.87.164-3.748.233-5.626.208l1.385-2.271-7.675-4.645zm.332 1.36l5.977 3.616-9.324 15.287-5.977-3.619 9.323-15.284zm35.117.23l8.836 14.093-5.932 3.693-8.84-14.093 5.936-3.693zM30.56 20.12c.336.015.668.08.985.193l4.863 1.729 3.712-1.353 6.201 9.89-3.227 2.95a2.577 2.577 0 00-.592-.684L31.131 23.65a9.886 9.886 0 01-7.549.902.684.684 0 01-.499-.63.679.679 0 01.45-.666 21.715 21.715 0 004.979-2.546 3.37 3.37 0 012.048-.59h.001zm-4.933.203a10.79 10.79 0 011.507.102 20.73 20.73 0 01-3.936 1.9 1.675 1.675 0 00-1.106 1.628 1.667 1.667 0 001.217 1.549 10.89 10.89 0 007.7-.674l10.866 8.788a1.583 1.583 0 01-.775 2.78 1.596 1.596 0 01-1.155-.264l-8.127-5.818a.499.499 0 00-.778.484.495.495 0 00.198.321l7.845 5.615a1.67 1.67 0 01-.722 2.975 1.682 1.682 0 01-1.235-.263l-7.407-5.3a.499.499 0 00-.78.483c.021.13.093.245.2.322l6.537 4.679a1.676 1.676 0 01.71 1.09 1.664 1.664 0 01-.778 1.717 1.681 1.681 0 01-1.889-.095l-6.148-4.4a.498.498 0 00-.76.484.5.5 0 00.18.32l4.705 3.368a1.482 1.482 0 01-.644 2.632 1.493 1.493 0 01-1.092-.225l-2.414-1.726a2.652 2.652 0 00-.237-2.912 2.67 2.67 0 00-2.776-.94 2.65 2.65 0 00-.74-2.162 2.672 2.672 0 00-2.15-.795 2.651 2.651 0 00-1.169-2.894 2.68 2.68 0 00-3.125.202l-.178.149a2.654 2.654 0 00-1.544-2.382 2.68 2.68 0 00-2.824.358l-1.71 1.407-1.562-1.142 6.507-10.665c2.14.05 4.282-.02 6.414-.21 1.03-.32 2.1-.484 3.178-.486h-.003zM14.398 31.81a1.68 1.68 0 011.685 1.132 1.665 1.665 0 01-.513 1.818l-1.98 1.628a1.681 1.681 0 01-2.318-.26 1.667 1.667 0 01.184-2.316l1.979-1.63a1.68 1.68 0 01.964-.372h-.001zm4.57 1.868a1.683 1.683 0 011.645 1.066 1.665 1.665 0 01-.497 1.891l-3.578 2.943a1.681 1.681 0 01-2.35-.234 1.666 1.666 0 01.214-2.342l3.579-2.943a1.68 1.68 0 01.986-.381zm2.812 3.297a1.682 1.682 0 011.65 1.056 1.665 1.665 0 01-.485 1.893l-2.799 2.304a1.683 1.683 0 01-2.362-.226 1.667 1.667 0 01.226-2.353l2.8-2.3a1.68 1.68 0 01.97-.374zm3.475 2.885a1.68 1.68 0 011.52 1.129 1.665 1.665 0 01-.508 1.818l-1.855 1.526a1.682 1.682 0 01-2.344-.238 1.666 1.666 0 01.209-2.338l1.857-1.526a1.681 1.681 0 011.123-.371h-.002z" fill="#007CC3"/></svg>