<svg width="64" height="64" fill="none" xmlns="http://www.w3.org/2000/svg"><path d="M41.437 18.255a11.21 11.21 0 00-7.979-3.304 11.2 11.2 0 00-7.973 3.303 11.212 11.212 0 00-3.304 7.975c0 3.013 1.173 5.848 3.304 7.979a11.204 11.204 0 007.973 3.301 11.22 11.22 0 007.98-3.301 11.207 11.207 0 003.303-7.98 11.2 11.2 0 00-3.304-7.974zM40.64 33.41a10.102 10.102 0 01-7.182 2.972 10.08 10.08 0 01-7.177-2.972 10.09 10.09 0 01-2.973-7.181c0-2.71 1.056-5.259 2.973-7.177a10.091 10.091 0 017.177-2.974c2.712 0 5.263 1.056 7.182 2.974a10.089 10.089 0 012.974 7.177c0 2.714-1.056 5.265-2.974 7.181z" fill="#007CC3"/><path d="M44.04 15.649a14.85 14.85 0 00-10.58-4.38c-3.993 0-7.75 1.554-10.58 4.38a14.88 14.88 0 00-4.38 10.58c0 2.876.814 5.654 2.359 8.062l-1.182 1.181c-1.052-.12-1.99.372-2.652 1.25-2.234 2.842-5.17 5.151-8.01 7.385-2.92 2.297-5.94 4.675-8.324 7.695C.24 52.398 0 53.144 0 53.96c0 1.046.39 2.04 1.074 2.73.645.64 1.286 1.281 1.93 1.928.685.68 1.677 1.072 2.725 1.072.806 0 1.572-.247 2.164-.696 3.02-2.377 5.396-5.401 7.694-8.324 2.232-2.84 4.538-5.77 7.371-7.998.808-.61 1.272-1.48 1.272-2.385 0-.088-.004-.179-.015-.27l1.182-1.183a14.902 14.902 0 008.062 2.359c4 0 7.758-1.556 10.58-4.384a14.837 14.837 0 004.38-10.578c.005-3.992-1.552-7.747-4.38-10.582zm-.797 20.363a13.729 13.729 0 01-9.784 4.054c-2.8 0-5.502-.837-7.816-2.421l-.387-.264-2.262 2.267.07.304c.026.115.04.23.04.335 0 .55-.3 1.092-.832 1.492-2.948 2.318-5.298 5.305-7.57 8.196-2.258 2.87-4.593 5.842-7.498 8.13-.907.682-2.587.528-3.405-.284a438.644 438.644 0 00-1.928-1.93c-.467-.466-.744-1.189-.744-1.93 0-.397.079-.975.456-1.468 2.293-2.91 5.26-5.242 8.13-7.5 2.892-2.274 5.881-4.627 8.203-7.584.396-.523.94-.824 1.49-.824.1 0 .21.013.344.044l.301.066 2.26-2.263-.263-.388a13.737 13.737 0 01-2.421-7.815 13.76 13.76 0 014.05-9.783 13.764 13.764 0 019.783-4.05c3.698 0 7.173 1.44 9.783 4.05a13.738 13.738 0 014.05 9.785 13.714 13.714 0 01-4.05 9.781zm2.953-22.256a.56.56 0 00.399-.165l7.357-7.358v3.814a.564.564 0 001.127 0v-5.14a.541.541 0 00-.19-.408.541.541 0 00-.407-.19h-5.14a.564.564 0 000 1.128h3.81l-7.355 7.357a.563.563 0 00.399.962zm17.647 11.892l-3.636-3.636a.564.564 0 00-.796.797l2.696 2.696H51.703a.563.563 0 100 1.127h10.406l-2.696 2.698a.565.565 0 00.797.797l3.633-3.636a.55.55 0 00.156-.422.55.55 0 00-.156-.42zm-9.328 15.918a.563.563 0 00-.563.563v3.814l-7.358-7.358a.563.563 0 10-.797.797l7.359 7.358h-3.813a.563.563 0 000 1.127h5.14a.546.546 0 00.41-.19.547.547 0 00.187-.407v-5.141a.566.566 0 00-.565-.563z" fill="#007CC3"/></svg>