<svg width="64" height="64" fill="none" xmlns="http://www.w3.org/2000/svg"><path d="M27.947 33.209l-6.258-6.258-.356-.355c-.995.355-2.062.569-3.128.569-2.347 0-4.623-.925-6.258-2.631a8.928 8.928 0 01-1.991-9.53l.213-.497 4.053 4.053c.57.569 1.351.854 2.134.854.782 0 1.564-.285 2.133-.854a3.048 3.048 0 000-4.338l-4.053-4.053.497-.213a8.646 8.646 0 013.271-.64c2.347 0 4.623.924 6.258 2.63a8.855 8.855 0 012.063 9.388.857.857 0 01.355.355l6.258 6.258-5.191 5.262zm-6.258-7.467l.142.285c.142.142.213.355.427.498l5.76 5.76 4.267-4.267-5.76-5.76c-.143-.142-.285-.284-.498-.427l-.285-.142.142-.284c1.28-3.058.57-6.543-1.777-8.89-1.565-1.564-3.627-2.417-5.76-2.417a9.56 9.56 0 00-2.49.355l3.272 3.272a3.735 3.735 0 010 5.333c-.711.711-1.636 1.067-2.631 1.067-.996 0-1.92-.356-2.631-1.067l-3.271-3.271c-.925 2.915-.143 6.115 1.99 8.249 1.565 1.564 3.627 2.417 5.76 2.417a7.948 7.948 0 003.13-.64l.213-.07zm24.035 28.871c-2.346 0-4.622-.924-6.257-2.63a8.855 8.855 0 01-2.063-9.387l-6.613-6.614 5.262-5.262 6.614 6.613c.995-.355 1.99-.569 3.057-.569 2.347 0 4.623.925 6.258 2.631a8.928 8.928 0 011.991 9.53l-.213.497-4.124-4.195c-.57-.57-1.352-.925-2.134-.925-.782 0-1.564.285-2.133.925a3.048 3.048 0 000 4.337l4.196 4.125-.498.213a8.321 8.321 0 01-3.343.711zm-13.937-18.56l6.4 6.4-.071.214c-1.21 3.057-.498 6.47 1.777 8.817 1.565 1.565 3.627 2.418 5.76 2.418a9.56 9.56 0 002.49-.355L44.8 50.133a3.735 3.735 0 010-5.333c.711-.711 1.636-1.067 2.631-1.067.996 0 1.991.427 2.631 1.067l3.343 3.342c.924-2.915.142-6.115-1.992-8.249-1.564-1.564-3.626-2.418-5.76-2.418-1.066 0-2.062.214-3.057.57l-.214.07-6.4-6.4-4.195 4.338zM11.449 57.6a4.149 4.149 0 01-2.916-1.209l-.924-.924A4.028 4.028 0 016.4 52.55c0-1.067.427-2.133 1.209-2.916l12.301-12.3 6.756 6.756-12.373 12.3c-.71.782-1.777 1.209-2.844 1.209zm8.462-19.271L8.107 50.204a3.386 3.386 0 00-.996 2.418c0 .925.356 1.778.996 2.418l.924.924c.64.64 1.493.996 2.418.996.924 0 1.778-.356 2.418-.996L25.67 44.09l-5.76-5.76z" fill="#007CC3"/><path d="M26.809 44.8c-.285 0-.64-.142-.854-.355l-6.4-6.4a1.178 1.178 0 01-.355-.854c0-.355.142-.64.355-.853l.214-.214c.427-.426 1.209-.426 1.635 0l6.4 6.4c.427.427.427 1.21 0 1.636l-.213.213c-.142.285-.427.427-.782.427zm-6.187-8.32c-.142 0-.213.071-.355.142l-.214.214a.543.543 0 00-.142.355c0 .142.071.213.142.356l6.4 6.4c.143.142.498.142.64 0l.214-.214c.213-.213.213-.497 0-.64l-6.4-6.4c-.072-.142-.143-.213-.285-.213z" fill="#007CC3"/><path d="M26.027 41.742l-3.84-3.84 23.75-23.68-.924-.924 9.174-6.97L57.6 9.743l-6.969 9.174-.853-.854-23.751 23.68zm-2.774-3.769l2.774 2.774 23.75-23.752.854.854 6.116-8.036-2.56-2.56-8.036 6.116.853.853-23.75 23.751zm-11.52 15.574c-.284 0-.569-.143-.782-.356l-.213-.213c-.214-.214-.356-.498-.356-.782 0-.285.142-.57.356-.783l8.889-8.889a1.116 1.116 0 011.564 0l.213.214c.214.213.356.498.356.782 0 .284-.142.569-.356.782l-8.889 8.96c-.213.213-.497.285-.782.285zM20.48 42.95c-.142 0-.213.071-.285.142l-8.96 8.89a.54.54 0 00-.142.284c0 .07.071.213.143.284l.213.213a.432.432 0 00.569 0l8.889-8.889a.54.54 0 00.142-.284c0-.142-.071-.213-.142-.284l-.214-.214c0-.142-.142-.142-.213-.142z" fill="#007CC3"/></svg>