<svg width="18" height="18" fill="none" xmlns="http://www.w3.org/2000/svg"><path d="M17.998 9A9 9 0 11.002 9a9 9 0 0117.996 0z" fill="#FEDC00"/><path d="M9 3.938v2.718-2.718z" fill="#000"/><path d="M9 3.938v2.718" stroke="#00A0FF" stroke-width="1.5" stroke-linecap="round"/><path d="M13.993 7.565l-2.586.84 2.586-.84z" fill="#000"/><path d="M13.993 7.565l-2.586.84" stroke="#00A0FF" stroke-width="1.5" stroke-linecap="round"/><path d="M12.086 13.435l-1.598-2.2 1.598 2.2z" fill="#000"/><path d="M12.086 13.435l-1.598-2.2" stroke="#00A0FF" stroke-width="1.5" stroke-linecap="round"/><path d="M5.914 13.435l1.598-2.2-1.598 2.2z" fill="#000"/><path d="M5.914 13.435l1.598-2.2" stroke="#00A0FF" stroke-width="1.5" stroke-linecap="round"/><path d="M4.007 7.565l2.586.84-2.586-.84z" fill="#000"/><path d="M4.007 7.565l2.586.84" stroke="#00A0FF" stroke-width="1.5" stroke-linecap="round"/></svg>