<svg width="56" height="56" fill="none" xmlns="http://www.w3.org/2000/svg"><path d="M5.63 49.992a.6.6 0 00.04.105c.007.013.007.027.015.04.02.03.043.055.066.08.007.008.012.016.02.023a.549.549 0 00.155.105l.04.016a.563.563 0 00.193.039H49.84c.31 0 .56-.25.56-.56V22.505c0-.008-.004-.014-.005-.022a.553.553 0 00-.036-.182l-.006-.018a.554.554 0 00-.134-.186c-.011-.01-.02-.022-.031-.03l-6.413-5.082c-.018-.014-.04-.018-.059-.03v-4.952a.56.56 0 00-.56-.56H36.78l-6.236-4.94a4.147 4.147 0 00-5.177.005l-6.196 4.93-.004.005H12.4a.56.56 0 00-.56.56v5.267l-6.028 4.797c-.012.009-.02.021-.03.031a.557.557 0 00-.133.185c-.004.006-.004.012-.007.018a.559.559 0 00-.037.182c0 .008-.004.014-.004.022V49.84c0 .015.007.028.009.042a.54.54 0 00.022.11zm21.314-13.82L6.72 48.83V23.516l20.224 12.657zM49.28 23.517V48.83L29.055 36.173 49.28 23.516zM47.89 49.28H8.11L28 36.833 47.89 49.28zm.98-26.829l-5.154 3.226v-7.31l5.154 4.084zM26.064 7.385a3.029 3.029 0 013.784-.005l5.128 4.063H20.963l5.1-4.058zm16.532 5.178v13.815L28 35.512 12.96 26.1V12.563h29.636zm-30.757 6.14v6.696L7.128 22.45l4.711-3.748z" fill="#fff"/><path d="M17.622 16.98h6.146a.56.56 0 100-1.12h-6.146a.56.56 0 100 1.12zm0 4.282h6.146a.56.56 0 100-1.12h-6.146a.56.56 0 100 1.12zm-.497 4.794c0 .31.25.56.56.56h20.63a.56.56 0 100-1.12h-20.63a.56.56 0 00-.56.56z" fill="#fff"/><path d="M5.63 49.992a.6.6 0 00.04.105c.007.013.007.027.015.04.02.03.043.055.066.08.007.008.012.016.02.023a.549.549 0 00.155.105l.04.016a.563.563 0 00.193.039H49.84c.31 0 .56-.25.56-.56V22.505c0-.008-.004-.014-.005-.022a.553.553 0 00-.036-.182l-.006-.018a.554.554 0 00-.134-.186c-.011-.01-.02-.022-.031-.03l-6.413-5.082c-.018-.014-.04-.018-.059-.03v-4.952a.56.56 0 00-.56-.56H36.78l-6.236-4.94a4.147 4.147 0 00-5.177.005l-6.196 4.93-.004.005H12.4a.56.56 0 00-.56.56v5.267l-6.028 4.797c-.012.009-.02.021-.03.031a.557.557 0 00-.133.185c-.004.006-.004.012-.007.018a.559.559 0 00-.037.182c0 .008-.004.014-.004.022V49.84c0 .015.007.028.009.042a.54.54 0 00.022.11zm21.314-13.82L6.72 48.83V23.516l20.224 12.657zM49.28 23.517V48.83L29.055 36.173 49.28 23.516zM47.89 49.28H8.11L28 36.833 47.89 49.28zm.98-26.829l-5.154 3.226v-7.31l5.154 4.084zM26.064 7.385a3.029 3.029 0 013.784-.005l5.128 4.063H20.963l5.1-4.058zm16.532 5.178v13.815L28 35.512 12.96 26.1V12.563h29.636zm-30.757 6.14v6.696L7.128 22.45l4.711-3.748z" fill="#007CC3"/><path d="M17.622 16.98h21.021a.56.56 0 100-1.12h-21.02a.56.56 0 100 1.12zm0 4.282h21.021a.56.56 0 100-1.12h-21.02a.56.56 0 100 1.12zm0 4.358h21.021a.56.56 0 100-1.12h-21.02a.56.56 0 100 1.12z" fill="#007CC3"/></svg>