<svg width="88" height="64" fill="none" xmlns="http://www.w3.org/2000/svg"><path d="M59.45 20.534a.439.439 0 01.61-.632 23.055 23.055 0 017.064 16.632c0 12.767-10.35 23.116-23.115 23.116-12.767 0-23.116-10.35-23.116-23.116a23.055 23.055 0 017.065-16.632c.416-.4 1.024.232.608.632a22.166 22.166 0 00-6.793 16c0 12.28 9.955 22.236 22.235 22.236s22.236-9.955 22.236-22.236a22.166 22.166 0 00-6.793-16zM44.387 52.43v2.094c0 .58-.88.58-.88 0v-2.172c0-.675.042-.625-.375-1.185-1.313-1.767-3.038-2.342-4.318-2.769-.93-.31-1.658-.552-1.995-1.13l-1.09-1.864c-.276-.47-.366-.415-.899-.23-.615.215-1.212.064-1.634-.437-.57-.676-1.138-1.357-1.713-2.03-.714-.834-.729-.85-.154-2.175.197-.455.48-.959.819-1.485l-5.977 2.385c-.536.212-.86-.602-.323-.815l7.221-2.881c1.089-1.442 2.386-2.916 3.72-4.128l-.001-1.134c-.824-.926-1.556-2.047-2.159-3.366a10.644 10.644 0 01-.67-1.982c-.133-.529-.157-.765-.644-1.076-.887-.565-1.69-3.405-1.91-4.52-.186-.942-.233-1.905.082-2.608.19-.422.393-.621.64-.755.493-.268.49-.025.358-.683-.272-1.355-.458-2.127-.458-3.598 0-5.889 6.056-11.23 11.757-11.521 2.36-.12 4.773.562 6.96 2.324.851.685 1.127 1.087 1.32 1.368.412.597 1.502.692 2.243 1.508 2.29 2.52 1.768 6.418 1.165 9.822-.129.73-.2.584.255.775 1.044.44 1.005 1.55.938 2.514-.084 1.207-.805 3.513-1.376 4.584-.39.732-.499.664-1.005 1.146-.104.099-1.59 4.329-3.156 6.053l-.002 1.169c1.326 1.208 2.614 2.67 3.697 4.105l7.603 2.98c.538.21.218 1.029-.32.819l-6.366-2.496a10.7 10.7 0 01.826 1.496c.574 1.324.56 1.341-.154 2.175-.576.673-1.143 1.354-1.714 2.03-.422.5-1.019.652-1.634.438-.598-.21-.636-.219-.93.283l-1.058 1.81c-.338.578-1.065.82-1.995 1.13-1.286.429-3.094 1.024-4.335 2.79-.355.506-.359.46-.359 1.242zM36.79 34.818a33.544 33.544 0 00-2.593 2.895c-.893 1.123-1.675 2.267-2.065 3.166-.356.822-.349.83.017 1.258.576.673 1.145 1.355 1.716 2.033.187.221.405.27.676.176.69-.241 1.4-.313 1.816.398l1.217 2.081c.172.294.76.49 1.514.741 1.245.415 2.877.96 4.255 2.475-.465-1.657-1.786-3.075-3.1-4.486-1.693-1.817-3.375-3.622-3.446-6.017l-.007-4.72zm14.334.02l-.007 4.7c-.072 2.395-1.754 4.2-3.446 6.017-1.306 1.401-2.618 2.81-3.09 4.453 1.37-1.49 2.987-2.03 4.224-2.442.753-.25 1.342-.447 1.514-.74l1.01-1.729c.541-.925.917-1.137 2.023-.75.27.094.488.044.675-.177.572-.678 1.14-1.36 1.717-2.033.365-.427.373-.436.017-1.258-.836-1.926-3.228-4.648-4.637-6.04zm-7.167 14.273c.631-1.535 1.854-2.848 3.071-4.155 1.58-1.696 3.15-3.381 3.212-5.442l.01-6.187c-3.715 3.289-8.873 3.367-12.586.03l.01 6.157c.06 2.06 1.631 3.746 3.211 5.442 1.218 1.307 2.44 2.62 3.072 4.155zm9.127-34.989c.538.21.218 1.028-.32.818-1.28-.502-2.51-1.377-3.358-2.465-.355-.454.336-.993.69-.54.75.962 1.856 1.743 2.988 2.187zm-17.455 1.631c.034.577-.842.628-.876.052-.284-4.689 5.052-4.705 8.42-4.677 2.93.025 5.245-.578 7.1-3.063.347-.464 1.051.062.705.526-2.025 2.712-4.594 3.44-7.812 3.414-2.749-.023-7.773-.155-7.537 3.748zm18.915 1.855c.552-3.3 1.198-7.158-.887-9.452-.764-.84-1.661-.65-2.315-1.6-.163-.238-.397-.577-1.149-1.183-2.005-1.615-4.211-2.242-6.365-2.132-5.235.267-10.922 5.227-10.922 10.645 0 1.657.307 2.479.535 3.977.119.777.207.662-.565.941-.263.095-.448.162-.59.476-.227.507-.175 1.29-.02 2.08.155.783.973 3.604 1.519 3.951.695.443.833.836 1.026 1.602.116.462.27 1.076.615 1.83a12.01 12.01 0 002.267 3.373c3.636 3.763 9.226 4.047 13.098-.608 1.353-1.626 2.52-5.389 2.887-5.738.42-.4.531-.349.837-.922.509-.955 1.197-3.154 1.272-4.23.07-1.014.196-1.396-.745-1.808-.851-.374-.674-.148-.498-1.202zm14.037-1.776a2.45 2.45 0 010 3.451 2.45 2.45 0 01-3.452 0 2.435 2.435 0 01-.676-1.291h-2.98c-.579 0-.579-.88 0-.88h2.982c.092-.495.333-.938.674-1.28a2.45 2.45 0 013.452 0zm-.622.622a1.567 1.567 0 00-2.207 0 1.567 1.567 0 000 2.207 1.567 1.567 0 002.207 0 1.567 1.567 0 000-2.207zm.622 37.626a2.45 2.45 0 010 3.452 2.45 2.45 0 01-3.452 0 2.435 2.435 0 01-.676-1.292h-2.82c-.578 0-.578-.88 0-.88h2.822c.092-.495.333-.938.674-1.28a2.45 2.45 0 013.452 0zm-.622.622a1.567 1.567 0 00-2.207 0 1.567 1.567 0 000 2.207 1.567 1.567 0 002.207 0 1.567 1.567 0 000-2.207zm10.406 0a2.45 2.45 0 010 3.45 2.45 2.45 0 01-3.452 0 2.446 2.446 0 01-.46-2.812l-5.899-5.426h-2.383c-.579 0-.579-.88 0-.88h2.723l6.09 5.6a2.45 2.45 0 013.38.068zm-.623.622c-.837-.807-1.9-.493-2.404.213-.391.55-.435 1.361.197 1.994a1.567 1.567 0 002.207 0 1.567 1.567 0 000-2.207zm7.373-9.523a2.45 2.45 0 010 3.452 2.45 2.45 0 01-3.451 0 2.435 2.435 0 01-.674-1.279l-4.532.013-4.633-4.472H68.88c-.578 0-.578-.88 0-.88h3.297l4.635 4.475 4.175-.012c.089-.502.331-.95.677-1.297a2.45 2.45 0 013.451 0zm-.622.623a1.567 1.567 0 00-2.207 0 1.567 1.567 0 000 2.207 1.567 1.567 0 002.207 0 1.567 1.567 0 000-2.207zm-6.117-11.482a2.45 2.45 0 010 3.451 2.45 2.45 0 01-3.45 0 2.436 2.436 0 01-.678-1.294h-4.58c-.579 0-.579-.88 0-.88h4.583c.092-.494.333-.936.674-1.277a2.45 2.45 0 013.451 0zm-.622.622a1.567 1.567 0 00-2.207 0 1.567 1.567 0 000 2.207 1.567 1.567 0 002.207 0 1.567 1.567 0 000-2.207zm7.361-11.475a2.45 2.45 0 010 3.452 2.45 2.45 0 01-3.451 0 2.435 2.435 0 01-.675-1.282l-4.166-.012-4.581 4.474H68.88c-.578 0-.578-.88 0-.88h3.007l4.579-4.472 4.521.013c.09-.5.332-.948.677-1.293a2.45 2.45 0 013.451 0zm-.622.623a1.567 1.567 0 00-2.207 0 1.567 1.567 0 000 2.207 1.567 1.567 0 002.207 0 1.567 1.567 0 000-2.207zm-6.132-9.358a2.45 2.45 0 010 3.452 2.45 2.45 0 01-3.358.088l-6.132 5.438h-2.495c-.579 0-.579-.88 0-.88h2.166l5.924-5.254a2.446 2.446 0 01.444-2.844 2.45 2.45 0 013.451 0zm-.622.622a1.567 1.567 0 00-2.207 0c-.61.61-.61 1.61.017 2.207.57.545 1.533.657 2.19 0a1.567 1.567 0 000-2.207zm-57.698.478a1.567 1.567 0 000 2.207 1.567 1.567 0 002.207 0 1.567 1.567 0 000-2.207 1.567 1.567 0 00-2.207 0zm-.622-.622a2.45 2.45 0 013.451 0c.342.342.583.785.675 1.28h2.982c.579 0 .579.88 0 .88h-2.98c-.09.5-.332.947-.677 1.291a2.45 2.45 0 01-3.451 0 2.45 2.45 0 010-3.451zm.622 38.87a1.567 1.567 0 000 2.207 1.567 1.567 0 002.207 0 1.567 1.567 0 000-2.207 1.567 1.567 0 00-2.207 0zm-.622-.622a2.45 2.45 0 013.451 0c.342.342.583.785.675 1.28h2.821c.579 0 .579.88 0 .88h-2.82c-.09.5-.331.947-.676 1.292a2.45 2.45 0 01-3.451 0 2.45 2.45 0 010-3.452zm-9.162 1.244a1.567 1.567 0 000 2.207 1.567 1.567 0 002.207 0c.68-.68.532-1.584.126-2.065a1.566 1.566 0 00-2.332-.142zm-.622-.622a2.45 2.45 0 013.381-.068l6.09-5.6h2.769c.579 0 .579.88 0 .88h-2.43l-5.899 5.426a2.445 2.445 0 01-.46 2.813 2.45 2.45 0 01-3.45 0 2.45 2.45 0 010-3.451zm-6.128-8.278a1.567 1.567 0 000 2.207 1.567 1.567 0 002.207 0 1.567 1.567 0 000-2.207 1.567 1.567 0 00-2.207 0zm-.622-.623a2.45 2.45 0 013.451 0c.346.346.588.795.677 1.297l4.174.012 4.636-4.475h3.406c.578 0 .578.88 0 .88h-3.054l-4.633 4.472-4.532-.013a2.435 2.435 0 01-.674 1.279 2.45 2.45 0 01-3.451 0 2.45 2.45 0 010-3.452zm7.36-10.237a1.567 1.567 0 000 2.207 1.567 1.567 0 002.208 0 1.567 1.567 0 000-2.207 1.567 1.567 0 00-2.207 0zm-.622-.622a2.45 2.45 0 013.452 0c.341.341.582.783.674 1.277h4.66c.58 0 .58.88 0 .88h-4.657c-.09.501-.332.95-.677 1.294a2.45 2.45 0 01-3.452 0 2.45 2.45 0 010-3.451zm-6.116-10.23a1.567 1.567 0 000 2.207 1.567 1.567 0 002.207 0 1.567 1.567 0 000-2.207 1.567 1.567 0 00-2.207 0zm-.622-.623a2.45 2.45 0 013.451 0c.345.345.587.793.677 1.293l4.521-.013 4.579 4.472h3.053c.578 0 .578.88 0 .88h-3.408l-4.581-4.474-4.166.012c-.091.496-.333.94-.675 1.282a2.45 2.45 0 01-3.451 0 2.45 2.45 0 010-3.452zm7.376-8.113a1.567 1.567 0 000 2.207c.71.71 1.693.557 2.232.027.57-.559.705-1.504-.025-2.234a1.567 1.567 0 00-2.207 0zm-.622-.622a2.45 2.45 0 013.451 0c.75.75.93 1.906.444 2.845l5.924 5.253h2.197c.578 0 .578.88 0 .88h-2.526l-6.132-5.438a2.45 2.45 0 01-3.358-.088 2.45 2.45 0 010-3.452z" fill="#007CC3"/></svg>