<svg width="64" height="64" fill="none" xmlns="http://www.w3.org/2000/svg"><path d="M42.567 15.727v.1h14.152a4.626 4.626 0 014.62 4.622v30.236a4.627 4.627 0 01-4.62 4.622H7.28a4.627 4.627 0 01-4.62-4.622V20.449a4.627 4.627 0 014.62-4.622h14.152v-3.454c0-2.03 1.651-3.68 3.68-3.68h13.774c2.03 0 3.68 1.651 3.68 3.68v3.354zm-1.18.1h.1v-3.454c0-1.434-1.167-2.6-2.6-2.6H25.112a2.602 2.602 0 00-2.6 2.6v3.454h18.873zm18.82 16.668l.052-.028V20.449a3.545 3.545 0 00-3.54-3.542H7.28a3.545 3.545 0 00-3.54 3.542v12.014l.052.029c2.023 1.077 11.676 5.829 25.362 6.445l.105.005v-2.42c0-1.03.839-1.87 1.87-1.87h1.74c1.03 0 1.87.84 1.87 1.87v2.43l.104-.005c13.78-.573 23.358-5.365 25.363-6.452zm-56.322.9l-.145-.075v17.364a3.545 3.545 0 003.541 3.544H56.72a3.545 3.545 0 003.541-3.543V33.328l-.146.076c-2.816 1.454-12.19 5.767-25.277 6.305l-.096.004v.698a1.872 1.872 0 01-1.87 1.867H31.13c-1.031 0-1.87-.84-1.87-1.867v-.708l-.096-.004C16.146 39.12 6.707 34.83 3.885 33.395zM33.98 40.41v-3.889a1.11 1.11 0 00-1.109-1.109H31.13c-.612 0-1.11.498-1.11 1.11v3.888a1.11 1.11 0 001.11 1.107h1.74a1.11 1.11 0 001.11-1.107z" fill="#007CC3" stroke="#fff" stroke-width=".2"/><path d="M32.871 39.187H31.13v.96h1.741v-.96z" fill="#007CC3"/></svg>