<svg width="64" height="64" fill="none" xmlns="http://www.w3.org/2000/svg"><path d="M51.03 59.154H34.492a.51.51 0 01-.51-.51 3.628 3.628 0 00-3.625-3.625 3.627 3.627 0 00-3.622 3.624.51.51 0 01-.51.51H9.687a.51.51 0 01-.51-.51 3.627 3.627 0 00-3.622-3.624.51.51 0 01-.51-.51V37.97a.51.51 0 01.51-.51 3.627 3.627 0 003.621-3.625 3.624 3.624 0 00-3.621-3.618.51.51 0 01-.51-.51v-16.54a.51.51 0 01.51-.51 3.627 3.627 0 003.621-3.624.51.51 0 01.51-.51h16.539a.51.51 0 01.51.51 3.627 3.627 0 003.622 3.625 3.628 3.628 0 003.624-3.625.51.51 0 01.51-.51H51.03a.51.51 0 01.51.51 3.629 3.629 0 003.625 3.625.51.51 0 01.51.51v16.538a.51.51 0 01-.51.51 3.626 3.626 0 00-3.625 3.62 3.629 3.629 0 003.625 3.624.51.51 0 01.51.51v16.538a.51.51 0 01-.51.51 3.629 3.629 0 00-3.625 3.625.51.51 0 01-.51.51zm-16.056-1.021h15.574a4.654 4.654 0 014.107-4.107V38.453a4.652 4.652 0 01-4.135-4.618 4.648 4.648 0 014.135-4.611V13.65a4.654 4.654 0 01-4.107-4.106H34.974a4.651 4.651 0 01-4.617 4.134 4.65 4.65 0 01-4.614-4.134H10.168a4.652 4.652 0 01-4.104 4.106v15.574a4.647 4.647 0 014.132 4.611 4.65 4.65 0 01-4.132 4.618v15.573a4.653 4.653 0 014.104 4.107h15.573a4.65 4.65 0 014.615-4.135 4.652 4.652 0 014.617 4.135zm-4.617-19.652a4.65 4.65 0 01-4.642-4.645 4.646 4.646 0 014.642-4.64 4.647 4.647 0 014.645 4.64 4.65 4.65 0 01-4.645 4.645zm0-8.264a3.624 3.624 0 00-3.622 3.619 3.627 3.627 0 003.622 3.624 3.628 3.628 0 003.624-3.624 3.625 3.625 0 00-3.624-3.619z" fill="#fff"/><path d="M30.317 38.46c-2.49 0-4.593-2.103-4.593-4.593 0-2.575 2.018-4.593 4.593-4.593 2.716 0 4.763 1.974 4.763 4.593 0 2.533-2.136 4.593-4.763 4.593zm0-8.165a3.534 3.534 0 00-3.572 3.572c0 1.936 1.636 3.572 3.572 3.572 2.064 0 3.743-1.602 3.743-3.572 0-2.037-1.61-3.572-3.743-3.572zm24.837-16.672c-2.49 0-4.593-2.103-4.593-4.593 0-2.49 2.103-4.593 4.593-4.593 2.49 0 4.593 2.104 4.593 4.593 0 2.49-2.103 4.593-4.593 4.593zm0-8.165c-1.936 0-3.572 1.636-3.572 3.572 0 1.937 1.636 3.573 3.572 3.573 1.936 0 3.572-1.636 3.572-3.573 0-1.936-1.636-3.572-3.572-3.572zM5.48 13.623C2.99 13.623.888 11.52.888 9.03c0-2.49 2.104-4.593 4.594-4.593 2.626 0 4.763 2.06 4.763 4.593s-2.137 4.593-4.763 4.593zm0-8.165c-1.936 0-3.572 1.636-3.572 3.572 0 1.937 1.636 3.573 3.573 3.573 2.063 0 3.742-1.603 3.742-3.573S7.544 5.458 5.481 5.458zm0 57.839c-2.49 0-4.593-2.103-4.593-4.593 0-2.627 2.06-4.763 4.594-4.763 2.67 0 4.763 2.092 4.763 4.763 0 2.532-2.137 4.593-4.763 4.593zm0-8.336c-1.97 0-3.572 1.68-3.572 3.743 0 1.936 1.636 3.572 3.573 3.572 2.063 0 3.742-1.602 3.742-3.572a3.703 3.703 0 00-3.742-3.743zm49.674 8.336c-2.49 0-4.593-2.103-4.593-4.593 0-2.627 2.06-4.763 4.593-4.763s4.593 2.136 4.593 4.763c0 2.49-2.103 4.593-4.593 4.593zm0-8.336c-1.97 0-3.572 1.68-3.572 3.743 0 1.936 1.636 3.572 3.572 3.572 1.936 0 3.572-1.636 3.572-3.572 0-2.064-1.602-3.743-3.572-3.743zm0-16.501c-2.49 0-4.593-2.103-4.593-4.593 0-2.575 2.017-4.593 4.593-4.593s4.593 2.017 4.593 4.593c0 2.49-2.103 4.593-4.593 4.593zm0-8.165a3.534 3.534 0 00-3.572 3.572c0 1.936 1.636 3.572 3.572 3.572 1.936 0 3.572-1.636 3.572-3.572a3.534 3.534 0 00-3.572-3.572zM5.48 38.46c-2.49 0-4.593-2.103-4.593-4.593 0-2.575 2.018-4.593 4.594-4.593 2.715 0 4.763 1.974 4.763 4.593 0 2.533-2.137 4.593-4.763 4.593zm0-8.165a3.534 3.534 0 00-3.572 3.572c0 1.936 1.636 3.572 3.573 3.572 2.063 0 3.742-1.602 3.742-3.572 0-2.037-1.609-3.572-3.742-3.572zm24.837-16.672c-2.49 0-4.593-2.103-4.593-4.593 0-2.49 2.103-4.593 4.593-4.593 2.627 0 4.763 2.06 4.763 4.593s-2.136 4.593-4.763 4.593zm0-8.165c-1.936 0-3.572 1.636-3.572 3.572 0 1.937 1.636 3.573 3.572 3.573 2.064 0 3.743-1.603 3.743-3.573s-1.68-3.572-3.743-3.572zm0 57.839c-2.49 0-4.593-2.103-4.593-4.593 0-2.627 2.06-4.763 4.593-4.763 2.671 0 4.763 2.092 4.763 4.763 0 2.532-2.136 4.593-4.763 4.593zm0-8.336c-1.97 0-3.572 1.68-3.572 3.743 0 1.936 1.636 3.572 3.572 3.572 2.064 0 3.743-1.602 3.743-3.572a3.703 3.703 0 00-3.743-3.743z" fill="#fff"/><path d="M27.437 31.426a.509.509 0 01-.361-.15l-7.99-7.99a.51.51 0 01.722-.722l7.99 7.99a.51.51 0 01-.361.872zM14.858 18.844a.509.509 0 01-.36-.15l-6.381-6.38a.51.51 0 11.722-.721l6.38 6.38a.51.51 0 01-.36.87zm18.424 12.582a.51.51 0 01-.36-.871l7.99-7.99a.51.51 0 11.722.721l-7.991 7.99c-.1.1-.23.15-.36.15zM45.86 18.844a.51.51 0 01-.36-.871l6.382-6.38a.51.51 0 01.722.721l-6.383 6.38c-.1.1-.23.15-.36.15zM8.478 56.173a.509.509 0 01-.361-.872l6.494-6.492a.51.51 0 01.722.722l-6.494 6.492c-.1.1-.23.15-.361.15zm11.088-11.09a.509.509 0 01-.36-.87l7.87-7.869a.51.51 0 01.722.722l-7.871 7.868c-.1.1-.23.15-.36.15zm32.676 11.09a.509.509 0 01-.36-.15l-7.044-7.043a.51.51 0 11.722-.722l7.043 7.044a.51.51 0 01-.36.87zm-11.62-11.624a.508.508 0 01-.361-.15l-7.34-7.332a.51.51 0 11.722-.722l7.339 7.333a.51.51 0 01-.36.871zM26.235 34.377H9.733a.51.51 0 010-1.02h16.502a.51.51 0 110 1.02zm4.082-4.082a.51.51 0 01-.51-.51V13.112a.51.51 0 111.02 0v16.671a.51.51 0 01-.51.51zm20.754 4.082h-16.5a.51.51 0 110-1.02h16.5a.51.51 0 110 1.02zM30.317 54.961a.51.51 0 01-.51-.51V37.95a.51.51 0 111.02 0v16.5a.51.51 0 01-.51.511z" fill="#fff"/><path d="M43.756 24.51c-2.168 0-3.742-1.573-3.742-3.742s1.574-3.742 3.742-3.742a3.747 3.747 0 013.743 3.742 3.747 3.747 0 01-3.743 3.743zm0-6.464c-1.577 0-2.721 1.145-2.721 2.722s1.144 2.722 2.721 2.722a2.725 2.725 0 002.722-2.722c0-1.5-1.22-2.722-2.722-2.722zM17.048 24.51c-2.168 0-3.742-1.573-3.742-3.742s1.574-3.742 3.742-3.742a3.747 3.747 0 013.743 3.742 3.747 3.747 0 01-3.743 3.743zm0-6.464c-1.577 0-2.721 1.145-2.721 2.722s1.144 2.722 2.721 2.722a2.725 2.725 0 002.722-2.722c0-1.5-1.22-2.722-2.722-2.722zm.17 32.662c-1.993 0-3.742-1.748-3.742-3.742 0-2.121 1.714-3.913 3.742-3.913a3.917 3.917 0 013.913 3.913c0 2.029-1.791 3.742-3.913 3.742zm0-6.634c-1.45 0-2.721 1.351-2.721 2.892 0 1.424 1.297 2.722 2.721 2.722 1.541 0 2.892-1.272 2.892-2.722a2.895 2.895 0 00-2.892-2.892zm25.518 6.294c-2.099 0-3.743-1.718-3.743-3.912a3.747 3.747 0 013.743-3.743c1.993 0 3.742 1.749 3.742 3.743 0 2.12-1.714 3.912-3.742 3.912zm0-6.634a2.725 2.725 0 00-2.722 2.722c0 1.648 1.17 2.892 2.722 2.892 1.45 0 2.722-1.352 2.722-2.892 0-1.425-1.298-2.722-2.722-2.722zm20.754-2.892a.51.51 0 01-.51-.51v-.851a.51.51 0 011.02 0v.85a.51.51 0 01-.51.51zm0-3.913a.51.51 0 01-.51-.51v-.85a.51.51 0 111.02 0v.85a.51.51 0 01-.51.51zm0-3.913a.51.51 0 01-.51-.51v-.85a.51.51 0 111.02 0v.85a.51.51 0 01-.51.51zm0-3.912a.51.51 0 01-.51-.51v-.851a.51.51 0 011.02 0v.85a.51.51 0 01-.51.51zm0-3.913a.51.51 0 01-.51-.51v-.85a.51.51 0 111.02 0v.85a.51.51 0 01-.51.51zm0-3.912a.51.51 0 01-.51-.51v-.851a.51.51 0 111.02 0v.85a.51.51 0 01-.51.51zm0-3.913a.51.51 0 01-.51-.51v-.851a.51.51 0 011.02 0v.85a.51.51 0 01-.51.51zm0-3.913a.51.51 0 01-.51-.51v-.85a.51.51 0 111.02 0v.85a.51.51 0 01-.51.51zm0-3.912a.51.51 0 01-.51-.51V8.18a.51.51 0 011.02 0v.85a.51.51 0 01-.51.51zm0-3.913a.51.51 0 01-.51-.51v-.85a.51.51 0 011.02 0v.85a.51.51 0 01-.51.51zm0-3.913a.51.51 0 01-.482-.34h-.029a.51.51 0 110-1.02h.51a.51.51 0 01.51.51v.34a.51.51 0 01-.51.51zm-3.573-.34h-.85a.51.51 0 010-1.02h.85a.51.51 0 110 1.02zm-3.912 0h-.851a.51.51 0 010-1.02h.85a.51.51 0 110 1.02zm-3.913 0h-.85a.51.51 0 110-1.02h.85a.51.51 0 110 1.02zm-3.913 0h-.85a.51.51 0 110-1.02h.85a.51.51 0 110 1.02zm-3.912 0h-.851a.51.51 0 010-1.02h.85a.51.51 0 110 1.02zm-3.913 0h-.85a.51.51 0 110-1.02h.85a.51.51 0 110 1.02zm-3.913 0h-.85a.51.51 0 010-1.02h.85a.51.51 0 110 1.02zm-3.912 0h-.85a.51.51 0 010-1.02h.85a.51.51 0 110 1.02zm-3.913 0h-.85a.51.51 0 110-1.02h.85a.51.51 0 010 1.02zm-3.913 0h-.85a.51.51 0 110-1.02h.85a.51.51 0 110 1.02zm-3.912 0h-.85a.51.51 0 110-1.02h.85a.51.51 0 110 1.02zm-3.913 0h-.85a.51.51 0 110-1.02h.85a.51.51 0 010 1.02zm-3.912 0h-.851a.51.51 0 110-1.02h.85a.51.51 0 110 1.02z" fill="#fff"/></svg>