<svg width="64" height="64" fill="none" xmlns="http://www.w3.org/2000/svg"><mask id="a" maskUnits="userSpaceOnUse" x="1.02" y=".075" width="62" height="63" fill="#000"><path fill="#fff" d="M1.02.075h62v63h-62z"/><path d="M32.043 1.075c1.8 0 3.426.875 4.6 2.288 1.153 1.391 1.867 3.308 1.867 5.421 0 2.084-.695 3.979-1.822 5.364-.607.898-.883 1.753-.96 2.494-.102.996.148 1.77.432 2.156.176.24.404.422.658.563.269.15.569.254.868.33.165.043.477.121.783.197 1.176.293 2.27.565 3.256 1.008.586-.414 1.267-.755 1.995-1.045.812-.323 1.685-.58 2.553-.805.242-.061.483-.146.7-.266a1.58 1.58 0 00.52-.445c.226-.307.426-.93.344-1.732-.062-.602-.286-1.295-.779-2.026-.94-1.158-1.521-2.74-1.521-4.481 0-1.765.596-3.366 1.562-4.53.983-1.185 2.347-1.92 3.86-1.92 1.512 0 2.877.734 3.86 1.92.964 1.163 1.562 2.765 1.562 4.53 0 1.696-.55 3.24-1.45 4.392a.546.546 0 01-.04.072c-.5.736-.728 1.437-.79 2.043-.083.803.118 1.424.344 1.732.138.189.319.333.52.445.217.12.458.203.7.266.12.031.385.098.648.163 2.366.59 4.332 1.08 5.63 3.72a.425.425 0 11-.764.373c-1.121-2.282-2.912-2.73-5.07-3.267l-.654-.165a3.812 3.812 0 01-.904-.347 2.427 2.427 0 01-.793-.685c-.321-.437-.61-1.282-.504-2.322a4.66 4.66 0 01.112-.638 4.715 4.715 0 01-2.406.667 4.714 4.714 0 01-2.383-.653c.052.216.087.424.109.624.106 1.04-.181 1.884-.504 2.322a2.427 2.427 0 01-.793.685 3.812 3.812 0 01-.904.347 20.55 20.55 0 00-2.449.771 9.523 9.523 0 00-1.445.707c1.027.628 1.915 1.536 2.63 2.991a.424.424 0 11-.764.373c-.72-1.464-1.661-2.31-2.772-2.88a.428.428 0 01-.232-.114c-.955-.448-2.027-.714-3.185-1.003-.21-.053-.423-.106-.79-.2a4.528 4.528 0 01-1.072-.41 2.839 2.839 0 01-.93-.804c-.38-.515-.72-1.513-.593-2.745.031-.304.09-.624.185-.955a5.627 5.627 0 01-3.023.892 5.64 5.64 0 01-3.053-.91c.097.338.158.663.19.974.127 1.232-.213 2.23-.592 2.745a2.853 2.853 0 01-.931.804c-.34.187-.706.316-1.071.41-.367.095-.58.148-.79.2-2.631.656-4.816 1.2-6.19 3.998a.425.425 0 01-.763-.374c.708-1.44 1.585-2.346 2.6-2.973a9.34 9.34 0 00-1.476-.725c-.774-.308-1.613-.556-2.449-.771a3.807 3.807 0 01-.904-.347 2.427 2.427 0 01-.793-.684c-.321-.438-.61-1.283-.504-2.323.02-.2.056-.41.11-.624a4.713 4.713 0 01-2.384.653 4.72 4.72 0 01-2.406-.666c.054.22.09.432.112.637.107 1.04-.181 1.884-.503 2.323a2.427 2.427 0 01-.794.684 3.806 3.806 0 01-.904.347c-.32.082-.488.125-.653.165-2.157.538-3.95.985-5.07 3.267a.425.425 0 01-.764-.373c1.297-2.64 3.263-3.13 5.63-3.72l.647-.163c.242-.061.483-.146.7-.266.202-.111.382-.255.52-.445.227-.307.426-.93.344-1.732-.063-.606-.29-1.306-.79-2.043a.438.438 0 01-.04-.072c-.9-1.15-1.45-2.696-1.45-4.392 0-1.765.597-3.366 1.562-4.53.984-1.185 2.348-1.919 3.86-1.919 1.513 0 2.877.733 3.86 1.919.965 1.163 1.562 2.765 1.562 4.53 0 1.74-.58 3.323-1.52 4.481-.494.73-.718 1.424-.78 2.026-.083.803.118 1.424.344 1.732.139.189.319.333.52.445.217.12.458.204.7.267.869.224 1.741.48 2.553.804.739.293 1.427.64 2.019 1.061.997-.452 2.102-.727 3.293-1.024l.783-.196c.3-.077.598-.181.868-.33.254-.142.482-.324.658-.564.283-.385.535-1.16.432-2.156-.077-.747-.356-1.606-.97-2.51a.45.45 0 01-.045-.084c-1.08-1.376-1.741-3.229-1.741-5.264 0-2.113.713-4.03 1.868-5.42 1.172-1.414 2.797-2.289 4.599-2.289h-.006zm3.5 24.113v9.339h2.452a.427.427 0 01.353.666l-5.744 9.742a.426.426 0 01-.737-.006l-5.754-9.758a.426.426 0 01.367-.643v-.001h2.452v-9.339c0-.235.191-.426.427-.426h5.758c.236 0 .426.19.426.426zm-.854 9.766v-9.34h-4.904v9.34a.427.427 0 01-.427.426h-2.132l5.01 8.5 5.012-8.5h-2.132a.427.427 0 01-.427-.426zm-1.745 20.151v6.963a18.898 18.898 0 0012.93-5.477c3.376-3.35 5.45-7.941 5.45-12.93 0-.288.003.164.002-.075l-.02-6.794h-7.274l.003 6.887c0 3.086-1.286 5.943-3.367 8.029-1.99 1.994-4.71 3.285-7.724 3.397zm-.853 6.963v-6.963c-3.015-.112-5.734-1.403-7.724-3.397-2.082-2.087-3.37-4.943-3.37-8.03H21l.003-6.886h-7.275l-.02 6.794c0 .238.002-.213.002.075 0 4.989 2.073 9.58 5.45 12.93a18.896 18.896 0 0012.93 5.478zM13.326 28.092h8.105c.236 0 .427.19.427.426v7.846a.393.393 0 01-.006.071l-.005 7.244h.003c0 2.853 1.191 5.496 3.118 7.428 1.93 1.933 4.591 3.152 7.532 3.157h.031c2.941-.005 5.604-1.224 7.532-3.157s3.121-4.576 3.121-7.428l-.004-7.244a.393.393 0 01-.007-.071v-7.846c0-.235.191-.426.427-.426h8.106c.235 0 .426.19.426.426v.592l.04 14.472v.078h.002c0-.047 0-.136 0 0 0 5.222-2.17 10.029-5.703 13.534A19.747 19.747 0 0132.6 62.923h-.084c.036 0 .024 0 0 0 .044 0 .125.002 0 .002s-.044 0 0-.001c-.023 0-.036 0 0-.001h-.084a19.745 19.745 0 01-13.872-5.73c-3.534-3.505-5.704-8.31-5.704-13.533 0-.136 0-.047.002 0 .028-4.85.028-9.7.042-14.55v-.592c0-.235.191-.426.427-.426zm7.679.853h-7.252v6.992h7.25l.002-4.322v-2.67zM12.857 43.66c0 .024 0 .037 0 0zm31.17-12.045l.003 4.322h7.25v-6.992h-7.252v2.67zm8.148 12.045c0 .037.001.024.001 0h-.001zm.803-30.93a.427.427 0 01.648.553 3.8 3.8 0 01-1.218.956c-.45.22-.94.341-1.451.341a3.293 3.293 0 01-1.452-.341 3.813 3.813 0 01-1.217-.956.426.426 0 11.647-.553c.272.319.592.573.944.746a2.44 2.44 0 002.157 0c.352-.171.672-.428.944-.746h-.002zM50.956 4.5c-1.246 0-2.379.615-3.204 1.609-.842 1.016-1.364 2.425-1.364 3.986 0 1.56.522 2.97 1.364 3.986.825.994 1.958 1.609 3.204 1.609 1.246 0 2.378-.615 3.203-1.609.843-1.016 1.364-2.426 1.364-3.986s-.521-2.97-1.364-3.986c-.825-.994-1.957-1.609-3.203-1.609zm-40.583 8.782a.426.426 0 01.648-.553c.272.319.592.573.944.746a2.44 2.44 0 002.157 0c.352-.171.672-.428.944-.746a.427.427 0 01.647.553 3.8 3.8 0 01-1.217.956c-.45.22-.94.341-1.452.341a3.293 3.293 0 01-1.452-.341 3.813 3.813 0 01-1.216-.956h-.003zm5.872-7.173c-.824-.994-1.957-1.609-3.203-1.609-1.246 0-2.378.615-3.203 1.609-.843 1.016-1.364 2.425-1.364 3.986 0 1.56.521 2.97 1.364 3.986.825.994 1.957 1.609 3.203 1.609 1.246 0 2.379-.615 3.203-1.609.843-1.016 1.365-2.426 1.365-3.986s-.522-2.97-1.365-3.986zm12.637 6.468a.426.426 0 01.648-.553c.337.394.733.71 1.17.923a3.032 3.032 0 002.686 0 3.666 3.666 0 001.17-.924.427.427 0 01.647.554c-.41.48-.899.868-1.443 1.134-.531.26-1.11.403-1.716.403a3.885 3.885 0 01-1.717-.403 4.524 4.524 0 01-1.443-1.134h-.002zm7.102-8.672c-1.013-1.222-2.407-1.977-3.942-1.977-1.535 0-2.93.756-3.943 1.977-1.032 1.245-1.67 2.969-1.67 4.877s.639 3.633 1.67 4.877c1.014 1.222 2.408 1.977 3.943 1.977 1.535 0 2.929-.756 3.942-1.977 1.032-1.245 1.67-2.969 1.67-4.877s-.639-3.633-1.67-4.877z"/></mask><path d="M32.043 1.075c1.8 0 3.426.875 4.6 2.288 1.153 1.391 1.867 3.308 1.867 5.421 0 2.084-.695 3.979-1.822 5.364-.607.898-.883 1.753-.96 2.494-.102.996.148 1.77.432 2.156.176.24.404.422.658.563.269.15.569.254.868.33.165.043.477.121.783.197 1.176.293 2.27.565 3.256 1.008.586-.414 1.267-.755 1.995-1.045.812-.323 1.685-.58 2.553-.805.242-.061.483-.146.7-.266a1.58 1.58 0 00.52-.445c.226-.307.426-.93.344-1.732-.062-.602-.286-1.295-.779-2.026-.94-1.158-1.521-2.74-1.521-4.481 0-1.765.596-3.366 1.562-4.53.983-1.185 2.347-1.92 3.86-1.92 1.512 0 2.877.734 3.86 1.92.964 1.163 1.562 2.765 1.562 4.53 0 1.696-.55 3.24-1.45 4.392a.546.546 0 01-.04.072c-.5.736-.728 1.437-.79 2.043-.083.803.118 1.424.344 1.732.138.189.319.333.52.445.217.12.458.203.7.266.12.031.385.098.648.163 2.366.59 4.332 1.08 5.63 3.72a.425.425 0 11-.764.373c-1.121-2.282-2.912-2.73-5.07-3.267l-.654-.165a3.812 3.812 0 01-.904-.347 2.427 2.427 0 01-.793-.685c-.321-.437-.61-1.282-.504-2.322a4.66 4.66 0 01.112-.638 4.715 4.715 0 01-2.406.667 4.714 4.714 0 01-2.383-.653c.052.216.087.424.109.624.106 1.04-.181 1.884-.504 2.322a2.427 2.427 0 01-.793.685 3.812 3.812 0 01-.904.347 20.55 20.55 0 00-2.449.771 9.523 9.523 0 00-1.445.707c1.027.628 1.915 1.536 2.63 2.991a.424.424 0 11-.764.373c-.72-1.464-1.661-2.31-2.772-2.88a.428.428 0 01-.232-.114c-.955-.448-2.027-.714-3.185-1.003-.21-.053-.423-.106-.79-.2a4.528 4.528 0 01-1.072-.41 2.839 2.839 0 01-.93-.804c-.38-.515-.72-1.513-.593-2.745.031-.304.09-.624.185-.955a5.627 5.627 0 01-3.023.892 5.64 5.64 0 01-3.053-.91c.097.338.158.663.19.974.127 1.232-.213 2.23-.592 2.745a2.853 2.853 0 01-.931.804c-.34.187-.706.316-1.071.41-.367.095-.58.148-.79.2-2.631.656-4.816 1.2-6.19 3.998a.425.425 0 01-.763-.374c.708-1.44 1.585-2.346 2.6-2.973a9.34 9.34 0 00-1.476-.725c-.774-.308-1.613-.556-2.449-.771a3.807 3.807 0 01-.904-.347 2.427 2.427 0 01-.793-.684c-.321-.438-.61-1.283-.504-2.323.02-.2.056-.41.11-.624a4.713 4.713 0 01-2.384.653 4.72 4.72 0 01-2.406-.666c.054.22.09.432.112.637.107 1.04-.181 1.884-.503 2.323a2.427 2.427 0 01-.794.684 3.806 3.806 0 01-.904.347c-.32.082-.488.125-.653.165-2.157.538-3.95.985-5.07 3.267a.425.425 0 01-.764-.373c1.297-2.64 3.263-3.13 5.63-3.72l.647-.163c.242-.061.483-.146.7-.266.202-.111.382-.255.52-.445.227-.307.426-.93.344-1.732-.063-.606-.29-1.306-.79-2.043a.438.438 0 01-.04-.072c-.9-1.15-1.45-2.696-1.45-4.392 0-1.765.597-3.366 1.562-4.53.984-1.185 2.348-1.919 3.86-1.919 1.513 0 2.877.733 3.86 1.919.965 1.163 1.562 2.765 1.562 4.53 0 1.74-.58 3.323-1.52 4.481-.494.73-.718 1.424-.78 2.026-.083.803.118 1.424.344 1.732.139.189.319.333.52.445.217.12.458.204.7.267.869.224 1.741.48 2.553.804.739.293 1.427.64 2.019 1.061.997-.452 2.102-.727 3.293-1.024l.783-.196c.3-.077.598-.181.868-.33.254-.142.482-.324.658-.564.283-.385.535-1.16.432-2.156-.077-.747-.356-1.606-.97-2.51a.45.45 0 01-.045-.084c-1.08-1.376-1.741-3.229-1.741-5.264 0-2.113.713-4.03 1.868-5.42 1.172-1.414 2.797-2.289 4.599-2.289h-.006zm3.5 24.113v9.339h2.452a.427.427 0 01.353.666l-5.744 9.742a.426.426 0 01-.737-.006l-5.754-9.758a.426.426 0 01.367-.643v-.001h2.452v-9.339c0-.235.191-.426.427-.426h5.758c.236 0 .426.19.426.426zm-.854 9.766v-9.34h-4.904v9.34a.427.427 0 01-.427.426h-2.132l5.01 8.5 5.012-8.5h-2.132a.427.427 0 01-.427-.426zm-1.745 20.151v6.963a18.898 18.898 0 0012.93-5.477c3.376-3.35 5.45-7.941 5.45-12.93 0-.288.003.164.002-.075l-.02-6.794h-7.274l.003 6.887c0 3.086-1.286 5.943-3.367 8.029-1.99 1.994-4.71 3.285-7.724 3.397zm-.853 6.963v-6.963c-3.015-.112-5.734-1.403-7.724-3.397-2.082-2.087-3.37-4.943-3.37-8.03H21l.003-6.886h-7.275l-.02 6.794c0 .238.002-.213.002.075 0 4.989 2.073 9.58 5.45 12.93a18.896 18.896 0 0012.93 5.478zM13.326 28.092h8.105c.236 0 .427.19.427.426v7.846a.393.393 0 01-.006.071l-.005 7.244h.003c0 2.853 1.191 5.496 3.118 7.428 1.93 1.933 4.591 3.152 7.532 3.157h.031c2.941-.005 5.604-1.224 7.532-3.157s3.121-4.576 3.121-7.428l-.004-7.244a.393.393 0 01-.007-.071v-7.846c0-.235.191-.426.427-.426h8.106c.235 0 .426.19.426.426v.592l.04 14.472v.078h.002c0-.047 0-.136 0 0 0 5.222-2.17 10.029-5.703 13.534A19.747 19.747 0 0132.6 62.923h-.084c.036 0 .024 0 0 0 .044 0 .125.002 0 .002s-.044 0 0-.001c-.023 0-.036 0 0-.001h-.084a19.745 19.745 0 01-13.872-5.73c-3.534-3.505-5.704-8.31-5.704-13.533 0-.136 0-.047.002 0 .028-4.85.028-9.7.042-14.55v-.592c0-.235.191-.426.427-.426zm7.679.853h-7.252v6.992h7.25l.002-4.322v-2.67zM12.857 43.66c0 .024 0 .037 0 0zm31.17-12.045l.003 4.322h7.25v-6.992h-7.252v2.67zm8.148 12.045c0 .037.001.024.001 0h-.001zm.803-30.93a.427.427 0 01.648.553 3.8 3.8 0 01-1.218.956c-.45.22-.94.341-1.451.341a3.293 3.293 0 01-1.452-.341 3.813 3.813 0 01-1.217-.956.426.426 0 11.647-.553c.272.319.592.573.944.746a2.44 2.44 0 002.157 0c.352-.171.672-.428.944-.746h-.002zM50.956 4.5c-1.246 0-2.379.615-3.204 1.609-.842 1.016-1.364 2.425-1.364 3.986 0 1.56.522 2.97 1.364 3.986.825.994 1.958 1.609 3.204 1.609 1.246 0 2.378-.615 3.203-1.609.843-1.016 1.364-2.426 1.364-3.986s-.521-2.97-1.364-3.986c-.825-.994-1.957-1.609-3.203-1.609zm-40.583 8.782a.426.426 0 01.648-.553c.272.319.592.573.944.746a2.44 2.44 0 002.157 0c.352-.171.672-.428.944-.746a.427.427 0 01.647.553 3.8 3.8 0 01-1.217.956c-.45.22-.94.341-1.452.341a3.293 3.293 0 01-1.452-.341 3.813 3.813 0 01-1.216-.956h-.003zm5.872-7.173c-.824-.994-1.957-1.609-3.203-1.609-1.246 0-2.378.615-3.203 1.609-.843 1.016-1.364 2.425-1.364 3.986 0 1.56.521 2.97 1.364 3.986.825.994 1.957 1.609 3.203 1.609 1.246 0 2.379-.615 3.203-1.609.843-1.016 1.365-2.426 1.365-3.986s-.522-2.97-1.365-3.986zm12.637 6.468a.426.426 0 01.648-.553c.337.394.733.71 1.17.923a3.032 3.032 0 002.686 0 3.666 3.666 0 001.17-.924.427.427 0 01.647.554c-.41.48-.899.868-1.443 1.134-.531.26-1.11.403-1.716.403a3.885 3.885 0 01-1.717-.403 4.524 4.524 0 01-1.443-1.134h-.002zm7.102-8.672c-1.013-1.222-2.407-1.977-3.942-1.977-1.535 0-2.93.756-3.943 1.977-1.032 1.245-1.67 2.969-1.67 4.877s.639 3.633 1.67 4.877c1.014 1.222 2.408 1.977 3.943 1.977 1.535 0 2.929-.756 3.942-1.977 1.032-1.245 1.67-2.969 1.67-4.877s-.639-3.633-1.67-4.877z" fill="#007CC3"/><path d="M32.043 1.075c1.8 0 3.426.875 4.6 2.288 1.153 1.391 1.867 3.308 1.867 5.421 0 2.084-.695 3.979-1.822 5.364-.607.898-.883 1.753-.96 2.494-.102.996.148 1.77.432 2.156.176.24.404.422.658.563.269.15.569.254.868.33.165.043.477.121.783.197 1.176.293 2.27.565 3.256 1.008.586-.414 1.267-.755 1.995-1.045.812-.323 1.685-.58 2.553-.805.242-.061.483-.146.7-.266a1.58 1.58 0 00.52-.445c.226-.307.426-.93.344-1.732-.062-.602-.286-1.295-.779-2.026-.94-1.158-1.521-2.74-1.521-4.481 0-1.765.596-3.366 1.562-4.53.983-1.185 2.347-1.92 3.86-1.92 1.512 0 2.877.734 3.86 1.92.964 1.163 1.562 2.765 1.562 4.53 0 1.696-.55 3.24-1.45 4.392a.546.546 0 01-.04.072c-.5.736-.728 1.437-.79 2.043-.083.803.118 1.424.344 1.732.138.189.319.333.52.445.217.12.458.203.7.266.12.031.385.098.648.163 2.366.59 4.332 1.08 5.63 3.72a.425.425 0 11-.764.373c-1.121-2.282-2.912-2.73-5.07-3.267l-.654-.165a3.812 3.812 0 01-.904-.347 2.427 2.427 0 01-.793-.685c-.321-.437-.61-1.282-.504-2.322a4.66 4.66 0 01.112-.638 4.715 4.715 0 01-2.406.667 4.714 4.714 0 01-2.383-.653c.052.216.087.424.109.624.106 1.04-.181 1.884-.504 2.322a2.427 2.427 0 01-.793.685 3.812 3.812 0 01-.904.347 20.55 20.55 0 00-2.449.771 9.523 9.523 0 00-1.445.707c1.027.628 1.915 1.536 2.63 2.991a.424.424 0 11-.764.373c-.72-1.464-1.661-2.31-2.772-2.88a.428.428 0 01-.232-.114c-.955-.448-2.027-.714-3.185-1.003-.21-.053-.423-.106-.79-.2a4.528 4.528 0 01-1.072-.41 2.839 2.839 0 01-.93-.804c-.38-.515-.72-1.513-.593-2.745.031-.304.09-.624.185-.955a5.627 5.627 0 01-3.023.892 5.64 5.64 0 01-3.053-.91c.097.338.158.663.19.974.127 1.232-.213 2.23-.592 2.745a2.853 2.853 0 01-.931.804c-.34.187-.706.316-1.071.41-.367.095-.58.148-.79.2-2.631.656-4.816 1.2-6.19 3.998a.425.425 0 01-.763-.374c.708-1.44 1.585-2.346 2.6-2.973a9.34 9.34 0 00-1.476-.725c-.774-.308-1.613-.556-2.449-.771a3.807 3.807 0 01-.904-.347 2.427 2.427 0 01-.793-.684c-.321-.438-.61-1.283-.504-2.323.02-.2.056-.41.11-.624a4.713 4.713 0 01-2.384.653 4.72 4.72 0 01-2.406-.666c.054.22.09.432.112.637.107 1.04-.181 1.884-.503 2.323a2.427 2.427 0 01-.794.684 3.806 3.806 0 01-.904.347c-.32.082-.488.125-.653.165-2.157.538-3.95.985-5.07 3.267a.425.425 0 01-.764-.373c1.297-2.64 3.263-3.13 5.63-3.72l.647-.163c.242-.061.483-.146.7-.266.202-.111.382-.255.52-.445.227-.307.426-.93.344-1.732-.063-.606-.29-1.306-.79-2.043a.438.438 0 01-.04-.072c-.9-1.15-1.45-2.696-1.45-4.392 0-1.765.597-3.366 1.562-4.53.984-1.185 2.348-1.919 3.86-1.919 1.513 0 2.877.733 3.86 1.919.965 1.163 1.562 2.765 1.562 4.53 0 1.74-.58 3.323-1.52 4.481-.494.73-.718 1.424-.78 2.026-.083.803.118 1.424.344 1.732.139.189.319.333.52.445.217.12.458.204.7.267.869.224 1.741.48 2.553.804.739.293 1.427.64 2.019 1.061.997-.452 2.102-.727 3.293-1.024l.783-.196c.3-.077.598-.181.868-.33.254-.142.482-.324.658-.564.283-.385.535-1.16.432-2.156-.077-.747-.356-1.606-.97-2.51a.45.45 0 01-.045-.084c-1.08-1.376-1.741-3.229-1.741-5.264 0-2.113.713-4.03 1.868-5.42 1.172-1.414 2.797-2.289 4.599-2.289h-.006zm3.5 24.113v9.339h2.452a.427.427 0 01.353.666l-5.744 9.742a.426.426 0 01-.737-.006l-5.754-9.758a.426.426 0 01.367-.643v-.001h2.452v-9.339c0-.235.191-.426.427-.426h5.758c.236 0 .426.19.426.426h0zm-.854 9.766v-9.34h-4.904v9.34a.427.427 0 01-.427.426h-2.132l5.01 8.5 5.012-8.5h-2.132a.427.427 0 01-.427-.426zm-1.745 20.151v6.963a18.898 18.898 0 0012.93-5.477c3.376-3.35 5.45-7.941 5.45-12.93 0-.288.003.164.002-.075l-.02-6.794h-7.274l.003 6.887c0 3.086-1.286 5.943-3.367 8.029-1.99 1.994-4.71 3.285-7.724 3.397zm-.853 6.963v-6.963c-3.015-.112-5.734-1.403-7.724-3.397-2.082-2.087-3.37-4.943-3.37-8.03H21l.003-6.886h-7.275l-.02 6.794c0 .238.002-.213.002.075 0 4.989 2.073 9.58 5.45 12.93a18.896 18.896 0 0012.93 5.478v0zM13.326 28.092h8.105c.236 0 .427.19.427.426v7.846a.393.393 0 01-.006.071l-.005 7.244h.003c0 2.853 1.191 5.496 3.118 7.428 1.93 1.933 4.591 3.152 7.532 3.157h.031c2.941-.005 5.604-1.224 7.532-3.157s3.121-4.576 3.121-7.428l-.004-7.244a.393.393 0 01-.007-.071v-7.846c0-.235.191-.426.427-.426h8.106c.235 0 .426.19.426.426v.592l.04 14.472v.078h.002c0-.047 0-.136 0 0 0 5.222-2.17 10.029-5.703 13.534A19.747 19.747 0 0132.6 62.923h-.084c.036 0 .024 0 0 0 .044 0 .125.002 0 .002s-.044 0 0-.001c-.023 0-.036 0 0-.001h-.084a19.745 19.745 0 01-13.872-5.73c-3.534-3.505-5.704-8.31-5.704-13.533 0-.136 0-.047.002 0h0c.028-4.85.028-9.7.042-14.55v-.592c0-.235.191-.426.427-.426zm7.679.853h-7.252v6.992h7.25l.002-4.322v-2.67zM12.857 43.66c0 .024 0 .037 0 0h0zm31.17-12.045l.003 4.322h7.25v-6.992h-7.252v2.67zm8.148 12.045c0 .037.001.024.001 0h-.001zm.803-30.93a.427.427 0 01.648.553 3.8 3.8 0 01-1.218.956c-.45.22-.94.341-1.451.341a3.293 3.293 0 01-1.452-.341 3.813 3.813 0 01-1.217-.956.426.426 0 11.647-.553c.272.319.592.573.944.746a2.44 2.44 0 002.157 0c.352-.171.672-.428.944-.746h-.002zM50.956 4.5c-1.246 0-2.379.615-3.204 1.609-.842 1.016-1.364 2.425-1.364 3.986 0 1.56.522 2.97 1.364 3.986.825.994 1.958 1.609 3.204 1.609 1.246 0 2.378-.615 3.203-1.609.843-1.016 1.364-2.426 1.364-3.986s-.521-2.97-1.364-3.986c-.825-.994-1.957-1.609-3.203-1.609zm-40.583 8.782a.426.426 0 01.648-.553c.272.319.592.573.944.746a2.44 2.44 0 002.157 0c.352-.171.672-.428.944-.746a.427.427 0 01.647.553 3.8 3.8 0 01-1.217.956c-.45.22-.94.341-1.452.341a3.293 3.293 0 01-1.452-.341 3.813 3.813 0 01-1.216-.956h-.003zm5.872-7.173c-.824-.994-1.957-1.609-3.203-1.609-1.246 0-2.378.615-3.203 1.609-.843 1.016-1.364 2.425-1.364 3.986 0 1.56.521 2.97 1.364 3.986.825.994 1.957 1.609 3.203 1.609 1.246 0 2.379-.615 3.203-1.609.843-1.016 1.365-2.426 1.365-3.986s-.522-2.97-1.365-3.986zm12.637 6.468a.426.426 0 01.648-.553c.337.394.733.71 1.17.923a3.032 3.032 0 002.686 0 3.666 3.666 0 001.17-.924.427.427 0 01.647.554c-.41.48-.899.868-1.443 1.134-.531.26-1.11.403-1.716.403a3.885 3.885 0 01-1.717-.403 4.524 4.524 0 01-1.443-1.134h-.002zm7.102-8.672c-1.013-1.222-2.407-1.977-3.942-1.977-1.535 0-2.93.756-3.943 1.977-1.032 1.245-1.67 2.969-1.67 4.877s.639 3.633 1.67 4.877c1.014 1.222 2.408 1.977 3.943 1.977 1.535 0 2.929-.756 3.942-1.977 1.032-1.245 1.67-2.969 1.67-4.877s-.639-3.633-1.67-4.877z" stroke="#007CC3" stroke-width=".2" mask="url(#a)"/></svg>