<svg width="64" height="64" viewBox="0 0 64 64" fill="none" xmlns="http://www.w3.org/2000/svg">
<g clip-path="url(#clip0)">
<path d="M14.282 62H49.718C52.072 62 54 60.072 54 57.718V6.282C54 3.928 52.072 2 49.718 2H14.282C11.928 2 10 3.928 10 6.282V57.718C10 60.072 11.928 62 14.282 62ZM11 6.282C11 4.472 12.472 3 14.282 3H49.718C51.528 3 53 4.472 53 6.282V57.718C53 59.528 51.528 61 49.718 61H14.282C12.472 61 11 59.528 11 57.718V6.282Z" fill="#007CC3"/>
<path d="M26.4041 9.26595L25.5841 8.69196L21.1241 15.064L17.5001 12.54L16.9301 13.36L21.3721 16.454L26.4041 9.26595Z" fill="#007CC3"/>
<path d="M46.396 11.87H30.006V12.87H46.396V11.87Z" fill="#007CC3"/>
<path d="M46.396 24.956H30.006V25.956H46.396V24.956Z" fill="#007CC3"/>
<path d="M46.396 38.042H30.006V39.042H46.396V38.042Z" fill="#007CC3"/>
<path d="M46.396 51.13H30.006V52.13H46.396V51.13Z" fill="#007CC3"/>
<path d="M21.2879 35.53C19.6239 35.53 18.2739 36.88 18.2739 38.544C18.2739 40.208 19.6239 41.558 21.2879 41.558C22.9519 41.558 24.3019 40.208 24.3019 38.544C24.3019 36.878 22.9539 35.53 21.2879 35.53ZM21.2879 40.558C20.1779 40.558 19.2739 39.654 19.2739 38.544C19.2739 37.434 20.1779 36.53 21.2879 36.53C22.3979 36.53 23.3019 37.434 23.3019 38.544C23.3019 39.654 22.3999 40.558 21.2879 40.558Z" fill="#007CC3"/>
<path d="M21.2879 22.442C19.6239 22.442 18.2739 23.792 18.2739 25.456C18.2739 27.12 19.6239 28.4699 21.2879 28.4699C22.9519 28.4699 24.3019 27.12 24.3019 25.456C24.3019 23.792 22.9539 22.442 21.2879 22.442ZM21.2879 27.47C20.1779 27.47 19.2739 26.566 19.2739 25.456C19.2739 24.346 20.1779 23.442 21.2879 23.442C22.3979 23.442 23.3019 24.346 23.3019 25.456C23.3019 26.566 22.3999 27.47 21.2879 27.47Z" fill="#007CC3"/>
<path d="M21.2879 48.616C19.6239 48.616 18.2739 49.966 18.2739 51.63C18.2739 53.294 19.6239 54.644 21.2879 54.644C22.9519 54.644 24.3019 53.294 24.3019 51.63C24.3019 49.966 22.9539 48.616 21.2879 48.616ZM21.2879 53.646C20.1779 53.646 19.2739 52.742 19.2739 51.632C19.2739 50.522 20.1779 49.618 21.2879 49.618C22.3979 49.618 23.3019 50.522 23.3019 51.632C23.3019 52.742 22.3999 53.646 21.2879 53.646Z" fill="#007CC3"/>
</g>
<defs>
<clipPath id="clip0">
<rect width="64" height="64" fill="white"/>
</clipPath>
</defs>
</svg>
