<svg width="20" height="20" viewBox="0 0 20 20" fill="none" xmlns="http://www.w3.org/2000/svg">
<g clip-path="url(#clip0)">
<path d="M0.575836 7.87791C-0.872496 14.3862 4.82917 20.2987 11.525 19.1637C15.16 21.4196 20 18.8704 20 14.5454C20 13.5396 19.7225 12.5979 19.24 11.7862C20.5858 5.26291 14.8375 -0.564592 8.1475 0.647909C3.41834 -1.85292 -1.8075 3.13457 0.575836 7.87791ZM6.94084 3.95291C8.6975 3.23041 11.5883 3.22624 13.3375 4.14207C15.8317 5.47208 16.275 8.46624 14.1233 8.46624C12.5017 8.46624 13.015 6.57541 11.3775 5.80458C10.6258 5.45708 9.01 5.42124 8.07084 6.05457C7.14334 6.67541 7.22834 7.65208 7.7325 8.11874C9.06834 9.35208 12.8908 8.86208 14.6383 11.0212C15.3975 11.9579 15.5408 13.6104 14.6075 14.8087C12.9808 16.9021 8.2075 17.0296 6.155 15.4487C4.26 13.9821 4.77167 12.0354 6.30084 12.0354C8.14 12.0354 7.17334 14.4421 10.1425 14.4421C12.295 14.4421 13.1417 12.9112 11.6258 12.1662C9.57084 11.1454 4.33417 11.4862 4.33417 7.49708C4.33834 5.83708 5.35584 4.59958 6.94084 3.95291Z" fill="#4BAEEA"/>
</g>
<defs>
<clipPath id="clip0">
<rect width="20" height="20" fill="white" transform="translate(20 20) rotate(-180)"/>
</clipPath>
</defs>
</svg>
