<svg width="48" height="61" viewBox="0 0 48 61" fill="none" xmlns="http://www.w3.org/2000/svg">
<path d="M20.2371 55.1196H1.14021H0.515251V54.4947V0.93749V0.312469H1.14021H46.8598H47.4849V0.93749V54.4947V55.1196H46.8598H27.2806V53.8696H46.2348V1.5625H1.76517V53.8696H20.2371V55.1196Z" fill="#007CC3"/>
<path d="M7.67155 8.15002H40.3285V9.40007H7.67155V8.15002Z" fill="#007CC3"/>
<path d="M7.67155 17.294H40.3285V18.5441H7.67155V17.294Z" fill="#007CC3"/>
<path d="M7.67155 26.438H40.3285V27.688H7.67155V26.438Z" fill="#007CC3"/>
<path d="M7.67155 35.5819H40.3285V36.8319H7.67155V35.5819Z" fill="#007CC3"/>
<path d="M24 37.9682C24.7711 37.9682 25.2345 38.5682 25.6891 39.157C25.9151 39.4496 26.1379 39.7381 26.2944 39.8043C26.4556 39.8725 26.8252 39.8232 27.1943 39.7737L27.1943 39.7734C27.9102 39.6775 28.6246 39.5818 29.1402 40.0974C29.6555 40.6127 29.56 41.326 29.4642 42.0409C29.4147 42.4109 29.365 42.7816 29.4334 42.9433C29.4995 43.0997 29.7881 43.3226 30.0807 43.5485C30.6695 44.0032 31.2695 44.4666 31.2695 45.2377C31.2695 46.0088 30.6695 46.4721 30.0808 46.9267C29.7881 47.1527 29.4996 47.3755 29.4334 47.532C29.3652 47.6932 29.4145 48.0628 29.4639 48.4319L29.4642 48.4319C29.5602 49.1479 29.6558 49.8623 29.1403 50.3779C28.6248 50.8934 27.9103 50.7977 27.1943 50.7018L27.1943 50.7015C26.8252 50.6521 26.4556 50.6028 26.2944 50.671C26.1379 50.7372 25.9151 51.0257 25.6891 51.3183C25.2344 51.9071 24.7711 52.5071 24 52.5071C23.2288 52.5071 22.7656 51.9071 22.3109 51.3184C22.085 51.0257 21.8621 50.7372 21.7057 50.6711C21.544 50.6027 21.1733 50.6523 20.8033 50.7019C20.0884 50.7976 19.3751 50.8931 18.8598 50.3779C18.3445 49.8626 18.4401 49.1492 18.5358 48.4343C18.5853 48.0644 18.635 47.6937 18.5666 47.532C18.5004 47.3756 18.2119 47.1527 17.9193 46.9267C17.3306 46.4721 16.7305 46.0087 16.7305 45.2377C16.7305 44.4665 17.3306 44.0032 17.9193 43.5486C18.212 43.3226 18.5005 43.0998 18.5666 42.9433C18.6348 42.7821 18.5855 42.4125 18.5361 42.0433L18.5358 42.0434C18.4399 41.3274 18.3442 40.613 18.8598 40.0974C19.3751 39.5821 20.0884 39.6777 20.8033 39.7734C21.1732 39.823 21.544 39.8726 21.7057 39.8043C21.8622 39.7381 22.085 39.4496 22.3109 39.157C22.7656 38.5682 23.2289 37.9682 24 37.9682V37.9682ZM24.7028 39.9187C24.4349 39.5718 24.1619 39.2182 24 39.2182C23.8382 39.2182 23.5651 39.5718 23.2973 39.9187C22.9713 40.3407 22.65 40.7568 22.1891 40.9517C21.7145 41.1524 21.1778 41.0805 20.6422 41.0088C20.2334 40.954 19.8254 40.8994 19.7436 40.9812C19.6621 41.0627 19.7165 41.4696 19.7711 41.8774V41.8798C19.8428 42.4155 19.9148 42.9522 19.714 43.4267C19.5191 43.8877 19.103 44.209 18.681 44.5349C18.3341 44.8028 17.9806 45.0758 17.9806 45.2377C17.9806 45.3994 18.3341 45.6725 18.681 45.9404C19.103 46.2663 19.5191 46.5877 19.714 47.0486C19.9148 47.5231 19.8429 48.0599 19.7711 48.5955C19.7164 49.0042 19.6618 49.4123 19.7436 49.4941C19.8254 49.5759 20.2334 49.5212 20.6422 49.4665C21.1779 49.3948 21.7146 49.3229 22.1891 49.5236C22.65 49.7186 22.9713 50.1346 23.2972 50.5566C23.5651 50.9035 23.8382 51.257 24 51.257C24.1619 51.257 24.4349 50.9035 24.7028 50.5566C25.0287 50.1346 25.35 49.7185 25.8109 49.5236C26.2855 49.3228 26.8222 49.3948 27.3579 49.4665H27.3603C27.7681 49.5211 28.175 49.5756 28.2565 49.4941C28.338 49.4125 28.2835 49.0057 28.2289 48.5979V48.5955C28.1572 48.0598 28.0852 47.5231 28.286 47.0485C28.481 46.5876 28.897 46.2663 29.319 45.9404C29.6659 45.6725 30.0194 45.3994 30.0194 45.2377C30.0194 45.0758 29.6659 44.8027 29.319 44.5349C28.897 44.209 28.4809 43.8877 28.286 43.4267C28.0853 42.9522 28.1571 42.4155 28.2289 41.8798C28.2836 41.471 28.3382 41.0629 28.2564 40.9812C28.1749 40.8996 27.768 40.9541 27.3602 41.0088H27.3578C26.8222 41.0805 26.2855 41.1524 25.8109 40.9517C25.35 40.7568 25.0287 40.3407 24.7028 39.9187H24.7028Z" fill="#007CC3"/>
<path d="M28.3245 50.1352V59.0626V60.5653L27.2599 59.5045L24.0111 56.2669L20.7401 59.5045L19.6755 60.558V59.0626V50.1352H20.9256V57.5671L23.5732 54.9467L24.0141 54.5102L24.4521 54.9467L27.0744 57.5599V50.1352H28.3245Z" fill="#007CC3"/>
</svg>
