<svg width="53" height="48" viewBox="0 0 53 48" fill="none" xmlns="http://www.w3.org/2000/svg">
<path d="M5.2765 42.8503C5.2865 42.882 5.29713 42.9118 5.31362 42.9405C5.31997 42.9516 5.32035 42.964 5.32775 42.9748C5.3454 43.0007 5.36772 43.0219 5.3895 43.0435C5.39594 43.0499 5.40052 43.0572 5.40731 43.0633C5.45043 43.1018 5.50004 43.1308 5.55318 43.1533C5.56561 43.1585 5.57807 43.1623 5.59104 43.1668C5.64917 43.1864 5.70958 43.2 5.77175 43.2001C5.77204 43.2001 5.7723 43.2003 5.77258 43.2003H46.7055C46.9956 43.2003 47.2303 42.9854 47.2303 42.7203V19.2903C47.2303 19.2836 47.2264 19.278 47.2261 19.2713C47.2238 19.2174 47.213 19.165 47.1918 19.1156C47.1896 19.1104 47.1888 19.1048 47.1864 19.0997C47.163 19.0503 47.1286 19.0064 47.0881 18.9664C47.0791 18.9574 47.0703 18.9492 47.0605 18.9409C47.0504 18.9323 47.0424 18.922 47.0315 18.9141L41.0221 14.5592C41.0052 14.5469 40.9847 14.5435 40.9668 14.5335V10.2884C40.9668 10.0233 40.732 9.8084 40.442 9.8084H34.4661L28.6226 5.57395C27.1933 4.53848 25.1987 4.53965 23.7704 5.5784L17.9645 9.80395C17.9628 9.80521 17.9621 9.80711 17.9604 9.8084H11.6195C11.3294 9.8084 11.0947 10.0233 11.0947 10.2884V14.8035L5.44562 18.9146C5.43467 18.9225 5.42672 18.9328 5.4166 18.9415C5.40731 18.9494 5.39905 18.9573 5.3904 18.9658C5.34969 19.006 5.315 19.0503 5.29159 19.1C5.28928 19.1048 5.28861 19.1101 5.28646 19.1151C5.26523 19.1645 5.25437 19.2172 5.252 19.2712C5.25171 19.2779 5.2478 19.2835 5.2478 19.2903V42.7203C5.2478 42.7331 5.25472 42.7439 5.25581 42.7566C5.25844 42.7887 5.26664 42.8188 5.2765 42.8503ZM25.2499 31.0052L6.29737 41.8537V20.1568L25.2499 31.0052ZM46.1807 20.1568V41.8537L27.2281 31.0053L46.1807 20.1568ZM44.8779 42.2403H7.60025L26.2391 31.5714L44.8779 42.2403ZM45.7969 19.2441L40.9668 22.0089V15.7438L45.7969 19.2441ZM24.4244 6.32981C25.4673 5.56973 26.9258 5.56902 27.9707 6.32629L32.776 9.8084H19.6448L24.4244 6.32981ZM39.9172 10.7684V22.6097L26.239 30.4391L12.1443 22.3713V10.7684H39.9172ZM11.0947 16.0307V21.7705L6.67968 19.2434L11.0947 16.0307Z" fill="white"/>
<path d="M16.5142 14.5538H22.2734C22.5635 14.5538 22.7982 14.3388 22.7982 14.0738C22.7982 13.8087 22.5635 13.5938 22.2734 13.5938H16.5142C16.2241 13.5938 15.9894 13.8087 15.9894 14.0738C15.9894 14.3388 16.2241 14.5538 16.5142 14.5538Z" fill="white"/>
<path d="M16.5142 18.2251H22.2734C22.5635 18.2251 22.7982 18.0102 22.7982 17.7451C22.7982 17.4801 22.5635 17.2651 22.2734 17.2651H16.5142C16.2241 17.2651 15.9894 17.4801 15.9894 17.7451C15.9894 18.0102 16.2241 18.2251 16.5142 18.2251Z" fill="white"/>
<path d="M16.0483 22.334C16.0483 22.5991 16.2831 22.814 16.5731 22.814H35.905C36.195 22.814 36.4297 22.5991 36.4297 22.334C36.4297 22.0689 36.195 21.854 35.905 21.854H16.5731C16.2831 21.854 16.0483 22.0689 16.0483 22.334Z" fill="white"/>
</svg>
