<svg width="20" height="20" viewBox="0 0 20 20" fill="none" xmlns="http://www.w3.org/2000/svg">
<path d="M10.7916 18.628C11.2756 18.628 11.7636 18.628 12.2476 18.628C12.8996 18.628 13.5396 18.62 14.1756 18.444C15.9996 17.936 17.4636 16.356 17.7716 14.476C17.8436 14.032 17.8516 13.596 17.8516 13.152C17.8516 12.596 17.8516 12.04 17.8516 11.484C17.8516 10.496 17.8516 9.50796 17.8516 8.51996C17.8476 6.47596 17.0596 4.49595 15.6356 3.02395C14.1156 1.45195 11.9516 0.571955 9.76761 0.635955C7.88361 0.691955 6.07561 1.43195 4.68361 2.69995C3.29961 3.95995 2.43161 5.69596 2.19561 7.54796C2.07561 8.49196 2.13561 9.46395 2.13561 10.412C2.13561 11.46 2.13561 12.508 2.13561 13.556C2.13561 13.692 2.13561 13.828 2.13561 13.968C2.13561 14.28 2.41161 14.584 2.73561 14.568C3.05961 14.552 3.33561 14.304 3.33561 13.968C3.33561 12.212 3.33561 10.452 3.33561 8.69596C3.33561 8.43996 3.33561 8.18796 3.35561 7.93196C3.36361 7.83996 3.37161 7.74796 3.38361 7.65596C3.38361 7.63996 3.41161 7.45996 3.39161 7.59595C3.39961 7.53996 3.40761 7.48796 3.41561 7.43196C3.45161 7.20796 3.49961 6.98796 3.55961 6.76796C3.61161 6.56796 3.67561 6.37196 3.74361 6.17996C3.77961 6.07996 3.81961 5.97996 3.85961 5.87996C3.80761 6.00396 3.87561 5.84396 3.88361 5.82796C3.90361 5.77995 3.92761 5.73196 3.95161 5.68396C4.13161 5.30396 4.34761 4.93995 4.58761 4.59595C4.61961 4.55195 4.64761 4.51195 4.67961 4.46795C4.68761 4.45595 4.79561 4.31995 4.71161 4.42395C4.77561 4.33995 4.84361 4.25995 4.91161 4.17995C5.04761 4.01995 5.19161 3.86795 5.33961 3.71995C5.48761 3.57195 5.64361 3.43195 5.80761 3.29995C5.84761 3.26795 5.88761 3.23595 5.93161 3.19995C5.91161 3.21595 5.84361 3.26395 5.93561 3.19595C6.03561 3.12395 6.13161 3.05195 6.23561 2.98395C6.58361 2.74795 6.95561 2.53995 7.33961 2.36795C7.35161 2.35995 7.51561 2.29195 7.39161 2.34395C7.43961 2.32395 7.49161 2.30395 7.53961 2.28395C7.62361 2.25195 7.70761 2.21995 7.79161 2.19195C8.01161 2.11595 8.23561 2.05195 8.46361 1.99595C8.65961 1.94795 8.85561 1.91595 9.05161 1.87995C9.23161 1.84795 8.92761 1.89195 9.11161 1.87195C9.16761 1.86395 9.21961 1.85995 9.27561 1.85195C9.40361 1.83995 9.53561 1.82795 9.66361 1.82395C10.1476 1.79995 10.6956 1.83595 11.0836 1.89995C11.5876 1.98795 12.0756 2.12795 12.5516 2.31595C12.6676 2.35995 12.6076 2.33995 12.5836 2.32795C12.6396 2.35195 12.6996 2.37995 12.7556 2.40395C12.8676 2.45595 12.9796 2.51195 13.0916 2.57195C13.3196 2.69195 13.5436 2.82795 13.7596 2.97195C14.4916 3.46395 15.1836 4.18795 15.6556 4.95195C15.7876 5.16396 15.9076 5.38395 16.0156 5.60795C16.1356 5.85195 16.1756 5.94796 16.2716 6.21996C16.3556 6.45996 16.4276 6.70396 16.4876 6.95196C16.5116 7.05596 16.5356 7.15996 16.5556 7.26796C16.5676 7.33195 16.5796 7.39596 16.5876 7.45996C16.5956 7.50396 16.5996 7.54396 16.6076 7.58795C16.5996 7.53596 16.6036 7.54796 16.6116 7.62396C16.7156 8.57596 16.6596 9.55996 16.6596 10.516C16.6596 11.512 16.6596 12.508 16.6596 13.508C16.6596 13.72 16.6516 13.932 16.6236 14.14C16.6396 14.004 16.6156 14.18 16.6116 14.196C16.6036 14.248 16.5916 14.304 16.5796 14.356C16.5556 14.46 16.5316 14.568 16.4996 14.668C16.4756 14.752 16.4476 14.84 16.4156 14.924C16.3956 14.976 16.3796 15.024 16.3596 15.072C16.4076 14.948 16.3236 15.152 16.3156 15.172C16.2236 15.364 16.1196 15.548 16.0036 15.724C15.9556 15.796 15.9036 15.868 15.8516 15.94C15.9316 15.832 15.8236 15.972 15.8156 15.984C15.7716 16.036 15.7236 16.092 15.6796 16.144C15.5436 16.292 15.3996 16.432 15.2476 16.56C15.2156 16.588 15.1796 16.616 15.1476 16.644C15.2516 16.56 15.1156 16.668 15.0996 16.676C14.9996 16.748 14.8956 16.816 14.7916 16.876C14.6236 16.976 14.4516 17.064 14.2756 17.14C14.3996 17.088 14.2356 17.152 14.2196 17.16C14.1676 17.18 14.1196 17.196 14.0676 17.212C13.9476 17.252 13.8276 17.288 13.7076 17.316C13.6036 17.34 13.4956 17.36 13.3876 17.38C13.2716 17.4 13.3596 17.384 13.3836 17.384C13.3276 17.392 13.2756 17.396 13.2196 17.4C13.0796 17.412 12.9356 17.416 12.7956 17.416C12.2756 17.416 11.7556 17.416 11.2356 17.416C11.0916 17.416 10.9436 17.416 10.7996 17.416C10.4876 17.416 10.1836 17.692 10.1996 18.016C10.2076 18.352 10.4556 18.628 10.7916 18.628Z" fill="#007CC3"/>
<path d="M4.27574 14.1679C4.18374 14.1679 4.09574 14.1679 4.00374 14.1679C3.96374 14.1679 3.91974 14.1679 3.87974 14.1679C3.83974 14.1679 3.66374 14.1439 3.78774 14.1679C3.75574 14.1599 3.71974 14.1479 3.68374 14.1439C3.53174 14.1199 3.73574 14.1759 3.65574 14.1399C3.61974 14.1239 3.44774 14.0039 3.53974 14.0799C3.50774 14.0519 3.47574 14.0199 3.44774 13.9919C3.42374 13.9679 3.36374 13.8799 3.42774 13.9759C3.40774 13.9479 3.39174 13.9199 3.37174 13.8879C3.34774 13.8479 3.31974 13.7439 3.34774 13.8399C3.33574 13.7959 3.32374 13.7559 3.31174 13.7119C3.28774 13.6199 3.30774 13.8479 3.30774 13.6839C3.30774 13.6639 3.30774 13.6399 3.30774 13.6199C3.30774 13.5839 3.30774 13.5519 3.30774 13.5159C3.30774 13.3639 3.30774 13.2159 3.30774 13.0639C3.30774 12.1759 3.30774 11.2839 3.30774 10.3959C3.30774 10.3559 3.30774 10.3159 3.30774 10.2759C3.30774 10.2679 3.30774 10.2599 3.30774 10.2519C3.30774 10.2399 3.30774 10.2319 3.30774 10.2199C3.30774 10.1919 3.30774 10.1639 3.31174 10.1359C3.30374 10.2079 3.30374 10.2079 3.31574 10.1359C3.32774 10.1039 3.33574 10.0679 3.34374 10.0359C3.31174 10.1439 3.33574 10.0439 3.35574 10.0119C3.37974 9.97594 3.39974 9.93594 3.42374 9.89994C3.40774 9.92394 3.34774 9.97594 3.42774 9.89994C3.45974 9.87194 3.48774 9.83994 3.51974 9.81194C3.58774 9.75194 3.40774 9.86794 3.54374 9.79994C3.57574 9.78394 3.60374 9.76394 3.63574 9.74794C3.74374 9.68794 3.57174 9.75194 3.68774 9.73194C3.68374 9.73194 3.85574 9.69594 3.76374 9.71194C3.67574 9.72794 3.84774 9.70794 3.84774 9.70794C3.87174 9.70794 3.89974 9.70794 3.92374 9.70794C4.03574 9.70794 4.15174 9.70794 4.26374 9.70794C4.30774 9.70794 4.34774 9.70794 4.39174 9.71194C4.22374 9.69594 4.59174 9.78794 4.44774 9.72394C4.48774 9.73994 4.52374 9.76394 4.56374 9.78394C4.59174 9.79994 4.67974 9.86794 4.58774 9.79594C4.61574 9.81594 4.63974 9.83994 4.66374 9.86394C4.69574 9.89594 4.75574 9.98394 4.69974 9.89994C4.72374 9.93594 4.74374 9.97194 4.76774 10.0119C4.78774 10.0439 4.81174 10.1439 4.77974 10.0359C4.78774 10.0679 4.79974 10.1039 4.80774 10.1359C4.85574 10.2799 4.81574 10.0759 4.81574 10.1639C4.81574 10.2079 4.81974 10.2519 4.81974 10.2959C4.81974 10.4199 4.81974 10.5439 4.81974 10.6679C4.81974 11.1399 4.81974 11.6079 4.81974 12.0799C4.81974 12.5479 4.81974 13.0159 4.81974 13.4839C4.81974 13.5279 4.81974 13.5719 4.81974 13.6159C4.81974 13.6199 4.81974 13.6279 4.81974 13.6319C4.81974 13.6319 4.80374 13.8039 4.81574 13.7159C4.82774 13.6479 4.78374 13.8239 4.77974 13.8439C4.78774 13.8199 4.83574 13.7439 4.77974 13.8439C4.75574 13.8879 4.72774 13.9319 4.69974 13.9759C4.76374 13.8799 4.70374 13.9719 4.67974 13.9919C4.66774 14.0039 4.55174 14.1039 4.60774 14.0639C4.67574 14.0119 4.53974 14.1039 4.53974 14.1039C4.51174 14.1199 4.37974 14.1639 4.49174 14.1279C4.45974 14.1359 4.42374 14.1479 4.39174 14.1559C4.32374 14.1679 4.32374 14.1719 4.39174 14.1599C4.34774 14.1639 4.31174 14.1679 4.27574 14.1679C3.96374 14.1759 3.65974 14.4399 3.67574 14.7679C3.69174 15.0879 3.93974 15.3759 4.27574 15.3679C5.24374 15.3439 5.99574 14.5839 6.01574 13.6199C6.02374 13.2639 6.01574 12.9039 6.01574 12.5439C6.01574 11.9999 6.01574 11.4519 6.01574 10.9079C6.01574 10.5199 6.05574 10.0879 5.93174 9.71594C5.77974 9.25593 5.44374 8.86393 4.99974 8.66793C4.65174 8.51593 4.30774 8.50793 3.93574 8.50793C2.98774 8.50793 2.18774 9.16793 2.11174 10.1359C2.08774 10.4599 2.10774 10.7879 2.10774 11.1119C2.10774 11.6759 2.10774 12.2359 2.10774 12.7999C2.10774 13.2319 2.05174 13.7399 2.19174 14.1599C2.36774 14.6919 2.78374 15.1079 3.31974 15.2879C3.62774 15.3919 3.95974 15.3719 4.27974 15.3719C4.59174 15.3719 4.89574 15.0959 4.87974 14.7719C4.86374 14.4439 4.61174 14.1679 4.27574 14.1679Z" fill="#007CC3"/>
<path d="M16.0316 14.092C15.9396 14.092 15.8516 14.092 15.7596 14.092C15.7116 14.092 15.6636 14.088 15.6156 14.088C15.7276 14.092 15.6436 14.092 15.6156 14.084C15.5636 14.068 15.5156 14.056 15.4636 14.04C15.5756 14.08 15.4716 14.044 15.4436 14.024C15.4076 14 15.3716 13.98 15.3356 13.956C15.4356 14.024 15.2756 13.892 15.2476 13.86C15.1876 13.792 15.3076 13.976 15.2316 13.84C15.2156 13.812 15.1956 13.78 15.1796 13.752C15.1236 13.664 15.1676 13.724 15.1756 13.752C15.1596 13.704 15.1476 13.652 15.1316 13.6C15.0876 13.456 15.1236 13.66 15.1276 13.572C15.1276 13.56 15.1236 13.484 15.1236 13.488C15.1236 13.48 15.1236 13.476 15.1236 13.468C15.1236 13.428 15.1236 13.392 15.1236 13.352C15.1236 13.192 15.1236 13.036 15.1236 12.876C15.1236 12.028 15.1236 11.176 15.1236 10.328C15.1236 10.296 15.1236 10.264 15.1236 10.236C15.1236 10.216 15.1236 10.192 15.1236 10.172C15.1236 10.056 15.1236 10.144 15.1196 10.172C15.1316 10.12 15.1476 10.068 15.1596 10.02C15.1956 9.86801 15.1236 10.076 15.1676 9.99601C15.1876 9.96001 15.2116 9.92001 15.2316 9.88401C15.2836 9.79201 15.2476 9.86001 15.2276 9.88001C15.2556 9.84801 15.2876 9.82001 15.3156 9.78801C15.3396 9.76401 15.4276 9.70001 15.3316 9.76801C15.3596 9.74801 15.3876 9.72801 15.4196 9.71201C15.4476 9.69601 15.4796 9.68001 15.5116 9.66401C15.3956 9.72001 15.5356 9.66001 15.5636 9.65201C15.5636 9.65201 15.7316 9.62001 15.6396 9.63201C15.5476 9.64401 15.7236 9.63201 15.7236 9.63201C15.7556 9.63201 15.7876 9.63201 15.8196 9.63201C15.9276 9.63201 16.0316 9.62801 16.1396 9.63601C16.0196 9.62801 16.1316 9.63601 16.1636 9.64801C16.2036 9.66001 16.2476 9.67201 16.2876 9.68801C16.1756 9.64801 16.3596 9.73601 16.3956 9.75601C16.4716 9.80401 16.3076 9.66001 16.4156 9.77201C16.4396 9.79601 16.4636 9.82001 16.4876 9.84401C16.5636 9.91601 16.5076 9.86801 16.4916 9.84401C16.5196 9.88801 16.5436 9.93201 16.5716 9.97601C16.6556 10.108 16.5556 9.91201 16.5836 10C16.5956 10.04 16.6076 10.084 16.6196 10.128C16.6516 10.232 16.6276 10.156 16.6236 10.128C16.6276 10.18 16.6276 10.184 16.6276 10.236C16.6276 10.256 16.6276 10.276 16.6276 10.296C16.6276 10.428 16.6276 10.56 16.6276 10.692C16.6276 11.156 16.6276 11.62 16.6276 12.084C16.6276 12.52 16.6276 12.956 16.6276 13.396C16.6276 13.428 16.6276 13.46 16.6276 13.492C16.6276 13.524 16.6036 13.684 16.6316 13.552C16.6236 13.588 16.6156 13.62 16.6076 13.656C16.5956 13.696 16.5476 13.8 16.5956 13.708C16.5756 13.748 16.5556 13.784 16.5356 13.82C16.5236 13.844 16.5076 13.864 16.4916 13.884C16.5276 13.836 16.5316 13.832 16.5076 13.864C16.4796 13.896 16.4476 13.924 16.4196 13.956C16.3396 14.04 16.4876 13.928 16.3796 13.988C16.3516 14.004 16.3196 14.024 16.2916 14.04C16.1836 14.108 16.3596 14.032 16.2436 14.06C16.2076 14.068 16.1516 14.076 16.1156 14.092C16.0716 14.1 16.0796 14.1 16.1436 14.092C16.1036 14.092 16.0676 14.092 16.0316 14.092C15.7196 14.1 15.4156 14.364 15.4316 14.692C15.4476 15.012 15.6956 15.3 16.0316 15.292C17.0236 15.268 17.8116 14.488 17.8316 13.492C17.8356 13.176 17.8316 12.856 17.8316 12.54C17.8316 12.008 17.8316 11.472 17.8316 10.94C17.8316 10.568 17.8636 10.172 17.7796 9.80401C17.6756 9.34401 17.3596 8.93601 16.9636 8.69201C16.6196 8.48001 16.2356 8.43201 15.8396 8.43201C15.4476 8.43201 15.0596 8.50801 14.7276 8.73201C14.3356 9.00001 14.0436 9.41201 13.9596 9.88001C13.8956 10.236 13.9236 10.612 13.9236 10.972C13.9236 11.52 13.9236 12.064 13.9236 12.612C13.9236 13.036 13.8796 13.5 13.9756 13.92C14.0876 14.416 14.4516 14.872 14.9076 15.096C15.2716 15.276 15.6396 15.292 16.0316 15.292C16.3436 15.292 16.6476 15.016 16.6316 14.692C16.6156 14.368 16.3676 14.092 16.0316 14.092Z" fill="#007CC3"/>
<path d="M10.1918 17.992C10.1918 18.008 10.1838 18.112 10.1918 18.016C10.1918 18.02 10.1598 18.108 10.1838 18.056C10.2078 18.004 10.1638 18.092 10.1598 18.092C10.2198 18.024 10.1518 18.1 10.1438 18.108C10.1438 18.108 10.0678 18.172 10.1118 18.136C10.1638 18.092 10.0278 18.172 10.0878 18.148C10.1398 18.124 10.0478 18.156 10.0478 18.156C10.1158 18.152 10.0558 18.156 10.0238 18.156C9.92385 18.156 9.81985 18.156 9.71985 18.156C9.43585 18.156 9.14785 18.172 8.86385 18.156C8.99585 18.164 8.78385 18.116 8.83985 18.144C8.91985 18.18 8.72385 18.068 8.79585 18.112C8.86385 18.156 8.75185 18.04 8.79585 18.112C8.83585 18.176 8.78385 18.088 8.77985 18.092C8.77185 18.096 8.72385 17.964 8.77185 18.096C8.75985 18.064 8.75185 18.028 8.74385 17.996C8.75185 18.024 8.74385 18.108 8.74785 17.996C8.74785 17.996 8.75585 17.892 8.74785 17.952C8.74385 18.008 8.75985 17.916 8.76385 17.912C8.70785 17.984 8.77185 17.9 8.77985 17.892C8.70785 17.976 8.87585 17.804 8.82785 17.848C8.78385 17.884 8.86385 17.832 8.86785 17.832C8.80385 17.844 8.86385 17.832 8.89185 17.828C8.80385 17.836 8.93185 17.828 8.95985 17.828C9.02385 17.828 9.08785 17.828 9.15185 17.828C9.32785 17.828 9.50385 17.828 9.67985 17.828C9.79985 17.828 9.92785 17.84 10.0478 17.828C10.1358 17.82 9.96385 17.804 10.0478 17.828C10.0598 17.832 10.1598 17.868 10.0998 17.84C10.0318 17.808 10.1198 17.856 10.1198 17.856C10.1678 17.888 10.1758 17.896 10.1438 17.872C10.1158 17.852 10.1158 17.852 10.1398 17.876C10.1878 17.924 10.1358 17.86 10.1278 17.852C10.1278 17.852 10.2038 17.984 10.1718 17.916C10.1398 17.844 10.1838 17.944 10.1798 17.94C10.1918 18 10.1958 18.008 10.1878 17.964C10.1918 17.916 10.1918 17.928 10.1918 17.992C10.2038 18.304 10.4598 18.608 10.7918 18.592C11.1078 18.576 11.4038 18.328 11.3918 17.992C11.3758 17.508 11.1438 17.076 10.7278 16.82C10.4718 16.664 10.1838 16.624 9.89185 16.624C9.45585 16.624 8.93585 16.556 8.51185 16.684C7.47985 17 7.21985 18.392 8.06385 19.06C8.52385 19.424 9.07985 19.364 9.62385 19.364C9.86785 19.364 10.1278 19.384 10.3638 19.32C10.9758 19.16 11.3638 18.616 11.3878 17.996C11.3998 17.684 11.1038 17.38 10.7878 17.396C10.4558 17.404 10.2078 17.652 10.1918 17.992Z" fill="#007CC3"/>
</svg>
