<svg width="65" height="65" viewBox="0 0 65 65" fill="none" xmlns="http://www.w3.org/2000/svg">
<path d="M61.35 6.5H55.9875C55.6282 6.5 55.3375 6.79072 55.3375 7.15V21.5446H52.2773V9.18125C52.2773 8.82197 51.9866 8.53125 51.6273 8.53125H38.6133C38.2541 8.53125 37.9633 8.82197 37.9633 9.18125V21.5446H34.0367V9.18125C34.0367 8.82197 33.7459 8.53125 33.3867 8.53125H20.3727C20.0134 8.53125 19.7227 8.82197 19.7227 9.18125V21.5446H16.6625V7.15C16.6625 6.79072 16.3718 6.5 16.0125 6.5H10.65C10.2907 6.5 10 6.79072 10 7.15V57.85C10 58.2093 10.2907 58.5 10.65 58.5H16.0125C16.3718 58.5 16.6625 58.2093 16.6625 57.85V51.5125H55.3375V57.85C55.3375 58.2093 55.6282 58.5 55.9875 58.5H61.35C61.7093 58.5 62 58.2093 62 57.85V7.15C62 6.79072 61.7093 6.5 61.35 6.5ZM39.2633 45.0938V32.2562H42.043V39.65C42.043 40.0093 42.3337 40.3 42.693 40.3H47.5477C47.9069 40.3 48.1977 40.0093 48.1977 39.65V32.2562H50.9773V45.0938H39.2633ZM46.8977 32.2562V39H43.343V32.2562H46.8977ZM51.6273 30.9562H38.6133C38.2541 30.9562 37.9633 31.247 37.9633 31.6062V45.0938H34.0367V35.1C34.0367 34.7407 33.7459 34.45 33.3867 34.45H20.3727C20.0134 34.45 19.7227 34.7407 19.7227 35.1V45.0938H16.6625V27.9633H55.3375V45.0938H52.2773V31.6062C52.2773 31.247 51.9866 30.9562 51.6273 30.9562ZM21.0227 45.0938V35.75H23.8023V39.65C23.8023 40.0093 24.0931 40.3 24.4523 40.3H29.307C29.6663 40.3 29.957 40.0093 29.957 39.65V35.75H32.7367V45.0938H21.0227ZM25.1023 35.75H28.657V39H25.1023V35.75ZM43.343 9.83125H46.8977V15.8165H43.343V9.83125ZM39.2633 9.83125H42.043V16.4665C42.043 16.8257 42.3337 17.1165 42.693 17.1165H47.5477C47.9069 17.1165 48.1977 16.8257 48.1977 16.4665V9.83125H50.9773V21.5446H39.2633V9.83125ZM25.1023 9.83125H28.657V15.8165H25.1023V9.83125ZM21.0227 9.83125H23.8023V16.4665C23.8023 16.8257 24.0931 17.1165 24.4523 17.1165H29.307C29.6663 17.1165 29.957 16.8257 29.957 16.4665V9.83125H32.7367V21.5446H21.0227V9.83125ZM55.3375 22.8446V26.6633H16.6625V22.8446H55.3375ZM15.3625 57.2H11.3V7.8H15.3625V57.2ZM16.6625 50.2125V46.3937H55.3375V50.2125H16.6625ZM60.7 57.2H56.6375V7.8H60.7V57.2Z" fill="#007CC3"/>
</svg>
