<svg width="70" height="70" viewBox="0 0 70 70" fill="none" xmlns="http://www.w3.org/2000/svg">
<path d="M54.2609 61.2389V8.76074H15.739V61.2389H54.2609ZM16.8328 9.85449H53.1562V60.1451H16.8328V9.85449Z" fill="#007CC3"/>
<path d="M19.9281 24.9158H50.0609V14.0439H19.9281V24.9158ZM21.0219 15.1377H48.9672V23.8221H21.0219V15.1377Z" fill="#007CC3"/>
<path d="M20.486 36.5201H27.3V29.7061H20.486V36.5201ZM21.5797 30.7998H26.2063V35.4264H21.5797V30.7998Z" fill="#007CC3"/>
<path d="M31.5875 36.5201H38.4016V29.7061H31.5875V36.5201ZM32.6813 30.7998H37.3078V35.4264H32.6813V30.7998Z" fill="#007CC3"/>
<path d="M42.6891 36.5201H49.5032V29.7061H42.6891V36.5201ZM43.7828 30.7998H48.4094V35.4264H43.7828V30.7998Z" fill="#007CC3"/>
<path d="M20.486 46.4405H27.3V39.6265H20.486V46.4405ZM21.5797 40.7093H26.2063V45.3358H21.5797V40.7093Z" fill="#007CC3"/>
<path d="M31.5875 46.4405H38.4016V39.6265H31.5875V46.4405ZM32.6813 40.7093H37.3078V45.3358H32.6813V40.7093Z" fill="#007CC3"/>
<path d="M42.6891 46.4405H49.5032V39.6265H42.6891V46.4405ZM43.7828 40.7093H48.4094V45.3358H43.7828V40.7093Z" fill="#007CC3"/>
<path d="M20.486 56.3502H27.3V49.5361H20.486V56.3502ZM21.5797 50.6299H26.2063V55.2564H21.5797V50.6299Z" fill="#007CC3"/>
<path d="M31.5875 56.3502H38.4016V49.5361H31.5875V56.3502ZM32.6813 50.6299H37.3078V55.2564H32.6813V50.6299Z" fill="#007CC3"/>
<path d="M42.6891 56.3502H49.5032V49.5361H42.6891V56.3502ZM43.7828 50.6299H48.4094V55.2564H43.7828V50.6299Z" fill="#007CC3"/>
</svg>
