<svg width="64" height="64" viewBox="0 0 64 64" fill="none" xmlns="http://www.w3.org/2000/svg">
<path d="M41.4371 18.2545C39.3066 16.124 36.4721 14.9507 33.4584 14.9507C30.4476 14.9507 27.6145 16.1233 25.4847 18.2545C23.3542 20.3871 22.1809 23.2195 22.1809 26.2289C22.1809 29.2419 23.3542 32.0771 25.4847 34.2076C27.6131 36.3359 30.4454 37.5093 33.4584 37.5093C36.4714 37.5093 39.3045 36.3366 41.4371 34.2076C43.5676 32.0771 44.7409 29.2447 44.7409 26.2289C44.7409 23.2159 43.5683 20.385 41.4371 18.2545ZM40.6399 33.4104C38.7214 35.3254 36.1706 36.3821 33.4584 36.3821C30.7448 36.3821 28.1962 35.3261 26.2812 33.4104C24.364 31.4918 23.308 28.9432 23.308 26.2289C23.308 23.5189 24.364 20.9702 26.2812 19.0517C28.2005 17.1345 30.7491 16.0778 33.4584 16.0778C36.1699 16.0778 38.7206 17.1338 40.6399 19.0517C42.5571 20.9702 43.6138 23.5189 43.6138 26.2289C43.6138 28.9432 42.5578 31.494 40.6399 33.4104Z" fill="#007CC3"/>
<path d="M44.0391 15.6488C41.2153 12.8221 37.4585 11.269 33.4592 11.269C29.467 11.269 25.7095 12.8228 22.8793 15.6488C20.0555 18.479 18.4996 22.2337 18.4996 26.2287C18.4996 29.1051 19.3138 31.8827 20.859 34.2905L19.6772 35.4724C18.6254 35.3515 17.6875 35.8443 17.0247 36.7225C14.7911 39.5641 11.8549 41.8731 9.01547 44.1074C6.09493 46.4043 3.07484 48.7816 0.6912 51.8017C0.239644 52.3983 0 53.1442 0 53.9606C0 55.0059 0.389689 56.0008 1.07449 56.6898C1.71947 57.3298 2.36018 57.9712 3.00444 58.6176C3.68853 59.2982 4.68124 59.69 5.72942 59.69C6.53511 59.69 7.30098 59.4432 7.89262 58.9938C10.9127 56.6166 13.2892 53.5929 15.5868 50.6703C17.819 47.8308 20.1252 44.8996 22.9582 42.6717C23.766 42.0623 24.2304 41.1926 24.2304 40.2866C24.2304 40.1985 24.2261 40.1081 24.2148 40.0178L25.3966 38.8338C27.8116 40.3791 30.5884 41.1926 33.4585 41.1926C37.4599 41.1926 41.2167 39.6367 44.0384 36.8086C46.8672 33.9798 48.4231 30.223 48.4181 26.2308C48.4238 22.2386 46.8672 18.484 44.0391 15.6488ZM43.2427 36.0121C40.6322 38.6269 37.1591 40.0662 33.4592 40.0662C30.6596 40.0662 27.9566 39.2292 25.6434 37.6449L25.2565 37.381L22.9938 39.6481L23.0642 39.9524C23.0905 40.0669 23.104 40.1814 23.104 40.2873C23.104 40.837 22.8046 41.3789 22.272 41.7793C19.3244 44.0975 16.9742 47.0841 14.7029 49.9755C12.4444 52.8449 10.1092 55.8166 7.20356 58.1049C6.29689 58.7869 4.61724 58.6333 3.79876 57.8212C3.15591 57.1741 2.51591 56.532 1.87093 55.8905C1.40444 55.4248 1.12711 54.7023 1.12711 53.9606C1.12711 53.5638 1.20604 52.9857 1.58293 52.4929C3.87627 49.583 6.84302 47.2505 9.71307 44.9921C12.6052 42.7186 15.594 40.3656 17.9164 37.4095C18.3125 36.8861 18.8558 36.5846 19.4062 36.5846C19.5051 36.5846 19.6153 36.5981 19.7497 36.6287L20.0512 36.6948L22.3118 34.4321L22.048 34.0445C20.4629 31.7384 19.6267 29.0354 19.6267 26.2294C19.6267 22.5366 21.066 19.0607 23.6764 16.4459C26.2933 13.8354 29.7664 12.3962 33.4599 12.3962C37.1577 12.3962 40.6329 13.8354 43.2434 16.4459C45.8581 19.065 47.2974 22.5402 47.2924 26.2315C47.2967 29.9243 45.8588 33.3974 43.2427 36.0121Z" fill="#007CC3"/>
<path d="M46.1958 13.756C46.3416 13.756 46.4845 13.7012 46.5947 13.591L53.9519 6.23313V10.0475C53.9519 10.3576 54.2051 10.6107 54.5151 10.6107C54.8259 10.6107 55.079 10.3576 55.079 10.0475V4.90619C55.079 4.74121 55.0022 4.5997 54.8891 4.49944C54.786 4.38424 54.6459 4.30957 54.4824 4.30957H49.3411C49.0303 4.30957 48.7779 4.56273 48.7779 4.87277C48.7779 5.18495 49.0303 5.43668 49.3411 5.43668H53.1526L45.7969 12.7945C45.5771 13.015 45.5771 13.3713 45.7969 13.591C45.9078 13.7012 46.0507 13.756 46.1958 13.756Z" fill="#007CC3"/>
<path d="M63.8429 25.6481L60.207 22.0122C59.9887 21.7939 59.6303 21.7917 59.4106 22.0122C59.1908 22.2326 59.193 22.591 59.4106 22.8093L62.1071 25.5052H51.7028C51.3921 25.5052 51.1389 25.7562 51.1389 26.0691C51.1389 26.2248 51.2029 26.3635 51.3039 26.4673C51.4077 26.5711 51.5485 26.6323 51.7028 26.6323H62.1092L59.4127 29.3302C59.193 29.5507 59.193 29.9077 59.4127 30.1274C59.631 30.3457 59.9894 30.3478 60.2099 30.1274L63.8429 26.4915C63.9624 26.3727 64.0058 26.2184 63.9994 26.0691C64.0065 25.9148 63.9574 25.7626 63.8429 25.6481Z" fill="#007CC3"/>
<path d="M54.5153 41.5655C54.2031 41.5655 53.9521 41.8187 53.9521 42.1287V45.9431L46.5942 38.5853C46.3738 38.3648 46.0175 38.3648 45.7971 38.5853C45.6876 38.6948 45.6328 38.8377 45.6328 38.9835C45.6328 39.1293 45.6897 39.2743 45.7971 39.3824L53.1556 46.7396H49.3434C49.0312 46.7396 48.7781 46.9948 48.7802 47.3035C48.7781 47.6135 49.0312 47.8667 49.3434 47.8667H54.4833C54.6504 47.8667 54.7898 47.7899 54.8922 47.6768C55.0045 47.5758 55.0799 47.4329 55.0799 47.27V42.1287C55.0792 41.8187 54.826 41.5655 54.5153 41.5655Z" fill="#007CC3"/>
</svg>
