<svg width="64" height="64" viewBox="0 0 64 64" fill="none" xmlns="http://www.w3.org/2000/svg">
<path d="M62.0063 19.8438C62.0063 19.75 62.0063 19.75 62.0063 19.6563C62.0063 19.5625 62.0064 19.5625 61.9126 19.4688C61.9126 19.4688 61.9126 19.4688 61.9126 19.375L53.5688 6.15625C52.7251 4.75 51.2251 4 49.6314 4H14.3813C12.7876 4 11.2876 4.84375 10.4438 6.15625L2.19385 19.375C2.19385 19.375 2.19385 19.375 2.19385 19.4688C2.19385 19.5625 2.1001 19.5625 2.1001 19.6563C2.1001 19.75 2.1001 19.75 2.1001 19.8438C2.1001 19.8438 2.1001 19.8438 2.1001 19.9375V54.625C2.1001 57.7188 4.63135 60.25 7.7251 60.25H56.4751C59.5688 60.25 62.1001 57.7188 62.1001 54.625L62.0063 19.8438C62.0063 19.9375 62.0063 19.9375 62.0063 19.8438ZM51.9751 7.1875L59.3813 19H32.9438V5.875H49.6314C50.5689 5.875 51.5064 6.34375 51.9751 7.1875ZM12.0376 7.1875C12.6001 6.34375 13.4438 5.875 14.3813 5.875H31.0688V19H4.63135L12.0376 7.1875ZM23.5688 58.375V50.875H40.4438V58.375H23.5688ZM60.1313 54.625C60.1313 56.6875 58.4438 58.375 56.3813 58.375H42.3188V49.9375C42.3188 49.375 41.9438 49 41.3813 49H22.6313C22.0688 49 21.6938 49.375 21.6938 49.9375V58.375H7.63135C5.56885 58.375 3.88135 56.6875 3.88135 54.625V20.875H60.1313V54.625Z" fill="#007CC3"/>
<path d="M62.0063 19.8438C62.0063 19.75 62.0063 19.75 62.0063 19.6563C62.0063 19.5625 62.0064 19.5625 61.9126 19.4688C61.9126 19.4688 61.9126 19.4688 61.9126 19.375L53.5688 6.15625C52.7251 4.75 51.2251 4 49.6314 4H14.3813C12.7876 4 11.2876 4.84375 10.4438 6.15625L2.19385 19.375C2.19385 19.375 2.19385 19.375 2.19385 19.4688C2.19385 19.5625 2.1001 19.5625 2.1001 19.6563C2.1001 19.75 2.1001 19.75 2.1001 19.8438C2.1001 19.8438 2.1001 19.8437 2.1001 19.9375V54.625C2.1001 57.7187 4.63135 60.25 7.7251 60.25H56.4751C59.5688 60.25 62.1001 57.7187 62.1001 54.625L62.0063 19.8438ZM62.0063 19.8438C62.0063 19.9375 62.0063 19.9375 62.0063 19.8438ZM51.9751 7.1875L59.3813 19H32.9438V5.875H49.6314C50.5689 5.875 51.5064 6.34375 51.9751 7.1875ZM12.0376 7.1875C12.6001 6.34375 13.4438 5.875 14.3813 5.875H31.0688V19H4.63135L12.0376 7.1875ZM23.5688 58.375V50.875H40.4438V58.375H23.5688ZM60.1313 54.625C60.1313 56.6875 58.4438 58.375 56.3813 58.375H42.3188V49.9375C42.3188 49.375 41.9438 49 41.3813 49H22.6313C22.0688 49 21.6938 49.375 21.6938 49.9375V58.375H7.63135C5.56885 58.375 3.88135 56.6875 3.88135 54.625V20.875H60.1313V54.625Z" stroke="white" stroke-width="0.6"/>
<path d="M22.1626 37.0938C22.1626 37.6562 22.5376 38.0312 23.1001 38.0312H40.9126C41.4751 38.0312 41.8501 37.6562 41.8501 37.0938C41.8501 36.5312 41.4751 36.1562 40.9126 36.1562H23.1001C22.5376 36.1562 22.1626 36.625 22.1626 37.0938Z" fill="#007CC3" stroke="white" stroke-width="0.6"/>
</svg>
