<svg width="53" height="48" viewBox="0 0 53 48" fill="none" xmlns="http://www.w3.org/2000/svg">
<g clip-path="url(#clip0)">
<path d="M48.8451 13.1287H38.2911V3.32308C38.2911 3.1445 38.133 3 37.9379 3H3.63313C3.43806 3 3.27991 3.1445 3.27991 3.32308V40.5104C3.27991 42.9858 5.0767 45 7.28535 45H43.0552C46.4426 45 49.1983 42.4794 49.1983 39.3812V13.4517C49.1983 13.2732 49.0401 13.1287 48.8451 13.1287ZM48.4918 39.3812C48.4918 42.1232 46.0529 44.3538 43.0552 44.3538H7.28535C5.46631 44.3538 3.98634 42.6296 3.98634 40.5104V3.64615H37.5847V36.7634C37.5847 36.942 37.7428 37.0865 37.9379 37.0865C38.133 37.0865 38.2911 36.942 38.2911 36.7634V13.7748H48.4918V39.3812Z" fill="white" stroke="white" stroke-width="0.4"/>
<path d="M7.72651 20.4281H18.3196C18.5147 20.4281 18.6728 20.2836 18.6728 20.1051V6.9056C18.6728 6.72702 18.5147 6.58252 18.3196 6.58252H7.72651C7.53145 6.58252 7.37329 6.72702 7.37329 6.9056V20.1051C7.37329 20.2836 7.53145 20.4281 7.72651 20.4281ZM8.07973 7.22867H17.9664V19.782H8.07973V7.22867Z" fill="white" stroke="white" stroke-width="0.4"/>
<path d="M33.6563 6.94141H22.1717C21.9766 6.94141 21.8185 7.08591 21.8185 7.26448C21.8185 7.44306 21.9766 7.58756 22.1717 7.58756H33.6563C33.8514 7.58756 34.0095 7.44306 34.0095 7.26448C34.0095 7.08591 33.8514 6.94141 33.6563 6.94141Z" fill="white" stroke="white" stroke-width="0.4"/>
<path d="M33.6563 13.3613H22.1717C21.9766 13.3613 21.8185 13.5058 21.8185 13.6844C21.8185 13.863 21.9766 14.0075 22.1717 14.0075H33.6563C33.8514 14.0075 34.0095 13.863 34.0095 13.6844C34.0095 13.5058 33.8514 13.3613 33.6563 13.3613Z" fill="white" stroke="white" stroke-width="0.4"/>
<path d="M33.6563 19.7817H22.1717C21.9766 19.7817 21.8185 19.9262 21.8185 20.1048C21.8185 20.2834 21.9766 20.4279 22.1717 20.4279H33.6563C33.8514 20.4279 34.0095 20.2834 34.0095 20.1048C34.0095 19.9262 33.8514 19.7817 33.6563 19.7817Z" fill="white" stroke="white" stroke-width="0.4"/>
<path d="M33.6563 26.2017H7.72651C7.53145 26.2017 7.37329 26.3462 7.37329 26.5247C7.37329 26.7033 7.53145 26.8478 7.72651 26.8478H33.6563C33.8514 26.8478 34.0095 26.7033 34.0095 26.5247C34.0095 26.3462 33.8514 26.2017 33.6563 26.2017Z" fill="white" stroke="white" stroke-width="0.4"/>
<path d="M33.6563 32.6221H7.72651C7.53145 32.6221 7.37329 32.7666 7.37329 32.9452C7.37329 33.1237 7.53145 33.2682 7.72651 33.2682H33.6563C33.8514 33.2682 34.0095 33.1237 34.0095 32.9452C34.0095 32.7666 33.8514 32.6221 33.6563 32.6221Z" fill="white" stroke="white" stroke-width="0.4"/>
<path d="M33.6563 39.0425H7.72651C7.53145 39.0425 7.37329 39.187 7.37329 39.3656C7.37329 39.5441 7.53145 39.6886 7.72651 39.6886H33.6563C33.8514 39.6886 34.0095 39.5441 34.0095 39.3656C34.0095 39.187 33.8514 39.0425 33.6563 39.0425Z" fill="white" stroke="white" stroke-width="0.4"/>
</g>
<defs>
<clipPath id="clip0">
<rect width="45.9184" height="42" fill="white" transform="translate(3.27991 3)"/>
</clipPath>
</defs>
</svg>
