<svg width="47" height="42" viewBox="0 0 47 42" fill="none" xmlns="http://www.w3.org/2000/svg">
<g clip-path="url(#clip0)">
<path d="M0.711914 20.6754C0.711914 31.8478 10.618 40.895 22.8511 40.895C26.5078 40.895 29.9649 40.1057 33.0232 38.6484L44.9903 40.895L42.5304 29.9048C44.126 27.1117 44.9903 23.9542 44.9903 20.6147C44.9903 9.44225 35.0842 0.39502 22.8511 0.39502C10.618 0.39502 0.711914 9.38153 0.711914 20.6754ZM2.24105 20.6147C2.24105 10.1709 11.4823 1.67013 22.9176 1.73085C34.3529 1.73085 43.5942 10.1709 43.5942 20.6147C43.5942 23.6506 42.7964 26.5652 41.2672 29.2976L41.0013 29.7226L41.0678 30.1476L43.0623 39.0734L33.2226 37.2518L32.7573 37.1911L32.2919 37.434C29.3666 38.8306 26.1753 39.5592 22.8511 39.5592C11.4159 39.5592 2.17456 31.0584 2.24105 20.6147Z" fill="white"/>
<path d="M23.3166 25.1685H22.3193C22.0534 25.1685 21.9204 25.3506 21.9204 25.5328V26.4436C21.9204 26.6864 22.1199 26.8079 22.3193 26.8079H23.3166C23.5825 26.8079 23.7155 26.6257 23.7155 26.4436V25.5328C23.782 25.3506 23.5825 25.1685 23.3166 25.1685Z" fill="white"/>
<path d="M25.9759 15.3319C25.1781 14.6639 24.1144 14.3604 22.8512 14.3604C21.588 14.3604 20.5907 14.6639 19.8594 15.2711C19.1945 15.8176 18.7956 16.5463 18.5962 17.5178C18.5962 17.6392 18.5962 17.7607 18.6627 17.8214C18.7292 17.8821 18.8621 17.9428 18.9286 18.0035L19.7929 18.125C19.9924 18.125 20.1918 18.0035 20.2583 17.8214C20.3913 17.1535 20.7237 16.607 21.1226 16.3034C21.588 15.8783 22.1863 15.6962 22.9177 15.6962C23.649 15.6962 24.2473 15.9391 24.7792 16.3641C25.3111 16.7891 25.5105 17.3356 25.5105 17.9428C25.5105 18.2464 25.4441 18.55 25.2446 18.8536C25.0451 19.1572 24.7127 19.5215 24.1144 19.9466C23.516 20.4323 23.1171 20.7359 22.9177 20.9788C22.6517 21.2824 22.3858 21.6467 22.2528 21.9503C22.0534 22.3753 21.9869 22.9218 21.9869 23.5897C21.9869 23.8326 22.1863 23.9541 22.3858 23.9541H23.1171C23.3166 23.9541 23.516 23.7719 23.516 23.5897C23.516 23.1647 23.5825 22.8611 23.649 22.6789C23.7155 22.4361 23.8484 22.1932 24.0479 21.9503C24.1809 21.7682 24.5798 21.4038 25.1116 20.9788C25.9094 20.3109 26.4413 19.7644 26.7072 19.3394C26.9732 18.9143 27.1062 18.3678 27.1062 17.8214C27.1726 16.7891 26.7737 15.9998 25.9759 15.3319Z" fill="white"/>
</g>
<defs>
<clipPath id="clip0">
<rect width="45.9184" height="42" fill="white" transform="translate(0.279907)"/>
</clipPath>
</defs>
</svg>
