<svg width="48" height="48" viewBox="0 0 48 48" fill="none" xmlns="http://www.w3.org/2000/svg">
<path d="M9.26516 32.8791C12.2036 32.1476 16.6483 31.9763 19.148 31.9411L17.897 32.7605C17.7974 32.8257 17.7227 32.9226 17.685 33.0354C17.6473 33.1483 17.6489 33.2706 17.6893 33.3826L18.6515 36.0516L18.0236 43.7534C18.018 43.8226 18.026 43.8923 18.0473 43.9585C18.0687 44.0246 18.1028 44.0859 18.1478 44.1388C18.1928 44.1917 18.2478 44.2353 18.3096 44.267C18.3714 44.2987 18.4389 44.3179 18.5082 44.3235C18.5226 44.3248 18.5371 44.3253 18.5515 44.3253C18.6844 44.3251 18.8122 44.275 18.9098 44.185C19.0075 44.0949 19.0677 43.9715 19.0785 43.8391L19.6758 36.5136H21.955L22.5518 43.8391C22.5626 43.9715 22.6228 44.0949 22.7205 44.185C22.8181 44.275 22.9459 44.3251 23.0788 44.3253C23.0932 44.3253 23.1077 44.3248 23.1221 44.3235C23.1914 44.3179 23.2589 44.2987 23.3207 44.267C23.3825 44.2353 23.4375 44.1917 23.4825 44.1388C23.5275 44.0859 23.5616 44.0246 23.583 43.9585C23.6043 43.8923 23.6123 43.8226 23.6067 43.7534L22.978 36.0352L23.9343 33.3825C23.9748 33.2706 23.9763 33.1483 23.9386 33.0354C23.9009 32.9225 23.8262 32.8257 23.7266 32.7605L22.4683 31.9363C24.8469 31.9571 29.6794 32.1004 32.8069 32.8791C33.3709 33.0168 33.9207 33.207 34.4493 33.4471C34.5124 33.4762 34.5806 33.4926 34.65 33.4954C34.7195 33.4981 34.7888 33.4871 34.854 33.4631C34.9192 33.4391 34.979 33.4024 35.03 33.3553C35.0811 33.3081 35.1223 33.2514 35.1514 33.1883C35.1805 33.1252 35.1969 33.057 35.1996 32.9875C35.2024 32.9181 35.1914 32.8488 35.1674 32.7836C35.1434 32.7184 35.1067 32.6586 35.0596 32.6076C35.0124 32.5565 34.9557 32.5153 34.8926 32.4862C34.3035 32.2183 33.6907 32.0062 33.0621 31.8525C30.4127 31.1929 26.6977 30.9728 24.0957 30.9032C27.3858 29.1165 29.7087 24.8447 29.7087 19.8691C29.7087 19.6756 29.6979 19.486 29.6879 19.2961C30.1062 18.7612 31.3397 16.7141 30.7207 11.7151C30.5172 10.5589 29.6214 8.52072 27.6648 8.43348C27.5236 7.7656 27.1883 7.15432 26.7009 6.67642C26.6327 6.61571 19.7946 0.689974 11.8302 8.65434C11.7697 8.71473 11.7247 8.7889 11.6992 8.87047C11.6736 8.95205 11.6683 9.03861 11.6835 9.12273C11.6987 9.20684 11.7342 9.28601 11.7867 9.35344C11.8392 9.42087 11.9074 9.47455 11.9852 9.50988L12.4951 9.74184C11.5233 10.5496 10.1863 12.3307 10.737 15.8161L11.3684 19.2891C11.3826 19.363 11.4127 19.433 11.4565 19.4942C11.5003 19.5553 11.5568 19.6063 11.6222 19.6436C11.6209 19.719 11.6163 19.7934 11.6163 19.8691C11.6163 24.8666 13.9599 29.1534 17.2731 30.926C14.4957 30.9743 11.7291 31.2846 9.00994 31.8525C2.80573 33.3967 2.99896 38.631 3.00102 38.671L3.13793 43.7314C3.14169 43.8691 3.199 43.9999 3.29768 44.0961C3.39637 44.1922 3.52866 44.2461 3.66643 44.2462L3.68141 44.246C3.82163 44.2421 3.9546 44.1828 4.05109 44.081C4.14758 43.9792 4.19969 43.8432 4.19597 43.703L4.05855 38.6299C4.05598 38.586 3.89738 34.2153 9.26516 32.8791ZM22.0626 35.4555H19.5611L18.8264 33.4166L20.8118 32.116L22.7972 33.4166L22.0626 35.4555ZM29.6751 11.8716C30.1659 15.8427 29.4153 17.7176 29.0288 18.3863C27.002 17.175 26.6567 14.333 26.6515 12.5692C26.673 12.5442 26.695 12.5181 26.7236 12.4818C26.8428 12.298 26.9518 12.1079 27.0501 11.9122C27.4421 11.1653 27.6789 10.3469 27.7464 9.50621C29.2571 9.70201 29.6615 11.7993 29.6751 11.8716ZM13.7934 10.1497C13.8891 10.1107 13.9713 10.0445 14.0297 9.95931C14.0882 9.87412 14.1205 9.77367 14.1225 9.67036C14.1245 9.56705 14.0963 9.4654 14.0412 9.37798C13.9861 9.29056 13.9066 9.22119 13.8125 9.17844L13.1326 8.86924C20.1221 2.41731 25.7544 7.25167 25.9745 7.44515C26.4004 7.86108 26.6559 8.4209 26.6911 9.01518C26.7085 9.85777 26.5074 10.6905 26.1073 11.4322C25.9766 11.6885 25.8701 11.8535 25.8727 11.8535L25.8733 11.853C25.8474 11.8848 25.8195 11.914 25.7921 11.9437L25.7271 12.015C22.1029 16.0922 14.4873 13.2978 14.4108 13.2691C14.3346 13.2405 14.2527 13.2299 14.1717 13.2382C14.0907 13.2464 14.0127 13.2732 13.9437 13.3164C13.8747 13.3597 13.8166 13.4184 13.774 13.4877C13.7314 13.5571 13.7053 13.6354 13.6979 13.7165C13.4137 16.8437 12.7137 17.9983 12.2854 18.4191L11.7796 15.6391C11.1018 11.3457 13.6865 10.1952 13.7934 10.1497ZM12.6744 19.8691C12.6744 19.7303 12.6809 19.5937 12.6852 19.4563C13.4503 18.9588 14.3035 17.6617 14.682 14.476C16.5599 15.0574 22.0509 16.3966 25.6308 13.553C25.7769 15.5605 26.426 18.1565 28.6321 19.3686C28.6408 19.5346 28.6506 19.7002 28.6506 19.869C28.6506 25.8632 25.0673 30.74 20.6625 30.74C16.2577 30.74 12.6744 25.8633 12.6744 19.8691Z" fill="#007CC3"/>
<path d="M43.6112 35.3956L40.6101 35.0815C40.5306 35.0732 40.4544 35.0457 40.3879 35.0014C40.3213 34.957 40.2666 34.8972 40.2284 34.827L38.7854 32.1767C38.647 31.9226 38.4403 31.7123 38.1886 31.5696C37.9369 31.4269 37.6504 31.3574 37.3613 31.369C37.0722 31.3806 36.7921 31.4728 36.5527 31.6353C36.3132 31.7977 36.124 32.0239 36.0065 32.2883L34.781 35.0448C34.7484 35.1179 34.6986 35.182 34.6358 35.2316C34.573 35.2811 34.4991 35.3147 34.4204 35.3294L31.4544 35.8825C31.17 35.9356 30.9061 36.0672 30.6925 36.2624C30.479 36.4576 30.3243 36.7087 30.246 36.9873C30.1677 37.2658 30.1689 37.5607 30.2494 37.8386C30.3299 38.1165 30.4866 38.3664 30.7017 38.5599L32.9449 40.5776C33.0043 40.6311 33.0497 40.6982 33.0775 40.7731C33.1052 40.848 33.1143 40.9285 33.104 41.0077L32.7135 43.9993C32.6751 44.2863 32.7181 44.5784 32.8375 44.8423C32.9569 45.1062 33.1479 45.3313 33.3888 45.492C33.6297 45.6528 33.9109 45.7428 34.2003 45.7517C34.4898 45.7607 34.776 45.6883 35.0264 45.5427L37.639 44.0331C37.7081 43.9929 37.786 43.9702 37.8659 43.967C37.9457 43.9638 38.0252 43.9802 38.0973 44.0148L40.8225 45.3105C41.0838 45.4347 41.3747 45.4834 41.6622 45.451C41.9498 45.4186 42.2225 45.3064 42.4496 45.1271C42.6768 44.9478 42.8492 44.7086 42.9475 44.4364C43.0458 44.1643 43.066 43.87 43.0058 43.587L42.3765 40.636C42.3599 40.5579 42.3625 40.477 42.3841 40.4001C42.4057 40.3232 42.4456 40.2528 42.5005 40.1948L44.5753 38.004C44.7742 37.794 44.9104 37.5325 44.9685 37.249C45.0265 36.9656 45.0042 36.6716 44.9039 36.4002C44.8036 36.1289 44.6294 35.891 44.4009 35.7134C44.1725 35.5359 43.899 35.4258 43.6112 35.3956L43.6112 35.3956ZM43.8076 37.2766L41.7328 39.4671C41.5597 39.6497 41.4337 39.8716 41.3656 40.1137C41.2974 40.3558 41.2892 40.6109 41.3417 40.8569L41.9704 43.8074C41.9896 43.8973 41.9832 43.9907 41.9521 44.0772C41.9209 44.1637 41.8661 44.2397 41.794 44.2967C41.7218 44.3536 41.6352 44.3893 41.5439 44.3996C41.4525 44.4099 41.3601 44.3945 41.2771 44.355L38.5524 43.0595C38.3254 42.9513 38.0754 42.8999 37.8241 42.9099C37.5728 42.9199 37.3277 42.9909 37.11 43.1169L34.4974 44.6267C34.4178 44.6727 34.3269 44.6954 34.235 44.6924C34.1431 44.6895 34.0539 44.6608 33.9774 44.6098C33.901 44.5588 33.8403 44.4874 33.8023 44.4037C33.7642 44.32 33.7504 44.2274 33.7622 44.1362L34.1528 41.1444C34.1855 40.8951 34.157 40.6417 34.0699 40.4059C33.9828 40.1701 33.8396 39.959 33.6527 39.7908L31.4095 37.7731C31.341 37.7117 31.2912 37.6323 31.2655 37.544C31.2399 37.4557 31.2395 37.3619 31.2644 37.2734C31.2893 37.1848 31.3385 37.105 31.4064 37.043C31.4743 36.981 31.5582 36.9393 31.6487 36.9225L34.6146 36.3694C34.8618 36.3233 35.094 36.2178 35.2914 36.062C35.4888 35.9062 35.6453 35.7048 35.7476 35.4752L36.9736 32.7182C37.0099 32.6335 37.0698 32.561 37.1461 32.5093C37.2223 32.4575 37.3118 32.4287 37.4039 32.4263L37.4251 32.4257C37.5136 32.425 37.6007 32.4485 37.6768 32.4938C37.7528 32.5392 37.815 32.6045 37.8565 32.6828L39.299 35.3326C39.4191 35.5534 39.5912 35.7418 39.8004 35.8814C40.0095 36.021 40.2495 36.1076 40.4996 36.1338L43.5007 36.448C43.5921 36.4576 43.679 36.4925 43.7516 36.5489C43.8241 36.6053 43.8795 36.6808 43.9114 36.767C43.9433 36.8532 43.9505 36.9466 43.9322 37.0366C43.9138 37.1267 43.8707 37.2098 43.8076 37.2766L43.8076 37.2766Z" fill="#007CC3"/>
</svg>
