<svg width="40" height="40" viewBox="0 0 40 40" fill="none" xmlns="http://www.w3.org/2000/svg">
<path d="M6.47226 6H34.8548V34.8548H6V6H6.47226ZM33.9103 6.94451H6.94451V33.9103H33.9103V6.94451Z" fill="#007CC3"/>
<path d="M28.6682 12.281L12.4226 28.4793L11.7615 27.8182L28.0071 11.6198L28.6682 12.281Z" fill="#007CC3"/>
<path d="M14.784 12.3282C15.6813 12.3282 16.4841 12.706 17.0508 13.2727C17.6175 13.8394 17.9953 14.6423 17.9953 15.5395C17.9953 16.3896 17.6175 17.1924 17.0508 17.7591C16.4841 18.3258 15.6813 18.7036 14.784 18.7036C13.9339 18.7036 13.1311 18.3258 12.5644 17.7591C11.9505 17.1924 11.6199 16.3896 11.6199 15.5395C11.6199 14.6423 11.9505 13.8394 12.5644 13.2727C13.1311 12.706 13.9339 12.3282 14.784 12.3282ZM16.3896 13.9339C15.9646 13.5561 15.3979 13.2727 14.784 13.2727C14.17 13.2727 13.6033 13.5561 13.2255 13.9339C12.8005 14.3589 12.5644 14.9256 12.5644 15.5395C12.5644 16.1535 12.8005 16.7202 13.2255 17.098C13.6033 17.523 14.17 17.7591 14.784 17.7591C15.3979 17.7591 15.9646 17.523 16.3896 17.098C16.7674 16.7202 17.0508 16.1535 17.0508 15.5395C17.0508 14.9256 16.7674 14.3589 16.3896 13.9339Z" fill="#007CC3"/>
<path d="M25.6459 22.8595C26.496 22.8595 27.2988 23.2373 27.8655 23.804C28.4322 24.3707 28.81 25.1735 28.81 26.0236C28.81 26.9209 28.4322 27.7237 27.8655 28.2904C27.2988 28.8571 26.496 29.2349 25.6459 29.2349C24.7486 29.2349 23.9458 28.8571 23.3791 28.2904C22.8124 27.7237 22.4346 26.9209 22.4346 26.0236C22.4346 25.1735 22.8124 24.3707 23.3791 23.804C23.9458 23.2373 24.7486 22.8595 25.6459 22.8595ZM27.2043 24.4652C26.7793 24.0401 26.2598 23.804 25.6459 23.804C25.032 23.804 24.4653 24.0401 24.0402 24.4652C23.6624 24.843 23.3791 25.4097 23.3791 26.0236C23.3791 26.6375 23.6624 27.2042 24.0402 27.6293C24.4653 28.0071 24.9847 28.2904 25.6459 28.2904C26.2598 28.2904 26.8265 28.0071 27.2043 27.6293C27.6294 27.2042 27.8655 26.6375 27.8655 26.0236C27.8655 25.4097 27.6294 24.843 27.2043 24.4652Z" fill="#007CC3"/>
</svg>
