<svg width="64" height="64" viewBox="0 0 64 64" fill="none" xmlns="http://www.w3.org/2000/svg">
<path d="M51.03 59.1536H34.4917C34.2098 59.1536 33.9813 58.9252 33.9813 58.6433C33.9813 56.6448 32.3555 55.0188 30.3572 55.0188C28.3601 55.0188 26.7353 56.6448 26.7353 58.6433C26.7353 58.9252 26.5068 59.1536 26.225 59.1536H9.68659C9.40471 59.1536 9.17625 58.9252 9.17625 58.6433C9.17625 56.6448 7.55183 55.0188 5.55502 55.0188C5.27314 55.0188 5.04468 54.7904 5.04468 54.5085V37.9701C5.04468 37.6882 5.27314 37.4598 5.55502 37.4598C7.55183 37.4598 9.17625 35.8338 9.17625 33.8353C9.17625 31.84 7.55183 30.2168 5.55502 30.2168C5.27314 30.2168 5.04468 29.9883 5.04468 29.7065V13.1679C5.04468 12.886 5.27314 12.6576 5.55502 12.6576C7.55183 12.6576 9.17625 11.0318 9.17625 9.03329C9.17625 8.75141 9.40471 8.52295 9.68659 8.52295H26.225C26.5068 8.52295 26.7353 8.75141 26.7353 9.03329C26.7353 11.0318 28.3601 12.6576 30.3572 12.6576C32.3557 12.6576 33.9813 11.0318 33.9813 9.03329C33.9813 8.75141 34.2098 8.52295 34.4917 8.52295H51.03C51.3119 8.52295 51.5404 8.75141 51.5404 9.03329C51.5404 11.0318 53.1665 12.6576 55.165 12.6576C55.4469 12.6576 55.6754 12.886 55.6754 13.1679V29.7065C55.6754 29.9883 55.4469 30.2168 55.165 30.2168C53.1665 30.2168 51.5404 31.84 51.5404 33.8353C51.5404 35.8338 53.1665 37.4598 55.165 37.4598C55.4469 37.4598 55.6754 37.6882 55.6754 37.9701V54.5085C55.6754 54.7904 55.4469 55.0188 55.165 55.0188C53.1665 55.0188 51.5404 56.6448 51.5404 58.6433C51.5404 58.9254 51.3119 59.1536 51.03 59.1536ZM34.9741 58.133H50.5476C50.784 55.9785 52.5002 54.2625 54.6547 54.026V38.4526C52.3326 38.1977 50.5197 36.2242 50.5197 33.8353C50.5197 31.4495 52.3324 29.4785 54.6547 29.2239V13.6504C52.5002 13.4139 50.784 11.698 50.5476 9.54364H34.9741C34.7193 11.8657 32.746 13.6783 30.3572 13.6783C27.9697 13.6783 25.9972 11.8657 25.7425 9.54364H10.1692C9.93292 11.698 8.21833 13.4137 6.06536 13.6504V29.2239C8.38573 29.4787 10.1969 31.4495 10.1969 33.8353C10.1969 36.2241 8.38573 38.1976 6.06536 38.4526V54.026C8.21816 54.2628 9.93275 55.9786 10.1692 58.133H25.7425C25.9973 55.8109 27.9697 53.9981 30.3572 53.9981C32.746 53.9983 34.7193 55.8109 34.9741 58.133ZM30.3572 38.4806C27.7973 38.4806 25.7146 36.3969 25.7146 33.8355C25.7146 31.2773 27.7973 29.1963 30.3572 29.1963C32.9183 29.1963 35.002 31.2775 35.002 33.8355C35.002 36.3969 32.9183 38.4806 30.3572 38.4806ZM30.3572 30.217C28.3601 30.217 26.7353 31.8402 26.7353 33.8355C26.7353 35.834 28.3601 37.46 30.3572 37.46C32.3557 37.46 33.9813 35.834 33.9813 33.8355C33.9813 31.8402 32.3555 30.217 30.3572 30.217Z" fill="white"/>
<path d="M30.3172 38.4601C27.8274 38.4601 25.7241 36.3568 25.7241 33.867C25.7241 31.2915 27.7417 29.2739 30.3172 29.2739C33.0326 29.2739 35.0804 31.2484 35.0804 33.867C35.0804 36.3997 32.9436 38.4601 30.3172 38.4601ZM30.3172 30.2946C28.3139 30.2946 26.7448 31.8638 26.7448 33.867C26.7448 35.8034 28.3808 37.4394 30.3172 37.4394C32.3807 37.4394 34.0597 35.837 34.0597 33.867C34.0597 31.8304 32.4508 30.2946 30.3172 30.2946Z" fill="white"/>
<path d="M55.154 13.6234C52.6642 13.6234 50.5609 11.5201 50.5609 9.03035C50.5609 6.54055 52.6642 4.43726 55.154 4.43726C57.6438 4.43726 59.7471 6.54055 59.7471 9.03035C59.7471 11.5201 57.6438 13.6234 55.154 13.6234ZM55.154 5.45794C53.2176 5.45794 51.5816 7.09393 51.5816 9.03035C51.5816 10.9668 53.2176 12.6028 55.154 12.6028C57.0904 12.6028 58.7264 10.9668 58.7264 9.03035C58.7264 7.09393 57.0904 5.45794 55.154 5.45794Z" fill="white"/>
<path d="M5.48055 13.6234C2.99075 13.6234 0.887451 11.5201 0.887451 9.03035C0.887451 6.54055 2.99075 4.43726 5.48055 4.43726C8.10695 4.43726 10.2438 6.49768 10.2438 9.03035C10.2438 11.563 8.10711 13.6234 5.48055 13.6234ZM5.48055 5.45794C3.54413 5.45794 1.90814 7.09393 1.90814 9.03035C1.90814 10.9668 3.54413 12.6028 5.48055 12.6028C7.54421 12.6028 9.22307 11.0003 9.22307 9.03035C9.22307 7.06042 7.54421 5.45794 5.48055 5.45794Z" fill="white"/>
<path d="M5.48055 63.297C2.99075 63.297 0.887451 61.1937 0.887451 58.7039C0.887451 56.0775 2.94788 53.9407 5.48055 53.9407C8.15152 53.9407 10.2438 56.0329 10.2438 58.7039C10.2438 61.2365 8.10711 63.297 5.48055 63.297ZM5.48055 54.9614C3.51062 54.9614 1.90814 56.6402 1.90814 58.7039C1.90814 60.6403 3.54413 62.2763 5.48055 62.2763C7.54421 62.2763 9.22307 60.6736 9.22307 58.7039C9.22307 56.6052 7.57925 54.9614 5.48055 54.9614Z" fill="white"/>
<path d="M55.154 63.297C52.6642 63.297 50.5609 61.1937 50.5609 58.7039C50.5609 56.0775 52.6213 53.9407 55.154 53.9407C57.6867 53.9407 59.7471 56.0775 59.7471 58.7039C59.7471 61.1937 57.6438 63.297 55.154 63.297ZM55.154 54.9614C53.1842 54.9614 51.5816 56.6402 51.5816 58.7039C51.5816 60.6403 53.2176 62.2763 55.154 62.2763C57.0904 62.2763 58.7264 60.6403 58.7264 58.7039C58.7264 56.6402 57.1238 54.9614 55.154 54.9614Z" fill="white"/>
<path d="M55.154 38.4601C52.6642 38.4601 50.5609 36.3568 50.5609 33.867C50.5609 31.2915 52.5783 29.2739 55.154 29.2739C57.7297 29.2739 59.7471 31.2915 59.7471 33.867C59.7471 36.3568 57.6438 38.4601 55.154 38.4601ZM55.154 30.2946C53.1509 30.2946 51.5816 31.8638 51.5816 33.867C51.5816 35.8034 53.2176 37.4394 55.154 37.4394C57.0904 37.4394 58.7264 35.8034 58.7264 33.867C58.7264 31.8638 57.1571 30.2946 55.154 30.2946Z" fill="white"/>
<path d="M5.48055 38.4601C2.99075 38.4601 0.887451 36.3568 0.887451 33.867C0.887451 31.2915 2.90501 29.2739 5.48055 29.2739C8.19591 29.2739 10.2438 31.2484 10.2438 33.867C10.2438 36.3997 8.10711 38.4601 5.48055 38.4601ZM5.48055 30.2946C3.47728 30.2946 1.90814 31.8638 1.90814 33.867C1.90814 35.8034 3.54413 37.4394 5.48055 37.4394C7.54421 37.4394 9.22307 35.837 9.22307 33.867C9.22307 31.8304 7.61412 30.2946 5.48055 30.2946Z" fill="white"/>
<path d="M30.3172 13.6234C27.8274 13.6234 25.7241 11.5201 25.7241 9.03035C25.7241 6.54055 27.8274 4.43726 30.3172 4.43726C32.9436 4.43726 35.0804 6.49768 35.0804 9.03035C35.0804 11.563 32.9436 13.6234 30.3172 13.6234ZM30.3172 5.45794C28.3808 5.45794 26.7448 7.09393 26.7448 9.03035C26.7448 10.9668 28.3808 12.6028 30.3172 12.6028C32.3807 12.6028 34.0597 11.0003 34.0597 9.03035C34.0597 7.06042 32.3809 5.45794 30.3172 5.45794Z" fill="white"/>
<path d="M30.3172 63.297C27.8274 63.297 25.7241 61.1937 25.7241 58.7039C25.7241 56.0775 27.7845 53.9407 30.3172 53.9407C32.9882 53.9407 35.0804 56.0329 35.0804 58.7039C35.0804 61.2365 32.9436 63.297 30.3172 63.297ZM30.3172 54.9614C28.3473 54.9614 26.7448 56.6402 26.7448 58.7039C26.7448 60.6403 28.3808 62.2763 30.3172 62.2763C32.3807 62.2763 34.0597 60.6736 34.0597 58.7039C34.0597 56.6052 32.4159 54.9614 30.3172 54.9614Z" fill="white"/>
<path d="M27.437 31.4262C27.3064 31.4262 27.1757 31.3764 27.076 31.2767L19.0859 23.2859C18.8867 23.0867 18.8867 22.7635 19.0859 22.5641C19.2851 22.3649 19.6083 22.3649 19.8077 22.5641L27.7978 30.5549C27.997 30.7541 27.997 31.0773 27.7978 31.2767C27.6981 31.3764 27.5675 31.4262 27.437 31.4262ZM14.8581 18.8437C14.7274 18.8437 14.5968 18.7939 14.4973 18.6944L8.11694 12.3144C7.91756 12.115 7.91756 11.792 8.11694 11.5926C8.31631 11.3932 8.63953 11.3934 8.83873 11.5926L15.2191 17.9726C15.4184 18.1719 15.4184 18.495 15.2191 18.6944C15.1194 18.7939 14.9887 18.8437 14.8581 18.8437Z" fill="white"/>
<path d="M33.2822 31.4263C33.1515 31.4263 33.0211 31.3765 32.9214 31.2768C32.722 31.0776 32.722 30.7544 32.9214 30.5552L40.9122 22.5644C41.1115 22.365 41.4344 22.365 41.6338 22.5644C41.8332 22.7636 41.8332 23.0868 41.6338 23.286L33.643 31.2768C33.5435 31.3765 33.4128 31.4263 33.2822 31.4263ZM45.8594 18.8438C45.7288 18.8438 45.5981 18.794 45.4985 18.6943C45.2993 18.4949 45.2993 18.1719 45.4986 17.9725L51.8813 11.5925C52.0807 11.3933 52.4038 11.3933 52.6031 11.5925C52.8023 11.7919 52.8023 12.1149 52.603 12.3143L46.2203 18.6943C46.1206 18.794 45.9901 18.8438 45.8594 18.8438Z" fill="white"/>
<path d="M8.47779 56.1727C8.34715 56.1727 8.2165 56.1228 8.11681 56.0231C7.91761 55.8238 7.91761 55.5007 8.11681 55.3014L14.6111 48.8094C14.8105 48.6104 15.1335 48.6102 15.3329 48.8096C15.5323 49.009 15.5321 49.332 15.3329 49.5314L8.83861 56.0233C8.73909 56.1228 8.60844 56.1727 8.47779 56.1727ZM19.5662 45.0836C19.4355 45.0836 19.3049 45.0338 19.2052 44.9341C19.006 44.7347 19.006 44.4116 19.2052 44.2123L27.0761 36.3445C27.2754 36.1453 27.5985 36.1453 27.7979 36.3445C27.9972 36.5437 27.9971 36.8669 27.7979 37.0663L19.927 44.9341C19.8273 45.0338 19.6968 45.0836 19.5662 45.0836Z" fill="white"/>
<path d="M52.2421 56.1728C52.1115 56.1728 51.981 56.123 51.8813 56.0233L44.8382 48.9798C44.6389 48.7805 44.6389 48.4574 44.8382 48.2582C45.0376 48.0588 45.3605 48.0588 45.5599 48.2582L52.603 55.3017C52.8023 55.501 52.8023 55.8241 52.603 56.0233C52.5033 56.123 52.3726 56.1728 52.2421 56.1728ZM40.6211 44.549C40.4905 44.549 40.36 44.4992 40.2605 44.3997L32.9216 37.0667C32.722 36.8675 32.722 36.5445 32.9212 36.3449C33.1204 36.1456 33.4436 36.1454 33.6428 36.3448L40.9817 43.6777C41.1813 43.8769 41.1813 44.2 40.9821 44.3993C40.8824 44.4992 40.7519 44.549 40.6211 44.549Z" fill="white"/>
<path d="M26.2345 34.3774H9.73337C9.45149 34.3774 9.22302 34.1489 9.22302 33.867C9.22302 33.5852 9.45149 33.3567 9.73337 33.3567H26.2345C26.5164 33.3567 26.7448 33.5852 26.7448 33.867C26.7448 34.1489 26.5164 34.3774 26.2345 34.3774Z" fill="white"/>
<path d="M30.3172 30.2947C30.0353 30.2947 29.8069 30.0662 29.8069 29.7844V13.1131C29.8069 12.8312 30.0353 12.6028 30.3172 12.6028C30.5991 12.6028 30.8276 12.8312 30.8276 13.1131V29.7844C30.8276 30.0662 30.5991 30.2947 30.3172 30.2947Z" fill="white"/>
<path d="M51.0713 34.3774H34.5702C34.2883 34.3774 34.0598 34.1489 34.0598 33.867C34.0598 33.5852 34.2883 33.3567 34.5702 33.3567H51.0713C51.3532 33.3567 51.5816 33.5852 51.5816 33.867C51.5816 34.1489 51.3532 34.3774 51.0713 34.3774Z" fill="white"/>
<path d="M30.3172 54.9613C30.0353 54.9613 29.8069 54.7328 29.8069 54.4509V37.9498C29.8069 37.6679 30.0353 37.4395 30.3172 37.4395C30.5991 37.4395 30.8276 37.6679 30.8276 37.9498V54.4509C30.8276 54.7328 30.5991 54.9613 30.3172 54.9613Z" fill="white"/>
<path d="M43.7563 24.5107C41.5877 24.5107 40.0138 22.9368 40.0138 20.7682C40.0138 18.5995 41.5877 17.0256 43.7563 17.0256C45.82 17.0256 47.4988 18.7045 47.4988 20.7682C47.4988 22.8318 45.82 24.5107 43.7563 24.5107ZM43.7563 18.0463C42.1792 18.0463 41.0345 19.191 41.0345 20.7682C41.0345 22.3453 42.1792 23.49 43.7563 23.49C45.2571 23.49 46.4782 22.2689 46.4782 20.7682C46.4782 19.2674 45.2571 18.0463 43.7563 18.0463Z" fill="white"/>
<path d="M17.0483 24.5107C14.8797 24.5107 13.3058 22.9368 13.3058 20.7682C13.3058 18.5995 14.8797 17.0256 17.0483 17.0256C19.112 17.0256 20.7908 18.7045 20.7908 20.7682C20.7908 22.8318 19.112 24.5107 17.0483 24.5107ZM17.0483 18.0463C15.4712 18.0463 14.3265 19.191 14.3265 20.7682C14.3265 22.3453 15.4712 23.49 17.0483 23.49C18.5491 23.49 19.7701 22.2689 19.7701 20.7682C19.7701 19.2674 18.5492 18.0463 17.0483 18.0463Z" fill="white"/>
<path d="M17.2185 50.7084C15.2247 50.7084 13.476 48.9596 13.476 46.9659C13.476 44.8449 15.1899 43.0532 17.2185 43.0532C19.3759 43.0532 21.1311 44.8083 21.1311 46.9659C21.1311 48.9945 19.3395 50.7084 17.2185 50.7084ZM17.2185 44.0739C15.7686 44.0739 14.4966 45.4253 14.4966 46.9659C14.4966 48.3904 15.7939 49.6877 17.2185 49.6877C18.759 49.6877 20.1104 48.4157 20.1104 46.9659C20.1104 45.3712 18.8131 44.0739 17.2185 44.0739Z" fill="white"/>
<path d="M42.7357 50.3683C40.637 50.3683 38.9932 48.6496 38.9932 46.4557C38.9932 44.392 40.672 42.7131 42.7357 42.7131C44.7294 42.7131 46.4782 44.4619 46.4782 46.4557C46.4782 48.5766 44.7643 50.3683 42.7357 50.3683ZM42.7357 43.7338C41.2349 43.7338 40.0139 44.9549 40.0139 46.4557C40.0139 48.1042 41.1841 49.3476 42.7357 49.3476C44.1856 49.3476 45.4575 47.9962 45.4575 46.4557C45.4575 45.0311 44.1602 43.7338 42.7357 43.7338Z" fill="white"/>
<path d="M63.4896 40.8418C63.2077 40.8418 62.9792 40.6133 62.9792 40.3314V39.4808C62.9792 39.199 63.2077 38.9705 63.4896 38.9705C63.7714 38.9705 63.9999 39.199 63.9999 39.4808V40.3314C63.9999 40.6133 63.7714 40.8418 63.4896 40.8418ZM63.4896 36.9293C63.2077 36.9293 62.9792 36.7007 62.9792 36.419V35.5684C62.9792 35.2865 63.2077 35.058 63.4896 35.058C63.7714 35.058 63.9999 35.2865 63.9999 35.5684V36.419C63.9999 36.7007 63.7714 36.9293 63.4896 36.9293ZM63.4896 33.0165C63.2077 33.0165 62.9792 32.788 62.9792 32.5061V31.6556C62.9792 31.3737 63.2077 31.1452 63.4896 31.1452C63.7714 31.1452 63.9999 31.3737 63.9999 31.6556V32.5061C63.9999 32.788 63.7714 33.0165 63.4896 33.0165ZM63.4896 29.1039C63.2077 29.1039 62.9792 28.8754 62.9792 28.5935V27.7429C62.9792 27.4611 63.2077 27.2326 63.4896 27.2326C63.7714 27.2326 63.9999 27.4611 63.9999 27.7429V28.5935C63.9999 28.8754 63.7714 29.1039 63.4896 29.1039ZM63.4896 25.1912C63.2077 25.1912 62.9792 24.9628 62.9792 24.6809V23.8303C62.9792 23.5484 63.2077 23.32 63.4896 23.32C63.7714 23.32 63.9999 23.5484 63.9999 23.8303V24.6809C63.9999 24.9628 63.7714 25.1912 63.4896 25.1912ZM63.4896 21.2786C63.2077 21.2786 62.9792 21.0501 62.9792 20.7682V19.9177C62.9792 19.6358 63.2077 19.4073 63.4896 19.4073C63.7714 19.4073 63.9999 19.6358 63.9999 19.9177V20.7682C63.9999 21.0501 63.7714 21.2786 63.4896 21.2786ZM63.4896 17.3659C63.2077 17.3659 62.9792 17.1375 62.9792 16.8556V16.005C62.9792 15.7232 63.2077 15.4947 63.4896 15.4947C63.7714 15.4947 63.9999 15.7232 63.9999 16.005V16.8556C63.9999 17.1375 63.7714 17.3659 63.4896 17.3659ZM63.4896 13.4533C63.2077 13.4533 62.9792 13.2249 62.9792 12.943V12.0924C62.9792 11.8105 63.2077 11.5821 63.4896 11.5821C63.7714 11.5821 63.9999 11.8105 63.9999 12.0924V12.943C63.9999 13.2249 63.7714 13.4533 63.4896 13.4533ZM63.4896 9.54068C63.2077 9.54068 62.9792 9.31221 62.9792 9.03034V8.17976C62.9792 7.89788 63.2077 7.66942 63.4896 7.66942C63.7714 7.66942 63.9999 7.89788 63.9999 8.17976V9.03034C63.9999 9.31221 63.7714 9.54068 63.4896 9.54068ZM63.4896 5.62804C63.2077 5.62804 62.9792 5.39958 62.9792 5.1177V4.26713C62.9792 3.98525 63.2077 3.75678 63.4896 3.75678C63.7714 3.75678 63.9999 3.98525 63.9999 4.26713V5.1177C63.9999 5.39958 63.7714 5.62804 63.4896 5.62804ZM63.4896 1.71541C63.2672 1.71541 63.0782 1.57336 63.0083 1.37518H62.9794C62.6975 1.37518 62.469 1.14672 62.469 0.864836C62.469 0.582956 62.6975 0.354492 62.9794 0.354492H63.4896C63.7714 0.354492 63.9999 0.582956 63.9999 0.864836V1.20507C63.9999 1.48694 63.7714 1.71541 63.4896 1.71541ZM59.9173 1.37518H59.0667C58.7849 1.37518 58.5564 1.14672 58.5564 0.864836C58.5564 0.582956 58.7849 0.354492 59.0667 0.354492H59.9173C60.1992 0.354492 60.4277 0.582956 60.4277 0.864836C60.4277 1.14672 60.1992 1.37518 59.9173 1.37518ZM56.0047 1.37518H55.1539C54.8721 1.37518 54.6436 1.14672 54.6436 0.864836C54.6436 0.582956 54.8721 0.354492 55.1539 0.354492H56.0047C56.2866 0.354492 56.515 0.582956 56.515 0.864836C56.515 1.14672 56.2866 1.37518 56.0047 1.37518ZM52.0919 1.37518H51.2413C50.9594 1.37518 50.731 1.14672 50.731 0.864836C50.731 0.582956 50.9594 0.354492 51.2413 0.354492H52.0919C52.3738 0.354492 52.6022 0.582956 52.6022 0.864836C52.6022 1.14672 52.3738 1.37518 52.0919 1.37518ZM48.1792 1.37518H47.3287C47.0468 1.37518 46.8183 1.14672 46.8183 0.864836C46.8183 0.582956 47.0468 0.354492 47.3287 0.354492H48.1792C48.4611 0.354492 48.6896 0.582956 48.6896 0.864836C48.6896 1.14672 48.4611 1.37518 48.1792 1.37518ZM44.2668 1.37518H43.416C43.1342 1.37518 42.9057 1.14672 42.9057 0.864836C42.9057 0.582956 43.1342 0.354492 43.416 0.354492H44.2668C44.5487 0.354492 44.7771 0.582956 44.7771 0.864836C44.7771 1.14672 44.5487 1.37518 44.2668 1.37518ZM40.3541 1.37518H39.5036C39.2217 1.37518 38.9932 1.14672 38.9932 0.864836C38.9932 0.582956 39.2217 0.354492 39.5036 0.354492H40.3541C40.636 0.354492 40.8645 0.582956 40.8645 0.864836C40.8645 1.14672 40.636 1.37518 40.3541 1.37518ZM36.4415 1.37518H35.5909C35.3091 1.37518 35.0806 1.14672 35.0806 0.864836C35.0806 0.582956 35.3091 0.354492 35.5909 0.354492H36.4415C36.7234 0.354492 36.9519 0.582956 36.9519 0.864836C36.9519 1.14672 36.7234 1.37518 36.4415 1.37518ZM32.5287 1.37518H31.6781C31.3963 1.37518 31.1678 1.14672 31.1678 0.864836C31.1678 0.582956 31.3963 0.354492 31.6781 0.354492H32.5287C32.8106 0.354492 33.039 0.582956 33.039 0.864836C33.039 1.14672 32.8106 1.37518 32.5287 1.37518ZM28.6161 1.37518H27.7655C27.4836 1.37518 27.2552 1.14672 27.2552 0.864836C27.2552 0.582956 27.4836 0.354492 27.7655 0.354492H28.6161C28.8979 0.354492 29.1264 0.582956 29.1264 0.864836C29.1264 1.14672 28.8979 1.37518 28.6161 1.37518ZM24.7034 1.37518H23.8529C23.571 1.37518 23.3425 1.14672 23.3425 0.864836C23.3425 0.582956 23.571 0.354492 23.8529 0.354492H24.7034C24.9853 0.354492 25.2138 0.582956 25.2138 0.864836C25.2138 1.14672 24.9853 1.37518 24.7034 1.37518ZM20.7908 1.37518H19.9402C19.6583 1.37518 19.4299 1.14672 19.4299 0.864836C19.4299 0.582956 19.6583 0.354492 19.9402 0.354492H20.7908C21.0727 0.354492 21.3011 0.582956 21.3011 0.864836C21.3011 1.14672 21.0727 1.37518 20.7908 1.37518ZM16.8782 1.37518H16.0276C15.7457 1.37518 15.5172 1.14672 15.5172 0.864836C15.5172 0.582956 15.7457 0.354492 16.0276 0.354492H16.8782C17.16 0.354492 17.3885 0.582956 17.3885 0.864836C17.3885 1.14672 17.16 1.37518 16.8782 1.37518ZM12.9655 1.37518H12.115C11.8331 1.37518 11.6046 1.14672 11.6046 0.864836C11.6046 0.582956 11.8331 0.354492 12.115 0.354492H12.9655C13.2474 0.354492 13.4759 0.582956 13.4759 0.864836C13.4759 1.14672 13.2474 1.37518 12.9655 1.37518Z" fill="white"/>
</svg>
