<svg width="64" height="64" viewBox="0 0 64 64" fill="none" xmlns="http://www.w3.org/2000/svg">
<path d="M5.00006 11.52C4.70669 11.576 4.47481 11.8614 4.48007 12.16V45.44C4.48011 45.7751 4.78497 46.08 5.12006 46.08H9.63997C9.9651 49.6612 12.9751 52.48 16.6398 52.48C20.3046 52.48 23.316 49.6612 23.6397 46.08H40.3594C40.6831 49.6612 43.6945 52.48 47.3593 52.48C51.024 52.48 54.034 49.6612 54.3591 46.08H58.879C59.2141 46.08 59.519 45.7751 59.519 45.44V31.36C59.5238 31.2718 59.5101 31.1827 59.479 31.1L54.9991 20.22C54.8972 19.9907 54.65 19.8341 54.3991 19.84H42.8793V12.16C42.8793 11.8249 42.5744 11.5201 42.2394 11.52C29.8289 11.52 17.4017 11.52 5.00006 11.52ZM5.76004 12.8H41.5994V41.34C41.5977 41.3669 41.5977 41.3931 41.5994 41.42C40.9127 42.4003 40.4729 43.5442 40.3594 44.8H23.6397C23.316 41.2174 20.3046 38.4 16.6398 38.4C12.9751 38.4 9.9651 41.2174 9.63997 44.8H5.76004V12.8ZM42.8793 21.12H53.9591L58.2391 31.5V44.8H54.3591C54.034 41.2174 51.024 38.4 47.3593 38.4C45.6616 38.4 44.095 39.0135 42.8793 40.02V21.12ZM46.5993 32C46.2642 32.0314 45.9879 32.3649 46.0193 32.7001C46.0507 33.0352 46.3842 33.3114 46.7193 33.28H49.2792C49.617 33.2864 49.9274 32.9779 49.9274 32.64C49.9274 32.3022 49.617 31.9957 49.2792 32H46.7193C46.6794 31.9936 46.6392 31.9936 46.5993 32ZM16.6398 39.68C19.8285 39.68 22.3997 42.2513 22.3997 45.44C22.3997 48.6288 19.8285 51.2 16.6398 51.2C13.4512 51.2 10.8799 48.6288 10.8799 45.44C10.8799 42.2513 13.4512 39.68 16.6398 39.68ZM47.3593 39.68C50.5479 39.68 53.1191 42.2513 53.1191 45.44C53.1191 48.6288 50.5479 51.2 47.3593 51.2C44.1706 51.2 41.5994 48.6288 41.5994 45.44C41.5994 42.2513 44.1706 39.68 47.3593 39.68ZM16.6398 42.24C14.8801 42.24 13.4399 43.6804 13.4399 45.44C13.4399 47.1998 14.8801 48.64 16.6398 48.64C18.3995 48.64 19.8398 47.1998 19.8398 45.44C19.8398 43.6804 18.3995 42.24 16.6398 42.24ZM47.3593 42.24C45.5996 42.24 44.1593 43.6804 44.1593 45.44C44.1593 47.1998 45.5996 48.64 47.3593 48.64C49.119 48.64 50.5592 47.1998 50.5592 45.44C50.5592 43.6804 49.119 42.24 47.3593 42.24ZM16.6398 43.52C17.7078 43.52 18.5598 44.3721 18.5598 45.44C18.5598 46.508 17.7078 47.3601 16.6398 47.3601C15.5719 47.3601 14.7199 46.508 14.7199 45.44C14.7199 44.3721 15.5719 43.52 16.6398 43.52ZM47.3593 43.52C48.4272 43.52 49.2792 44.3721 49.2792 45.44C49.2792 46.508 48.4272 47.3601 47.3593 47.3601C46.2913 47.3601 45.4393 46.508 45.4393 45.44C45.4393 44.3721 46.2913 43.52 47.3593 43.52Z" fill="#007CC3"/>
</svg>
