<svg width="65" height="65" viewBox="0 0 65 65" fill="none" xmlns="http://www.w3.org/2000/svg">
<path d="M10.4 8.44995C8.61076 8.44995 7.15002 9.9107 7.15002 11.7V22.1C7.15002 23.1623 7.6774 24.1062 8.47034 24.7C7.6774 25.2937 7.15002 26.2376 7.15002 27.3V37.7C7.15002 38.7623 7.6774 39.7062 8.47034 40.3C7.6774 40.8938 7.15002 41.8376 7.15002 42.9V53.3C7.15002 55.0892 8.61076 56.55 10.4 56.55H54.6C56.3893 56.55 57.85 55.0892 57.85 53.3V42.9C57.85 41.8376 57.3227 40.8938 56.5297 40.3C57.3227 39.7062 57.85 38.7623 57.85 37.7V27.3C57.85 26.2376 57.3227 25.2937 56.5297 24.7C57.3227 24.1062 57.85 23.1623 57.85 22.1V11.7C57.85 9.9107 56.3893 8.44995 54.6 8.44995H10.4ZM10.4 9.74995H54.6C55.6916 9.74995 56.55 10.6084 56.55 11.7V22.1C56.55 23.1915 55.6916 24.05 54.6 24.05H10.4C9.30847 24.05 8.45002 23.1915 8.45002 22.1V11.7C8.45002 10.6084 9.30847 9.74995 10.4 9.74995ZM15.6 14.3C14.1718 14.3 13 15.4717 13 16.9C13 18.3282 14.1718 19.5 15.6 19.5C17.0283 19.5 18.2 18.3282 18.2 16.9C18.2 15.4717 17.0283 14.3 15.6 14.3ZM25.35 14.3C23.9218 14.3 22.75 15.4717 22.75 16.9C22.75 18.3282 23.9218 19.5 25.35 19.5C26.7783 19.5 27.95 18.3282 27.95 16.9C27.95 15.4717 26.7783 14.3 25.35 14.3ZM15.6 15.6C16.3257 15.6 16.9 16.1743 16.9 16.9C16.9 17.6256 16.3257 18.2 15.6 18.2C14.8744 18.2 14.3 17.6256 14.3 16.9C14.3 16.1743 14.8744 15.6 15.6 15.6ZM25.35 15.6C26.0757 15.6 26.65 16.1743 26.65 16.9C26.65 17.6256 26.0757 18.2 25.35 18.2C24.6244 18.2 24.05 17.6256 24.05 16.9C24.05 16.1743 24.6244 15.6 25.35 15.6ZM37.7 16.25C37.341 16.25 37.05 16.541 37.05 16.9C37.05 17.2589 37.341 17.55 37.7 17.55H48.1C48.459 17.55 48.75 17.2589 48.75 16.9C48.75 16.541 48.459 16.25 48.1 16.25H37.7ZM10.4 25.35H54.6C55.6916 25.35 56.55 26.2084 56.55 27.3V37.7C56.55 38.7915 55.6916 39.65 54.6 39.65H10.4C9.30847 39.65 8.45002 38.7915 8.45002 37.7V27.3C8.45002 26.2084 9.30847 25.35 10.4 25.35ZM15.6 29.9C14.1718 29.9 13 31.0717 13 32.5C13 33.9282 14.1718 35.1 15.6 35.1C17.0283 35.1 18.2 33.9282 18.2 32.5C18.2 31.0717 17.0283 29.9 15.6 29.9ZM25.35 29.9C23.9218 29.9 22.75 31.0717 22.75 32.5C22.75 33.9282 23.9218 35.1 25.35 35.1C26.7783 35.1 27.95 33.9282 27.95 32.5C27.95 31.0717 26.7783 29.9 25.35 29.9ZM15.6 31.2C16.3257 31.2 16.9 31.7743 16.9 32.5C16.9 33.2256 16.3257 33.8 15.6 33.8C14.8744 33.8 14.3 33.2256 14.3 32.5C14.3 31.7743 14.8744 31.2 15.6 31.2ZM25.35 31.2C26.0757 31.2 26.65 31.7743 26.65 32.5C26.65 33.2256 26.0757 33.8 25.35 33.8C24.6244 33.8 24.05 33.2256 24.05 32.5C24.05 31.7743 24.6244 31.2 25.35 31.2ZM37.7 31.85C37.341 31.85 37.05 32.141 37.05 32.5C37.05 32.8589 37.341 33.15 37.7 33.15H48.1C48.459 33.15 48.75 32.8589 48.75 32.5C48.75 32.141 48.459 31.85 48.1 31.85H37.7ZM10.4 40.95H54.6C55.6916 40.95 56.55 41.8084 56.55 42.9V53.3C56.55 54.3915 55.6916 55.25 54.6 55.25H10.4C9.30847 55.25 8.45002 54.3915 8.45002 53.3V42.9C8.45002 41.8084 9.30847 40.95 10.4 40.95ZM15.6 45.5C14.1718 45.5 13 46.6717 13 48.1C13 49.5282 14.1718 50.7 15.6 50.7C17.0283 50.7 18.2 49.5282 18.2 48.1C18.2 46.6717 17.0283 45.5 15.6 45.5ZM25.35 45.5C23.9218 45.5 22.75 46.6717 22.75 48.1C22.75 49.5282 23.9218 50.7 25.35 50.7C26.7783 50.7 27.95 49.5282 27.95 48.1C27.95 46.6717 26.7783 45.5 25.35 45.5ZM15.6 46.8C16.3257 46.8 16.9 47.3743 16.9 48.1C16.9 48.8257 16.3257 49.4 15.6 49.4C14.8744 49.4 14.3 48.8257 14.3 48.1C14.3 47.3743 14.8744 46.8 15.6 46.8ZM25.35 46.8C26.0757 46.8 26.65 47.3743 26.65 48.1C26.65 48.8257 26.0757 49.4 25.35 49.4C24.6244 49.4 24.05 48.8257 24.05 48.1C24.05 47.3743 24.6244 46.8 25.35 46.8ZM37.7 47.45C37.341 47.45 37.05 47.741 37.05 48.1C37.05 48.459 37.341 48.75 37.7 48.75H48.1C48.459 48.75 48.75 48.459 48.75 48.1C48.75 47.741 48.459 47.45 48.1 47.45H37.7Z" fill="#007CC3"/>
</svg>
