<svg width="56" height="56" viewBox="0 0 56 56" fill="none" xmlns="http://www.w3.org/2000/svg">
<path d="M5.6306 49.9918C5.64126 50.0288 5.65261 50.0636 5.67021 50.097C5.67698 50.11 5.67739 50.1244 5.68529 50.137C5.70412 50.1672 5.72794 50.1919 5.75119 50.2172C5.75806 50.2246 5.76294 50.2332 5.77019 50.2403C5.8162 50.2852 5.86914 50.3191 5.92584 50.3452C5.93911 50.3514 5.9524 50.3558 5.96625 50.361C6.02828 50.3839 6.09274 50.3997 6.15909 50.3999C6.15939 50.3999 6.15967 50.4001 6.15998 50.4001H49.84C50.1495 50.4001 50.4 50.1493 50.4 49.8401V22.5051C50.4 22.4972 50.3958 22.4907 50.3955 22.483C50.3931 22.4201 50.3815 22.3589 50.3589 22.3013C50.3565 22.2952 50.3557 22.2887 50.3531 22.2827C50.3282 22.2251 50.2914 22.1738 50.2482 22.1272C50.2386 22.1167 50.2292 22.1071 50.2188 22.0974C50.208 22.0874 50.1994 22.0754 50.1878 22.0662L43.7751 16.9855C43.7571 16.9712 43.7352 16.9672 43.7161 16.9554V12.0029C43.7161 11.6936 43.4656 11.4429 43.1561 11.4429H36.7791L30.5435 6.50268C29.0183 5.29464 26.8898 5.296 25.3657 6.50788L19.1701 11.4377C19.1683 11.4392 19.1676 11.4414 19.1658 11.4429H12.3993C12.0897 11.4429 11.8393 11.6936 11.8393 12.0029V17.2705L5.81107 22.0667C5.79938 22.076 5.7909 22.088 5.7801 22.0982C5.77019 22.1074 5.76137 22.1167 5.75214 22.1266C5.7087 22.1735 5.67168 22.2251 5.6467 22.283C5.64424 22.2887 5.64352 22.2949 5.64123 22.3006C5.61857 22.3584 5.60698 22.4198 5.60445 22.4828C5.60415 22.4906 5.59998 22.4972 5.59998 22.5051V49.8401C5.59998 49.8551 5.60736 49.8677 5.60852 49.8824C5.61132 49.9198 5.62007 49.9551 5.6306 49.9918ZM26.9444 36.1725L6.71998 48.8291V23.516L26.9444 36.1725ZM49.28 23.516V48.8291L29.0554 36.1726L49.28 23.516ZM47.8897 49.2801H8.1103L28 36.8331L47.8897 49.2801ZM48.8704 22.4512L43.7161 25.6768V18.3675L48.8704 22.4512ZM26.0635 7.38452C27.1764 6.49776 28.7328 6.49694 29.8479 7.38042L34.9756 11.4429H20.9631L26.0635 7.38452ZM42.5961 12.5629V26.3777L27.9999 35.512L12.9593 26.0996V12.5629H42.5961ZM11.8393 18.7023V25.3987L7.12794 22.4504L11.8393 18.7023Z" fill="white"/>
<path d="M17.6225 16.9794H23.7683C24.0778 16.9794 24.3283 16.7286 24.3283 16.4194C24.3283 16.1101 24.0778 15.8594 23.7683 15.8594H17.6225C17.313 15.8594 17.0625 16.1101 17.0625 16.4194C17.0625 16.7286 17.313 16.9794 17.6225 16.9794Z" fill="white"/>
<path d="M17.6225 21.2625H23.7683C24.0778 21.2625 24.3283 21.0117 24.3283 20.7025C24.3283 20.3932 24.0778 20.1425 23.7683 20.1425H17.6225C17.313 20.1425 17.0625 20.3932 17.0625 20.7025C17.0625 21.0117 17.313 21.2625 17.6225 21.2625Z" fill="white"/>
<path d="M17.1254 26.0564C17.1254 26.3657 17.3758 26.6164 17.6854 26.6164H38.3146C38.6241 26.6164 38.8746 26.3657 38.8746 26.0564C38.8746 25.7472 38.6241 25.4964 38.3146 25.4964H17.6854C17.3758 25.4964 17.1254 25.7472 17.1254 26.0564Z" fill="white"/>
<path d="M5.6306 49.9918C5.64126 50.0288 5.65261 50.0636 5.67021 50.097C5.67698 50.11 5.67739 50.1244 5.68529 50.137C5.70412 50.1672 5.72794 50.1919 5.75119 50.2172C5.75806 50.2246 5.76294 50.2332 5.77019 50.2403C5.8162 50.2852 5.86914 50.3191 5.92584 50.3452C5.93911 50.3514 5.9524 50.3558 5.96625 50.361C6.02828 50.3839 6.09274 50.3997 6.15909 50.3999C6.15939 50.3999 6.15967 50.4001 6.15998 50.4001H49.84C50.1495 50.4001 50.4 50.1493 50.4 49.8401V22.5051C50.4 22.4972 50.3958 22.4907 50.3955 22.483C50.3931 22.4201 50.3815 22.3589 50.3589 22.3013C50.3565 22.2952 50.3557 22.2887 50.3531 22.2827C50.3282 22.2251 50.2914 22.1738 50.2482 22.1272C50.2386 22.1167 50.2292 22.1071 50.2188 22.0974C50.208 22.0874 50.1994 22.0754 50.1878 22.0662L43.7751 16.9855C43.7571 16.9712 43.7352 16.9672 43.7161 16.9554V12.0029C43.7161 11.6936 43.4656 11.4429 43.1561 11.4429H36.7791L30.5435 6.50268C29.0183 5.29464 26.8898 5.296 25.3657 6.50788L19.1701 11.4377C19.1683 11.4392 19.1676 11.4414 19.1658 11.4429H12.3993C12.0897 11.4429 11.8393 11.6936 11.8393 12.0029V17.2705L5.81107 22.0667C5.79938 22.076 5.7909 22.088 5.7801 22.0982C5.77019 22.1074 5.76137 22.1167 5.75214 22.1266C5.7087 22.1735 5.67168 22.2251 5.6467 22.283C5.64424 22.2887 5.64352 22.2949 5.64123 22.3006C5.61857 22.3584 5.60698 22.4198 5.60445 22.4828C5.60415 22.4906 5.59998 22.4972 5.59998 22.5051V49.8401C5.59998 49.8551 5.60736 49.8677 5.60852 49.8824C5.61132 49.9198 5.62007 49.9551 5.6306 49.9918ZM26.9444 36.1725L6.71998 48.8291V23.516L26.9444 36.1725ZM49.28 23.516V48.8291L29.0554 36.1726L49.28 23.516ZM47.8897 49.2801H8.1103L28 36.8331L47.8897 49.2801ZM48.8704 22.4512L43.7161 25.6768V18.3675L48.8704 22.4512ZM26.0635 7.38452C27.1764 6.49776 28.7328 6.49694 29.8479 7.38042L34.9756 11.4429H20.9631L26.0635 7.38452ZM42.5961 12.5629V26.3777L27.9999 35.512L12.9593 26.0996V12.5629H42.5961ZM11.8393 18.7023V25.3987L7.12794 22.4504L11.8393 18.7023Z" fill="#007CC3"/>
<path d="M17.6225 16.9794H38.6433C38.9528 16.9794 39.2033 16.7286 39.2033 16.4194C39.2033 16.1101 38.9528 15.8594 38.6433 15.8594H17.6225C17.313 15.8594 17.0625 16.1101 17.0625 16.4194C17.0625 16.7286 17.313 16.9794 17.6225 16.9794Z" fill="#007CC3"/>
<path d="M17.6225 21.2625H38.6433C38.9528 21.2625 39.2033 21.0117 39.2033 20.7025C39.2033 20.3932 38.9528 20.1425 38.6433 20.1425H17.6225C17.313 20.1425 17.0625 20.3932 17.0625 20.7025C17.0625 21.0117 17.313 21.2625 17.6225 21.2625Z" fill="#007CC3"/>
<path d="M17.6225 25.62H38.6433C38.9528 25.62 39.2033 25.3693 39.2033 25.06C39.2033 24.7507 38.9528 24.5 38.6433 24.5H17.6225C17.313 24.5 17.0625 24.7507 17.0625 25.06C17.0625 25.3693 17.313 25.62 17.6225 25.62Z" fill="#007CC3"/>
</svg>
