<svg width="64" height="64" viewBox="0 0 64 64" fill="none" xmlns="http://www.w3.org/2000/svg">
<path d="M32.2406 58.8147L32.7546 58.3328C45.3165 46.7149 55.7856 37.0272 56.6381 6.48638C50.784 8.94846 46.7629 10.3321 43.1763 10.3321C39.4618 10.3481 36.3098 8.88446 32.2406 5.6339C28.1715 8.88446 25.0189 10.3488 21.2877 10.3321C17.7011 10.3321 13.6966 8.94846 7.82591 6.48638C8.69439 37.0272 19.1648 46.7142 31.7094 58.3328L32.2406 58.8147ZM33.7843 59.4432L32.7552 60.3923L32.2413 60.8749L31.7261 60.3923L30.6803 59.4432C17.7178 47.4387 6.92607 37.4464 6.29823 5.34462L6.26624 4.18558L7.344 4.63614C13.616 7.3075 17.7658 8.81982 21.2877 8.81982C24.7616 8.83582 27.737 7.3555 31.7574 4.07294L32.2406 3.67102L32.7226 4.07294C36.727 7.3555 39.7184 8.83582 43.1763 8.81982C46.7149 8.81982 50.8474 7.3075 57.1206 4.63614L58.1977 4.18558L58.183 5.34462C57.5565 37.4464 46.7635 47.4387 33.7843 59.4432Z" fill="#007CC3"/>
</svg>
