<svg width="20" height="20" viewBox="0 0 20 20" fill="none" xmlns="http://www.w3.org/2000/svg">
<g clip-path="url(#clip0)">
<path d="M19.2958 11.5775C19.8925 6.55502 19.0092 3.38419 17.4158 1.95002L17.4167 1.94919C14.845 -0.499979 6.16001 -0.86248 3.08334 2.05919C1.70167 3.48835 1.21501 5.58585 1.16167 8.18252C1.10834 10.78 1.04501 15.6459 5.57917 16.9659H5.58334L5.57917 18.9817C5.57917 18.9817 5.54834 19.7984 6.07001 19.9625C6.66667 20.1559 6.93667 19.7767 8.79251 17.56C11.8958 17.8292 14.2792 17.2125 14.55 17.1225C15.1767 16.9125 18.7225 16.4434 19.2958 11.5775ZM9.09834 16.1417C9.09834 16.1417 7.13417 18.5909 6.52334 19.2267C6.32334 19.4334 6.10417 19.4142 6.10751 19.0042C6.10751 18.735 6.12251 15.6575 6.12251 15.6575C2.27834 14.5559 2.50501 10.4125 2.54667 8.24502C2.58834 6.07669 2.98501 4.30085 4.15501 3.10502C6.85417 0.574187 14.4683 1.14002 16.4083 2.96335C18.78 5.06585 17.9358 11.0059 17.9408 11.2084C17.4533 15.27 14.58 15.5275 14.0517 15.7034C13.8258 15.7784 11.73 16.3175 9.09834 16.1417Z" fill="#B0B8BC"/>
<path d="M10.185 3.58084C9.86419 3.58084 9.86419 4.08084 10.185 4.08501C12.6742 4.10417 14.7242 5.83917 14.7467 9.02168C14.7467 9.35751 15.2384 9.35334 15.2342 9.01751H15.2334C15.2067 5.58834 12.9684 3.60001 10.185 3.58084Z" fill="#B0B8BC"/>
<path d="M13.4592 8.4942C13.4517 8.82586 13.9425 8.8417 13.9467 8.50586C13.9875 6.61503 12.8217 5.05753 10.6308 4.89336C10.31 4.87003 10.2767 5.3742 10.5967 5.39753C12.4967 5.5417 13.4975 6.83836 13.4592 8.4942Z" fill="#B0B8BC"/>
<path d="M12.9342 10.645C12.5225 10.4067 12.1033 10.555 11.93 10.7892L11.5675 11.2583C11.3833 11.4967 11.0392 11.465 11.0392 11.465C8.52751 10.8008 7.85584 8.17251 7.85584 8.17251C7.85584 8.17251 7.82501 7.81667 8.05501 7.62584L8.50834 7.25084C8.73501 7.07084 8.87834 6.63751 8.64751 6.21167C8.03084 5.09751 7.61667 4.71334 7.40584 4.41834C7.18417 4.14084 6.85084 4.07834 6.50417 4.26584H6.49667C5.77584 4.68751 4.98667 5.47667 5.23917 6.28917C5.67001 7.14584 6.46167 9.87667 8.98501 11.94C10.1708 12.9158 12.0475 13.9158 12.8442 14.1467L12.8517 14.1583C13.6367 14.42 14.4 13.6 14.8075 12.8575V12.8517C14.9883 12.4925 14.9283 12.1525 14.6642 11.93C14.1958 11.4733 13.4892 10.9692 12.9342 10.645Z" fill="#B0B8BC"/>
<path d="M10.9742 6.75333C11.775 6.79999 12.1633 7.21833 12.205 8.0775C12.22 8.41333 12.7075 8.39 12.6925 8.05416C12.6391 6.93249 12.0541 6.30749 11.0008 6.24916C10.68 6.22999 10.65 6.73416 10.9742 6.75333Z" fill="#B0B8BC"/>
</g>
<defs>
<clipPath id="clip0">
<rect width="20" height="20" fill="white"/>
</clipPath>
</defs>
</svg>
