<svg width="18" height="18" viewBox="0 0 18 18" fill="none" xmlns="http://www.w3.org/2000/svg">
<path d="M17.9983 8.99999C17.9983 13.9704 13.9704 18 9 18C4.02958 18 0 13.9704 0 8.99999C0 4.02957 4.02958 0 9 0C13.9704 0 17.9983 4.02957 17.9983 8.99999Z" fill="#EE3023"/>
<path d="M9.07112 14.0184C6.59914 14.0268 4.0263 11.9168 4.01472 8.52713C4.00644 6.28663 5.21681 4.12881 6.76118 2.84901C8.26918 1.60227 10.3344 0.800313 12.2062 0.793701C12.4476 0.793701 12.7006 0.813509 12.8543 0.866424C11.2174 1.20539 9.91441 2.72991 9.91937 4.45783C9.91937 4.51566 9.92429 4.57685 9.93089 4.60498C12.6707 5.273 13.9142 6.9265 13.9224 9.21328C13.929 11.5017 12.1234 14.0084 9.07107 14.0183" fill="white"/>
</svg>
