<svg width="64" height="64" viewBox="0 0 64 64" fill="none" xmlns="http://www.w3.org/2000/svg">
<g clip-path="url(#clip0)">
<path d="M27.0297 46.5627C27.2865 45.9472 26.9957 45.2401 26.3802 44.9833C25.7647 44.7266 25.0576 45.0174 24.8008 45.6329C24.5441 46.2484 24.8349 46.9555 25.4504 47.2122C26.0659 47.469 26.773 47.1782 27.0297 46.5627Z" fill="#007CC3" stroke="white"/>
<path d="M51.1195 29.8281L47.4298 32.7128C46.3564 33.5849 45.8197 34.7924 45.7527 36.0671L41.1908 36.2012L39.9162 36.6038L34.7506 35.1949C34.6835 34.7253 34.6164 34.3228 34.4151 33.8532C33.9455 32.7799 33.1405 31.9077 32.0671 31.5052L27.7066 29.6939L19.6562 48.9476L24.0168 50.7589C24.5535 50.9601 25.1573 51.0943 25.694 51.0943C26.2307 51.0943 26.8344 50.9601 27.3711 50.7589C27.7066 50.6247 28.042 50.4234 28.3103 50.2222L38.977 58.3396C39.4466 58.675 40.0504 58.8763 40.587 58.8763C41.3921 58.8763 42.1971 58.5408 42.7338 57.8029C42.868 57.6016 43.0021 57.4004 43.0692 57.1991L43.4717 57.4675C43.9413 57.8029 44.478 58.0042 45.0818 58.0042C45.216 58.0042 45.3501 58.0042 45.4172 58.0042C46.1552 57.9371 46.7589 57.5345 47.1615 56.9979C47.2956 56.7966 47.4298 56.5283 47.4969 56.327C47.8323 56.4612 48.1007 56.5283 48.4361 56.5283C49.2411 56.5283 50.0462 56.1928 50.5828 55.4549C50.8512 55.1195 50.9854 54.784 51.0524 54.3815C51.1195 54.3815 51.1866 54.3815 51.2537 54.3815C51.3879 54.3815 51.522 54.3815 51.5891 54.3815C52.3271 54.3144 52.9308 53.9119 53.3334 53.3752C53.7359 52.8385 53.9371 52.1006 53.8701 51.4297C53.8701 51.3627 53.8701 51.3626 53.8701 51.2956L55.5472 49.5513C56.2181 49.8868 56.956 50.088 57.6269 50.088C58.5661 50.088 59.5053 49.7526 60.3103 49.1488L64 46.2641L51.1195 29.8281ZM41.5262 38.2138L46.2893 38.0796C46.4235 38.348 46.5577 38.6163 46.7589 38.8176L54.1384 48.0754L52.7967 49.4842L46.2893 44.587C47.2285 44.0503 47.8323 43.044 47.8994 41.9035C47.9665 41.3669 47.4969 40.8973 46.9602 40.8302C46.4235 40.7631 45.9539 41.2327 45.8868 41.7694C45.8197 42.5744 45.1489 43.1782 44.2768 43.1111L40.7883 40.4947L37.2998 41.1656C36.9644 41.2327 36.5619 41.0314 36.4277 40.696C36.2936 40.4276 36.3606 40.1593 36.4277 40.0251C36.4948 39.891 36.629 39.6897 36.8973 39.6226L41.5262 38.2138ZM26.6332 48.9476C26.0294 49.2159 25.4256 49.2159 24.8219 48.9476L22.3397 47.9413L28.847 32.3773L31.3292 33.3836C31.933 33.652 32.3355 34.0545 32.6038 34.6583C32.8722 35.262 32.8722 35.8658 32.6038 36.4696L27.9078 47.6729C27.6395 48.2096 27.1699 48.6792 26.6332 48.9476ZM51.7904 52.1677C51.6562 52.3019 51.522 52.3689 51.3879 52.436C51.1866 52.436 51.0524 52.436 50.9183 52.3018L49.5766 51.2956C49.5095 51.2285 49.4424 51.2285 49.3753 51.1614L43.8743 47.0021C43.4047 46.6666 42.8009 46.7337 42.4655 47.2033C42.0629 47.5388 42.13 48.2096 42.5996 48.545L48.9057 53.3081C49.174 53.5094 49.2411 53.9119 49.0399 54.2473C48.8386 54.5157 48.4361 54.5828 48.1007 54.3815L46.9602 53.5094C46.8931 53.4423 46.826 53.4423 46.7589 53.3752C46.6919 53.3081 46.6919 53.3081 46.6248 53.2411L41.7946 49.5513C41.325 49.2159 40.7212 49.283 40.3858 49.7526C40.0504 50.2222 40.1174 50.826 40.587 51.1614L45.4843 54.8511C45.6185 54.9853 45.6856 55.1195 45.7527 55.2536C45.7527 55.4549 45.7527 55.5891 45.6185 55.7232C45.4843 55.8574 45.3501 55.9245 45.216 55.9916C45.0147 55.9916 44.8805 55.9916 44.7464 55.8574L42.8009 54.3815C42.7338 54.3144 42.6667 54.3144 42.5996 54.2473C42.5325 54.1803 42.4655 54.0461 42.3313 53.979L40.6541 52.9056C40.1845 52.5702 39.5808 52.6373 39.2453 53.1069C38.9099 53.5765 38.977 54.1803 39.4466 54.5157L40.9896 55.6561C41.1237 55.7903 41.1908 55.9245 41.2579 56.0587C41.2579 56.2599 41.2579 56.3941 41.1237 56.5283C40.9225 56.7966 40.52 56.8637 40.1845 56.6624L29.585 48.6121C29.652 48.545 29.652 48.478 29.7191 48.4109L34.4151 37.2075L36.2935 37.7442C35.5556 38.0126 35.0189 38.4822 34.6835 39.2201C34.3481 39.958 34.3481 40.7631 34.6835 41.501C35.2202 42.7086 36.4948 43.3794 37.7694 43.1111L40.3858 42.6415L51.7233 51.2285C51.8575 51.3626 51.9246 51.4968 51.9916 51.631C51.9916 51.8322 51.9246 51.9664 51.7904 52.1677ZM59.1698 47.4717C58.1636 48.2767 56.6877 48.0754 55.8826 47.0692L48.3019 37.61C47.4969 36.6038 47.6982 35.1279 48.7044 34.3228L50.7841 32.6457L61.2495 45.8616L59.1698 47.4717Z" fill="#007CC3" stroke="white"/>
<path d="M58.1783 45.9998C58.7007 45.5852 58.788 44.8256 58.3734 44.3032C57.9588 43.7808 57.1992 43.6935 56.6768 44.1081C56.1544 44.5227 56.0671 45.2823 56.4817 45.8047C56.8963 46.3271 57.6559 46.4145 58.1783 45.9998Z" fill="#007CC3" stroke="white"/>
<path d="M16.6373 50.088H8.58699V11.849V9.29978V8.36058C8.58699 7.48847 8.31865 6.68344 7.91613 6.01258H38.0377C39.3123 6.01258 40.3857 7.08595 40.3857 8.36058V30.8344C40.3857 31.371 40.8553 31.8406 41.392 31.8406C41.9287 31.8406 42.3983 31.371 42.3983 30.8344V8.36058C42.3983 5.94549 40.4528 4 38.0377 4H4.36058H4.2935H4.22641C4.15933 4 4.09224 4 4.09224 4C1.81132 4.13417 0 6.01258 0 8.36058V10.3061H6.57442V11.849V52.0335H16.6373C17.174 52.0335 17.6436 51.5639 17.6436 51.0272C17.6436 50.4905 17.2411 50.088 16.6373 50.088ZM4.2935 6.01258C5.50104 6.07966 6.50733 7.08595 6.57442 8.2935H2.01258C2.07966 7.08595 3.08595 6.07966 4.2935 6.01258Z" fill="#007CC3" stroke="white"/>
<path d="M14.6245 14.8008H35.354C35.8907 14.8008 36.3603 14.3312 36.3603 13.7946C36.3603 13.2579 35.8907 12.7883 35.354 12.7883H14.6245C14.0878 12.7883 13.6182 13.2579 13.6182 13.7946C13.6182 14.3312 14.0207 14.8008 14.6245 14.8008Z" fill="#007CC3" stroke="white"/>
<path d="M14.6245 20.5031H35.354C35.8907 20.5031 36.3603 20.0335 36.3603 19.4968C36.3603 18.9601 35.8907 18.4905 35.354 18.4905H14.6245C14.0878 18.4905 13.6182 18.9601 13.6182 19.4968C13.6182 20.0335 14.0207 20.5031 14.6245 20.5031Z" fill="#007CC3" stroke="white"/>
<path d="M36.4274 25.1992C36.4274 24.6625 35.9578 24.1929 35.4211 24.1929H14.6245C14.0878 24.1929 13.6182 24.6625 13.6182 25.1992C13.6182 25.7358 14.0878 26.2054 14.6245 26.2054H35.4211C35.9578 26.2054 36.4274 25.7358 36.4274 25.1992Z" fill="#007CC3" stroke="white"/>
<path d="M23.8823 30.9014C23.8823 30.3647 23.4127 29.8951 22.876 29.8951H14.6245C14.0878 29.8951 13.6182 30.3647 13.6182 30.9014C13.6182 31.4381 14.0878 31.9077 14.6245 31.9077H22.876C23.4127 31.9077 23.8823 31.4381 23.8823 30.9014Z" fill="#007CC3" stroke="white"/>
<path d="M14.6245 35.5304C14.0878 35.5304 13.6182 36 13.6182 36.5367C13.6182 37.0734 14.0878 37.543 14.6245 37.543H20.8634C21.4001 37.543 21.8697 37.0734 21.8697 36.5367C21.8697 36 21.4001 35.5304 20.8634 35.5304H14.6245Z" fill="#007CC3" stroke="white"/>
<path d="M18.7167 41.1656H14.6245C14.0878 41.1656 13.6182 41.6352 13.6182 42.1719C13.6182 42.7086 14.0878 43.1782 14.6245 43.1782H18.7838C19.3205 43.1782 19.7901 42.7086 19.7901 42.1719C19.7901 41.6352 19.3205 41.1656 18.7167 41.1656Z" fill="#007CC3" stroke="white"/>
</g>
<defs>
<clipPath id="clip0">
<rect width="64" height="64" fill="white"/>
</clipPath>
</defs>
</svg>
