<svg width="64" height="64" viewBox="0 0 64 64" fill="none" xmlns="http://www.w3.org/2000/svg">
<path d="M5.74623 59C5.67839 59 5.54271 59 5.47487 58.9322C5.20352 58.7967 5 58.5257 5 58.2547V32.103C5 28.1057 8.25628 24.9214 12.191 24.9214H23.2487C23.6558 24.9214 23.995 25.2601 23.995 25.6666C23.995 26.0731 23.6558 26.4119 23.2487 26.4119H12.191C9.07035 26.4119 6.49246 28.9864 6.49246 32.103V56.5609L11.4447 51.7506C11.5804 51.6151 11.7839 51.5474 11.9874 51.5474H34.3065C37.4271 51.5474 40.005 48.9729 40.005 45.8563V38.4038C40.005 37.9973 40.3442 37.6585 40.7513 37.6585C41.1583 37.6585 41.4975 37.9973 41.4975 38.4038V45.8563C41.4975 49.8536 38.2412 53.0379 34.3065 53.0379H12.2588L6.22111 58.7967C6.08543 58.9322 5.94975 59 5.74623 59Z" fill="#007CC3"/>
<path d="M51.7413 39.0813H29.6935C25.691 39.0813 22.5026 35.8293 22.5026 31.8997V18.2141C22.5026 14.2168 25.7588 11.0326 29.6935 11.0326H51.6734L57.7111 5.206C57.9146 5.00275 58.2538 4.93499 58.5252 5.0705C58.7965 5.206 59.0001 5.477 59.0001 5.748V31.9675C59.0001 35.8293 55.7438 39.0813 51.7413 39.0813ZM29.6935 12.4553C26.5729 12.4553 23.995 15.0298 23.995 18.1464V31.832C23.995 34.9485 26.5729 37.523 29.6935 37.523H51.7413C54.8619 37.523 57.4398 34.9485 57.4398 31.832V7.44177L52.4875 12.2521C52.3518 12.3876 52.1483 12.4553 51.9448 12.4553H29.6935Z" fill="#007CC3"/>
<path d="M35.3919 26.4798C36.0288 26.4798 36.5452 25.9641 36.5452 25.328C36.5452 24.6919 36.0288 24.1763 35.3919 24.1763C34.755 24.1763 34.2386 24.6919 34.2386 25.328C34.2386 25.9641 34.755 26.4798 35.3919 26.4798Z" fill="#007CC3"/>
<path d="M41.4295 26.4798C42.0664 26.4798 42.5828 25.9641 42.5828 25.328C42.5828 24.6919 42.0664 24.1763 41.4295 24.1763C40.7926 24.1763 40.2762 24.6919 40.2762 25.328C40.2762 25.9641 40.7926 26.4798 41.4295 26.4798Z" fill="#007CC3"/>
<path d="M47.5351 26.4798C48.172 26.4798 48.6884 25.9641 48.6884 25.328C48.6884 24.6919 48.172 24.1763 47.5351 24.1763C46.8982 24.1763 46.3818 24.6919 46.3818 25.328C46.3818 25.9641 46.8982 26.4798 47.5351 26.4798Z" fill="#007CC3"/>
</svg>
