<svg width="64" height="64" viewBox="0 0 64 64" fill="none" xmlns="http://www.w3.org/2000/svg">
<path d="M3.23082 21.58H4.55082V31.3H18.2308V21.58H19.5508V43H18.2308V32.44H4.55082V43H3.23082V21.58ZM40.0685 48.52V43H23.2985V48.52H22.0085V41.86H23.8985C24.6585 40.46 25.2485 39 25.6685 37.48C26.1085 35.94 26.4285 34.42 26.6285 32.92C26.8485 31.4 26.9785 29.93 27.0185 28.51C27.0785 27.07 27.1085 25.75 27.1085 24.55V21.58H39.1985V41.86H41.3585V48.52H40.0685ZM37.8785 22.72H28.4285V24.76C28.4285 25.96 28.3985 27.27 28.3385 28.69C28.2985 30.09 28.1685 31.54 27.9485 33.04C27.7485 34.52 27.4385 36.02 27.0185 37.54C26.6185 39.04 26.0585 40.48 25.3385 41.86H37.8785V22.72ZM42.6161 32.29C42.6161 30.73 42.8461 29.27 43.3061 27.91C43.7661 26.53 44.4261 25.34 45.2861 24.34C46.1661 23.32 47.2361 22.52 48.4961 21.94C49.7761 21.36 51.2161 21.07 52.8161 21.07C54.0761 21.07 55.1661 21.24 56.0861 21.58C57.0061 21.9 57.7761 22.31 58.3961 22.81C59.0361 23.29 59.5561 23.82 59.9561 24.4C60.3561 24.98 60.6561 25.53 60.8561 26.05C61.0761 26.55 61.2261 26.99 61.3061 27.37C61.3861 27.73 61.4261 27.93 61.4261 27.97H60.1061C59.9661 27.07 59.6761 26.27 59.2361 25.57C58.7961 24.85 58.2461 24.24 57.5861 23.74C56.9261 23.24 56.1861 22.86 55.3661 22.6C54.5661 22.34 53.7161 22.21 52.8161 22.21C51.4161 22.21 50.1661 22.48 49.0661 23.02C47.9661 23.56 47.0361 24.29 46.2761 25.21C45.5161 26.11 44.9361 27.17 44.5361 28.39C44.1361 29.61 43.9361 30.91 43.9361 32.29C43.9361 33.67 44.1361 34.97 44.5361 36.19C44.9361 37.41 45.5161 38.48 46.2761 39.4C47.0361 40.3 47.9661 41.02 49.0661 41.56C50.1661 42.1 51.4161 42.37 52.8161 42.37C53.8561 42.37 54.8261 42.16 55.7261 41.74C56.6461 41.3 57.4461 40.73 58.1261 40.03C58.8061 39.31 59.3461 38.49 59.7461 37.57C60.1661 36.63 60.4061 35.66 60.4661 34.66H61.7861C61.6661 35.94 61.3461 37.12 60.8261 38.2C60.3261 39.28 59.6761 40.22 58.8761 41.02C58.0961 41.8 57.1861 42.41 56.1461 42.85C55.1061 43.29 53.9961 43.51 52.8161 43.51C51.2161 43.51 49.7761 43.22 48.4961 42.64C47.2361 42.06 46.1661 41.27 45.2861 40.27C44.4261 39.25 43.7661 38.06 43.3061 36.7C42.8461 35.32 42.6161 33.85 42.6161 32.29Z" fill="#007CC3"/>
</svg>
