<svg width="66" height="66" viewBox="0 0 66 66" fill="none" xmlns="http://www.w3.org/2000/svg">
<path d="M37.6833 62.4002C36.6527 62.4002 35.6197 62.2607 34.6072 61.9795L18.3831 57.4818H14.0366C13.705 57.4818 13.4366 57.2135 13.4366 56.8818V41.3979C13.4366 41.0662 13.705 40.7979 14.0366 40.7979H20.5827C22.0048 40.7979 23.3876 41.3018 24.4763 42.217L27.5765 44.8221C28.4489 45.5557 29.5575 45.9588 30.6978 45.9588H40.1542C42.3081 45.9588 44.0601 47.7119 44.0601 49.8658C44.0601 50.5561 43.8802 51.2053 43.5644 51.7689C43.6786 51.7197 43.7923 51.6682 43.906 51.6143L57.7312 45.033C58.7167 44.5654 59.8142 44.6311 60.7411 45.217C61.78 45.8732 62.3999 47.0439 62.3999 48.3494C62.3999 49.7311 61.6939 50.9732 60.5566 51.5896L43.2521 60.9729C41.5101 61.9186 39.6017 62.4002 37.6833 62.4002ZM14.6366 56.2818H18.4646C18.5185 56.2818 18.5724 56.2889 18.6251 56.3041L34.9282 60.824C37.5222 61.5412 40.2755 61.2213 42.6802 59.9182L59.9847 50.535C60.723 50.1342 61.1999 49.2764 61.1999 48.3494C61.1999 47.4576 60.7886 46.6666 60.1001 46.2318C59.5294 45.8709 58.8532 45.8275 58.2468 46.1158L44.4216 52.6971C43.2667 53.2467 42.0591 53.5877 40.8187 53.7154C40.6031 53.7518 40.381 53.7717 40.1542 53.7717H33.0152C32.6835 53.7717 32.4152 53.5033 32.4152 53.1717C32.4152 52.84 32.6835 52.5717 33.0152 52.5717H39.7077C40.0247 52.5717 40.34 52.5564 40.6529 52.526C41.9073 52.2904 42.8601 51.1877 42.8601 49.8658C42.8601 48.3729 41.646 47.1588 40.1542 47.1588H30.6978C29.2757 47.1588 27.8929 46.6549 26.8042 45.7408L23.704 43.1357C22.8316 42.4021 21.723 41.9979 20.5827 41.9979H14.6366V56.2818Z" fill="#007CC3"/>
<path d="M14.0367 61.2751H4.19998C3.86833 61.2751 3.59998 61.0067 3.59998 60.6751C3.59998 60.3435 3.86833 60.0751 4.19998 60.0751H13.4367V38.2044H4.19998C3.86833 38.2044 3.59998 37.936 3.59998 37.6044C3.59998 37.2728 3.86833 37.0044 4.19998 37.0044H14.0367C14.3683 37.0044 14.6367 37.2728 14.6367 37.6044V60.6751C14.6367 61.0067 14.3683 61.2751 14.0367 61.2751Z" fill="#007CC3"/>
<path d="M59.8606 31.2001H22.6723C21.2719 31.2001 20.1328 30.061 20.1328 28.6618V6.13955C20.1328 4.73916 21.2719 3.6001 22.6723 3.6001H59.8606C61.261 3.6001 62.4 4.73916 62.4 6.13955V28.6618C62.4 30.061 61.261 31.2001 59.8606 31.2001ZM22.6723 4.8001C21.9334 4.8001 21.3328 5.40127 21.3328 6.13955V28.6618C21.3328 29.4001 21.9334 30.0001 22.6723 30.0001H59.8606C60.5994 30.0001 61.2 29.4001 61.2 28.6618V6.13955C61.2 5.40127 60.5994 4.8001 59.8606 4.8001H22.6723Z" fill="#007CC3"/>
<path d="M61.8 10.4417H20.7328C20.4012 10.4417 20.1328 10.1733 20.1328 9.8417C20.1328 9.51006 20.4012 9.2417 20.7328 9.2417H61.8C62.1317 9.2417 62.4 9.51006 62.4 9.8417C62.4 10.1733 62.1317 10.4417 61.8 10.4417Z" fill="#007CC3"/>
<path d="M61.8 16.7591H20.7328C20.4012 16.7591 20.1328 16.4907 20.1328 16.1591C20.1328 15.8274 20.4012 15.5591 20.7328 15.5591H61.8C62.1317 15.5591 62.4 15.8274 62.4 16.1591C62.4 16.4907 62.1317 16.7591 61.8 16.7591Z" fill="#007CC3"/>
<path d="M28.0664 27.0257H25.5844C25.2527 27.0257 24.9844 26.7573 24.9844 26.4257C24.9844 26.094 25.2527 25.8257 25.5844 25.8257H28.0664C28.398 25.8257 28.6664 26.094 28.6664 26.4257C28.6664 26.7573 28.398 27.0257 28.0664 27.0257Z" fill="#007CC3"/>
<path d="M33.8766 27.0257H31.3946C31.0629 27.0257 30.7946 26.7573 30.7946 26.4257C30.7946 26.094 31.0629 25.8257 31.3946 25.8257H33.8766C34.2082 25.8257 34.4766 26.094 34.4766 26.4257C34.4766 26.7573 34.2082 27.0257 33.8766 27.0257Z" fill="#007CC3"/>
</svg>
