<svg width="10" height="10" viewBox="0 0 10 10" fill="none" xmlns="http://www.w3.org/2000/svg">
<path d="M6.21809 1.66901L8.25244 3.71321L3.10329 8.88702L1.07012 6.84359L6.21809 1.66901ZM9.79597 1.17583L8.88876 0.264273C8.80541 0.180515 8.70633 0.114051 8.59721 0.0686988C8.48809 0.0233466 8.37109 0 8.25293 0C8.13477 0 8.01777 0.0233466 7.90865 0.0686988C7.79953 0.114051 7.70045 0.180515 7.6171 0.264273L6.74817 1.13754L8.78232 3.18175L9.79597 2.16316C9.92663 2.03209 10 1.85457 10 1.6695C10 1.48442 9.92663 1.3069 9.79597 1.17583ZM0.00568157 9.71693C-0.00298169 9.75535 -0.00172032 9.79535 0.00934686 9.83316C0.020414 9.87096 0.0409227 9.90533 0.0689406 9.93301C0.0969586 9.9607 0.131564 9.9808 0.169495 9.99141C0.207427 10.002 0.247437 10.0028 0.285756 9.99369L2.55252 9.44133L0.519346 7.39712L0.00568157 9.71693Z" fill="#858E93"/>
</svg>
