<svg width="56" height="56" viewBox="0 0 56 56" fill="none" xmlns="http://www.w3.org/2000/svg">
<path d="M10.3435 13.125L0 30.101L7.67558 34.7474L9.02565 32.5332L10.3805 33.5239C10.0716 33.9433 9.89293 34.4438 9.86656 34.9633C9.84018 35.4829 9.96728 35.9987 10.2321 36.4471C10.497 36.8954 10.888 37.2564 11.3567 37.4857C11.8255 37.715 12.3514 37.8024 12.8694 37.737C12.7699 38.2041 12.7984 38.6893 12.9519 39.1416C13.1054 39.594 13.3783 39.9969 13.742 40.3079C14.1057 40.619 14.5467 40.8269 15.0188 40.9097C15.4908 40.9925 15.9766 40.9471 16.425 40.7785C16.3949 41.2843 16.5104 41.7883 16.758 42.2309C17.0056 42.6736 17.375 43.0367 17.8226 43.2773C18.2703 43.518 18.7776 43.6263 19.285 43.5895C19.7923 43.5527 20.2785 43.3723 20.6865 43.0696C20.6913 43.5721 20.8388 44.0629 21.112 44.4853C21.3853 44.9078 21.773 45.2444 22.2304 45.4564C22.6877 45.6684 23.196 45.747 23.6963 45.6831C24.1967 45.6193 24.6687 45.4156 25.0576 45.0956L26.9148 43.5699C26.9148 43.5667 26.9148 43.5635 26.9148 43.5604L29.3787 45.3262C29.7537 45.5949 30.1966 45.7542 30.6574 45.7858C31.1183 45.8175 31.5789 45.7203 31.9874 45.5054C32.3958 45.2905 32.736 44.9663 32.9696 44.5693C33.2032 44.1723 33.3209 43.7182 33.3096 43.2582C33.7395 43.5184 34.2345 43.6523 34.7375 43.6446C35.2406 43.6369 35.7312 43.4877 36.1529 43.2144C36.5746 42.9411 36.9102 42.5547 37.1211 42.0997C37.3319 41.6447 37.4095 41.1398 37.3449 40.6428C37.7993 40.7771 38.2815 40.7885 38.7418 40.6758C39.2021 40.5632 39.6241 40.3305 39.9643 40.0017C40.3046 39.6729 40.5508 39.2599 40.6778 38.8049C40.8048 38.3499 40.8079 37.8696 40.6869 37.413C41.0656 37.4403 41.4457 37.384 41.8002 37.2483C42.1546 37.1127 42.4747 36.9009 42.7377 36.628C43.0007 36.3551 43.2001 36.0278 43.3217 35.6695C43.4433 35.3112 43.4842 34.9305 43.4414 34.5547L46.8555 31.4339L48.3793 33.8637L56 29.1232L46.1093 13.3508L38.4885 18.0915L39.5802 19.8327L36.4028 20.9892L31.8801 19.3794C31.3068 19.1758 30.6969 19.0943 30.0899 19.1404C29.483 19.1865 28.8925 19.359 28.3568 19.6468C26.3436 19.1731 24.2406 19.2373 22.2603 19.8328C20.3895 19.9968 18.5117 20.0662 16.6339 20.0408L18.0186 17.7696L10.3435 13.125ZM10.6755 14.4848L16.6526 18.1009L7.32916 33.3877L1.35151 29.7691L10.6755 14.4848ZM45.7927 14.7154L54.6292 28.8082L48.6968 32.5012L39.8579 18.4083L45.7927 14.7154ZM30.5613 20.1198C30.8973 20.1347 31.2292 20.1997 31.5457 20.3129L36.4091 22.0418L40.121 20.6894L46.3224 30.5793L43.0949 33.5292C42.9396 33.2684 42.7393 33.0369 42.5031 32.8455L31.1305 23.6491C29.9948 24.2896 28.7428 24.6991 27.447 24.8539C26.1512 25.0087 24.8375 24.9056 23.582 24.5507C23.4426 24.5118 23.3192 24.4299 23.2296 24.3167C23.14 24.2034 23.0888 24.0647 23.0834 23.9206C23.0781 23.7765 23.1188 23.6344 23.1998 23.5148C23.2807 23.3953 23.3977 23.3044 23.5338 23.2553C25.2966 22.6243 26.9698 21.7684 28.5117 20.7091C29.112 20.2959 29.8313 20.089 30.5604 20.1198H30.5613ZM25.6282 20.323C26.1323 20.3216 26.6359 20.3556 27.1352 20.4246C25.8943 21.1946 24.575 21.8314 23.1995 22.3244C22.8658 22.4444 22.579 22.6667 22.3803 22.9594C22.1815 23.2522 22.0811 23.6002 22.0933 23.9533C22.1056 24.3065 22.2301 24.6467 22.4487 24.925C22.6673 25.2033 22.9689 25.4053 23.3101 25.502C25.8728 26.2265 28.6135 25.9867 31.0102 24.8283L41.8757 33.6161C42.1896 33.8781 42.39 34.2504 42.4352 34.6559C42.4804 35.0613 42.3669 35.4685 42.1183 35.7927C41.8697 36.1169 41.5053 36.3332 41.1007 36.3965C40.6962 36.4597 40.2827 36.3652 39.9464 36.1324L31.8185 30.3144C31.7113 30.2391 31.5786 30.2091 31.4493 30.2308C31.3199 30.2526 31.2045 30.3245 31.1281 30.4306C31.0516 30.5368 31.0205 30.6688 31.0413 30.7978C31.0621 30.9268 31.1333 31.0424 31.2393 31.1194L39.0837 36.7343C39.4315 36.9978 39.6624 37.386 39.7271 37.8164C39.7919 38.2469 39.6854 38.6856 39.4304 39.0391C39.1754 39.3925 38.792 39.6329 38.3617 39.709C37.9315 39.7851 37.4885 39.6908 37.1269 39.4464L29.7198 34.1461C29.6127 34.0697 29.4794 34.0386 29.3494 34.06C29.2193 34.0814 29.1031 34.1534 29.0263 34.2601C28.9495 34.3668 28.9184 34.4995 28.9398 34.6291C28.9612 34.7587 29.0334 34.8745 29.1405 34.951L35.6773 39.6297C35.8625 39.7551 36.0207 39.9161 36.1425 40.1033C36.2642 40.2906 36.3471 40.5003 36.3862 40.72C36.4253 40.9397 36.4198 41.1649 36.3701 41.3824C36.3204 41.6 36.2275 41.8053 36.0967 41.9865C35.966 42.1677 35.8002 42.321 35.6091 42.4373C35.4179 42.5536 35.2053 42.6305 34.9838 42.6636C34.7624 42.6967 34.5365 42.6854 34.3195 42.6301C34.1025 42.5748 33.8988 42.4768 33.7205 42.3418L27.572 37.9429C27.465 37.8748 27.3358 37.8502 27.211 37.8741C27.0862 37.8979 26.9754 37.9685 26.9012 38.0712C26.827 38.174 26.7952 38.3011 26.8122 38.4265C26.8292 38.5519 26.8938 38.6661 26.9927 38.7455L31.6968 42.1139C32.0021 42.3489 32.2038 42.6928 32.2596 43.073C32.3154 43.4532 32.2208 43.8402 31.9958 44.1523C31.7708 44.4644 31.4329 44.6773 31.0534 44.7461C30.6739 44.815 30.2824 44.7344 29.9614 44.5213L27.547 42.7951C27.7969 42.3397 27.9076 41.8214 27.8655 41.304C27.8234 40.7867 27.6303 40.2928 27.31 39.8835C26.9897 39.4741 26.5562 39.167 26.0629 39C25.5696 38.833 25.038 38.8135 24.5336 38.9437C24.5795 38.5512 24.537 38.1533 24.4092 37.7791C24.2814 37.405 24.0715 37.0639 23.7948 36.7807C23.5181 36.4975 23.1815 36.2794 22.8096 36.142C22.4376 36.0045 22.0396 35.9513 21.6444 35.9863C21.7802 35.4427 21.7403 34.8703 21.5304 34.3506C21.3205 33.8309 20.9513 33.3905 20.4754 33.0921C19.9994 32.7938 19.4411 32.6528 18.88 32.689C18.3189 32.7253 17.7835 32.937 17.3503 33.2941L17.1723 33.4427C17.1666 32.941 17.0185 32.451 16.7453 32.0295C16.472 31.608 16.0846 31.2721 15.6279 31.0605C15.1712 30.8489 14.6637 30.7703 14.164 30.8338C13.6643 30.8972 13.1928 31.1001 12.804 31.4191L11.0931 32.8259L9.5318 31.6842L16.0387 21.0191C18.1791 21.0699 20.3208 20.9995 22.4532 20.8086C23.4821 20.4891 24.5534 20.3254 25.6311 20.3231L25.6282 20.323ZM14.3975 31.8104C14.4536 31.8076 14.5098 31.8076 14.5659 31.8104C14.9038 31.8248 15.2294 31.9406 15.5 32.1427C15.7706 32.3448 15.9735 32.6236 16.0822 32.9426C16.1908 33.2617 16.2001 33.606 16.1088 33.9304C16.0175 34.2548 15.8299 34.5439 15.5705 34.7602L13.5892 36.3875C13.2446 36.6523 12.8101 36.7732 12.3776 36.7247C11.9452 36.6762 11.5485 36.4622 11.2716 36.1278C10.9946 35.7933 10.859 35.3647 10.8934 34.9325C10.9278 34.5003 11.1295 34.0984 11.4559 33.8116L13.4348 32.1819C13.709 31.9599 14.0466 31.8299 14.3995 31.8104H14.3975ZM18.9674 33.6778C19.3193 33.6607 19.6677 33.7545 19.9631 33.9457C20.2586 34.137 20.486 34.4162 20.6132 34.7435C20.7403 35.0708 20.7608 35.4297 20.6716 35.7693C20.5824 36.1088 20.3881 36.4118 20.1163 36.6352L16.5381 39.5776C16.1947 39.8552 15.7551 39.9864 15.3151 39.9427C14.8751 39.899 14.4702 39.6838 14.1885 39.3442C13.9069 39.0045 13.7714 38.5679 13.8114 38.1291C13.8515 37.6904 14.0639 37.2852 14.4023 37.0017L17.9806 34.0592C18.2595 33.8293 18.6057 33.6955 18.9674 33.6778ZM21.7796 36.9745C22.1313 36.9556 22.48 37.0473 22.7763 37.2369C23.0726 37.4265 23.3015 37.7041 23.4305 38.0306C23.5595 38.357 23.582 38.7155 23.495 39.0555C23.4079 39.3954 23.2156 39.6993 22.9454 39.9243L20.1462 42.2277C19.8029 42.5098 19.3613 42.6444 18.9184 42.6022C18.4754 42.5599 18.0675 42.344 17.7843 42.0022C17.5011 41.6603 17.3659 41.2204 17.4083 40.7792C17.4507 40.338 17.6672 39.9316 18.0104 39.6494L20.8097 37.3485C21.085 37.1246 21.4247 36.9937 21.7796 36.9747V36.9745ZM25.2554 39.8599C25.5932 39.8736 25.9191 39.9886 26.1901 40.1901C26.4612 40.3915 26.6648 40.6698 26.7742 40.9885C26.8836 41.3073 26.8937 41.6516 26.8033 41.9761C26.7128 42.3007 26.5259 42.5905 26.2672 42.8074L24.4124 44.3331C24.0688 44.6084 23.6301 44.7377 23.1914 44.6932C22.7527 44.6487 22.3493 44.4338 22.0684 44.0951C21.7876 43.7564 21.652 43.3211 21.691 42.8836C21.7299 42.446 21.9403 42.0413 22.2766 41.7572L24.1343 40.2314C24.4061 40.0123 24.7398 39.8833 25.0889 39.8624C25.1449 39.8588 25.2011 39.858 25.2573 39.8599H25.2554Z" fill="#007CC3"/>
</svg>
