<svg width="24" height="24" viewBox="0 0 24 24" fill="none" xmlns="http://www.w3.org/2000/svg">
<path d="M11.9973 15.9985C14.2065 15.9985 15.9973 14.2077 15.9973 11.9985C15.9973 9.7894 14.2065 7.99854 11.9973 7.99854C9.78817 7.99854 7.99731 9.7894 7.99731 11.9985C7.99731 14.2077 9.78817 15.9985 11.9973 15.9985Z" fill="white"/>
<path d="M16.999 0H6.999C3.14 0 0 3.141 0 7.001V17.001C0 20.86 3.141 24 7.001 24H17.001C20.86 24 24 20.859 24 16.999V6.999C24 3.14 20.859 0 16.999 0ZM12 18C8.691 18 6 15.309 6 12C6 8.691 8.691 6 12 6C15.309 6 18 8.691 18 12C18 15.309 15.309 18 12 18ZM19 6C18.448 6 18 5.552 18 5C18 4.448 18.448 4 19 4C19.552 4 20 4.448 20 5C20 5.552 19.552 6 19 6Z" fill="white"/>
</svg>
