<svg width="64" height="64" viewBox="0 0 64 64" fill="none" xmlns="http://www.w3.org/2000/svg">
<mask id="path-1-inside-1" fill="white">
<path fill-rule="evenodd" clip-rule="evenodd" d="M47.0563 7.79382C42.2313 4.79382 36.5313 3.28757 30.8501 3.52507C25.9683 3.72649 21.1674 5.18662 17.0192 7.75295C16.9942 7.7646 16.9691 7.77817 16.9438 7.79377C13.2501 10.1063 10.1063 13.25 7.79385 16.9438C7.76979 16.9825 7.75116 17.0241 7.73772 17.0676C6.43779 19.1684 5.40797 21.4386 4.69384 23.8251C3.08134 29.2126 3.10634 35.0626 4.76884 40.4313C5.4769 42.7257 6.47808 44.911 7.73126 46.9385C7.74472 46.9819 7.76342 47.0237 7.78761 47.0626C10.1001 50.7563 13.2439 53.9001 16.9376 56.2126C16.9586 56.2256 16.9805 56.2371 17.0031 56.247C21.2408 58.8703 26.1625 60.3419 31.1501 60.4938C36.8001 60.6626 42.4688 59.1251 47.2438 56.0938C49.6172 54.5861 51.7501 52.7326 53.5754 50.6154C54.5383 49.5015 55.4169 48.3136 56.2001 47.0626C56.2046 47.0554 56.2089 47.0481 56.213 47.0406C56.2164 47.0344 56.2197 47.0282 56.2229 47.0219C56.2269 47.0139 56.2307 47.0058 56.2343 46.9976C57.1861 45.4658 57.9953 43.8426 58.6438 42.1501C60.6626 36.8813 61.0376 31.0188 59.7626 25.5251C59.0636 22.5047 57.8589 19.618 56.2304 16.9933C56.223 16.9785 56.215 16.9642 56.2063 16.9501C56.0614 16.7191 55.9133 16.4901 55.762 16.2633C54.3471 14.1296 52.6464 12.1841 50.7063 10.5001C49.5563 9.50007 48.3376 8.60007 47.0563 7.79382ZM45.7317 8.45602C44.8136 7.91925 43.8645 7.43496 42.8876 7.00632C37.9688 4.85007 32.3688 4.21882 27.0876 5.19382C23.9757 5.76752 20.9954 6.88282 18.2832 8.46438L18.8876 9.06877L24.0563 14.2375L27.0095 17.1906C28.9374 16.5433 30.9918 16.2683 33.0189 16.4063C34.2577 16.4902 35.4745 16.7201 36.646 17.0863C36.7611 17.1221 36.8757 17.1593 36.9898 17.1978L37.8938 16.2939L43.0626 11.1251L45.7317 8.45602ZM37.8245 18.8592C40.4697 20.0359 42.7194 22.0191 44.2397 24.4748C45.1866 26.0143 45.8418 27.7243 46.1626 29.5251C46.506 31.4466 46.4376 33.4458 45.9835 35.3493C45.8658 35.8276 45.7268 36.302 45.5666 36.7689C45.5486 36.8203 45.5303 36.8715 45.5117 36.9227C45.5058 36.9348 45.5002 36.9472 45.4949 36.9598C45.4901 36.971 45.4856 36.9823 45.4813 36.9938C44.2268 40.392 41.6632 43.2284 38.4387 44.855C36.0642 46.0398 33.3869 46.54 30.7376 46.3176C28.1414 46.0813 25.6685 45.1272 23.5874 43.6286C21.1821 41.8759 19.3138 39.3939 18.3552 36.5193C17.4666 33.8003 17.3926 30.8544 18.1689 28.0938C18.7191 26.1306 19.6909 24.3194 20.9904 22.7692C22.0752 21.4793 23.3828 20.3779 24.8464 19.5318C28.7746 17.293 33.669 17.0382 37.8245 18.8592ZM46.8107 27.002L49.7563 24.0564L54.9251 18.8876L55.5473 18.2654C56.2644 19.4884 56.8858 20.7685 57.4001 22.0938C59.3438 27.1188 59.7813 32.6876 58.6001 37.9501C57.983 40.7008 56.9407 43.3264 55.5309 45.7372L52.8688 43.0751L47.7001 37.9063L46.804 37.0102C47.831 33.9678 47.8996 30.6184 46.9814 27.5376C46.9277 27.358 46.8708 27.1794 46.8107 27.002ZM50.1013 11.6327C50.8185 12.271 51.5022 12.9467 52.1489 13.6558C53.1484 14.7543 54.0583 15.9288 54.8693 17.1746L51.9938 20.0501L46.8251 25.2189L46.3157 25.7282C45.3173 23.4586 43.7808 21.4272 41.8501 19.8688C40.7507 18.9822 39.5442 18.2516 38.2649 17.6916L40.8313 15.1251L46.0001 9.95637L46.8256 9.13088C47.98 9.88235 49.0731 10.7187 50.1013 11.6327ZM9.13439 46.822C11.2209 50.024 13.9701 52.7789 17.1748 54.8691L17.9939 54.0501L23.1626 48.8813L25.7205 46.3235C23.5974 45.39 21.6826 43.9841 20.1688 42.2251C19.1409 41.0315 18.3073 39.6978 17.6851 38.2713L17.1689 38.7876L12.0001 43.9563L9.13439 46.822ZM19.3188 56.1313C18.9624 55.943 18.6105 55.7468 18.2633 55.5431L20.9251 52.8813L26.0939 47.7126L26.9899 46.8165C27.3291 46.9313 27.6723 47.0343 28.0188 47.1251C30.9553 47.8893 34.1189 47.7871 36.9948 46.8136L39.9438 49.7626L45.1126 54.9313L45.7287 55.5475C42.4522 57.4573 38.7784 58.6849 35.0001 59.0938C29.6188 59.6751 24.1126 58.6563 19.3188 56.1313ZM16.4501 33.5876C16.5735 34.7556 16.824 35.8994 17.1945 36.9994L14.2376 39.9563L9.06886 45.1251L8.46067 45.7333C8.06792 45.064 7.7034 44.3773 7.36884 43.6751C5.06259 38.8313 4.24384 33.2751 5.04384 27.9751C5.56242 24.5447 6.73027 21.2466 8.46466 18.2708L11.1251 20.9313L16.2938 26.1L17.1941 27.0002C16.4828 29.1103 16.2178 31.3726 16.4501 33.5876ZM54.8636 46.8199C54.1157 47.973 53.2809 49.0709 52.3661 50.1027C50.7422 51.927 48.8773 53.5339 46.8256 54.8693L43.9501 51.9938L38.7813 46.8251L38.2712 46.315C38.5538 46.1897 38.8322 46.0563 39.1062 45.9151C39.1605 45.8875 39.2148 45.8596 39.2689 45.8313C42.0189 44.3938 44.3376 42.0938 45.7939 39.3501C45.9824 38.9966 46.1546 38.6358 46.3134 38.2697L48.8751 40.8313L54.0438 46.0001L54.8636 46.8199ZM15.1251 23.1688L17.685 25.7287C17.7449 25.5917 17.8067 25.4556 17.8705 25.3205C19.1428 22.6024 21.2409 20.2812 23.7876 18.7001C24.4088 18.3157 25.0579 17.9765 25.728 17.6841L25.2188 17.175L20.0501 12.0063L17.1842 9.14034C15.4428 10.2685 13.8267 11.5957 12.3751 13.1001C11.1615 14.3562 10.0782 15.724 9.13566 17.1793L9.95635 18L15.1251 23.1688Z"/>
</mask>
<path fill-rule="evenodd" clip-rule="evenodd" d="M47.0563 7.79382C42.2313 4.79382 36.5313 3.28757 30.8501 3.52507C25.9683 3.72649 21.1674 5.18662 17.0192 7.75295C16.9942 7.7646 16.9691 7.77817 16.9438 7.79377C13.2501 10.1063 10.1063 13.25 7.79385 16.9438C7.76979 16.9825 7.75116 17.0241 7.73772 17.0676C6.43779 19.1684 5.40797 21.4386 4.69384 23.8251C3.08134 29.2126 3.10634 35.0626 4.76884 40.4313C5.4769 42.7257 6.47808 44.911 7.73126 46.9385C7.74472 46.9819 7.76342 47.0237 7.78761 47.0626C10.1001 50.7563 13.2439 53.9001 16.9376 56.2126C16.9586 56.2256 16.9805 56.2371 17.0031 56.247C21.2408 58.8703 26.1625 60.3419 31.1501 60.4938C36.8001 60.6626 42.4688 59.1251 47.2438 56.0938C49.6172 54.5861 51.7501 52.7326 53.5754 50.6154C54.5383 49.5015 55.4169 48.3136 56.2001 47.0626C56.2046 47.0554 56.2089 47.0481 56.213 47.0406C56.2164 47.0344 56.2197 47.0282 56.2229 47.0219C56.2269 47.0139 56.2307 47.0058 56.2343 46.9976C57.1861 45.4658 57.9953 43.8426 58.6438 42.1501C60.6626 36.8813 61.0376 31.0188 59.7626 25.5251C59.0636 22.5047 57.8589 19.618 56.2304 16.9933C56.223 16.9785 56.215 16.9642 56.2063 16.9501C56.0614 16.7191 55.9133 16.4901 55.762 16.2633C54.3471 14.1296 52.6464 12.1841 50.7063 10.5001C49.5563 9.50007 48.3376 8.60007 47.0563 7.79382ZM45.7317 8.45602C44.8136 7.91925 43.8645 7.43496 42.8876 7.00632C37.9688 4.85007 32.3688 4.21882 27.0876 5.19382C23.9757 5.76752 20.9954 6.88282 18.2832 8.46438L18.8876 9.06877L24.0563 14.2375L27.0095 17.1906C28.9374 16.5433 30.9918 16.2683 33.0189 16.4063C34.2577 16.4902 35.4745 16.7201 36.646 17.0863C36.7611 17.1221 36.8757 17.1593 36.9898 17.1978L37.8938 16.2939L43.0626 11.1251L45.7317 8.45602ZM37.8245 18.8592C40.4697 20.0359 42.7194 22.0191 44.2397 24.4748C45.1866 26.0143 45.8418 27.7243 46.1626 29.5251C46.506 31.4466 46.4376 33.4458 45.9835 35.3493C45.8658 35.8276 45.7268 36.302 45.5666 36.7689C45.5486 36.8203 45.5303 36.8715 45.5117 36.9227C45.5058 36.9348 45.5002 36.9472 45.4949 36.9598C45.4901 36.971 45.4856 36.9823 45.4813 36.9938C44.2268 40.392 41.6632 43.2284 38.4387 44.855C36.0642 46.0398 33.3869 46.54 30.7376 46.3176C28.1414 46.0813 25.6685 45.1272 23.5874 43.6286C21.1821 41.8759 19.3138 39.3939 18.3552 36.5193C17.4666 33.8003 17.3926 30.8544 18.1689 28.0938C18.7191 26.1306 19.6909 24.3194 20.9904 22.7692C22.0752 21.4793 23.3828 20.3779 24.8464 19.5318C28.7746 17.293 33.669 17.0382 37.8245 18.8592ZM46.8107 27.002L49.7563 24.0564L54.9251 18.8876L55.5473 18.2654C56.2644 19.4884 56.8858 20.7685 57.4001 22.0938C59.3438 27.1188 59.7813 32.6876 58.6001 37.9501C57.983 40.7008 56.9407 43.3264 55.5309 45.7372L52.8688 43.0751L47.7001 37.9063L46.804 37.0102C47.831 33.9678 47.8996 30.6184 46.9814 27.5376C46.9277 27.358 46.8708 27.1794 46.8107 27.002ZM50.1013 11.6327C50.8185 12.271 51.5022 12.9467 52.1489 13.6558C53.1484 14.7543 54.0583 15.9288 54.8693 17.1746L51.9938 20.0501L46.8251 25.2189L46.3157 25.7282C45.3173 23.4586 43.7808 21.4272 41.8501 19.8688C40.7507 18.9822 39.5442 18.2516 38.2649 17.6916L40.8313 15.1251L46.0001 9.95637L46.8256 9.13088C47.98 9.88235 49.0731 10.7187 50.1013 11.6327ZM9.13439 46.822C11.2209 50.024 13.9701 52.7789 17.1748 54.8691L17.9939 54.0501L23.1626 48.8813L25.7205 46.3235C23.5974 45.39 21.6826 43.9841 20.1688 42.2251C19.1409 41.0315 18.3073 39.6978 17.6851 38.2713L17.1689 38.7876L12.0001 43.9563L9.13439 46.822ZM19.3188 56.1313C18.9624 55.943 18.6105 55.7468 18.2633 55.5431L20.9251 52.8813L26.0939 47.7126L26.9899 46.8165C27.3291 46.9313 27.6723 47.0343 28.0188 47.1251C30.9553 47.8893 34.1189 47.7871 36.9948 46.8136L39.9438 49.7626L45.1126 54.9313L45.7287 55.5475C42.4522 57.4573 38.7784 58.6849 35.0001 59.0938C29.6188 59.6751 24.1126 58.6563 19.3188 56.1313ZM16.4501 33.5876C16.5735 34.7556 16.824 35.8994 17.1945 36.9994L14.2376 39.9563L9.06886 45.1251L8.46067 45.7333C8.06792 45.064 7.7034 44.3773 7.36884 43.6751C5.06259 38.8313 4.24384 33.2751 5.04384 27.9751C5.56242 24.5447 6.73027 21.2466 8.46466 18.2708L11.1251 20.9313L16.2938 26.1L17.1941 27.0002C16.4828 29.1103 16.2178 31.3726 16.4501 33.5876ZM54.8636 46.8199C54.1157 47.973 53.2809 49.0709 52.3661 50.1027C50.7422 51.927 48.8773 53.5339 46.8256 54.8693L43.9501 51.9938L38.7813 46.8251L38.2712 46.315C38.5538 46.1897 38.8322 46.0563 39.1062 45.9151C39.1605 45.8875 39.2148 45.8596 39.2689 45.8313C42.0189 44.3938 44.3376 42.0938 45.7939 39.3501C45.9824 38.9966 46.1546 38.6358 46.3134 38.2697L48.8751 40.8313L54.0438 46.0001L54.8636 46.8199ZM15.1251 23.1688L17.685 25.7287C17.7449 25.5917 17.8067 25.4556 17.8705 25.3205C19.1428 22.6024 21.2409 20.2812 23.7876 18.7001C24.4088 18.3157 25.0579 17.9765 25.728 17.6841L25.2188 17.175L20.0501 12.0063L17.1842 9.14034C15.4428 10.2685 13.8267 11.5957 12.3751 13.1001C11.1615 14.3562 10.0782 15.724 9.13566 17.1793L9.95635 18L15.1251 23.1688Z" fill="#007CC3"/>
<path d="M30.8501 3.52507L30.8583 3.7249L30.8584 3.7249L30.8501 3.52507ZM47.0563 7.79382L47.1629 7.62455L47.1619 7.62398L47.0563 7.79382ZM17.0192 7.75295L17.1037 7.93424L17.1144 7.92925L17.1245 7.92303L17.0192 7.75295ZM16.9438 7.79377L16.8387 7.62364L16.8377 7.62425L16.9438 7.79377ZM7.79385 16.9438L7.62433 16.8376L7.62399 16.8382L7.79385 16.9438ZM7.73772 17.0676L7.9078 17.1728L7.92124 17.1511L7.92879 17.1267L7.73772 17.0676ZM4.69384 23.8251L4.88544 23.8824L4.88545 23.8824L4.69384 23.8251ZM4.76884 40.4313L4.95995 40.3723L4.95989 40.3722L4.76884 40.4313ZM7.73126 46.9385L7.92231 46.8793L7.91478 46.855L7.90139 46.8333L7.73126 46.9385ZM7.78761 47.0626L7.61775 47.1682L7.61809 47.1687L7.78761 47.0626ZM16.9376 56.2126L16.8315 56.3821L16.832 56.3824L16.9376 56.2126ZM17.0031 56.247L17.1084 56.0769L17.0964 56.0695L17.0834 56.0638L17.0031 56.247ZM31.1501 60.4938L31.144 60.6937L31.1441 60.6937L31.1501 60.4938ZM47.2438 56.0938L47.351 56.2627L47.3511 56.2626L47.2438 56.0938ZM53.5754 50.6154L53.4241 50.4846L53.4239 50.4848L53.5754 50.6154ZM56.2001 47.0626L56.3696 47.1687L56.3699 47.1682L56.2001 47.0626ZM56.213 47.0406L56.3879 47.1376L56.3879 47.1376L56.213 47.0406ZM56.2229 47.0219L56.4016 47.1116L56.4016 47.1115L56.2229 47.0219ZM56.2343 46.9976L56.0644 46.892L56.0569 46.9041L56.0512 46.9171L56.2343 46.9976ZM58.6438 42.1501L58.8306 42.2216V42.2216L58.6438 42.1501ZM59.7626 25.5251L59.5677 25.5702L59.5678 25.5703L59.7626 25.5251ZM56.2304 16.9933L56.0512 17.0822L56.0554 17.0907L56.0604 17.0987L56.2304 16.9933ZM56.2063 16.9501L56.3762 16.8445L56.3758 16.8439L56.2063 16.9501ZM55.762 16.2633L55.5953 16.3738L55.5956 16.3742L55.762 16.2633ZM50.7063 10.5001L50.5751 10.651L50.5752 10.6511L50.7063 10.5001ZM42.8876 7.00632L42.968 6.82318L42.9679 6.82315L42.8876 7.00632ZM45.7317 8.45602L45.8731 8.59744L46.0564 8.41418L45.8326 8.28336L45.7317 8.45602ZM27.0876 5.19382L27.1239 5.39051L27.1239 5.3905L27.0876 5.19382ZM18.2832 8.46438L18.1825 8.29161L17.9583 8.42233L18.1418 8.60581L18.2832 8.46438ZM18.8876 9.06877L19.029 8.92734L18.8876 9.06877ZM24.0563 14.2375L23.9149 14.3789L24.0563 14.2375ZM27.0095 17.1906L26.868 17.3321L26.9557 17.4197L27.0731 17.3802L27.0095 17.1906ZM33.0189 16.4063L33.0053 16.6059L33.0053 16.6059L33.0189 16.4063ZM36.646 17.0863L36.5864 17.2772L36.5866 17.2773L36.646 17.0863ZM36.9898 17.1978L36.9259 17.3873L37.0435 17.4271L37.1313 17.3393L36.9898 17.1978ZM37.8938 16.2939L37.7524 16.1525L37.8938 16.2939ZM43.0626 11.1251L43.204 11.2665L43.0626 11.1251ZM37.8245 18.8592L37.9058 18.6765L37.9048 18.676L37.8245 18.8592ZM44.2397 24.4748L44.41 24.3701L44.4097 24.3696L44.2397 24.4748ZM46.1626 29.5251L45.9657 29.5601L45.9657 29.5602L46.1626 29.5251ZM45.9835 35.3493L46.1777 35.3971L46.178 35.3957L45.9835 35.3493ZM45.5666 36.7689L45.7554 36.8351L45.7558 36.8338L45.5666 36.7689ZM45.5117 36.9227L45.6917 37.0097L45.6962 37.0006L45.6996 36.9911L45.5117 36.9227ZM45.4949 36.9598L45.679 37.0378L45.679 37.0378L45.4949 36.9598ZM45.4813 36.9938L45.2939 36.924L45.2937 36.9246L45.4813 36.9938ZM38.4387 44.855L38.528 45.034L38.5287 45.0336L38.4387 44.855ZM30.7376 46.3176L30.7195 46.5168L30.7209 46.5169L30.7376 46.3176ZM23.5874 43.6286L23.4696 43.7903L23.4705 43.7909L23.5874 43.6286ZM18.3552 36.5193L18.1651 36.5814L18.1654 36.5826L18.3552 36.5193ZM18.1689 28.0938L18.3614 28.148L18.3614 28.1478L18.1689 28.0938ZM20.9904 22.7692L20.8374 22.6404L20.8372 22.6407L20.9904 22.7692ZM24.8464 19.5318L24.7474 19.358L24.7463 19.3586L24.8464 19.5318ZM46.8107 27.002L46.6693 26.8605L46.5814 26.9484L46.6213 27.0661L46.8107 27.002ZM49.7563 24.0564L49.6149 23.9149V23.915L49.7563 24.0564ZM54.9251 18.8876L55.0665 19.029L54.9251 18.8876ZM55.5473 18.2654L55.7198 18.1642L55.5889 17.9409L55.4059 18.124L55.5473 18.2654ZM57.4001 22.0938L57.5866 22.0217L57.5866 22.0215L57.4001 22.0938ZM58.6001 37.9501L58.405 37.9063L58.4049 37.9063L58.6001 37.9501ZM55.5309 45.7372L55.3895 45.8786L55.5727 46.0618L55.7035 45.8381L55.5309 45.7372ZM46.804 37.0102L46.6145 36.9463L46.5748 37.0639L46.6625 37.1517L46.804 37.0102ZM46.9814 27.5376L47.173 27.4804L47.173 27.4804L46.9814 27.5376ZM50.1013 11.6327L50.2343 11.4833L50.2342 11.4832L50.1013 11.6327ZM52.1489 13.6558L52.2968 13.5212L52.2967 13.521L52.1489 13.6558ZM54.8693 17.1746L55.0107 17.316L55.1254 17.2014L55.0369 17.0655L54.8693 17.1746ZM51.9938 20.0501L52.1352 20.1915L51.9938 20.0501ZM46.8251 25.2189L46.6836 25.0774V25.0775L46.8251 25.2189ZM46.3157 25.7282L46.1327 25.8087L46.2504 26.0764L46.4572 25.8696L46.3157 25.7282ZM41.8501 19.8688L41.9757 19.7132L41.9757 19.7131L41.8501 19.8688ZM38.2649 17.6916L38.1234 17.5501L37.9163 17.7573L38.1847 17.8748L38.2649 17.6916ZM40.8313 15.1251L40.6899 14.9837L40.8313 15.1251ZM46.0001 9.95637L45.8586 9.81495L46.0001 9.95637ZM46.8256 9.13088L46.9347 8.96326L46.7988 8.87481L46.6841 8.98945L46.8256 9.13088ZM17.1748 54.8691L17.0656 55.0366L17.2015 55.1253L17.3162 55.0105L17.1748 54.8691ZM9.13439 46.822L8.99297 46.6806L8.87826 46.7953L8.96683 46.9312L9.13439 46.822ZM17.9939 54.0501L17.8524 53.9086L17.9939 54.0501ZM23.1626 48.8813L23.0212 48.7399H23.0212L23.1626 48.8813ZM25.7205 46.3235L25.8619 46.4649L26.0687 46.2581L25.801 46.1404L25.7205 46.3235ZM20.1688 42.2251L20.3204 42.0946L20.3204 42.0945L20.1688 42.2251ZM17.6851 38.2713L17.8684 38.1914L17.7511 37.9225L17.5437 38.1299L17.6851 38.2713ZM17.1689 38.7876L17.0274 38.6461L17.1689 38.7876ZM12.0001 43.9563L11.8587 43.8149L12.0001 43.9563ZM18.2633 55.5431L18.1219 55.4017L17.939 55.5846L18.1621 55.7156L18.2633 55.5431ZM19.3188 56.1313L19.2254 56.3082L19.2256 56.3083L19.3188 56.1313ZM20.9251 52.8813L21.0665 53.0227L20.9251 52.8813ZM26.0939 47.7126L26.2353 47.854H26.2353L26.0939 47.7126ZM26.9899 46.8165L27.0541 46.6271L26.9364 46.5872L26.8485 46.6751L26.9899 46.8165ZM28.0188 47.1251L27.9682 47.3185L27.9685 47.3186L28.0188 47.1251ZM36.9948 46.8136L37.1362 46.6721L37.0484 46.5843L36.9307 46.6241L36.9948 46.8136ZM39.9438 49.7626L39.8024 49.904L39.9438 49.7626ZM45.1126 54.9313L44.9711 55.0728L45.1126 54.9313ZM45.7287 55.5475L45.8294 55.7203L46.0536 55.5896L45.8701 55.4061L45.7287 55.5475ZM35.0001 59.0938L35.0216 59.2927L35.0216 59.2927L35.0001 59.0938ZM17.1945 36.9994L17.336 37.1408L17.4237 37.0531L17.3841 36.9355L17.1945 36.9994ZM16.4501 33.5876L16.2512 33.6084L16.2512 33.6086L16.4501 33.5876ZM14.2376 39.9563L14.0962 39.8149L14.2376 39.9563ZM9.06886 45.1251L8.92744 44.9836L9.06886 45.1251ZM8.46067 45.7333L8.28817 45.8345L8.41913 46.0576L8.60209 45.8747L8.46067 45.7333ZM7.36884 43.6751L7.18827 43.761L7.18828 43.7611L7.36884 43.6751ZM5.04384 27.9751L4.84609 27.9452L4.84608 27.9452L5.04384 27.9751ZM8.46466 18.2708L8.60608 18.1294L8.42256 17.9459L8.29187 18.1701L8.46466 18.2708ZM11.1251 20.9313L10.9837 21.0727L11.1251 20.9313ZM16.2938 26.1L16.4353 25.9586L16.2938 26.1ZM17.1941 27.0002L17.3836 27.0641L17.4232 26.9465L17.3355 26.8588L17.1941 27.0002ZM52.3661 50.1027L52.5155 50.2357L52.5158 50.2354L52.3661 50.1027ZM54.8636 46.8199L55.0314 46.9287L55.1195 46.7929L55.0051 46.6785L54.8636 46.8199ZM46.8256 54.8693L46.6842 55.0108L46.7988 55.1254L46.9347 55.037L46.8256 54.8693ZM43.9501 51.9938L43.8086 52.1353L43.9501 51.9938ZM38.7813 46.8251L38.6399 46.9665L38.7813 46.8251ZM38.2712 46.315L38.1901 46.1322L37.9237 46.2503L38.1298 46.4564L38.2712 46.315ZM39.1062 45.9151L39.0157 45.7367L39.0146 45.7373L39.1062 45.9151ZM39.2689 45.8313L39.3615 46.0086L39.3615 46.0086L39.2689 45.8313ZM45.7939 39.3501L45.6174 39.256L45.6172 39.2563L45.7939 39.3501ZM46.3134 38.2697L46.4549 38.1283L46.247 37.9204L46.13 38.1901L46.3134 38.2697ZM48.8751 40.8313L48.7336 40.9728L48.8751 40.8313ZM54.0438 46.0001L54.1852 45.8587L54.0438 46.0001ZM17.685 25.7287L17.5436 25.8701L17.7509 26.0774L17.8683 25.8088L17.685 25.7287ZM15.1251 23.1688L14.9837 23.3102L15.1251 23.1688ZM17.8705 25.3205L18.0514 25.4058L18.0516 25.4053L17.8705 25.3205ZM23.7876 18.7001L23.6824 18.53L23.6821 18.5302L23.7876 18.7001ZM25.728 17.6841L25.8079 17.8674L26.0768 17.7501L25.8694 17.5427L25.728 17.6841ZM25.2188 17.175L25.3603 17.0336L25.2188 17.175ZM20.0501 12.0063L19.9087 12.1477L20.0501 12.0063ZM17.1842 9.14034L17.3256 8.99892L17.2112 8.88452L17.0754 8.97249L17.1842 9.14034ZM12.3751 13.1001L12.5189 13.239L12.519 13.2389L12.3751 13.1001ZM9.13566 17.1793L8.96779 17.0706L8.87986 17.2064L8.99424 17.3208L9.13566 17.1793ZM9.95635 18L10.0978 17.8586L9.95635 18ZM30.8584 3.7249C36.4994 3.48908 42.1597 4.9848 46.9507 7.96367L47.1619 7.62398C42.303 4.60284 36.5633 3.08606 30.8417 3.32525L30.8584 3.7249ZM17.1245 7.92303C21.243 5.37498 26.0105 3.92492 30.8583 3.7249L30.8419 3.32524C25.926 3.52807 21.0917 4.99826 16.914 7.58287L17.1245 7.92303ZM17.049 7.96388C17.0678 7.95226 17.0861 7.94246 17.1037 7.93424L16.9348 7.57166C16.9024 7.58674 16.8704 7.60407 16.8387 7.62365L17.049 7.96388ZM7.96337 17.0499C10.2598 13.3818 13.3819 10.2597 17.05 7.96328L16.8377 7.62425C13.1183 9.95281 9.95289 13.1182 7.62433 16.8376L7.96337 17.0499ZM7.92879 17.1267C7.93748 17.0986 7.94921 17.0727 7.9637 17.0494L7.62399 16.8382C7.59037 16.8923 7.56484 16.9497 7.54665 17.0085L7.92879 17.1267ZM4.88545 23.8824C5.59442 21.5132 6.61691 19.259 7.9078 17.1728L7.56765 16.9623C6.25867 19.0777 5.22152 21.3641 4.50224 23.7677L4.88545 23.8824ZM4.95989 40.3722C3.30916 35.0414 3.2843 29.232 4.88544 23.8824L4.50224 23.7677C2.87838 29.1932 2.90353 35.0837 4.57779 40.4905L4.95989 40.3722ZM7.90139 46.8333C6.65694 44.82 5.66289 42.6502 4.95995 40.3723L4.57773 40.4903C5.2909 42.8013 6.29922 45.0021 7.56114 47.0436L7.90139 46.8333ZM7.95746 46.957C7.94276 46.9333 7.93098 46.9073 7.92231 46.8793L7.54022 46.9977C7.55846 47.0565 7.58408 47.114 7.61775 47.1682L7.95746 46.957ZM17.0437 56.043C13.3756 53.7466 10.2536 50.6245 7.95713 46.9564L7.61809 47.1687C9.94665 50.8881 13.1121 54.0535 16.8315 56.3821L17.0437 56.043ZM17.0834 56.0638C17.0693 56.0576 17.0559 56.0506 17.0432 56.0427L16.832 56.3824C16.8614 56.4007 16.8918 56.4166 16.9228 56.4302L17.0834 56.0638ZM31.1562 60.2939C26.2034 60.143 21.316 58.6816 17.1084 56.0769L16.8979 56.4171C21.1657 59.059 26.1216 60.5407 31.144 60.6937L31.1562 60.2939ZM47.1367 55.925C42.3958 58.9346 36.7665 60.4615 31.1561 60.2939L31.1441 60.6937C36.8337 60.8637 42.5419 59.3156 47.351 56.2627L47.1367 55.925ZM53.4239 50.4848C51.6112 52.5874 49.4932 54.4279 47.1366 55.925L47.3511 56.2626C49.7413 54.7442 51.889 52.8778 53.7269 50.746L53.4239 50.4848ZM56.0306 46.9565C55.2528 48.1987 54.3804 49.3784 53.4241 50.4846L53.7267 50.7462C54.6963 49.6246 55.5809 48.4285 56.3696 47.1687L56.0306 46.9565ZM56.038 46.9437C56.0355 46.9482 56.0329 46.9527 56.0302 46.957L56.3699 47.1682C56.3762 47.1581 56.3822 47.1479 56.3879 47.1376L56.038 46.9437ZM56.0441 46.9321C56.0422 46.936 56.0401 46.9399 56.038 46.9437L56.3879 47.1376C56.3926 47.129 56.3972 47.1203 56.4016 47.1116L56.0441 46.9321ZM56.0512 46.9171C56.0489 46.9222 56.0466 46.9272 56.0441 46.9322L56.4016 47.1115C56.4072 47.1005 56.4124 47.0894 56.4174 47.0781L56.0512 46.9171ZM58.4571 42.0785C57.8131 43.7591 57.0096 45.3708 56.0644 46.892L56.4042 47.1032C57.3626 45.5607 58.1774 43.9262 58.8306 42.2216L58.4571 42.0785ZM59.5678 25.5703C60.8339 31.0259 60.4613 36.8477 58.4571 42.0785L58.8306 42.2216C60.8639 36.915 61.2413 31.0118 59.9574 25.4799L59.5678 25.5703ZM56.0604 17.0987C57.6777 19.7052 58.8738 22.5716 59.5677 25.5702L59.9575 25.48C59.2534 22.4378 58.0401 19.5307 56.4003 16.8878L56.0604 17.0987ZM56.4095 16.9043C56.3994 16.884 56.3883 16.8641 56.3762 16.8445L56.0365 17.0557C56.0418 17.0643 56.0467 17.0731 56.0512 17.0822L56.4095 16.9043ZM56.3758 16.8439C56.2299 16.6112 56.0807 16.3807 55.9284 16.1523L55.5956 16.3742C55.7459 16.5995 55.893 16.8269 56.0369 17.0564L56.3758 16.8439ZM50.5752 10.6511C52.5014 12.3231 54.1903 14.2549 55.5953 16.3738L55.9287 16.1527C54.504 14.0042 52.7913 12.0451 50.8375 10.349L50.5752 10.6511ZM46.9498 7.9631C48.2226 8.76404 49.4331 9.65794 50.5751 10.651L50.8376 10.3492C49.6796 9.3422 48.4525 8.4361 47.1629 7.62455L46.9498 7.9631ZM42.8072 7.18947C43.777 7.61499 44.7192 8.09577 45.6307 8.62868L45.8326 8.28336C44.9079 7.74274 43.952 7.25494 42.968 6.82318L42.8072 7.18947ZM27.1239 5.3905C32.3662 4.42268 37.9256 5.04949 42.8073 7.18949L42.9679 6.82315C38.0121 4.65066 32.3714 4.01496 27.0513 4.99715L27.1239 5.3905ZM18.384 8.63715C21.0764 7.06706 24.035 5.95996 27.1239 5.39051L27.0513 4.99714C23.9164 5.57508 20.9143 6.69857 18.1825 8.29161L18.384 8.63715ZM19.029 8.92734L18.4246 8.32296L18.1418 8.60581L18.7462 9.21019L19.029 8.92734ZM24.1978 14.0961L19.029 8.92734L18.7462 9.21019L23.9149 14.3789L24.1978 14.0961ZM27.1509 17.0492L24.1978 14.0961L23.9149 14.3789L26.868 17.3321L27.1509 17.0492ZM33.0324 16.2068C30.9785 16.0669 28.8979 16.3456 26.9458 17.001L27.0731 17.3802C28.9769 16.741 31.0051 16.4697 33.0053 16.6059L33.0324 16.2068ZM36.7057 16.8954C35.5193 16.5246 34.287 16.2917 33.0324 16.2068L33.0053 16.6059C34.2284 16.6887 35.4297 16.9157 36.5864 17.2772L36.7057 16.8954ZM37.0538 17.0084C36.9382 16.9693 36.8221 16.9316 36.7055 16.8953L36.5866 17.2773C36.7001 17.3126 36.8132 17.3493 36.9259 17.3873L37.0538 17.0084ZM37.7524 16.1525L36.8484 17.0564L37.1313 17.3393L38.0352 16.4353L37.7524 16.1525ZM42.9211 10.9837L37.7524 16.1525L38.0352 16.4353L43.204 11.2665L42.9211 10.9837ZM45.5903 8.3146L42.9211 10.9837L43.204 11.2665L45.8731 8.59744L45.5903 8.3146ZM37.7433 19.0419C40.3512 20.2021 42.5701 22.1579 44.0696 24.5801L44.4097 24.3696C42.8686 21.8802 40.5883 19.8698 37.9058 18.6765L37.7433 19.0419ZM44.0693 24.5796C45.0032 26.0978 45.6494 27.7842 45.9657 29.5601L46.3595 29.49C46.0343 27.6644 45.37 25.9307 44.41 24.3701L44.0693 24.5796ZM45.9657 29.5602C46.3042 31.454 46.2368 33.4253 45.789 35.3029L46.178 35.3957C46.6383 33.4662 46.7079 31.4393 46.3595 29.4899L45.9657 29.5602ZM45.7893 35.3015C45.673 35.7742 45.5357 36.2428 45.3775 36.704L45.7558 36.8338C45.918 36.3611 46.0586 35.8811 46.1777 35.3971L45.7893 35.3015ZM45.3779 36.7027C45.3601 36.7533 45.3421 36.8039 45.3237 36.8543L45.6996 36.9911C45.7185 36.9392 45.7371 36.8872 45.7554 36.8351L45.3779 36.7027ZM45.3316 36.8356C45.3243 36.8508 45.3173 36.8662 45.3107 36.8818L45.679 37.0378C45.6831 37.0283 45.6873 37.0189 45.6917 37.0097L45.3316 36.8356ZM45.3107 36.8818C45.3048 36.8957 45.2992 36.9098 45.2939 36.924L45.6687 37.0637C45.672 37.0549 45.6754 37.0463 45.679 37.0378L45.3107 36.8818ZM45.2937 36.9246C44.057 40.2744 41.5288 43.0722 38.3486 44.6765L38.5287 45.0336C41.7977 43.3846 44.3966 40.5095 45.6689 37.0631L45.2937 36.9246ZM38.3494 44.6761C36.0084 45.8442 33.3679 46.3377 30.7543 46.1183L30.7209 46.5169C33.406 46.7423 36.1201 46.2355 38.528 45.034L38.3494 44.6761ZM30.7557 46.1184C28.1964 45.8854 25.7574 44.9447 23.7042 43.4663L23.4705 43.7909C25.5796 45.3096 28.0864 46.2771 30.7195 46.5168L30.7557 46.1184ZM23.7052 43.467C21.3322 41.7378 19.4899 39.2896 18.5449 36.456L18.1654 36.5826C19.1378 39.4982 21.032 42.014 23.4696 43.7903L23.7052 43.467ZM18.5453 36.4572C17.6688 33.7753 17.596 30.8699 18.3614 28.148L17.9763 28.0397C17.1892 30.839 17.2644 33.8253 18.1651 36.5814L18.5453 36.4572ZM18.3614 28.1478C18.9038 26.2128 19.8619 24.4268 21.1437 22.8976L20.8372 22.6407C19.5199 24.212 18.5344 26.0485 17.9763 28.0398L18.3614 28.1478ZM21.1435 22.8979C22.2135 21.6256 23.5032 20.5393 24.9465 19.7049L24.7463 19.3586C23.2624 20.2165 21.9369 21.333 20.8374 22.6404L21.1435 22.8979ZM24.9454 19.7055C28.8186 17.4981 33.6464 17.2466 37.7443 19.0424L37.9048 18.676C33.6915 16.8297 28.7307 17.0878 24.7474 19.358L24.9454 19.7055ZM46.9522 27.1434L49.8977 24.1978L49.6149 23.915L46.6693 26.8605L46.9522 27.1434ZM49.8977 24.1978L55.0665 19.029L54.7836 18.7462L49.6149 23.9149L49.8977 24.1978ZM55.0665 19.029L55.6887 18.4068L55.4059 18.124L54.7836 18.7462L55.0665 19.029ZM55.3748 18.3666C56.0866 19.5805 56.7033 20.851 57.2136 22.1662L57.5866 22.0215C57.0683 20.686 56.4423 19.3963 55.7198 18.1642L55.3748 18.3666ZM57.2136 22.166C59.1432 27.1546 59.5774 32.683 58.405 37.9063L58.7952 37.9939C59.9853 32.6921 59.5445 27.0831 57.5866 22.0217L57.2136 22.166ZM58.4049 37.9063C57.7924 40.6366 56.7578 43.2429 55.3582 45.6362L55.7035 45.8381C57.1236 43.4098 58.1736 40.765 58.7952 37.9938L58.4049 37.9063ZM55.6723 45.5957L53.0102 42.9337L52.7274 43.2165L55.3895 45.8786L55.6723 45.5957ZM53.0102 42.9337L47.8415 37.7649L47.5586 38.0478L52.7274 43.2165L53.0102 42.9337ZM47.8415 37.7649L46.9454 36.8688L46.6625 37.1517L47.5586 38.0478L47.8415 37.7649ZM46.9935 37.0742C48.0336 33.993 48.1031 30.6012 47.173 27.4804L46.7897 27.5947C47.696 30.6356 47.6284 33.9427 46.6145 36.9463L46.9935 37.0742ZM47.173 27.4804C47.1187 27.2984 47.0611 27.1175 47.0002 26.9378L46.6213 27.0661C46.6806 27.2413 46.7368 27.4175 46.7897 27.5948L47.173 27.4804ZM49.9683 11.7821C50.6803 12.4158 51.359 13.0865 52.0011 13.7906L52.2967 13.521C51.6453 12.8068 50.9566 12.1263 50.2343 11.4833L49.9683 11.7821ZM52.001 13.7904C52.9934 14.8811 53.8967 16.047 54.7017 17.2837L55.0369 17.0655C54.22 15.8105 53.3035 14.6275 52.2968 13.5212L52.001 13.7904ZM54.7279 17.0332L51.8524 19.9087L52.1352 20.1915L55.0107 17.316L54.7279 17.0332ZM51.8524 19.9087L46.6836 25.0774L46.9665 25.3603L52.1352 20.1915L51.8524 19.9087ZM46.6836 25.0775L46.1743 25.5868L46.4572 25.8696L46.9665 25.3603L46.6836 25.0775ZM46.4988 25.6477C45.4878 23.3495 43.9318 21.2922 41.9757 19.7132L41.7245 20.0244C43.6297 21.5623 45.1468 23.5677 46.1327 25.8087L46.4988 25.6477ZM41.9757 19.7131C40.8624 18.8154 39.6407 18.0755 38.3451 17.5084L38.1847 17.8748C39.4478 18.4278 40.6391 19.1491 41.7246 20.0245L41.9757 19.7131ZM38.4063 17.833L40.9727 15.2665L40.6899 14.9837L38.1234 17.5501L38.4063 17.833ZM40.9727 15.2665L46.1415 10.0978L45.8586 9.81495L40.6899 14.9837L40.9727 15.2665ZM46.1415 10.0978L46.967 9.2723L46.6841 8.98945L45.8586 9.81495L46.1415 10.0978ZM46.7165 9.29849C47.8624 10.0444 48.9476 10.8747 49.9684 11.7822L50.2342 11.4832C49.1987 10.5627 48.0976 9.72027 46.9347 8.96326L46.7165 9.29849ZM17.2841 54.7016C14.1027 52.6266 11.3734 49.8916 9.30195 46.7128L8.96683 46.9312C11.0685 50.1564 13.8375 52.9312 17.0656 55.0366L17.2841 54.7016ZM17.8524 53.9086L17.0334 54.7277L17.3162 55.0105L18.1353 54.1915L17.8524 53.9086ZM23.0212 48.7399L17.8524 53.9086L18.1353 54.1915L23.304 49.0227L23.0212 48.7399ZM25.579 46.182L23.0212 48.7399L23.304 49.0227L25.8619 46.4649L25.579 46.182ZM20.0172 42.3555C21.5508 44.1376 23.4901 45.5613 25.64 46.5066L25.801 46.1404C23.7048 45.2188 21.8143 43.8306 20.3204 42.0946L20.0172 42.3555ZM17.5018 38.3513C18.1319 39.7959 18.9762 41.1466 20.0173 42.3556L20.3204 42.0945C19.3057 40.9163 18.4828 39.5997 17.8684 38.1914L17.5018 38.3513ZM17.3103 38.929L17.8265 38.4128L17.5437 38.1299L17.0274 38.6461L17.3103 38.929ZM12.1415 44.0977L17.3103 38.929L17.0274 38.6461L11.8587 43.8149L12.1415 44.0977ZM9.27581 46.9635L12.1415 44.0977L11.8587 43.8149L8.99297 46.6806L9.27581 46.9635ZM18.1621 55.7156C18.5118 55.9208 18.8663 56.1184 19.2254 56.3082L19.4123 55.9545C19.0585 55.7676 18.7092 55.5729 18.3646 55.3706L18.1621 55.7156ZM20.7837 52.7399L18.1219 55.4017L18.4048 55.6845L21.0665 53.0227L20.7837 52.7399ZM25.9524 47.5711L20.7837 52.7399L21.0665 53.0227L26.2353 47.854L25.9524 47.5711ZM26.8485 46.6751L25.9524 47.5711L26.2353 47.854L27.1314 46.9579L26.8485 46.6751ZM28.0695 46.9316C27.7275 46.842 27.3888 46.7404 27.0541 46.6271L26.9258 47.0059C27.2693 47.1222 27.617 47.2266 27.9682 47.3185L28.0695 46.9316ZM36.9307 46.6241C34.0922 47.585 30.9684 47.6861 28.0692 46.9315L27.9685 47.3186C30.9422 48.0926 34.1456 47.9892 37.0589 47.003L36.9307 46.6241ZM40.0852 49.6212L37.1362 46.6721L36.8534 46.955L39.8024 49.904L40.0852 49.6212ZM45.254 54.7899L40.0852 49.6212L39.8024 49.904L44.9711 55.0728L45.254 54.7899ZM45.8701 55.4061L45.254 54.7899L44.9711 55.0728L45.5873 55.6889L45.8701 55.4061ZM35.0216 59.2927C38.8285 58.8806 42.5292 57.6439 45.8294 55.7203L45.628 55.3747C42.3753 57.2706 38.7284 58.4891 34.9786 58.895L35.0216 59.2927ZM19.2256 56.3083C24.0553 58.8522 29.6016 59.8781 35.0216 59.2927L34.9786 58.895C29.6361 59.472 24.1699 58.4604 19.412 55.9544L19.2256 56.3083ZM17.3841 36.9355C17.0182 35.8495 16.7709 34.72 16.649 33.5665L16.2512 33.6086C16.3762 34.7912 16.6298 35.9493 17.005 37.0632L17.3841 36.9355ZM14.379 40.0977L17.336 37.1408L17.0531 36.858L14.0962 39.8149L14.379 40.0977ZM9.21028 45.2665L14.379 40.0977L14.0962 39.8149L8.92744 44.9836L9.21028 45.2665ZM8.60209 45.8747L9.21028 45.2665L8.92744 44.9836L8.31924 45.5918L8.60209 45.8747ZM7.18828 43.7611C7.52533 44.4686 7.89255 45.1603 8.28817 45.8345L8.63316 45.632C8.2433 44.9677 7.88147 44.2861 7.5494 43.589L7.18828 43.7611ZM4.84608 27.9452C4.04014 33.2846 4.86481 38.8812 7.18827 43.761L7.54942 43.5891C5.26038 38.7815 4.44754 33.2656 5.2416 28.0049L4.84608 27.9452ZM8.29187 18.1701C6.54481 21.1677 5.36846 24.4898 4.84609 27.9452L5.24159 28.005C5.75639 24.5997 6.91572 21.3256 8.63745 18.3715L8.29187 18.1701ZM11.2665 20.7898L8.60608 18.1294L8.32324 18.4123L10.9837 21.0727L11.2665 20.7898ZM16.4353 25.9586L11.2665 20.7898L10.9837 21.0727L16.1524 26.2414L16.4353 25.9586ZM17.3355 26.8588L16.4353 25.9586L16.1524 26.2414L17.0526 27.1417L17.3355 26.8588ZM16.649 33.5667C16.4198 31.3812 16.6812 29.1478 17.3836 27.0641L17.0045 26.9363C16.2844 29.0728 16.0158 31.364 16.2512 33.6084L16.649 33.5667ZM52.5158 50.2354C53.4372 49.196 54.278 48.0902 55.0314 46.9287L54.6958 46.7111C53.9533 47.8558 53.1246 48.9457 52.2165 49.97L52.5158 50.2354ZM46.9347 55.037C49.0014 53.6918 50.8799 52.0732 52.5155 50.2357L52.2167 49.9697C50.6046 51.7808 48.7532 53.3761 46.7165 54.7017L46.9347 55.037ZM43.8086 52.1353L46.6842 55.0108L46.967 54.7279L44.0915 51.8524L43.8086 52.1353ZM38.6399 46.9665L43.8086 52.1353L44.0915 51.8524L38.9227 46.6837L38.6399 46.9665ZM38.1298 46.4564L38.6399 46.9665L38.9227 46.6837L38.4126 46.1736L38.1298 46.4564ZM39.0146 45.7373C38.744 45.8767 38.4691 46.0084 38.1901 46.1322L38.3523 46.4978C38.6384 46.3709 38.9204 46.2359 39.1978 46.0929L39.0146 45.7373ZM39.1762 45.6541C39.1229 45.6819 39.0693 45.7095 39.0157 45.7368L39.1967 46.0934C39.2518 46.0655 39.3067 46.0372 39.3615 46.0086L39.1762 45.6541ZM45.6172 39.2563C44.1799 41.9643 41.8905 44.2352 39.1762 45.6541L39.3615 46.0086C42.1472 44.5524 44.4953 42.2234 45.9705 39.4438L45.6172 39.2563ZM46.13 38.1901C45.9731 38.5518 45.8031 38.9077 45.6174 39.256L45.9703 39.4442C46.1617 39.0855 46.3362 38.7198 46.4969 38.3493L46.13 38.1901ZM49.0165 40.6899L46.4549 38.1283L46.172 38.4111L48.7336 40.9728L49.0165 40.6899ZM54.1852 45.8587L49.0165 40.6899L48.7336 40.9728L53.9024 46.1415L54.1852 45.8587ZM55.0051 46.6785L54.1852 45.8587L53.9024 46.1415L54.7222 46.9613L55.0051 46.6785ZM17.8264 25.5873L15.2665 23.0273L14.9837 23.3102L17.5436 25.8701L17.8264 25.5873ZM17.6896 25.2351C17.625 25.372 17.5624 25.5099 17.5018 25.6486L17.8683 25.8088C17.9274 25.6736 17.9884 25.5392 18.0514 25.4058L17.6896 25.2351ZM23.6821 18.5302C21.1035 20.1311 18.9786 22.4815 17.6893 25.2357L18.0516 25.4053C19.307 22.7234 21.3783 20.4313 23.8931 18.87L23.6821 18.5302ZM25.648 17.5008C24.9694 17.7969 24.3118 18.1406 23.6824 18.53L23.8928 18.8701C24.5058 18.4909 25.1465 18.156 25.8079 17.8674L25.648 17.5008ZM25.0774 17.3164L25.5865 17.8256L25.8694 17.5427L25.3603 17.0336L25.0774 17.3164ZM19.9087 12.1477L25.0774 17.3164L25.3603 17.0336L20.1915 11.8648L19.9087 12.1477ZM17.0428 9.28176L19.9087 12.1477L20.1915 11.8648L17.3256 8.99892L17.0428 9.28176ZM12.519 13.2389C13.9599 11.7456 15.5642 10.4282 17.2929 9.30819L17.0754 8.97249C15.3214 10.1089 13.6934 11.4457 12.2312 12.9612L12.519 13.2389ZM9.30353 17.288C10.2391 15.8434 11.3144 14.4857 12.5189 13.239L12.2313 12.9611C11.0086 14.2266 9.91725 15.6046 8.96779 17.0706L9.30353 17.288ZM10.0978 17.8586L9.27708 17.0379L8.99424 17.3208L9.81493 18.1414L10.0978 17.8586ZM15.2665 23.0273L10.0978 17.8586L9.81493 18.1414L14.9837 23.3102L15.2665 23.0273Z" fill="white" mask="url(#path-1-inside-1)"/>
</svg>
