<svg width="76" height="76" viewBox="0 0 76 76" fill="none" xmlns="http://www.w3.org/2000/svg">
<path d="M15.5625 34.635C21.7101 34.635 26.7109 29.6418 26.7109 23.504C26.7109 17.367 21.7101 12.373 15.5625 12.373C9.41559 12.373 4.41479 17.3662 4.41479 23.504C4.41479 29.641 9.41559 34.635 15.5625 34.635ZM14.5068 13.9538V15.9663C14.5068 16.3866 14.8466 16.7263 15.2668 16.7263C15.6871 16.7263 16.0268 16.3866 16.0268 15.9663V13.9166C20.8863 14.1499 24.8056 17.9864 25.1552 22.8063H22.8668C22.4466 22.8063 22.1068 23.146 22.1068 23.5663C22.1068 23.9866 22.4466 24.3263 22.8668 24.3263H25.1491C24.7418 29.0885 20.8445 32.8604 16.0268 33.0922V31.1663C16.0268 30.746 15.6871 30.4063 15.2668 30.4063C14.8466 30.4063 14.5068 30.746 14.5068 31.1663V33.0542C9.96355 32.5571 6.36723 28.8924 5.97659 24.3256H7.66684C8.08712 24.3256 8.42684 23.9858 8.42684 23.5656C8.42684 23.1453 8.08712 22.8056 7.66684 22.8056H5.97051C6.30567 18.1825 9.92251 14.4554 14.5068 13.9538Z" fill="#007CC3"/>
<path d="M12.5148 22.6266L14.5395 23.7917C14.6656 24.2393 15.0738 24.5691 15.5624 24.5691C16.1522 24.5691 16.6303 24.0919 16.6303 23.5029C16.6303 23.496 16.628 23.4899 16.628 23.4831L19.8382 20.0965C20.127 19.7925 20.1141 19.3115 19.8093 19.0227C19.5053 18.7339 19.0243 18.746 18.7355 19.0515L15.5214 22.4419C15.4446 22.4449 15.3702 22.4563 15.2987 22.4746L13.2733 21.3087C12.9093 21.1013 12.4449 21.2251 12.2352 21.5884C12.0262 21.9517 12.1516 22.4168 12.5148 22.6266Z" fill="#007CC3"/>
<path d="M52.5068 38.0054V45.6054H63.7586L59.0086 38.0054H52.5068ZM54.0268 44.0854V39.5254H58.165L61.015 44.0854H54.0268Z" fill="#007CC3"/>
<path d="M28.8664 53.9937C27.5911 53.9937 26.5544 55.0295 26.5544 56.3033C26.5544 57.5763 27.5911 58.6122 28.8664 58.6122C30.1416 58.6122 31.1783 57.5763 31.1783 56.3033C31.1783 55.0303 30.1416 53.9937 28.8664 53.9937ZM28.8664 57.0929C28.4301 57.0929 28.0744 56.7388 28.0744 56.3041C28.0744 55.8686 28.4301 55.5144 28.8664 55.5144C29.3026 55.5144 29.6583 55.8686 29.6583 56.3041C29.6583 56.7388 29.3026 57.0929 28.8664 57.0929Z" fill="#007CC3"/>
<path d="M71.5069 49.1855L62.0456 34.2051H49.4669V22.8051H30.7481C30.5467 18.3318 28.4217 14.2323 24.8414 11.4758C24.5085 11.2182 24.0304 11.2805 23.7758 11.6141C23.5197 11.947 23.5813 12.4235 23.9142 12.6797C27.3045 15.2903 29.2486 19.2354 29.2486 23.5028C29.2486 31.0359 23.1093 37.1653 15.5625 37.1653C13.259 37.1653 11.0078 36.5839 9.00295 35.4895L9.80171 34.4081L5.58447 33.9315L7.28003 37.822L8.09323 36.7207C10.0685 37.8341 12.2641 38.4976 14.5312 38.6504L14.5054 54.7259H21.9944C21.8774 55.2343 21.8097 55.761 21.8097 56.3037C21.8097 60.188 24.9751 63.3496 28.8656 63.3496C32.756 63.3496 35.9214 60.1888 35.9214 56.3037C35.9214 55.7603 35.8538 55.2336 35.7367 54.7259H52.5738C52.4567 55.2343 52.3891 55.761 52.3891 56.3037C52.3891 60.188 55.5545 63.3496 59.4449 63.3496C63.3361 63.3496 66.5015 60.1888 66.5015 56.3037C66.5015 55.7603 66.4339 55.2336 66.3168 54.7259H71.5061V49.1855H71.5069ZM28.8663 61.8289C25.8134 61.8289 23.3305 59.3497 23.3305 56.3029C23.3305 53.2553 25.8142 50.7769 28.8663 50.7769C31.9185 50.7769 34.4022 53.2561 34.4022 56.3029C34.4022 59.3497 31.9192 61.8289 28.8663 61.8289ZM28.8663 49.2569C26.0893 49.2569 23.6892 50.8712 22.5386 53.2051H16.0269V38.6762C16.2214 38.6701 16.4396 38.6443 16.6326 38.6314C24.244 38.0979 30.3141 31.9571 30.7268 24.3251H47.9469V53.2051H35.1941C34.0434 50.8712 31.6434 49.2569 28.8663 49.2569ZM59.4457 61.8289C56.3928 61.8289 53.9098 59.3497 53.9098 56.3029C53.9098 53.2553 56.3935 50.7769 59.4457 50.7769C62.4978 50.7769 64.9823 53.2561 64.9823 56.3029C64.9823 59.3497 62.4986 61.8289 59.4457 61.8289ZM69.9869 53.2051H65.7742C64.6236 50.8704 62.2227 49.2569 59.4457 49.2569C56.6686 49.2569 54.2686 50.8712 53.1179 53.2051H49.4669V35.7251H61.2081L69.9869 49.6248V53.2051Z" fill="#007CC3"/>
<path d="M59.4456 53.9937C58.1703 53.9937 57.1337 55.0295 57.1337 56.3033C57.1337 57.5763 58.1703 58.6122 59.4456 58.6122C60.7209 58.6122 61.7583 57.5763 61.7583 56.3033C61.7583 55.0303 60.7209 53.9937 59.4456 53.9937ZM59.4456 57.0929C59.0093 57.0929 58.6537 56.7388 58.6537 56.3041C58.6537 55.8686 59.0093 55.5144 59.4456 55.5144C59.8826 55.5144 60.2383 55.8686 60.2383 56.3041C60.2383 56.7388 59.8833 57.0929 59.4456 57.0929Z" fill="#007CC3"/>
</svg>
