<svg width="64" height="64" viewBox="0 0 64 64" fill="none" xmlns="http://www.w3.org/2000/svg">
<path d="M51.1667 8.35935V5.93335H49.8333V8.35868H14.1667V5.93335H12.8333V8.35868H4.146V19.4674V20.134V58.0667H59.8547V20.134V19.4674V8.35935H51.1667ZM50.5 13.0607C51.154 13.0607 51.686 13.5927 51.686 14.2467C51.686 14.9007 51.154 15.4327 50.5 15.4327C49.846 15.4327 49.314 14.9007 49.314 14.2467C49.314 13.5927 49.846 13.0607 50.5 13.0607ZM13.5 13.0607C14.154 13.0607 14.686 13.5927 14.686 14.2467C14.686 14.9007 14.154 15.4327 13.5 15.4327C12.846 15.4327 12.314 14.9007 12.314 14.2467C12.314 13.5927 12.846 13.0607 13.5 13.0607ZM58.5207 56.7333H5.47933V20.134H58.5213V56.7333H58.5207ZM58.5207 18.8007H5.47933V9.69268H12.8333V11.8287C11.7687 12.1227 10.9807 13.0907 10.9807 14.2474C10.9807 15.636 12.1107 16.7667 13.5 16.7667C14.8893 16.7667 16.0193 15.6367 16.0193 14.2474C16.0193 13.0907 15.2313 12.1227 14.1667 11.8287V9.69268H49.8333V11.8287C48.7687 12.1227 47.9807 13.0907 47.9807 14.2474C47.9807 15.636 49.1107 16.7667 50.5 16.7667C51.8893 16.7667 53.0193 15.6367 53.0193 14.2474C53.0193 13.0907 52.2307 12.1227 51.1667 11.8287V9.69268H58.5207V18.8007Z" fill="#007CC3"/>
<path d="M19.9114 27.0947H11.1667V35.8393H19.9114V27.0947ZM18.578 34.506H12.5V28.428H18.578V34.506Z" fill="#007CC3"/>
<path d="M36.3727 27.0947H27.6273V35.8393H36.372V27.0947H36.3727ZM35.0393 34.506H28.9613V28.428H35.0393V34.506Z" fill="#007CC3"/>
<path d="M52.8333 27.0947H44.0887V35.8393H52.8333V27.0947ZM51.5 34.506H45.422V28.428H51.5V34.506Z" fill="#007CC3"/>
<path d="M19.9114 41.028H11.1667V49.7727H19.9114V41.028ZM18.578 48.4393H12.5V42.3613H18.578V48.4393Z" fill="#007CC3"/>
<path d="M36.3727 41.028H27.6273V49.7727H36.372V41.028H36.3727ZM35.0393 48.4393H28.9613V42.3613H35.0393V48.4393Z" fill="#007CC3"/>
<path d="M52.8333 41.028H44.0887V49.7727H52.8333V41.028ZM51.5 48.4393H45.422V42.3613H51.5V48.4393Z" fill="#007CC3"/>
</svg>
