<svg width="60" height="60" viewBox="0 0 60 60" fill="none" xmlns="http://www.w3.org/2000/svg">
<path d="M39 4.2002C29.3895 4.23326 19.5264 4.2002 11.2875 4.2002C11.0125 4.25268 10.7951 4.52024 10.8 4.8002V55.2002C10.8 55.5143 11.0859 55.8002 11.4 55.8002H48.6C48.9142 55.8002 49.2 55.5143 49.2 55.2002V34.2002C49.2045 33.8832 48.917 33.5917 48.6 33.5917C48.283 33.5917 47.9955 33.8832 48 34.2002V54.6002H12V5.4002H38.4V14.4002C38.4 14.7143 38.6859 15.0002 39 15.0002H48V29.4002C47.9955 29.7172 48.283 30.0087 48.6 30.0087C48.917 30.0087 49.2045 29.7172 49.2 29.4002C49.2 24.1525 49.2 18.8267 49.2 14.3252C49.2 14.1237 49.0813 14.0377 49.0125 13.9689C45.822 10.7723 42.6243 7.56825 39.4313 4.36895C39.3182 4.24504 39.1316 4.2002 39 4.2002ZM39.6 6.24395L47.1563 13.8002H39.6V6.24395ZM24.6 9.0002C22.9366 9.0002 21.4135 9.50988 20.1 10.2752C19.7932 10.4117 19.6564 10.8349 19.8253 11.1252C19.9942 11.4155 20.4297 11.5057 20.7 11.3064C21.8678 10.626 23.1846 10.2002 24.6 10.2002C28.9149 10.2002 32.4 13.6853 32.4 18.0002C32.4 22.3151 28.9149 25.8002 24.6 25.8002C20.2851 25.8002 16.8 22.3151 16.8 18.0002C16.8 15.8284 17.6269 13.8142 19.0313 12.4127C19.2523 12.1869 19.2478 11.7804 19.022 11.5594C18.7962 11.3385 18.3896 11.343 18.1688 11.5689C16.5257 13.2087 15.6 15.5266 15.6 18.0002C15.6 22.9637 19.6366 27.0002 24.6 27.0002C29.5635 27.0002 33.6 22.9637 33.6 18.0002C33.6 13.0367 29.5635 9.0002 24.6 9.0002ZM27.5813 14.9814C27.4265 14.9876 27.2751 15.0564 27.1688 15.1689L22.8 19.5377L21.4313 18.1689C21.2104 17.943 20.8039 17.9385 20.578 18.1594C20.3522 18.3804 20.3478 18.7869 20.5688 19.0127L22.3688 20.8127C22.5918 21.0432 23.0082 21.0432 23.2313 20.8127L28.0313 16.0127C28.3814 15.6753 28.0667 14.9542 27.5813 14.9814ZM32.8875 30.0002C32.5734 30.0296 32.3143 30.3423 32.3438 30.6564C32.3732 30.9706 32.6859 31.2296 33 31.2002H43.2C43.517 31.2047 43.8086 30.9172 43.8086 30.6002C43.8086 30.2832 43.517 29.9957 43.2 30.0002C39.7662 30.0002 36.3127 30.0002 32.8875 30.0002ZM16.6875 34.8002C16.3734 34.8296 16.1143 35.1423 16.1438 35.4564C16.1732 35.7706 16.4858 36.0296 16.8 36.0002H43.2C43.517 36.0047 43.8086 35.7172 43.8086 35.4002C43.8086 35.0832 43.517 34.7957 43.2 34.8002C34.3652 34.8002 25.5141 34.8002 16.6875 34.8002ZM16.6875 39.6002C16.3734 39.6296 16.1143 39.9423 16.1438 40.2564C16.1732 40.5706 16.4858 40.8296 16.8 40.8002H43.2C43.517 40.8047 43.8086 40.5172 43.8086 40.2002C43.8086 39.8832 43.517 39.5957 43.2 39.6002C34.3652 39.6002 25.5141 39.6002 16.6875 39.6002ZM16.6875 44.4002C16.3734 44.4296 16.1143 44.7423 16.1438 45.0564C16.1732 45.3706 16.4858 45.6296 16.8 45.6002H43.2C43.517 45.6047 43.8086 45.3172 43.8086 45.0002C43.8086 44.6832 43.517 44.3957 43.2 44.4002C34.3652 44.4002 25.5141 44.4002 16.6875 44.4002ZM16.6875 49.2002C16.3734 49.2296 16.1143 49.5423 16.1438 49.8564C16.1732 50.1706 16.4858 50.4296 16.8 50.4002H43.2C43.517 50.4047 43.8086 50.1172 43.8086 49.8002C43.8086 49.4832 43.517 49.1957 43.2 49.2002C34.3652 49.2002 25.5141 49.2002 16.6875 49.2002Z" fill="#007CC3"/>
</svg>
