<svg width="64" height="64" viewBox="0 0 64 64" fill="none" xmlns="http://www.w3.org/2000/svg">
<path d="M27.9467 33.209L21.6889 26.9512C21.5467 26.809 21.4756 26.7379 21.3333 26.5957C20.3378 26.9512 19.2711 27.1646 18.2045 27.1646C15.8578 27.1646 13.5822 26.2401 11.9467 24.5335C9.4578 22.0446 8.67557 18.2757 9.95557 15.0046L10.1689 14.5068L14.2222 18.5601C14.7911 19.129 15.5733 19.4135 16.3556 19.4135C17.1378 19.4135 17.92 19.129 18.4889 18.5601C19.6978 17.3512 19.6978 15.4312 18.4889 14.2223L14.4356 10.169L14.9333 9.95567C16 9.52901 17.0667 9.31567 18.2045 9.31567C20.5511 9.31567 22.8267 10.2401 24.4622 11.9468C26.9511 14.4357 27.7333 18.0623 26.5245 21.3335C26.6667 21.4046 26.8089 21.5468 26.88 21.689L33.1378 27.9468L27.9467 33.209ZM21.6889 25.7423L21.8311 26.0268C21.9733 26.169 22.0445 26.3823 22.2578 26.5246L28.0178 32.2846L32.2845 28.0179L26.5245 22.2579C26.3822 22.1157 26.24 21.9735 26.0267 21.8312L25.7422 21.689L25.8845 21.4046C27.1645 18.3468 26.4533 14.8623 24.1067 12.5157C22.5422 10.9512 20.48 10.0979 18.3467 10.0979C17.4933 10.0979 16.64 10.2401 15.8578 10.4535L19.1289 13.7246C20.6222 15.2179 20.6222 17.5646 19.1289 19.0579C18.4178 19.769 17.4934 20.1246 16.4978 20.1246C15.5022 20.1246 14.5778 19.769 13.8667 19.0579L10.5956 15.7868C9.67113 18.7023 10.4534 21.9023 12.5867 24.0357C14.1511 25.6001 16.2133 26.4535 18.3467 26.4535C19.4133 26.4535 20.48 26.2401 21.4756 25.8135L21.6889 25.7423Z" fill="#007CC3"/>
<path d="M45.7245 54.6133C43.3778 54.6133 41.1022 53.6889 39.4667 51.9822C36.9778 49.4933 36.1956 45.8666 37.4045 42.5955L30.7911 35.9822L36.0534 30.72L42.6667 37.3333C43.6622 36.9777 44.6578 36.7644 45.7245 36.7644C48.0711 36.7644 50.3467 37.6889 51.9822 39.3955C54.4711 41.8844 55.2534 45.6533 53.9734 48.9244L53.76 49.4222L49.6356 45.2266C49.0667 44.6578 48.2845 44.3022 47.5022 44.3022C46.72 44.3022 45.9378 44.5866 45.3689 45.2266C44.16 46.4355 44.16 48.3555 45.3689 49.5644L49.5645 53.6889L49.0667 53.9022C47.9289 54.4 46.7911 54.6133 45.7245 54.6133ZM31.7867 36.0533L38.1867 42.4533L38.1156 42.6666C36.9067 45.7244 37.6178 49.1378 39.8934 51.4844C41.4578 53.0489 43.52 53.9022 45.6534 53.9022C46.5067 53.9022 47.36 53.76 48.1422 53.5466L44.8 50.1333C43.3067 48.64 43.3067 46.2933 44.8 44.8C45.5111 44.0889 46.4356 43.7333 47.4311 43.7333C48.4267 43.7333 49.4222 44.16 50.0622 44.8L53.4045 48.1422C54.3289 45.2266 53.5467 42.0266 51.4134 39.8933C49.8489 38.3289 47.7867 37.4755 45.6534 37.4755C44.5867 37.4755 43.5911 37.6889 42.5956 38.0444L42.3822 38.1155L35.9822 31.7155L31.7867 36.0533Z" fill="#007CC3"/>
<path d="M11.4489 57.5999C10.3822 57.5999 9.31558 57.1733 8.53336 56.391L7.60891 55.4666C6.82669 54.6844 6.40002 53.6888 6.40002 52.551C6.40002 51.4844 6.82669 50.4177 7.60891 49.6355L19.9111 37.3333L26.6667 44.0888L14.2934 56.391C13.5822 57.1733 12.5156 57.5999 11.4489 57.5999ZM19.9111 38.3288L8.10669 50.2044C7.46669 50.8444 7.11114 51.6977 7.11114 52.6221C7.11114 53.5466 7.46669 54.3999 8.10669 55.0399L9.03114 55.9644C9.67114 56.6044 10.5245 56.9599 11.4489 56.9599C12.3734 56.9599 13.2267 56.6044 13.8667 55.9644L25.6711 44.0888L19.9111 38.3288Z" fill="#007CC3"/>
<path d="M26.8088 44.8C26.5244 44.8 26.1688 44.6578 25.9555 44.4445L19.5555 38.0444C19.3422 37.8311 19.2 37.5467 19.2 37.1911C19.2 36.8356 19.3422 36.5511 19.5555 36.3378L19.7688 36.1244C20.1955 35.6978 20.9777 35.6978 21.4044 36.1244L27.8044 42.5245C28.2311 42.9511 28.2311 43.7333 27.8044 44.16L27.5911 44.3733C27.4488 44.6578 27.1644 44.8 26.8088 44.8ZM20.6222 36.48C20.48 36.48 20.4088 36.5511 20.2666 36.6222L20.0533 36.8356C19.9822 36.9067 19.9111 37.0489 19.9111 37.1911C19.9111 37.3333 19.9822 37.4044 20.0533 37.5467L26.4533 43.9467C26.5955 44.0889 26.9511 44.0889 27.0933 43.9467L27.3066 43.7333C27.52 43.52 27.52 43.2356 27.3066 43.0933L20.9066 36.6933C20.8355 36.5511 20.7644 36.48 20.6222 36.48Z" fill="#007CC3"/>
<path d="M26.0266 41.7422L22.1866 37.9022L45.9378 14.2222L45.0133 13.2977L54.1866 6.32886L57.6 9.74219L50.6311 18.9155L49.7778 18.0622L26.0266 41.7422ZM23.2533 37.9733L26.0266 40.7466L49.7778 16.9955L50.6311 17.8489L56.7466 9.8133L54.1866 7.2533L46.1511 13.3689L47.0044 14.2222L23.2533 37.9733Z" fill="#007CC3"/>
<path d="M11.7333 53.5466C11.4489 53.5466 11.1644 53.4044 10.9511 53.191L10.7378 52.9777C10.5244 52.7643 10.3822 52.4799 10.3822 52.1955C10.3822 51.911 10.5244 51.6266 10.7378 51.4132L19.6266 42.5243C20.0533 42.0977 20.7644 42.0977 21.1911 42.5243L21.4044 42.7377C21.6178 42.951 21.76 43.2355 21.76 43.5199C21.76 43.8043 21.6178 44.0888 21.4044 44.3021L12.5155 53.2621C12.3022 53.4755 12.0178 53.5466 11.7333 53.5466ZM20.48 42.951C20.3378 42.951 20.2666 43.0221 20.1955 43.0932L11.2355 51.9821C11.1644 52.0532 11.0933 52.1955 11.0933 52.2666C11.0933 52.3377 11.1644 52.4799 11.2355 52.551L11.4489 52.7643C11.5911 52.9066 11.8755 52.9066 12.0178 52.7643L20.9066 43.8755C20.9778 43.8043 21.0489 43.6621 21.0489 43.591C21.0489 43.4488 20.9778 43.3777 20.9066 43.3066L20.6933 43.0932C20.6933 42.951 20.5511 42.951 20.48 42.951Z" fill="#007CC3"/>
</svg>
