<svg width="64" height="64" viewBox="0 0 64 64" fill="none" xmlns="http://www.w3.org/2000/svg">
<path d="M42.5669 15.7275V15.8275H42.6669H56.7188C59.2658 15.8275 61.34 17.9005 61.3394 20.4487V50.6849C61.3394 53.2332 59.2658 55.3068 56.7181 55.3068H7.28134C4.7337 55.3068 2.66006 53.2332 2.66006 50.6849V20.4488C2.66006 17.9005 4.73368 15.8275 7.28134 15.8275H21.3332H21.4332V15.7275V12.3726C21.4332 10.3434 23.0844 8.69277 25.113 8.69277H38.8871C40.9163 8.69277 42.5669 10.344 42.5669 12.3726V15.7275ZM41.3863 15.8275H41.4863V15.7275V12.3726C41.4863 10.9388 40.3202 9.77277 38.8865 9.77277H25.113C23.6792 9.77277 22.5132 10.9388 22.5132 12.3726V15.7275V15.8275H22.6132H41.3863ZM60.2071 32.4951L60.2594 32.4667V32.4072V20.4488C60.2594 18.4959 58.671 16.9075 56.7181 16.9075H7.28134C5.32851 16.9075 3.74006 18.4959 3.74006 20.4488V32.4033V32.4634L3.79305 32.4916C5.81596 33.5689 15.4686 38.3206 29.1552 38.9371L29.2597 38.9419V38.8372V36.5224C29.2597 35.4915 30.0988 34.6525 31.1297 34.6525H32.8698C33.9007 34.6525 34.7397 35.4915 34.7397 36.5224V38.8475V38.9517L34.8439 38.9474C48.6237 38.3744 58.2018 33.5822 60.2071 32.4951ZM3.88542 33.3945L3.74006 33.3205V33.4837V50.6849C3.74006 52.639 5.32849 54.2275 7.28134 54.2275H56.7188C58.6716 54.2275 60.2601 52.639 60.2601 50.6849V33.4926V33.3284L60.1142 33.4038C57.2984 34.8582 47.9248 39.1708 34.8369 39.7089L34.741 39.7128V39.8088V40.411C34.741 41.4386 33.9021 42.2777 32.8711 42.2777H31.1297C30.0987 42.2777 29.2597 41.4386 29.2597 40.411V39.7985V39.7029L29.1642 39.6986C16.1464 39.1203 6.70661 34.8307 3.88542 33.3945ZM33.9804 40.411V36.5224C33.9804 35.911 33.4825 35.4131 32.8711 35.4131H31.1297C30.5177 35.4131 30.0197 35.9109 30.0197 36.5224V40.411C30.0197 41.02 30.5178 41.5177 31.1297 41.5177H32.8705C33.483 41.5177 33.9804 41.02 33.9804 40.411Z" fill="#007CC3" stroke="white" stroke-width="0.2"/>
<path d="M32.8711 39.1868H31.1296V40.1468H32.8711V39.1868Z" fill="#007CC3"/>
</svg>
