<svg width="40" height="40" viewBox="0 0 40 40" fill="none" xmlns="http://www.w3.org/2000/svg">
<path d="M19.5451 5C11.525 5 5 11.5264 5 19.5483C5 27.5688 11.525 34.0941 19.5451 34.0941C27.5652 34.0941 34.0905 27.5688 34.0905 19.5483C34.0905 11.5264 27.5652 5 19.5451 5ZM19.5451 33.0141C12.1201 33.0141 6.08 26.9733 6.08 19.5483C6.08 12.1219 12.1204 6.08 19.5451 6.08C26.9701 6.08 33.0105 12.1219 33.0105 19.5483C33.0105 26.9733 26.9701 33.0141 19.5451 33.0141Z" fill="#007CC3"/>
<path d="M19.5454 24.6333C19.0248 24.6333 18.6011 25.0559 18.6011 25.5754C18.6011 26.0956 19.0244 26.519 19.5454 26.519C20.0645 26.519 20.4868 26.0956 20.4868 25.5754C20.4868 25.0559 20.0645 24.6333 19.5454 24.6333ZM19.5454 25.7133C19.469 25.7133 19.4068 25.6514 19.4068 25.5754C19.4068 25.5002 19.469 25.439 19.5454 25.439C19.6192 25.439 19.6811 25.5013 19.6811 25.5754C19.6814 25.6514 19.6202 25.7133 19.5454 25.7133Z" fill="#007CC3"/>
<path d="M19.5451 12.9794C17.4751 12.9794 15.791 14.6638 15.791 16.7342C15.791 17.0326 16.0326 17.2742 16.331 17.2742C16.6295 17.2742 16.871 17.0326 16.871 16.7342C16.871 15.2593 18.0705 14.0594 19.5451 14.0594C21.0193 14.0594 22.2188 15.2593 22.2188 16.7342C22.2188 18.2102 21.0193 19.4108 19.5451 19.4108C19.2467 19.4108 19.0051 19.6523 19.0051 19.9508V22.1979C19.0051 22.496 19.2467 22.7379 19.5451 22.7379C19.8435 22.7379 20.0851 22.496 20.0851 22.1979V20.4476C21.8995 20.1844 23.2988 18.6217 23.2988 16.7345C23.2988 14.6638 21.6147 12.9794 19.5451 12.9794Z" fill="#007CC3"/>
</svg>
