<svg width="40" height="40" viewBox="0 0 40 40" fill="none" xmlns="http://www.w3.org/2000/svg">
<path d="M3.32505 9C3.14169 9.035 2.99677 9.21336 3.00005 9.4V30.2C3.00008 30.4094 3.19062 30.6 3.40005 30.6H6.22499C6.4282 32.8382 8.30943 34.6 10.5999 34.6C12.8904 34.6 14.7725 32.8382 14.9748 30.6H25.4246C25.6269 32.8382 27.5091 34.6 29.7996 34.6C32.09 34.6 33.9713 32.8382 34.1745 30.6H36.9994C37.2088 30.6 37.3994 30.4094 37.3994 30.2V21.4C37.4024 21.3449 37.3938 21.2892 37.3744 21.2375L34.5745 14.4375C34.5108 14.2942 34.3563 14.1963 34.1995 14.2H26.9996V9.4C26.9996 9.19056 26.809 9.00002 26.5996 9C18.8431 9 11.0761 9 3.32505 9ZM3.80004 9.8H26.1996V27.6375C26.1986 27.6543 26.1986 27.6707 26.1996 27.6875C25.7704 28.3002 25.4955 29.0151 25.4246 29.8H14.9748C14.7725 27.5608 12.8904 25.8 10.5999 25.8C8.30943 25.8 6.4282 27.5608 6.22499 29.8H3.80004V9.8ZM26.9996 15H33.9245L36.5994 21.4875V29.8H34.1745C33.9713 27.5608 32.09 25.8 29.7996 25.8C28.7385 25.8 27.7594 26.1834 26.9996 26.8125V15ZM29.3246 21.8C29.1151 21.8196 28.9424 22.028 28.9621 22.2375C28.9817 22.447 29.1901 22.6196 29.3996 22.6H30.9995C31.2107 22.604 31.4046 22.4112 31.4046 22.2C31.4046 21.9888 31.2107 21.7973 30.9995 21.8H29.3996C29.3746 21.796 29.3495 21.796 29.3246 21.8ZM10.5999 26.6C12.5928 26.6 14.1998 28.207 14.1998 30.2C14.1998 32.193 12.5928 33.8 10.5999 33.8C8.60699 33.8 6.99998 32.193 6.99998 30.2C6.99998 28.207 8.60699 26.6 10.5999 26.6ZM29.7996 26.6C31.7925 26.6 33.3995 28.207 33.3995 30.2C33.3995 32.193 31.7925 33.8 29.7996 33.8C27.8066 33.8 26.1996 32.193 26.1996 30.2C26.1996 28.207 27.8066 26.6 29.7996 26.6ZM10.5999 28.2C9.5001 28.2 8.59995 29.1002 8.59995 30.2C8.59995 31.2998 9.5001 32.2 10.5999 32.2C11.6997 32.2 12.5999 31.2998 12.5999 30.2C12.5999 29.1002 11.6997 28.2 10.5999 28.2ZM29.7996 28.2C28.6997 28.2 27.7996 29.1002 27.7996 30.2C27.7996 31.2998 28.6997 32.2 29.7996 32.2C30.8994 32.2 31.7995 31.2998 31.7995 30.2C31.7995 29.1002 30.8994 28.2 29.7996 28.2ZM10.5999 29C11.2674 29 11.7999 29.5325 11.7999 30.2C11.7999 30.8675 11.2674 31.4 10.5999 31.4C9.93244 31.4 9.39993 30.8675 9.39993 30.2C9.39993 29.5325 9.93244 29 10.5999 29ZM29.7996 29C30.467 29 30.9995 29.5325 30.9995 30.2C30.9995 30.8675 30.467 31.4 29.7996 31.4C29.1321 31.4 28.5996 30.8675 28.5996 30.2C28.5996 29.5325 29.1321 29 29.7996 29Z" fill="#007CC3"/>
</svg>
