<svg width="64" height="48" viewBox="0 0 64 48" fill="none" xmlns="http://www.w3.org/2000/svg">
<path d="M20.9598 9.23711L14.4666 9.57139C18.7626 4.36406 25.2197 1.29341 32.0002 1.29341C39.2233 1.29341 46.0827 4.78064 50.3493 10.6213L51.3664 9.87795C46.8646 3.71398 39.6239 0.0335693 32.0002 0.0335693C24.9291 0.0335693 18.1974 3.2008 13.6645 8.57612L13.3453 2.36763L12.0872 2.43146L12.4903 10.3021C12.5079 10.6498 12.8053 10.9169 13.153 10.8993L21.0236 10.4953L20.9598 9.23711Z" fill="#007CC3"/>
<path d="M64 24C64 19.2235 60.1146 15.3381 55.3382 15.3381C50.5617 15.3381 46.6747 19.2235 46.6747 24C46.6747 28.7773 50.5609 32.6618 55.3373 32.6618C60.1138 32.6618 64 28.7773 64 24ZM47.9345 24C47.9345 19.9189 51.2555 16.598 55.3373 16.598C59.4192 16.598 62.7393 19.9189 62.7393 24C62.7393 28.081 59.4184 31.4019 55.3373 31.4019C51.2563 31.4019 47.9345 28.081 47.9345 24Z" fill="#007CC3"/>
<path d="M17.3263 24C17.3263 19.2235 13.4401 15.3381 8.66446 15.3381C3.88883 15.3381 0.00012207 19.2235 0.00012207 24C0.00012207 28.7773 3.88631 32.6618 8.66194 32.6618C13.4376 32.6618 17.3263 28.7773 17.3263 24ZM1.2608 24C1.2608 19.9189 4.58258 16.598 8.66278 16.598C12.7447 16.598 16.0648 19.9189 16.0648 24C16.0648 28.081 12.7455 31.4019 8.66278 31.4019C4.5809 31.4019 1.2608 28.081 1.2608 24Z" fill="#007CC3"/>
<path d="M50.3357 39.4254L50.6549 45.6322L51.913 45.5684L51.509 37.6978C51.4914 37.35 51.1949 37.0855 50.8472 37.1006L42.9757 37.5046L43.0404 38.7627L49.5311 38.4293C45.2359 43.635 38.7771 46.7065 32 46.7065C24.7769 46.7065 17.9167 43.2201 13.65 37.3794L12.6329 38.1227C17.1381 44.2851 24.3772 47.9663 32 47.9663C39.0677 47.9663 45.8037 44.7991 50.3357 39.4254Z" fill="#007CC3"/>
</svg>
