<svg width="40" height="40" viewBox="0 0 40 40" fill="none" xmlns="http://www.w3.org/2000/svg">
<path d="M18.764 14.8H13.436V15.52H18.764V14.8Z" fill="#007CC3"/>
<path d="M23.084 19.48H13.436V20.2H23.084V19.48Z" fill="#007CC3"/>
<path d="M23.084 24.16H13.436V24.88H23.084V24.16Z" fill="#007CC3"/>
<path d="M12.32 8.248H8V35.104L11.6 31.792L14.912 34.78L18.26 31.756L21.572 34.744L24.884 31.756L28.484 35.068V28.192L29.204 27.544L32.804 30.856V4H12.284L12.32 8.248ZM27.8 33.484L24.92 30.82L21.608 33.808L18.26 30.784L14.948 33.772L11.6 30.784L8.72 33.448V8.968H27.8V33.484ZM32.12 4.756V29.236L29.24 26.572L28.52 27.22V8.248H13.04V4.72L32.12 4.756Z" fill="#007CC3"/>
</svg>
