<svg width="18" height="18" viewBox="0 0 18 18" fill="none" xmlns="http://www.w3.org/2000/svg">
<path d="M17.9983 8.99999C17.9983 13.9704 13.9704 18 9 18C4.02958 18 0 13.9704 0 8.99999C0 4.02957 4.02958 0 9 0C13.9704 0 17.9983 4.02957 17.9983 8.99999Z" fill="#007CC3"/>
<path d="M9 9.36926L4.52582 6.04545C4.56295 5.92379 4.63816 5.81727 4.74038 5.74158C4.8426 5.66589 4.96642 5.62502 5.09362 5.625H12.9064C13.0336 5.62502 13.1574 5.66588 13.2596 5.74156C13.3618 5.81724 13.437 5.92375 13.4742 6.04539L9 9.36926ZM13.5 7.02285L9.23852 10.1887C9.16956 10.2399 9.08592 10.2676 9 10.2676C8.91408 10.2676 8.83044 10.2399 8.76148 10.1887L4.5 7.02285V11.7165C4.5 11.8739 4.56254 12.0249 4.67387 12.1362C4.78519 12.2476 4.93618 12.3101 5.09362 12.3101H12.9064C12.9843 12.3101 13.0615 12.2948 13.1336 12.2649C13.2056 12.2351 13.271 12.1914 13.3261 12.1362C13.3813 12.0811 13.425 12.0157 13.4548 11.9437C13.4846 11.8716 13.5 11.7944 13.5 11.7165V7.02285Z" fill="white"/>
</svg>
