<svg width="56" height="56" viewBox="0 0 56 56" fill="none" xmlns="http://www.w3.org/2000/svg">
<path d="M51.1556 9.83559H27.1087C26.9348 9.83559 26.768 9.90467 26.645 10.0276C26.5221 10.1506 26.453 10.3174 26.453 10.4913C26.453 10.6652 26.5221 10.8319 26.645 10.9549C26.768 11.0779 26.9348 11.1469 27.1087 11.1469H51.1556C51.5832 11.1474 51.9931 11.3175 52.2954 11.6199C52.5978 11.9222 52.7679 12.3321 52.7683 12.7597V45.9533C52.7679 46.3809 52.5978 46.7909 52.2955 47.0933C51.9931 47.3956 51.5832 47.5657 51.1556 47.5662H34.8349C34.661 47.5662 34.4942 47.6353 34.3713 47.7583C34.2483 47.8812 34.1792 48.048 34.1792 48.2219C34.1792 48.3958 34.2483 48.5626 34.3713 48.6855C34.4942 48.8085 34.661 48.8776 34.8349 48.8776H51.1556C51.9309 48.8767 52.6742 48.5684 53.2224 48.0201C53.7706 47.4719 54.079 46.7286 54.0798 45.9533V12.7597C54.0789 11.9845 53.7705 11.2412 53.2223 10.693C52.6741 10.1448 51.9308 9.83645 51.1556 9.83559Z" fill="#007CC3"/>
<path d="M13.8521 32.8187C14.0321 33.0551 14.257 33.2534 14.5141 33.4022C14.7711 33.551 15.0551 33.6474 15.3496 33.6857C15.4499 33.6991 15.5509 33.7058 15.652 33.7058C16.0218 33.706 16.3859 33.6146 16.7117 33.4396L20.4407 45.7991C20.6395 46.4622 20.994 47.0681 21.4746 47.5662H15.146C14.7184 47.5657 14.3084 47.3957 14.0061 47.0933C13.7037 46.7909 13.5336 46.381 13.5331 45.9533V30.4382C13.5331 30.2643 13.464 30.0975 13.3411 29.9746C13.2181 29.8516 13.0513 29.7825 12.8774 29.7825C12.7035 29.7825 12.5368 29.8516 12.4138 29.9746C12.2908 30.0975 12.2218 30.2643 12.2218 30.4382V45.9533C12.2226 46.7286 12.531 47.4719 13.0792 48.0201C13.6274 48.5684 14.3707 48.8767 15.146 48.8776H25.7129H25.7149H25.7171H29.0884H29.0904H29.0926H32.464H32.4661H32.4682H34.1926C34.5367 48.8776 34.8759 48.796 35.1823 48.6395C35.4887 48.4831 35.7537 48.2562 35.9554 47.9775C36.1571 47.6988 36.2899 47.3762 36.3428 47.0362C36.3957 46.6963 36.3673 46.3486 36.2598 46.0218L33.9003 38.8435C34.9496 39.1885 36.0765 39.2219 37.1444 38.9398C37.4747 38.859 37.7783 38.6936 38.0254 38.4599C38.2724 38.2262 38.4544 37.9323 38.5534 37.607C38.6574 37.2773 38.6738 36.9263 38.601 36.5883C38.5283 36.2504 38.3688 35.9372 38.1384 35.6796C36.9602 34.3504 35.8731 32.9431 34.8845 31.4674C34.4303 30.7873 33.8456 30.204 33.1644 29.7514C32.4832 29.2988 31.7189 28.9859 30.9159 28.8308L26.2546 27.9514L25.3554 26.861L25.4746 26.7699C25.95 26.405 26.2614 25.8664 26.3403 25.2723C26.4193 24.6782 26.2594 24.077 25.8957 23.6006L16.3629 11.1469H26.4767C26.7978 11.1472 27.1057 11.2749 27.3328 11.502C27.5599 11.729 27.6876 12.0369 27.6879 12.3581V20.0163C27.6878 20.311 27.7633 20.6007 27.9069 20.8579C28.0506 21.1151 28.2578 21.3313 28.5087 21.4857C28.7596 21.6402 29.0459 21.7278 29.3402 21.7402C29.6346 21.7526 29.9273 21.6895 30.1903 21.5567L33.151 20.063L36.1118 21.5567C36.3748 21.6895 36.6674 21.7526 36.9618 21.7402C37.2562 21.7278 37.5425 21.6402 37.7934 21.4857C38.0443 21.3313 38.2514 21.1151 38.3951 20.8579C38.5388 20.6007 38.6142 20.311 38.6142 20.0163V10.7191C38.6142 10.5452 38.5451 10.3784 38.4221 10.2554C38.2992 10.1325 38.1324 10.0634 37.9585 10.0634C37.7846 10.0634 37.6178 10.1325 37.4949 10.2554C37.3719 10.3784 37.3028 10.5452 37.3028 10.7191V20.0168C37.3028 20.0875 37.2848 20.157 37.2503 20.2187C37.2158 20.2805 37.1661 20.3323 37.1059 20.3694C37.0457 20.4065 36.977 20.4275 36.9064 20.4305C36.8357 20.4334 36.7655 20.4183 36.7024 20.3864L33.6094 18.8259C33.4672 18.7545 33.3103 18.7173 33.1513 18.7173C32.9922 18.7173 32.8353 18.7545 32.6932 18.8259L29.6 20.3865C29.5369 20.4184 29.4667 20.4336 29.396 20.4306C29.3254 20.4276 29.2567 20.4066 29.1965 20.3695C29.1363 20.3324 29.0866 20.2806 29.0521 20.2189C29.0177 20.1571 28.9996 20.0876 28.9996 20.0169V12.3586C28.9988 11.6899 28.7328 11.0487 28.2599 10.5758C27.787 10.1029 27.1458 9.83692 26.477 9.83618H15.3592L14.2354 8.36747C13.998 8.05723 13.7018 7.79681 13.3637 7.60106C13.0256 7.40531 12.6523 7.27808 12.265 7.22662C11.8778 7.17516 11.4842 7.20049 11.1067 7.30115C10.7292 7.40182 10.3753 7.57586 10.0651 7.81332L2.74623 13.4155C2.11989 13.8951 1.70966 14.6038 1.60576 15.3858C1.50186 16.1678 1.71281 16.959 2.1922 17.5855L13.8521 32.8187ZM25.3933 28.9687C25.491 29.0871 25.6271 29.1675 25.778 29.1959L30.6725 30.1194C31.3041 30.2417 31.9052 30.4882 32.4409 30.8445C32.9766 31.2008 33.4362 31.6599 33.7932 32.1951C34.8153 33.7208 35.9392 35.1757 37.1573 36.55C37.2372 36.6394 37.2924 36.748 37.3175 36.8652C37.3427 36.9824 37.3369 37.1041 37.3007 37.2183C37.2682 37.3279 37.2075 37.4269 37.1248 37.5057C37.042 37.5844 36.9401 37.6401 36.8291 37.6672C34.5939 38.2211 33.2622 37.0534 33.2101 37.0067C33.1035 36.9083 32.9671 36.848 32.8226 36.8354C32.678 36.8228 32.5333 36.8585 32.4112 36.9369C32.2891 37.0154 32.1964 37.1321 32.1478 37.2688C32.0992 37.4056 32.0973 37.5546 32.1424 37.6925L35.0149 46.4315C35.0576 46.5614 35.0689 46.6995 35.0479 46.8346C35.0268 46.9697 34.9741 47.0978 34.8939 47.2086C34.8137 47.3193 34.7085 47.4095 34.5867 47.4717C34.4649 47.5338 34.3302 47.5662 34.1935 47.5662H32.9547L31.9093 44.0742C31.8594 43.9076 31.7453 43.7677 31.5923 43.6852C31.4392 43.6026 31.2596 43.5843 31.093 43.6342C30.9264 43.6841 30.7865 43.7982 30.704 43.9512C30.6215 44.1043 30.6032 44.2839 30.6531 44.4505L31.5863 47.5662H29.579L28.5331 44.0742C28.4814 43.9097 28.3671 43.7722 28.2148 43.6913C28.0625 43.6105 27.8844 43.593 27.7193 43.6424C27.5541 43.6919 27.4151 43.8044 27.3322 43.9557C27.2494 44.1069 27.2295 44.2847 27.2768 44.4505L28.21 47.5662H26.2033L25.1575 44.0742C25.1068 43.9086 24.9926 43.7699 24.8399 43.6882C24.6872 43.6065 24.5084 43.5885 24.3425 43.6382C24.1766 43.6879 24.0371 43.8011 23.9545 43.9533C23.8718 44.1055 23.8527 44.2841 23.9013 44.4504L24.8338 47.5662H24.5845C23.9356 47.5691 23.3033 47.3615 22.7824 46.9746C22.2616 46.5876 21.8802 46.0423 21.6954 45.4203L17.8336 32.6182L24.3132 27.6587L25.3933 28.9687ZM2.90557 15.5584C2.93379 15.3418 3.00469 15.1328 3.11417 14.9437C3.22365 14.7546 3.36955 14.5891 3.54342 14.4568L10.8624 8.85459C11.1512 8.63227 11.5054 8.51177 11.8699 8.51189C11.9443 8.51187 12.0187 8.51677 12.0925 8.52658C12.3091 8.55477 12.518 8.62566 12.7071 8.73515C12.8962 8.84463 13.0616 8.99054 13.1939 9.16442L24.8541 24.3976C25.0068 24.5977 25.074 24.8502 25.0408 25.0997C25.0076 25.3492 24.8769 25.5754 24.6771 25.7286L24.0183 26.2328L20.6799 28.7882L16.2243 32.1985C16.1254 32.2743 16.0124 32.3298 15.892 32.3619C15.7715 32.394 15.6459 32.4021 15.5224 32.3857C15.3988 32.3693 15.2797 32.3287 15.1718 32.2662C15.0639 32.2038 14.9694 32.1207 14.8936 32.0217L3.23359 16.7884C3.10031 16.6153 3.0027 16.4174 2.94639 16.2063C2.89009 15.9952 2.87622 15.775 2.90557 15.5584Z" fill="#007CC3"/>
</svg>
