<svg width="64" height="64" viewBox="0 0 64 64" fill="none" xmlns="http://www.w3.org/2000/svg">
<path d="M61.701 15.9854H49.6088H43.4661H31.3701C30.9023 15.9854 30.5215 16.3662 30.5215 16.8346V47.1681C30.5215 47.6346 30.9023 48.0148 31.3701 48.0148H61.7016C62.1695 48.0148 62.5503 47.6346 62.5503 47.1681V16.8346C62.5496 16.3662 62.1695 15.9854 61.701 15.9854ZM49.1288 16.9454V26.0244L46.869 23.8561C46.7756 23.7671 46.6565 23.7223 46.5362 23.7223C46.4159 23.7223 46.2968 23.7671 46.2034 23.8561L43.9461 26.0238V16.9454H49.1288ZM61.5896 47.0548H47.0162V41.1482C47.0162 40.8833 46.8012 40.6682 46.5362 40.6682C46.2712 40.6682 46.0562 40.8833 46.0562 41.1482V47.0548H31.4808V16.9454H42.9861V27.1502C42.9861 27.3428 43.1013 27.5162 43.278 27.5918C43.454 27.6673 43.6594 27.6302 43.7983 27.4964L46.5356 24.8673L49.2754 27.4964C49.3669 27.5841 49.4866 27.6302 49.6082 27.6302C49.6722 27.6302 49.7356 27.6174 49.7964 27.5918C49.973 27.5162 50.0882 27.3422 50.0882 27.1502V16.9454H61.5896V47.0548Z" fill="#007CC3"/>
<path d="M25.5556 26.9204H10.7114C10.4465 26.9204 10.2314 27.1354 10.2314 27.4004C10.2314 27.6654 10.4465 27.8804 10.7114 27.8804H25.5556C25.8206 27.8804 26.0356 27.6654 26.0356 27.4004C26.0356 27.1354 25.8206 26.9204 25.5556 26.9204Z" fill="#007CC3"/>
<path d="M25.555 31.52H6.84328C6.57832 31.52 6.36328 31.7351 6.36328 32C6.36328 32.265 6.57832 32.48 6.84328 32.48H25.555C25.8199 32.48 26.035 32.265 26.035 32C26.035 31.7351 25.8199 31.52 25.555 31.52Z" fill="#007CC3"/>
<path d="M25.5555 40.7188H1.93117C1.66621 40.7188 1.45117 40.9338 1.45117 41.1987C1.45117 41.4637 1.66621 41.6787 1.93117 41.6787H25.5555C25.8205 41.6787 26.0355 41.4637 26.0355 41.1987C26.0355 40.9338 25.8205 40.7188 25.5555 40.7188Z" fill="#007CC3"/>
<path d="M25.555 36.1196H4.33449C4.06953 36.1196 3.85449 36.3347 3.85449 36.5996C3.85449 36.8646 4.06953 37.0796 4.33449 37.0796H25.555C25.8199 37.0796 26.035 36.8646 26.035 36.5996C26.035 36.3347 25.8199 36.1196 25.555 36.1196Z" fill="#007CC3"/>
<path d="M25.5552 22.3213H16.6695C16.4045 22.3213 16.1895 22.5363 16.1895 22.8013C16.1895 23.0663 16.4045 23.2813 16.6695 23.2813H25.5552C25.8202 23.2813 26.0352 23.0663 26.0352 22.8013C26.0352 22.5363 25.8202 22.3213 25.5552 22.3213Z" fill="#007CC3"/>
</svg>
