<svg width="40" height="40" viewBox="0 0 40 40" fill="none" xmlns="http://www.w3.org/2000/svg">
<path d="M6.3472 31.8168H34.0492C35.3452 31.8168 36.3964 30.7512 36.3964 29.4408V11.376C36.3964 10.062 35.3452 9 34.0492 9H6.3472C5.0512 9 4 10.0656 4 11.376V29.4372C4 30.7512 5.0512 31.8168 6.3472 31.8168ZM4.9144 11.2824C4.9144 10.5264 5.5264 9.9144 6.2824 9.9144H34.1176C34.8736 9.9144 35.4856 10.5264 35.4856 11.2824V14.4756H4.9144V11.2824ZM4.9144 15.39H35.4892V18.5832H4.9144V15.39ZM4.9144 19.494H35.4892V29.5344C35.4892 30.2904 34.8772 30.9024 34.1212 30.9024H6.2824C5.5264 30.9024 4.9144 30.2904 4.9144 29.5344V19.494Z" fill="#007CC3"/>
<path d="M32.7495 26.3412H28.1847C27.9327 26.3412 27.7275 26.5464 27.7275 26.7984C27.7275 27.0504 27.9327 27.2556 28.1847 27.2556H32.7495C33.0015 27.2556 33.2067 27.0504 33.2067 26.7984C33.2067 26.5464 33.0015 26.3412 32.7495 26.3412Z" fill="#007CC3"/>
<path d="M23.6235 24.0588H32.7495C33.0015 24.0588 33.2067 23.8536 33.2067 23.6016C33.2067 23.3496 33.0015 23.1444 32.7495 23.1444H23.6235C23.3715 23.1444 23.1663 23.3496 23.1663 23.6016C23.1663 23.8536 23.3715 24.0588 23.6235 24.0588Z" fill="#007CC3"/>
</svg>
