<svg width="64" height="64" viewBox="0 0 64 64" fill="none" xmlns="http://www.w3.org/2000/svg">
<path d="M27.3801 49.3677C26.9564 49.3677 26.9155 48.9191 26.8911 48.6516C26.8822 48.5466 26.8623 48.3303 26.8188 48.2976C26.7657 48.2938 26.7247 48.2925 26.6831 48.2925C26.1558 48.2925 25.5516 48.4928 24.9679 48.6848C24.4124 48.8685 23.8876 49.0426 23.4396 49.0426C22.7241 49.0426 22.3292 48.5799 22.2671 47.6692C22.2575 47.529 22.2607 47.3716 22.3599 47.2653C22.4751 47.1418 22.6729 47.1776 22.8534 47.2551C22.9507 47.2973 23.0607 47.3453 23.1606 47.3453C23.2271 47.3453 23.3302 47.3268 23.4518 47.1668L23.5171 47.0804C24.0195 46.4192 25.0652 45.0413 25.0582 44.144C25.0575 43.9527 25.0415 43.7805 25.0275 43.6276C24.9788 43.081 24.9321 42.5652 25.8492 42.4628C26.3356 42.4128 26.5692 42.5792 26.7996 42.7405C26.9865 42.8717 27.1619 42.9952 27.5113 43.0445C27.7206 43.0733 27.8915 43.2032 28.0425 43.3197C28.1091 43.3709 28.2191 43.4548 28.2633 43.4624C28.2627 43.4573 28.2863 43.4336 28.319 43.3652C28.7427 42.45 28.2415 41.8701 27.6073 41.1341C27.3129 40.7917 27.007 40.4352 26.7625 40.0116C26.6121 39.7504 26.8419 39.4778 27.0268 39.2589C27.0313 39.2551 27.0358 39.2487 27.0409 39.2442C26.8118 39.2244 26.6627 39.2442 26.5545 39.257C26.4918 39.2647 26.4399 39.2698 26.3951 39.2698C26.0879 39.2698 25.9951 39.0836 25.6521 38.3847C25.4351 37.9437 25.3782 37.4375 25.3238 36.9472C25.2463 36.2586 25.1811 35.6634 24.6966 35.4234C24.2601 35.2084 23.8563 34.9831 23.478 34.7732C22.5763 34.2695 21.7967 33.8368 21.0761 33.8368C20.1782 33.8394 18.0406 34.6471 16.9123 35.7543C16.5238 36.1357 15.6707 36.3207 14.3036 36.3207C11.2553 36.3207 6.67673 35.3805 6.07065 34.9658C4.01817 33.5623 3.27321 32.9543 3.18489 32.3392C3.11833 31.8759 3.42297 31.504 3.88505 30.9396C4.27417 30.464 4.75865 29.8714 5.25209 28.969C5.27641 28.9242 9.45753 23.3428 9.69945 23.184C11.0127 22.3252 10.7036 21.6608 10.2351 20.656C9.92857 19.9956 9.58041 19.248 9.67193 18.3194C9.79545 17.0708 9.88825 16.9031 10.4975 16.8205C10.8028 16.7802 11.2636 16.7181 12.0502 16.1972C12.6428 15.8055 13.6406 15.7229 14.3727 15.7229C17.1535 15.7229 21.7827 16.9389 22.4233 18.7725C22.5033 19.0029 23.1158 19.2589 23.8671 19.2589C24.2921 19.2589 24.6857 19.177 25.0051 19.0221C25.3999 18.8308 25.6963 18.7418 25.9375 18.7418C26.2863 18.7418 26.4598 18.9338 26.5859 19.0746C26.7235 19.2269 26.8188 19.3152 27.0985 19.273C27.3161 19.2397 27.5279 19.2231 27.7283 19.2231C28.6646 19.2231 29.2163 19.5821 29.6195 19.8445C29.8249 19.9783 29.9875 20.0839 30.1155 20.0839C30.1641 20.0839 30.2428 20.0704 30.3651 19.9597C30.8937 19.4823 30.8425 18.985 30.7881 18.4576C30.7414 18.0058 30.694 17.5386 31.0435 17.1354C31.5503 16.5504 32.8489 16.2458 35.254 16.1485C35.3206 16.1152 35.3711 15.826 35.3961 15.6864C35.4569 15.3402 35.5324 14.9108 35.9164 14.8909C36.6051 14.8557 37.2131 14.7956 37.7494 14.7431C38.3433 14.6848 38.8559 14.6343 39.3065 14.6343C40.9379 14.6343 41.6739 15.3684 42.3356 17.6551C42.3791 17.8093 42.4169 18.0039 42.3139 18.1421C42.2537 18.2221 42.0963 18.2912 41.8204 18.2375C41.7551 18.2247 41.6854 18.2106 41.6175 18.2106C41.551 18.2106 41.4825 18.2106 41.4441 18.3968C41.3148 19.0285 41.3577 19.4637 41.9606 19.8176C42.1737 19.9437 42.2601 19.9572 42.2876 19.9572C42.2991 19.9572 42.303 19.9572 42.3612 19.8983C42.463 19.794 42.6172 19.6365 42.9827 19.6365C43.27 19.6365 43.6579 19.7351 44.1692 19.938C45.0403 20.2816 45.206 21.2141 45.3673 22.1159C45.4979 22.8468 45.6207 23.5367 46.095 23.8605C46.1494 23.8976 46.1871 23.9015 46.2108 23.9015C46.3126 23.9015 46.4419 23.8112 46.5782 23.7159C46.8131 23.552 47.1183 23.3709 47.43 23.4765C47.8556 23.6192 48.1948 23.6884 48.4662 23.6884C48.8086 23.6884 49.0159 23.5802 49.2803 23.4426C49.6943 23.2269 50.214 22.953 51.439 23.0445C52.1417 23.0989 52.4963 23.8605 52.8099 24.5319C52.9878 24.9127 53.1894 25.344 53.366 25.3824C53.3814 25.3863 53.3967 25.3895 53.4108 25.392C53.3673 25.1789 53.4019 24.8986 53.8409 24.6682C53.9004 24.6375 53.9612 24.6215 54.0252 24.6215C54.2089 24.6215 54.3343 24.7488 54.447 24.8615C54.5167 24.9332 54.5974 25.0144 54.6518 25.0144C54.7631 25.0023 54.8726 24.9972 54.9852 24.9972C55.9087 24.9972 57.1139 25.3613 58.5084 25.7831C59.0108 25.9348 59.5331 26.0928 60.0649 26.2394C60.8675 26.4615 60.7868 27.7031 60.6326 28.3284C60.4419 29.1034 60.1718 29.5431 59.9939 29.833C59.7603 30.2144 59.7295 30.2631 60.0707 30.6304C60.8943 31.5188 61.1727 33.6384 60.2556 35.2596C60.0591 35.6071 59.7167 35.776 59.2086 35.776C58.9289 35.776 58.6191 35.7274 58.3196 35.68C57.8435 35.6052 57.334 35.5412 57.0127 35.634C56.9001 35.7965 56.6537 36.5376 56.4886 37.0349C56.0303 38.4135 55.9151 38.6663 55.7116 38.72C55.7174 38.7303 55.6143 38.8724 55.5235 38.9978C54.8585 39.9092 53.0716 42.3591 49.1977 42.2516C48.6601 42.2516 46.3843 43.3351 45.9593 43.5565C44.8931 44.1127 43.9017 44.2016 42.4425 43.8618C41.823 43.7178 41.4639 43.952 40.9359 44.3258C40.6742 44.5108 40.3779 44.7207 39.9964 44.9095C39.9465 44.9344 39.8934 44.9472 39.8403 44.9472C39.5939 44.9472 39.4313 44.7047 39.2764 44.4711C39.2406 44.4186 39.1945 44.3501 39.1561 44.2983C38.5257 44.9972 37.5471 45.1469 36.8259 45.1469C35.5849 45.1469 34.111 44.6797 34.0707 44.0756C34.0579 43.8893 34.1647 43.7428 34.3875 43.6333C34.2748 43.6244 34.166 43.6186 34.0707 43.6173C33.9017 43.6148 33.6963 43.4746 33.2854 43.1847C32.9379 42.9383 32.4137 42.5671 32.1743 42.5671C32.1404 42.5671 32.1353 42.5671 32.1219 42.6093C32.0355 42.8832 31.9606 43.1316 31.8915 43.3645C31.5075 44.6471 31.2764 45.4221 30.118 46.4282C29.5964 46.882 29.2931 47.4356 29.0268 47.9258C28.6511 48.6144 28.2953 49.266 27.4479 49.3684L27.3801 49.3677ZM27.3801 48.9562V49.161L27.3987 48.9549C28.0348 48.8775 28.2991 48.3936 28.6652 47.7236C28.9481 47.2032 29.27 46.6138 29.8473 46.112C30.9148 45.1847 31.1215 44.4948 31.4959 43.2423C31.5663 43.0087 31.6412 42.7546 31.7283 42.48C31.7955 42.2714 31.9561 42.1511 32.1731 42.1511C32.543 42.1511 33.0627 42.5184 33.5222 42.8423C33.7251 42.9876 34.0047 43.1847 34.086 43.2013C34.5891 43.209 35.4537 43.2685 35.4716 43.5853C35.4851 43.8151 35.2163 43.8503 35.0863 43.8688C34.5583 43.9386 34.4783 44.0576 34.4777 44.0589C34.5225 44.249 35.5523 44.7316 36.8239 44.7316C37.4838 44.7316 38.3817 44.5965 38.9059 43.9514C38.9692 43.874 39.0531 43.8311 39.1439 43.8311C39.3455 43.8311 39.471 44.0199 39.6169 44.2388C39.6809 44.3335 39.798 44.5114 39.8537 44.5338C40.1635 44.3623 40.4463 44.1613 40.6953 43.9853C41.1388 43.673 41.5215 43.4016 42.0809 43.4016C42.2262 43.4016 42.3734 43.4189 42.5334 43.4567C43.8902 43.7728 44.79 43.698 45.7673 43.1866C45.7929 43.1738 48.4591 41.8356 49.1887 41.8356C49.2911 41.8381 49.3724 41.8394 49.4531 41.8394C52.934 41.8394 54.5135 39.6743 55.1887 38.752C55.3667 38.5056 55.4537 38.3872 55.5561 38.3373C55.6694 38.185 55.9247 37.4164 56.0963 36.9024C56.5417 35.561 56.6543 35.3152 56.8451 35.2512C57.2476 35.1188 57.8377 35.184 58.3811 35.2711C58.678 35.3172 58.9583 35.3613 59.206 35.3613C59.5663 35.3613 59.7731 35.2698 59.894 35.0548C60.7011 33.6295 60.4911 31.6916 59.766 30.9082C59.2367 30.3386 59.359 30.073 59.6406 29.6148C59.8147 29.3306 60.054 28.9402 60.2307 28.2272C60.3715 27.6544 60.3811 26.7527 59.9523 26.6343C59.4179 26.4864 58.8931 26.3277 58.3868 26.1748C56.87 25.7159 55.5823 25.3178 54.703 25.4215L54.6492 25.424C54.4227 25.424 54.2659 25.2647 54.1513 25.1488C54.1078 25.1053 54.0425 25.0388 54.0143 25.0304C53.7513 25.177 53.7865 25.266 53.8409 25.401C53.8716 25.4804 53.919 25.6007 53.8422 25.7152C53.7571 25.84 53.6572 25.8656 53.2758 25.7831C52.9001 25.7012 52.6844 25.2391 52.4355 24.704C52.1686 24.1344 51.8665 23.4893 51.4057 23.4528C50.3151 23.3696 49.8767 23.5917 49.4691 23.8048C49.1798 23.9559 48.9071 24.098 48.4643 24.098C48.1475 24.098 47.766 24.0212 47.2982 23.8644C47.1497 23.8157 46.9897 23.9271 46.8124 24.0512C46.6377 24.1722 46.4399 24.3111 46.2089 24.3111C46.0879 24.3111 45.9708 24.2727 45.8607 24.1984C45.2444 23.7767 45.1004 22.9684 44.9609 22.1856C44.8137 21.3588 44.6742 20.578 44.0169 20.3181C43.5606 20.1376 43.2124 20.0468 42.9807 20.0468C42.7881 20.0468 42.7311 20.1044 42.653 20.1844C42.5225 20.3188 42.2927 20.4903 41.75 20.1709C40.8911 19.666 40.9097 18.9485 41.0396 18.3124C41.1273 17.8868 41.4012 17.7972 41.6163 17.7972C41.7097 17.7972 41.8076 17.8144 41.8972 17.8324C41.9183 17.8362 41.9375 17.84 41.9574 17.8445C41.9529 17.8234 41.9471 17.7984 41.9382 17.7684C41.2643 15.4375 40.5814 15.0445 39.3052 15.0445C38.8751 15.0445 38.3715 15.0938 37.7897 15.1514C37.2483 15.2045 36.6345 15.2653 35.9356 15.3005C35.8742 15.337 35.8249 15.6199 35.8006 15.7568C35.7391 16.1069 35.6623 16.5434 35.2713 16.5588C33.0198 16.6503 31.7756 16.9184 31.3545 17.4036C31.1215 17.6724 31.1548 18.0007 31.1977 18.4148C31.254 18.9632 31.3244 19.6461 30.6415 20.2644C30.47 20.4199 30.2979 20.4954 30.1161 20.4954C29.8646 20.4954 29.647 20.3533 29.3942 20.1888C29.0147 19.9418 28.5417 19.634 27.7276 19.634C27.5478 19.634 27.3571 19.6493 27.1599 19.68C26.6326 19.7594 26.4316 19.5188 26.2799 19.3498C26.1603 19.2167 26.0963 19.1527 25.9369 19.1527C25.7647 19.1527 25.5113 19.2333 25.1836 19.3927C24.8086 19.5744 24.3529 19.6698 23.8665 19.6698C23.0883 19.6698 22.2083 19.4087 22.0335 18.9082C21.5215 17.44 17.3225 16.1338 14.3727 16.1338C13.4038 16.1338 12.6793 16.2746 12.2774 16.5408C11.4121 17.113 10.8745 17.1853 10.5532 17.2288C10.2172 17.2736 10.1903 17.2781 10.0822 18.3604C10.0015 19.1764 10.31 19.8407 10.6095 20.4826C11.0863 21.5066 11.5369 22.4743 9.92601 23.529C9.71673 23.7364 5.78841 28.8621 5.61369 29.1674C5.10297 30.1024 4.58393 30.7373 4.20377 31.2C3.81209 31.68 3.55289 31.9968 3.59321 32.2804C3.65977 32.7463 4.51993 33.4074 6.30361 34.6266C6.78617 34.9581 11.2931 35.9104 14.3036 35.9104C15.9247 35.9104 16.4534 35.6295 16.6243 35.4618C17.7679 34.3392 19.99 33.4304 21.0671 33.4253C21.9036 33.4253 22.726 33.8842 23.6783 34.4141C24.0515 34.6215 24.4489 34.8429 24.879 35.0567C25.5651 35.394 25.6502 36.162 25.7327 36.9018C25.7833 37.3568 25.8358 37.8279 26.0214 38.2042C26.1923 38.5517 26.3273 38.8256 26.3823 38.8589C26.4259 38.8589 26.4617 38.8538 26.5046 38.8487C26.6793 38.8276 26.9827 38.8109 27.3244 38.8634C27.4748 38.8858 27.5311 38.9786 27.551 39.0324C27.6143 39.2013 27.4934 39.3447 27.3404 39.5258C27.2732 39.6058 27.1324 39.7722 27.1267 39.8343C27.3436 40.1965 27.6367 40.537 27.919 40.8653C28.5916 41.6455 29.2271 42.384 28.6915 43.5392C28.5884 43.762 28.4451 43.8752 28.2652 43.8752C28.0886 43.8752 27.9382 43.7588 27.7916 43.6468C27.6758 43.5578 27.5561 43.4669 27.455 43.4528C27.0063 43.3901 26.7599 43.218 26.5628 43.0778C26.358 42.9351 26.2159 42.8404 25.8947 42.8743C25.3782 42.9306 25.3878 43.0317 25.4383 43.593C25.4531 43.7556 25.4691 43.938 25.4703 44.1428C25.478 45.1802 24.4163 46.5792 23.8454 47.33L23.7801 47.4164C23.6079 47.6436 23.3999 47.7575 23.1612 47.7575C22.9756 47.7575 22.8105 47.6864 22.6908 47.634C22.687 47.634 22.6819 47.6314 22.678 47.6288C22.678 47.634 22.678 47.6378 22.678 47.6423C22.7369 48.5108 23.0793 48.6311 23.4396 48.6311C23.8217 48.6311 24.3158 48.4685 24.8387 48.2951C25.5055 48.0749 26.1987 47.8426 26.8329 47.8861C27.238 47.9124 27.2758 48.3348 27.3014 48.6151C27.311 48.7226 27.3289 48.9216 27.3692 48.9575H27.3801V48.9562Z" fill="#007CC3" stroke="#007CC3" stroke-width="0.5"/>
</svg>
