<svg width="64" height="64" viewBox="0 0 64 64" fill="none" xmlns="http://www.w3.org/2000/svg">
<path d="M47.4412 13.1809C46.0699 13.1809 44.8599 13.8323 44.0634 14.8279V9.80315C44.0634 7.40836 42.1154 5.46029 39.7206 5.46029C38.3493 5.46029 37.1393 6.11165 36.3428 7.10724V5.94283C36.3428 3.54804 34.3947 1.59998 31.9999 1.59998C29.6052 1.59998 27.6571 3.54804 27.6571 5.94283V7.10724C26.8606 6.11165 25.6506 5.46029 24.2793 5.46029C21.8845 5.46029 19.9365 7.40836 19.9365 9.80315V24.4787C19.14 23.4831 17.93 22.8317 16.5587 22.8317C14.1639 22.8317 12.2158 24.7798 12.2158 27.1746V42.6159C12.2158 53.5248 21.091 62.4 31.9999 62.4C42.9089 62.4 51.7841 53.5248 51.7841 42.6159V17.5238C51.7841 15.129 49.836 13.1809 47.4412 13.1809ZM31.9999 61.4349C21.6235 61.4349 13.1809 52.9923 13.1809 42.6159V27.1746C13.1809 25.3123 14.6964 23.7968 16.5587 23.7968C18.421 23.7968 19.9365 25.3123 19.9365 27.1746V31.0349V42.6159H20.9015V31.0349V27.1746V9.80315C20.9015 7.94085 22.417 6.42537 24.2793 6.42537C26.1416 6.42537 27.6571 7.94085 27.6571 9.80315V27.1746V32.9651H28.6222V27.1746V9.80315V5.94283C28.6222 4.08053 30.1376 2.56506 31.9999 2.56506C33.8622 2.56506 35.3777 4.08053 35.3777 5.94283V9.80315V27.1746V32.9651H36.3428V27.1746V9.80315C36.3428 7.94085 37.8583 6.42537 39.7206 6.42537C41.5829 6.42537 43.0984 7.94085 43.0984 9.80315V17.5238V31.0349V32.9651H44.0634V31.0349V17.5238C44.0634 15.6615 45.5789 14.146 47.4412 14.146C49.3035 14.146 50.819 15.6615 50.819 17.5238V42.6159C50.819 52.9923 42.3764 61.4349 31.9999 61.4349Z" fill="#007CC3"/>
</svg>
