<svg width="48" height="56" viewBox="0 0 48 56" fill="none" xmlns="http://www.w3.org/2000/svg">
<path d="M1.48 0.479991C1.33179 0.50827 1.19834 0.587994 1.1032 0.705093C1.00806 0.822192 0.957341 0.969136 0.959999 1.11999V46.22C0.960016 46.3897 1.02745 46.5525 1.14747 46.6725C1.26749 46.7925 1.43027 46.86 1.6 46.86H22.68C22.7648 46.8612 22.849 46.8455 22.9277 46.8139C23.0064 46.7823 23.078 46.7353 23.1384 46.6758C23.1988 46.6162 23.2468 46.5453 23.2795 46.467C23.3123 46.3888 23.3291 46.3048 23.3291 46.22C23.3291 46.1352 23.3123 46.0512 23.2795 45.973C23.2468 45.8947 23.1988 45.8238 23.1384 45.7642C23.078 45.7047 23.0064 45.6577 22.9277 45.6261C22.849 45.5945 22.7648 45.5788 22.68 45.58H2.24V1.75999H39.02V19.26C37.5626 18.6829 35.9642 18.36 34.3 18.36C27.2754 18.36 21.58 24.0115 21.58 30.98C21.58 35.3095 23.7887 39.1257 27.14 41.4V54.88C27.1417 54.9956 27.1746 55.1085 27.2353 55.2069C27.296 55.3052 27.3822 55.3853 27.4847 55.4386C27.5872 55.492 27.7023 55.5165 27.8177 55.5097C27.9331 55.5029 28.0444 55.465 28.14 55.4L34.32 51.28L40.48 55.4C40.5756 55.465 40.6869 55.5029 40.8023 55.5097C40.9177 55.5165 41.0328 55.492 41.1353 55.4386C41.2378 55.3853 41.324 55.3052 41.3847 55.2069C41.4454 55.1085 41.4783 54.9956 41.48 54.88V46.7C41.4812 46.6152 41.4655 46.531 41.4339 46.4523C41.4023 46.3736 41.3553 46.302 41.2958 46.2416C41.2362 46.1812 41.1653 46.1332 41.087 46.1005C41.0088 46.0677 40.9248 46.0509 40.84 46.0509C40.7552 46.0509 40.6712 46.0677 40.593 46.1005C40.5147 46.1332 40.4438 46.1812 40.3842 46.2416C40.3247 46.302 40.2777 46.3736 40.2461 46.4523C40.2145 46.531 40.1988 46.6152 40.2 46.7V53.68L34.66 49.98C34.5559 49.912 34.4343 49.8758 34.31 49.8758C34.1857 49.8758 34.0641 49.912 33.96 49.98L28.42 53.68V42.16C30.1819 43.0753 32.1743 43.6 34.3 43.6C41.3246 43.6 47.04 37.9485 47.04 30.98C47.04 26.1576 44.3096 21.9655 40.3 19.84V1.11999C40.3 0.950258 40.2325 0.787481 40.1125 0.667462C39.9925 0.547442 39.8297 0.480008 39.66 0.479991H1.6C1.56009 0.476233 1.51991 0.476233 1.48 0.479991ZM7.54 6.93999C7.45519 6.93879 7.37099 6.95446 7.29229 6.98608C7.21359 7.01771 7.14196 7.06466 7.08157 7.12421C7.02117 7.18376 6.97321 7.25472 6.94048 7.33296C6.90774 7.4112 6.89088 7.49518 6.89088 7.57999C6.89088 7.66481 6.90774 7.74878 6.94048 7.82702C6.97321 7.90527 7.02117 7.97623 7.08157 8.03577C7.14196 8.09532 7.21359 8.14227 7.29229 8.1739C7.37099 8.20552 7.45519 8.22119 7.54 8.21999H23.5C23.5848 8.22119 23.669 8.20552 23.7477 8.1739C23.8264 8.14227 23.898 8.09532 23.9584 8.03577C24.0188 7.97623 24.0668 7.90527 24.0995 7.82702C24.1323 7.74878 24.1491 7.66481 24.1491 7.57999C24.1491 7.49518 24.1323 7.4112 24.0995 7.33296C24.0668 7.25472 24.0188 7.18376 23.9584 7.12421C23.898 7.06466 23.8264 7.01771 23.7477 6.98608C23.669 6.95446 23.5848 6.93879 23.5 6.93999H7.54ZM7.48 12.96C7.39595 12.9639 7.31351 12.9844 7.23736 13.0202C7.16122 13.056 7.09288 13.1064 7.03624 13.1687C6.92184 13.2943 6.86204 13.4603 6.87 13.63C6.87796 13.7997 6.95301 13.9594 7.07866 14.0738C7.20431 14.1881 7.37026 14.2479 7.54 14.24H33.72C33.8048 14.2412 33.889 14.2255 33.9677 14.1939C34.0464 14.1623 34.118 14.1153 34.1784 14.0558C34.2388 13.9962 34.2868 13.9253 34.3195 13.847C34.3523 13.7688 34.3691 13.6848 34.3691 13.6C34.3691 13.5152 34.3523 13.4312 34.3195 13.353C34.2868 13.2747 34.2388 13.2038 34.1784 13.1442C34.118 13.0847 34.0464 13.0377 33.9677 13.0061C33.889 12.9745 33.8048 12.9588 33.72 12.96H7.54C7.52001 12.9591 7.49999 12.9591 7.48 12.96ZM7.42 18.98C7.25026 18.9959 7.0938 19.0786 6.98502 19.2099C6.87625 19.3411 6.82409 19.5103 6.84 19.68C6.85591 19.8497 6.9386 20.0062 7.06988 20.115C7.20115 20.2237 7.37026 20.2759 7.54 20.26H20.14C20.2248 20.2612 20.309 20.2455 20.3877 20.2139C20.4664 20.1823 20.538 20.1353 20.5984 20.0758C20.6588 20.0162 20.7068 19.9453 20.7395 19.867C20.7723 19.7888 20.7891 19.7048 20.7891 19.62C20.7891 19.5352 20.7723 19.4512 20.7395 19.373C20.7068 19.2947 20.6588 19.2238 20.5984 19.1642C20.538 19.1047 20.4664 19.0577 20.3877 19.0261C20.309 18.9945 20.2248 18.9788 20.14 18.98H7.54C7.50009 18.9762 7.45991 18.9762 7.42 18.98ZM34.3 19.62C40.6301 19.62 45.76 24.7005 45.76 30.98C45.76 37.2595 40.6301 42.34 34.3 42.34C27.9699 42.34 22.86 37.2595 22.86 30.98C22.86 24.7005 27.9699 19.62 34.3 19.62ZM7.42 25C7.25026 25.0159 7.0938 25.0986 6.98502 25.2299C6.93117 25.2949 6.89064 25.3698 6.86576 25.4505C6.84087 25.5312 6.83212 25.6159 6.84 25.7C6.84788 25.784 6.87224 25.8657 6.91168 25.9403C6.95112 26.015 7.00488 26.0811 7.06988 26.135C7.20115 26.2437 7.37026 26.2959 7.54 26.28H13.84C13.9248 26.2812 14.009 26.2655 14.0877 26.2339C14.1664 26.2023 14.238 26.1553 14.2984 26.0958C14.3588 26.0362 14.4068 25.9653 14.4395 25.887C14.4723 25.8088 14.4891 25.7248 14.4891 25.64C14.4891 25.5552 14.4723 25.4712 14.4395 25.393C14.4068 25.3147 14.3588 25.2438 14.2984 25.1842C14.238 25.1247 14.1664 25.0777 14.0877 25.0461C14.009 25.0145 13.9248 24.9988 13.84 25H7.54C7.50009 24.9962 7.45991 24.9962 7.42 25ZM39.78 26.64C39.6386 26.6705 39.5117 26.7481 39.42 26.86L32.44 34.66L29.18 31.44C29.1196 31.3809 29.0481 31.3342 28.9697 31.3027C28.8913 31.2712 28.8074 31.2555 28.7229 31.2564C28.6384 31.2573 28.5549 31.2749 28.4771 31.3081C28.3994 31.3413 28.329 31.3894 28.2699 31.4499C28.2108 31.5103 28.1641 31.5818 28.1327 31.6602C28.1012 31.7386 28.0855 31.8225 28.0864 31.907C28.0873 31.9915 28.1049 32.075 28.1381 32.1528C28.1714 32.2305 28.2196 32.3009 28.28 32.36L32.02 36.04C32.081 36.1004 32.1536 36.1479 32.2333 36.1797C32.3131 36.2115 32.3984 36.2269 32.4842 36.2251C32.5701 36.2232 32.6547 36.2041 32.733 36.1688C32.8113 36.1336 32.8817 36.083 32.94 36.02L40.36 27.7C40.4489 27.6014 40.5049 27.4776 40.5203 27.3458C40.5357 27.214 40.5098 27.0806 40.4461 26.9642C40.3824 26.8478 40.284 26.754 40.1647 26.696C40.0454 26.6379 39.9109 26.6183 39.78 26.64Z" fill="#007CC3"/>
</svg>
