<svg width="40" height="40" viewBox="0 0 40 40" fill="none" xmlns="http://www.w3.org/2000/svg">
<path d="M1.71418 34.2165H8.11443C8.27222 34.2165 8.40015 34.0887 8.40015 33.9308V32.4894L19.2046 35.9707C20.0311 36.2369 20.8799 36.3691 21.7256 36.3691C22.9833 36.3691 24.2332 36.0765 25.3883 35.4983L37.8912 29.2386C38.2521 29.0578 38.4946 28.7252 38.5565 28.3265C38.6185 27.9275 38.4882 27.5371 38.1991 27.2556C36.9597 26.0477 35.1702 25.6401 33.5303 26.1908L27.6042 28.1812C27.6478 28.0023 27.6734 27.8164 27.6734 27.6242C27.6734 26.3237 26.6154 25.2656 25.315 25.2656H21.209C20.6372 25.2656 20.0729 25.1152 19.5769 24.8304L17.9892 23.9185C16.9553 23.3248 15.7788 23.0109 14.5869 23.0109H8.40015V21.2447C8.40015 21.0868 8.27222 20.959 8.11443 20.959H1.71418C1.5564 20.959 1.42847 21.0868 1.42847 21.2447V33.9308C1.42847 34.0887 1.5564 34.2165 1.71418 34.2165ZM8.40015 23.5823H14.5869C15.679 23.5823 16.7572 23.87 17.7046 24.4141L19.2923 25.3259C19.8748 25.6604 20.5376 25.8371 21.209 25.8371H25.315C26.3004 25.8371 27.102 26.6387 27.102 27.6242C27.102 28.6097 26.3004 29.4113 25.315 29.4113H16.4056C16.2478 29.4113 16.1199 29.5391 16.1199 29.697C16.1199 29.8549 16.2478 29.9827 16.4056 29.9827H25.315C26.1517 29.9827 26.8861 29.5435 27.3049 28.8848L33.7122 26.7327C35.1486 26.2503 36.7153 26.6074 37.8004 27.6646C37.9553 27.8158 38.0251 28.0248 37.9919 28.2386C37.9587 28.4526 37.8287 28.6306 37.6354 28.7274L25.1324 34.9872C23.3354 35.8873 21.2923 36.0427 19.3798 35.4266L8.40015 31.8889V23.5823ZM1.9999 21.5304H7.82872V33.6451H1.9999V21.5304Z" fill="#007CC3"/>
<path d="M5.24997 29.7472C4.47039 29.7472 3.83618 30.3803 3.83618 31.1588C3.83618 31.9372 4.47039 32.5703 5.24997 32.5703C6.02954 32.5703 6.66375 31.9372 6.66375 31.1588C6.66375 30.3803 6.02954 29.7472 5.24997 29.7472ZM5.24997 31.9989C4.78554 31.9989 4.40761 31.6219 4.40761 31.1588C4.40761 30.6956 4.78554 30.3186 5.24997 30.3186C5.71439 30.3186 6.09232 30.6956 6.09232 31.1588C6.09232 31.6219 5.71439 31.9989 5.24997 31.9989Z" fill="#007CC3"/>
<path d="M6.53955 3.91992V18.558C6.53955 18.716 6.66748 18.8437 6.82527 18.8437H33.1746C33.3324 18.8437 33.4603 18.716 33.4603 18.558V3.91992C33.4603 3.762 33.3324 3.63421 33.1746 3.63421H6.82527C6.66748 3.63421 6.53955 3.762 6.53955 3.91992ZM32.8889 18.2723H29.8934C30.0202 16.5273 31.2924 15.1309 32.8889 14.9803V18.2723ZM32.8889 4.20564V7.49763C31.2924 7.34703 30.0202 5.95061 29.8934 4.20564H32.8889ZM7.11098 4.20564H10.1065C9.9797 5.95061 8.7075 7.34703 7.11098 7.49763V4.20564ZM7.11098 8.0692C9.0214 7.91762 10.547 6.26674 10.6778 4.20564H29.3221C29.4529 6.26674 30.9785 7.91762 32.8889 8.0692V14.4088C30.9785 14.5603 29.4529 16.2112 29.3221 18.2723H10.6778C10.547 16.2112 9.0214 14.5603 7.11098 14.4088V8.0692ZM7.11098 14.9803C8.7075 15.1309 9.9797 16.5273 10.1065 18.2723H7.11098V14.9803Z" fill="#007CC3"/>
<path d="M20 16.9043C22.5579 16.9043 24.639 14.363 24.639 11.2391C24.639 8.11524 22.5579 5.57394 20 5.57394C17.4421 5.57394 15.3611 8.11524 15.3611 11.2391C15.3611 14.363 17.4421 16.9043 20 16.9043ZM20 6.14537C22.2429 6.14537 24.0676 8.43053 24.0676 11.2391C24.0676 14.0477 22.2429 16.3329 20 16.3329C17.7571 16.3329 15.9325 14.0477 15.9325 11.2391C15.9325 8.43053 17.7571 6.14537 20 6.14537Z" fill="#007CC3"/>
<path d="M27.2796 11.5248H29.4138C29.5716 11.5248 29.6995 11.397 29.6995 11.2391C29.6995 11.0812 29.5716 10.9534 29.4138 10.9534H27.2796C27.1218 10.9534 26.9939 11.0812 26.9939 11.2391C26.9939 11.397 27.1218 11.5248 27.2796 11.5248Z" fill="#007CC3"/>
<path d="M10.5863 11.5248H12.7205C12.8782 11.5248 13.0062 11.397 13.0062 11.2391C13.0062 11.0812 12.8782 10.9534 12.7205 10.9534H10.5863C10.4285 10.9534 10.3005 11.0812 10.3005 11.2391C10.3005 11.397 10.4285 11.5248 10.5863 11.5248Z" fill="#007CC3"/>
</svg>
