<svg width="18" height="18" viewBox="0 0 18 18" fill="none" xmlns="http://www.w3.org/2000/svg">
<path d="M9 18C13.9706 18 18 13.9706 18 9C18 4.02944 13.9706 0 9 0C4.02944 0 0 4.02944 0 9C0 13.9706 4.02944 18 9 18Z" fill="#37AEE2"/>
<path d="M7.50302 10.8308L11.13 13.5105C11.5439 13.7389 11.8426 13.6206 11.9457 13.1263L13.4221 6.16905C13.5732 5.56305 13.1911 5.2881 12.7951 5.46788L4.12584 8.8107C3.53409 9.04808 3.53762 9.37823 4.01799 9.5253L6.24272 10.2197L11.3932 6.97035C11.6363 6.8229 11.8595 6.9021 11.6764 7.0647" fill="white"/>
</svg>
