<svg width="48" height="48" viewBox="0 0 48 48" fill="none" xmlns="http://www.w3.org/2000/svg">
<path fill-rule="evenodd" clip-rule="evenodd" d="M44.6401 44.16C44.6401 44.2857 44.5884 44.4106 44.4995 44.4994C44.4107 44.5883 44.2858 44.64 44.1601 44.64H3.83986C3.7142 44.64 3.5893 44.5883 3.50046 44.4994C3.41161 44.4106 3.35986 44.2857 3.35986 44.16V3.83986C3.35986 3.7142 3.41161 3.58936 3.50046 3.50046C3.5893 3.41161 3.7142 3.35986 3.83986 3.35986H44.1601C44.2858 3.35986 44.4107 3.41161 44.4995 3.50046C44.5884 3.58936 44.6401 3.7142 44.6401 3.83986V44.16ZM43.6801 43.68V24.48H4.31986V43.68H43.6801ZM43.6801 23.52V4.31986H4.31986V23.52H43.6801Z" fill="#007CC3"/>
<path fill-rule="evenodd" clip-rule="evenodd" d="M35.7331 34.5736C35.7331 34.6379 35.7203 34.7023 35.6952 34.7615C35.6702 34.8208 35.6331 34.8749 35.5868 34.9196L30.0343 40.2905C29.9444 40.3797 29.818 40.4309 29.6913 40.4296C29.5647 40.4296 29.4394 40.3743 29.3514 40.2832C29.2634 40.1922 29.2136 40.0653 29.2165 39.9387C29.2194 39.8121 29.2747 39.6875 29.3668 39.6005L34.0664 35.0546H12.7468C12.62 35.0546 12.4933 35.0055 12.403 34.9165C12.3127 34.8274 12.2599 34.7015 12.2599 34.5746C12.2599 34.4478 12.3127 34.3218 12.403 34.2328C12.4933 34.1438 12.62 34.0929 12.7468 34.0946H34.0657L29.367 29.5536C29.2748 29.4667 29.2194 29.3422 29.2165 29.2155C29.2136 29.089 29.2633 28.9619 29.3513 28.8709C29.4392 28.7798 29.5645 28.7259 29.6912 28.7245C29.8178 28.7245 29.9442 28.7743 30.0342 28.8634L35.5867 34.2295C35.6788 34.3185 35.7328 34.4456 35.7331 34.5736Z" fill="#007CC3"/>
<path fill-rule="evenodd" clip-rule="evenodd" d="M35.7399 13.4279C35.738 13.5535 35.6845 13.6775 35.5944 13.765C35.5043 13.8525 35.3787 13.9025 35.2531 13.9007H13.9335L18.633 18.4466C18.7261 18.5333 18.7824 18.6583 18.7857 18.7854C18.789 18.9126 18.7393 19.0402 18.6509 19.1317C18.5625 19.2231 18.4365 19.2771 18.3093 19.278C18.1821 19.2789 18.0554 19.2268 17.9656 19.1366L12.4131 13.7657C12.367 13.7211 12.3299 13.6671 12.3049 13.608C12.2799 13.5489 12.2668 13.4848 12.2668 13.4206C12.2668 13.3565 12.2799 13.2923 12.305 13.2332C12.33 13.1742 12.3671 13.1202 12.4132 13.0756L17.9658 7.70931C18.0556 7.61922 18.1823 7.56712 18.3095 7.56813C18.4367 7.56909 18.5627 7.6231 18.651 7.71458C18.7394 7.80602 18.7891 7.93375 18.7857 8.0609C18.7823 8.18806 18.726 8.31296 18.6328 8.3996L13.9342 12.9407H35.2531C35.3171 12.9397 35.3813 12.9519 35.4406 12.976C35.4999 13 35.5542 13.0361 35.5995 13.0814C35.6447 13.1267 35.6808 13.1811 35.7048 13.2404C35.7288 13.2997 35.7409 13.3639 35.7399 13.4279Z" fill="#007CC3"/>
</svg>
