<svg width="66" height="66" viewBox="0 0 66 66" fill="none" xmlns="http://www.w3.org/2000/svg">
<path d="M14.427 29.9357C14.1619 29.8838 13.7733 29.779 13.2587 29.6199C12.775 29.4352 11.9105 29.0252 10.6606 28.3865C9.41668 27.7242 8.32285 26.9567 7.37832 26.0845C6.43942 25.1909 5.57605 23.9377 4.79064 22.3197C4.0364 20.6833 3.65848 18.8871 3.65848 16.9294C3.65848 13.2046 5.12647 9.98142 8.07243 7.25456L8.07245 7.25453C11.0444 4.5021 14.6775 3.125 18.9796 3.125C23.3091 3.125 26.9557 4.50224 29.9275 7.25453L29.928 7.25494C32.9011 9.98194 34.3824 13.205 34.3824 16.9294C34.3824 18.8875 34.0043 20.6839 33.2498 22.3206C32.4927 23.9361 31.5901 25.1873 30.5449 26.0801C29.4872 26.9567 28.4302 27.7133 27.3741 28.3499C26.3445 28.9603 25.4691 29.3819 24.7463 29.6183L23.5644 29.9377L23.5797 30.1821C23.954 30.2345 24.4389 30.3398 25.0358 30.4993C25.6207 30.6556 26.672 31.1165 28.1988 31.891L28.2004 31.8918C29.7166 32.6344 31.0555 33.5222 32.2178 34.5548C33.3734 35.5814 34.4407 37.0743 35.417 39.04C36.3882 40.9955 36.875 43.191 36.875 45.6289C36.875 50.1833 35.1873 54.0329 31.8072 57.1851C28.428 60.3098 24.1554 61.875 18.9796 61.875C13.8312 61.875 9.5722 60.31 6.19284 57.1852C2.81272 54.033 1.125 50.1833 1.125 45.6289C1.125 43.1899 1.585 40.9936 2.5025 39.0375C3.42301 37.075 4.52961 35.5707 5.81911 34.5181C7.12123 33.4552 8.42204 32.5794 9.72147 31.8899L9.72148 31.8899L9.72321 31.889C11.0253 31.1715 12.1443 30.7105 13.0818 30.5006L13.0834 30.5002L14.4318 30.18L14.427 29.9357ZM7.20784 56.2477L7.20827 56.2481C10.3128 59.1007 14.2535 60.5239 19.0204 60.5239C23.7873 60.5239 27.7147 59.1007 30.7921 56.2477L30.7922 56.2477C33.8957 53.369 35.4496 49.8268 35.4496 45.6289C35.4496 41.4311 33.8958 37.9022 30.7921 35.0501C27.7148 32.1705 23.7874 30.7339 19.0204 30.7339C14.2533 30.7339 10.3125 32.1706 7.20806 35.0499C4.10424 37.9021 2.55037 41.431 2.55037 45.6289C2.55037 49.8268 4.10427 53.369 7.20784 56.2477ZM28.9118 8.19134C26.2441 5.73991 22.9304 4.51611 18.9796 4.51611C15.0556 4.51611 11.7555 5.74014 9.08795 8.19154C6.42193 10.6415 5.08385 13.556 5.08385 16.9294C5.08385 20.3029 6.42193 23.2174 9.08795 25.6673C11.7555 28.1187 15.0556 29.3428 18.9796 29.3428C22.9304 29.3428 26.2441 28.119 28.9118 25.6676C31.605 23.2178 32.957 20.3033 32.957 16.9294C32.957 13.5556 31.605 10.6411 28.9118 8.19134Z" fill="#007CC3" stroke="white" stroke-width="0.25"/>
</svg>
