<svg width="64" height="64" viewBox="0 0 64 64" fill="none" xmlns="http://www.w3.org/2000/svg">
<path d="M63.6534 41.9043C63.6682 41.8781 63.6822 41.8525 63.6925 41.823C63.7027 41.7923 63.7072 41.761 63.711 41.729C63.7136 41.7091 63.7232 41.6912 63.7232 41.6707C63.7232 41.6586 63.7168 41.6483 63.7162 41.6362C63.7155 41.6234 63.72 41.6118 63.7181 41.599L61.6899 28.0304C61.688 28.0195 61.681 28.0112 61.679 28.0003C61.672 27.9683 61.6592 27.9402 61.6458 27.9101C61.633 27.8819 61.6227 27.8544 61.6054 27.8294C61.5894 27.8058 61.5677 27.7866 61.5472 27.7661C61.5229 27.7418 61.4992 27.7194 61.4704 27.7008C61.4621 27.695 61.457 27.6867 61.448 27.6816L54.4291 23.7827C54.4214 23.7782 54.4131 23.7789 54.4048 23.775C54.3766 23.7616 54.3459 23.7546 54.3146 23.7469C54.2832 23.7392 54.2525 23.7296 54.2205 23.7277C54.2122 23.727 54.2051 23.7226 54.1962 23.7226H45.6298V17.48C45.6298 17.215 45.4147 17 45.1498 17H1.48C1.21504 17 1 17.215 1 17.48V41.6707C1 41.9357 1.21504 42.1507 1.48 42.1507H3.3648C3.60544 44.4694 5.57088 46.2838 7.95232 46.2838C10.3338 46.2838 12.2992 44.4694 12.5398 42.1507H34.5654C34.8067 44.4694 36.7715 46.2838 39.1536 46.2838C41.5357 46.2838 43.5005 44.4694 43.7418 42.1507H45.1498H49.608C49.8493 44.4694 51.8141 46.2838 54.1962 46.2838C56.5782 46.2838 58.543 44.4694 58.7843 42.1507H63.2426C63.2662 42.1507 63.2899 42.1488 63.3136 42.1456C63.3347 42.1424 63.352 42.1302 63.3718 42.1245C63.4026 42.1155 63.4314 42.1072 63.4589 42.0931C63.4877 42.0784 63.5114 42.0605 63.5363 42.0413C63.56 42.0221 63.5818 42.0035 63.6022 41.9805C63.6221 41.9568 63.6374 41.9318 63.6534 41.9043ZM54.072 24.6826L60.7747 28.4061L62.6851 41.1907H58.7843C58.543 38.872 56.5782 37.0576 54.1962 37.0576C51.8141 37.0576 49.8493 38.872 49.608 41.1907H45.6298V24.6826H54.072ZM44.6698 17.96V34.4413H31.231V25.5139C31.231 25.1869 30.9648 24.9206 30.6378 24.9206H26.9309H25.0493H21.7104V24.3562C21.7104 24.0214 21.4384 23.7488 21.1037 23.7488H16.9405H14.8278H10.6653C10.3306 23.7488 10.0579 24.0214 10.0579 24.3562V34.4419H1.96064V17.96H44.6698ZM25.9901 32.4842C25.7251 32.4842 25.5101 32.6992 25.5101 32.9642V34.4413H21.7098V25.8806H24.5686V28.6742C24.5686 28.8662 24.6832 29.0403 24.8605 29.1158C24.9213 29.1421 24.9853 29.1542 25.0486 29.1542C25.1702 29.1542 25.2899 29.1082 25.3808 29.0211L25.9901 28.4368L26.5981 29.0205C26.737 29.1536 26.9424 29.192 27.1184 29.1158C27.2957 29.0403 27.4102 28.8669 27.4102 28.6742V25.8806H30.2704V34.4413H26.4701V32.9642C26.4701 32.6992 26.255 32.4842 25.9901 32.4842ZM15.8845 32.2429C15.6195 32.2429 15.4045 32.4579 15.4045 32.7229V34.4413H11.0173V24.7088H14.3472V27.9062C14.3472 28.0989 14.4618 28.2723 14.639 28.3478C14.6998 28.3741 14.7638 28.3862 14.8272 28.3862C14.9488 28.3862 15.0685 28.3402 15.16 28.2525L15.8845 27.5574L16.6077 28.2525C16.7466 28.3856 16.9514 28.424 17.128 28.3478C17.3046 28.2723 17.4198 28.0989 17.4198 27.9062V24.7088H20.7498V25.5126C20.7498 25.5133 20.7498 25.5133 20.7498 25.5139V34.4413H16.3645V32.7229C16.3645 32.4579 16.1494 32.2429 15.8845 32.2429ZM15.3078 24.7088H16.4605V26.7792L16.2173 26.545C16.0317 26.367 15.7386 26.367 15.5523 26.545L15.3078 26.7798V24.7088ZM25.5293 25.8806H26.4509V27.5485L26.3229 27.4256C26.1366 27.2477 25.8435 27.247 25.6579 27.4256L25.5286 27.5491V25.8806H25.5293ZM1.96 35.4013H10.6646H21.1037H21.343H30.6378H44.6698V41.1907H43.7418C43.5005 38.872 41.5357 37.0576 39.1536 37.0576C36.7715 37.0576 34.8067 38.872 34.5654 41.1907H12.5405C12.2998 38.872 10.3344 37.0576 7.95296 37.0576C5.57152 37.0576 3.60608 38.872 3.36544 41.1907H1.96064V35.4013H1.96ZM7.95232 45.3238C5.93824 45.3238 4.2992 43.6848 4.2992 41.6707C4.2992 39.6566 5.93824 38.0176 7.95232 38.0176C9.9664 38.0176 11.6054 39.6566 11.6054 41.6707C11.6054 43.6848 9.96704 45.3238 7.95232 45.3238ZM39.1536 45.3238C37.1395 45.3238 35.5005 43.6848 35.5005 41.6707C35.5005 39.6566 37.1395 38.0176 39.1536 38.0176C41.1677 38.0176 42.8067 39.6566 42.8067 41.6707C42.8067 43.6848 41.1683 45.3238 39.1536 45.3238ZM54.1962 45.3238C52.1821 45.3238 50.543 43.6848 50.543 41.6707C50.543 39.6566 52.1821 38.0176 54.1962 38.0176C56.2102 38.0176 57.8493 39.6566 57.8493 41.6707C57.8493 43.6848 56.2109 45.3238 54.1962 45.3238Z" fill="#007CC3"/>
<path d="M47.9081 33.774H58.0457C58.1058 33.774 58.1654 33.7606 58.2217 33.7382C58.2447 33.7286 58.2633 33.7132 58.285 33.7004C58.3106 33.6857 58.3375 33.6755 58.3606 33.6556C58.365 33.6518 58.3663 33.6467 58.3702 33.6428C58.3964 33.6185 58.415 33.5884 58.4354 33.5584C58.4508 33.536 58.47 33.5161 58.4802 33.4918C58.4924 33.4662 58.495 33.438 58.502 33.4105C58.511 33.3766 58.5212 33.344 58.5225 33.31C58.5225 33.3043 58.5257 33.2992 58.5257 33.294C58.5257 33.2704 58.5154 33.2499 58.5122 33.2275C58.5078 33.1929 58.5046 33.1603 58.4924 33.1276C58.4796 33.0944 58.4604 33.0668 58.4412 33.0374C58.429 33.0188 58.4239 32.9971 58.4079 32.9792L54.1974 28.144C54.1935 28.1395 54.1878 28.1382 54.1839 28.1337C54.1602 28.1081 54.1308 28.0909 54.1026 28.071C54.079 28.055 54.0585 28.0358 54.0329 28.0243C54.0086 28.0134 53.9817 28.0109 53.9554 28.0038C53.9202 27.9942 53.887 27.984 53.8505 27.9827C53.8454 27.9827 53.8409 27.9795 53.8358 27.9795H47.9087C47.6438 27.9795 47.4287 28.1945 47.4287 28.4595V33.294C47.4281 33.5596 47.6431 33.774 47.9081 33.774ZM53.6162 28.9395L56.991 32.814H48.3881V28.9395H53.6162Z" fill="#007CC3"/>
</svg>
