<svg width="25" height="24" viewBox="0 0 25 24" fill="none" xmlns="http://www.w3.org/2000/svg">
<path d="M12.3636 10.1999C11.3694 10.1999 10.5636 11.0058 10.5636 11.9999C10.5636 12.994 11.3694 13.7999 12.3636 13.7999C13.3577 13.7999 14.1636 12.994 14.1636 11.9999C14.1636 11.0058 13.3577 10.1999 12.3636 10.1999Z" fill="white"/>
<path d="M12.3636 17.4002C11.3694 17.4002 10.5636 18.2061 10.5636 19.2002C10.5636 20.1943 11.3694 21.0002 12.3636 21.0002C13.3577 21.0002 14.1636 20.1943 14.1636 19.2002C14.1636 18.2061 13.3577 17.4002 12.3636 17.4002Z" fill="white"/>
<path d="M12.3636 3.00024C11.3694 3.00024 10.5636 3.80614 10.5636 4.80025C10.5636 5.79437 11.3694 6.60026 12.3636 6.60026C13.3577 6.60026 14.1636 5.79437 14.1636 4.80025C14.1636 3.80614 13.3577 3.00024 12.3636 3.00024Z" fill="white"/>
<path d="M5.16386 10.1999C4.16974 10.1999 3.36385 11.0058 3.36385 11.9999C3.36385 12.994 4.16974 13.7999 5.16386 13.7999C6.15798 13.7999 6.96387 12.994 6.96387 11.9999C6.96387 11.0058 6.15798 10.1999 5.16386 10.1999Z" fill="white"/>
<path d="M19.5638 10.1999C18.5696 10.1999 17.7638 11.0058 17.7638 11.9999C17.7638 12.994 18.5696 13.7999 19.5638 13.7999C20.5579 13.7999 21.3638 12.994 21.3638 11.9999C21.3638 11.0058 20.5579 10.1999 19.5638 10.1999Z" fill="white"/>
<path d="M5.16386 17.4002C4.16974 17.4002 3.36385 18.2061 3.36385 19.2002C3.36385 20.1943 4.16974 21.0002 5.16386 21.0002C6.15797 21.0002 6.96387 20.1943 6.96387 19.2002C6.96387 18.2061 6.15797 17.4002 5.16386 17.4002Z" fill="white"/>
<path d="M19.5638 17.4002C18.5696 17.4002 17.7638 18.2061 17.7638 19.2002C17.7638 20.1943 18.5696 21.0002 19.5638 21.0002C20.5579 21.0002 21.3638 20.1943 21.3638 19.2002C21.3638 18.2061 20.5579 17.4002 19.5638 17.4002Z" fill="white"/>
<path d="M5.16361 3.00024C4.16949 3.00024 3.3636 3.80614 3.3636 4.80025C3.3636 5.79437 4.16949 6.60026 5.16361 6.60026C6.15773 6.60026 6.96362 5.79437 6.96362 4.80025C6.96362 3.80614 6.15773 3.00024 5.16361 3.00024Z" fill="white"/>
<path d="M19.5618 3C18.5677 3 17.7618 3.80589 17.7618 4.80001C17.7618 5.79413 18.5677 6.60002 19.5618 6.60002C20.5559 6.60002 21.3618 5.79413 21.3618 4.80001C21.3618 3.80589 20.5559 3 19.5618 3Z" fill="white"/>
</svg>
