<svg width="120" height="120" viewBox="0 0 120 120" fill="none" xmlns="http://www.w3.org/2000/svg">
<path d="M117.273 87.2741H62.7273V46.7209C67.4196 45.5016 70.9091 41.2682 70.9091 36.199C70.9091 30.1825 66.0165 25.2899 60 25.2899C53.9848 25.2899 49.0909 30.1825 49.0909 36.199C49.0909 41.2682 52.5811 45.5013 57.2727 46.7207V87.2741H2.72727C1.22115 87.2741 0 88.4939 0 90.0014V111.82C0 113.327 1.22115 114.547 2.72727 114.547H117.273C118.78 114.547 120 113.327 120 111.82V90.0014C120 88.4939 118.78 87.2741 117.273 87.2741ZM54.5455 36.199C54.5455 33.1921 56.9917 30.7445 60 30.7445C63.0069 30.7445 65.4545 33.1921 65.4545 36.199C65.4545 39.2059 63.0069 41.6536 60 41.6536C56.9917 41.6536 54.5455 39.2059 54.5455 36.199ZM114.545 109.092H5.45455V92.7287H114.545V109.092Z" fill="#333333"/>
<path d="M34.9219 71.8928C35.4 72.231 35.9473 72.3908 36.4893 72.3908C37.3469 72.3908 38.1912 71.9887 38.7225 71.2323C39.5894 70.0018 39.2938 68.2999 38.062 67.4343C27.8906 60.2752 21.8182 48.5991 21.8182 36.1985C21.8182 23.798 27.892 12.1192 38.0646 4.95741C39.2964 4.09182 39.5921 2.38994 38.7252 1.15947C37.8582 -0.0763259 36.159 -0.369295 34.9246 0.498958C23.303 8.67811 16.3636 22.0242 16.3636 36.1985C16.3636 50.3729 23.3017 63.7163 34.9219 71.8928Z" fill="#333333"/>
<path d="M44.3395 58.5118C44.8176 58.8501 45.3649 59.0099 45.9069 59.0099C46.7645 59.0099 47.6088 58.6077 48.1401 57.8513C49.007 56.6208 48.7114 54.9189 47.4796 54.0534C41.6575 49.9545 38.1818 43.2801 38.1818 36.1982C38.1818 29.1137 41.6588 22.4394 47.4823 18.3405C48.7141 17.4749 49.0097 15.773 48.1428 14.5425C47.2759 13.3067 45.578 13.0084 44.3422 13.882C37.0699 18.9983 32.7273 27.3426 32.7273 36.1982C32.7273 45.0539 37.0686 53.3955 44.3395 58.5118Z" fill="#333333"/>
<path d="M98.1818 36.1982C98.1818 48.5988 92.1067 60.2776 81.9353 67.4393C80.7022 68.3049 80.4066 70.0068 81.2748 71.2373C81.8048 71.9937 82.6491 72.3958 83.5067 72.3958C84.0474 72.3958 84.596 72.2334 85.0728 71.8978C96.6983 63.7186 103.636 50.3726 103.636 36.1982C103.636 22.0239 96.6983 8.68046 85.0781 0.503966C83.8476 -0.369613 82.1457 -0.0713179 81.2802 1.16448C80.4119 2.39495 80.7075 4.09683 81.9407 4.96242C92.1093 12.1215 98.1818 23.7976 98.1818 36.1982Z" fill="#333333"/>
<path d="M72.5177 54.056C71.2846 54.9216 70.989 56.6235 71.8572 57.8539C72.3872 58.6103 73.2315 59.0125 74.0891 59.0125C74.6298 59.0125 75.1784 58.8527 75.6552 58.5171C82.9288 53.3981 87.2727 45.0539 87.2727 36.1982C87.2727 27.3426 82.9314 19.0009 75.6605 13.8846C74.4327 13.0137 72.7281 13.3094 71.8626 14.5452C70.9943 15.7756 71.2899 17.4775 72.5231 18.3431C78.3425 22.442 81.8182 29.1164 81.8182 36.1982C81.8182 43.2827 78.3425 49.9571 72.5177 54.056Z" fill="#333333"/>
<path d="M30 98.1832H19.0909C17.5848 98.1832 16.3636 99.403 16.3636 100.911C16.3636 102.418 17.5848 103.638 19.0909 103.638H30C31.5061 103.638 32.7273 102.418 32.7273 100.911C32.7273 99.403 31.5061 98.1832 30 98.1832Z" fill="#333333"/>
<path d="M90 103.638H100.909C102.417 103.638 103.636 102.418 103.636 100.911C103.636 99.403 102.417 98.1832 100.909 98.1832H90C88.4925 98.1832 87.2727 99.403 87.2727 100.911C87.2727 102.418 88.4925 103.638 90 103.638Z" fill="#333333"/>
</svg>
