<svg width="64" height="64" viewBox="0 0 64 64" fill="none" xmlns="http://www.w3.org/2000/svg">
<mask id="path-1-inside-1" fill="white">
<path fill-rule="evenodd" clip-rule="evenodd" d="M32 62.8681C31.894 62.8681 31.787 62.8341 31.697 62.7661L12.936 48.5071C9.845 46.1581 8 42.4381 8 38.5561V21.5001V16.5001V13.5001V12.7205V7.5071C8 7.2781 8.156 7.0781 8.379 7.0221L31.879 1.1471C31.958 1.1261 32.042 1.1261 32.121 1.1471L55.621 7.0221C55.844 7.0781 56 7.2781 56 7.5071V38.5551C56 42.4371 54.155 46.1571 51.064 48.5061L32.303 62.7661C32.213 62.8331 32.106 62.8681 32 62.8681ZM9 16.5001V21.5001V32.5281V38.5561C9 42.1281 10.698 45.5501 13.542 47.7111L32 61.7401L50.459 47.7111C53.303 45.5501 55 42.1271 55 38.5561V7.8981L32 2.1481L9 7.8981V12.7205V13.5001V16.5001ZM32 57.699C31.894 57.699 31.787 57.665 31.697 57.597L16.129 45.765C13.544 43.8 12 40.688 12 37.44V11.676C12 11.447 12.156 11.247 12.379 11.191L31.879 6.31604C31.958 6.29504 32.042 6.29504 32.121 6.31604L51.621 11.191C51.844 11.247 52 11.447 52 11.676V37.44C52 40.687 50.456 43.799 47.871 45.765L32.303 57.597C32.213 57.665 32.106 57.699 32 57.699ZM13 12.067V37.44C13 40.377 14.396 43.191 16.735 44.969L32 56.571L47.266 44.969C49.604 43.191 51 40.376 51 37.44V12.067L32 7.31704L13 12.067ZM21.49 42.0001C20.112 42.0001 18.99 40.8781 18.99 39.5001V27.5001C18.99 26.1221 20.112 25.0001 21.49 25.0001C22.868 25.0001 23.99 26.1221 23.99 27.5001V39.5001C23.99 40.8781 22.869 42.0001 21.49 42.0001ZM21.49 26.0001C20.663 26.0001 19.99 26.6731 19.99 27.5001V39.5001C19.99 40.3271 20.663 41.0001 21.49 41.0001C22.317 41.0001 22.99 40.3271 22.99 39.5001V27.5001C22.99 26.6731 22.317 26.0001 21.49 26.0001ZM28.987 42.0001H38.76C40.597 42.0001 42.191 40.7551 42.637 38.9731L44.889 29.9671C45.188 28.7651 44.924 27.5151 44.161 26.5381C43.399 25.5611 42.25 25.0001 41.011 25.0001H35.99V19.5001C35.99 17.5701 34.42 16.0001 32.49 16.0001C32.275 16.0001 32.084 16.1381 32.016 16.3421L29.13 25.0001H28.987C26.783 25.0001 24.99 26.7931 24.99 28.9971V38.0031C24.99 40.2071 26.783 42.0001 28.987 42.0001ZM25.99 28.9971C25.99 27.3441 27.335 26.0001 28.987 26.0001H29.49C29.706 26.0001 29.896 25.8621 29.964 25.6581L32.842 17.0251C34.054 17.1961 34.99 18.2411 34.99 19.5001V25.5001C34.99 25.7761 35.214 26.0001 35.49 26.0001H41.012C41.94 26.0001 42.802 26.4201 43.374 27.1531C43.945 27.8851 44.145 28.8231 43.919 29.7241L41.667 38.7291C41.333 40.0661 40.137 41.0001 38.76 41.0001H28.987C27.334 41.0001 25.99 39.6561 25.99 38.0031V28.9971Z"/>
</mask>
<path fill-rule="evenodd" clip-rule="evenodd" d="M32 62.8681C31.894 62.8681 31.787 62.8341 31.697 62.7661L12.936 48.5071C9.845 46.1581 8 42.4381 8 38.5561V21.5001V16.5001V13.5001V12.7205V7.5071C8 7.2781 8.156 7.0781 8.379 7.0221L31.879 1.1471C31.958 1.1261 32.042 1.1261 32.121 1.1471L55.621 7.0221C55.844 7.0781 56 7.2781 56 7.5071V38.5551C56 42.4371 54.155 46.1571 51.064 48.5061L32.303 62.7661C32.213 62.8331 32.106 62.8681 32 62.8681ZM9 16.5001V21.5001V32.5281V38.5561C9 42.1281 10.698 45.5501 13.542 47.7111L32 61.7401L50.459 47.7111C53.303 45.5501 55 42.1271 55 38.5561V7.8981L32 2.1481L9 7.8981V12.7205V13.5001V16.5001ZM32 57.699C31.894 57.699 31.787 57.665 31.697 57.597L16.129 45.765C13.544 43.8 12 40.688 12 37.44V11.676C12 11.447 12.156 11.247 12.379 11.191L31.879 6.31604C31.958 6.29504 32.042 6.29504 32.121 6.31604L51.621 11.191C51.844 11.247 52 11.447 52 11.676V37.44C52 40.687 50.456 43.799 47.871 45.765L32.303 57.597C32.213 57.665 32.106 57.699 32 57.699ZM13 12.067V37.44C13 40.377 14.396 43.191 16.735 44.969L32 56.571L47.266 44.969C49.604 43.191 51 40.376 51 37.44V12.067L32 7.31704L13 12.067ZM21.49 42.0001C20.112 42.0001 18.99 40.8781 18.99 39.5001V27.5001C18.99 26.1221 20.112 25.0001 21.49 25.0001C22.868 25.0001 23.99 26.1221 23.99 27.5001V39.5001C23.99 40.8781 22.869 42.0001 21.49 42.0001ZM21.49 26.0001C20.663 26.0001 19.99 26.6731 19.99 27.5001V39.5001C19.99 40.3271 20.663 41.0001 21.49 41.0001C22.317 41.0001 22.99 40.3271 22.99 39.5001V27.5001C22.99 26.6731 22.317 26.0001 21.49 26.0001ZM28.987 42.0001H38.76C40.597 42.0001 42.191 40.7551 42.637 38.9731L44.889 29.9671C45.188 28.7651 44.924 27.5151 44.161 26.5381C43.399 25.5611 42.25 25.0001 41.011 25.0001H35.99V19.5001C35.99 17.5701 34.42 16.0001 32.49 16.0001C32.275 16.0001 32.084 16.1381 32.016 16.3421L29.13 25.0001H28.987C26.783 25.0001 24.99 26.7931 24.99 28.9971V38.0031C24.99 40.2071 26.783 42.0001 28.987 42.0001ZM25.99 28.9971C25.99 27.3441 27.335 26.0001 28.987 26.0001H29.49C29.706 26.0001 29.896 25.8621 29.964 25.6581L32.842 17.0251C34.054 17.1961 34.99 18.2411 34.99 19.5001V25.5001C34.99 25.7761 35.214 26.0001 35.49 26.0001H41.012C41.94 26.0001 42.802 26.4201 43.374 27.1531C43.945 27.8851 44.145 28.8231 43.919 29.7241L41.667 38.7291C41.333 40.0661 40.137 41.0001 38.76 41.0001H28.987C27.334 41.0001 25.99 39.6561 25.99 38.0031V28.9971Z" fill="#007CC3"/>
<path d="M31.697 62.7661L31.6365 62.8457L31.6367 62.8459L31.697 62.7661ZM12.936 48.5071L12.9965 48.4275H12.9965L12.936 48.5071ZM8.379 7.0221L8.35475 6.92508L8.35464 6.92511L8.379 7.0221ZM31.879 1.1471L31.9033 1.24412L31.9047 1.24374L31.879 1.1471ZM32.121 1.1471L32.0953 1.24375L32.0967 1.24411L32.121 1.1471ZM55.621 7.0221L55.6454 6.92511L55.6453 6.92508L55.621 7.0221ZM51.064 48.5061L51.0035 48.4265L51.0035 48.4265L51.064 48.5061ZM32.303 62.7661L32.3627 62.8463L32.3635 62.8457L32.303 62.7661ZM13.542 47.7111L13.6025 47.6315L13.6025 47.6315L13.542 47.7111ZM32 61.7401L31.9395 61.8197L32 61.8657L32.0605 61.8197L32 61.7401ZM50.459 47.7111L50.3985 47.6315L50.3985 47.6315L50.459 47.7111ZM55 7.8981H55.1V7.82002L55.0243 7.80108L55 7.8981ZM32 2.1481L32.0243 2.05108L32 2.04502L31.9757 2.05108L32 2.1481ZM9 7.8981L8.97575 7.80108L8.9 7.82002V7.8981H9ZM31.697 57.597L31.6365 57.6766L31.6367 57.6768L31.697 57.597ZM16.129 45.765L16.0685 45.8446L16.0685 45.8446L16.129 45.765ZM12.379 11.191L12.3547 11.094L12.3546 11.094L12.379 11.191ZM31.879 6.31604L31.9033 6.41306L31.9047 6.41268L31.879 6.31604ZM32.121 6.31604L32.0953 6.41269L32.0967 6.41305L32.121 6.31604ZM51.621 11.191L51.6454 11.094L51.6453 11.094L51.621 11.191ZM47.871 45.765L47.9315 45.8446L47.9315 45.8446L47.871 45.765ZM32.303 57.597L32.3633 57.6768L32.3635 57.6766L32.303 57.597ZM13 12.067L12.9757 11.97L12.9 11.989V12.067H13ZM16.735 44.969L16.6745 45.0486L16.6745 45.0486L16.735 44.969ZM32 56.571L31.9395 56.6506L32 56.6966L32.0605 56.6506L32 56.571ZM47.266 44.969L47.3265 45.0486L47.3265 45.0486L47.266 44.969ZM51 12.067H51.1V11.989L51.0243 11.97L51 12.067ZM32 7.31704L32.0243 7.22003L32 7.21396L31.9757 7.22003L32 7.31704ZM42.637 38.9731L42.734 38.9973L42.734 38.9973L42.637 38.9731ZM44.889 29.9671L44.986 29.9913L44.986 29.9912L44.889 29.9671ZM44.161 26.5381L44.0821 26.5996L44.0822 26.5996L44.161 26.5381ZM35.99 25.0001H35.89V25.1001H35.99V25.0001ZM32.016 16.3421L32.1109 16.3737V16.3737L32.016 16.3421ZM29.13 25.0001V25.1001H29.2021L29.2249 25.0317L29.13 25.0001ZM29.964 25.6581L29.8691 25.6264V25.6264L29.964 25.6581ZM32.842 17.0251L32.856 16.926L32.7735 16.9144L32.7471 16.9934L32.842 17.0251ZM43.374 27.1531L43.4528 27.0915L43.4528 27.0915L43.374 27.1531ZM43.919 29.7241L43.822 29.6997L43.822 29.6998L43.919 29.7241ZM41.667 38.7291L41.57 38.7048L41.57 38.7048L41.667 38.7291ZM31.6367 62.8459C31.7444 62.9273 31.8727 62.9681 32 62.9681V62.7681C31.9153 62.7681 31.8296 62.7409 31.7573 62.6863L31.6367 62.8459ZM12.8755 48.5867L31.6365 62.8457L31.7575 62.6865L12.9965 48.4275L12.8755 48.5867ZM7.9 38.5561C7.9 42.4694 9.75961 46.2188 12.8755 48.5867L12.9965 48.4275C9.93039 46.0974 8.1 42.4069 8.1 38.5561H7.9ZM7.9 21.5001V38.5561H8.1V21.5001H7.9ZM7.9 16.5001V21.5001H8.1V16.5001H7.9ZM7.9 13.5001V16.5001H8.1V13.5001H7.9ZM7.9 12.7205V13.5001H8.1V12.7205H7.9ZM7.9 7.5071V12.7205H8.1V7.5071H7.9ZM8.35464 6.92511C8.08729 6.99225 7.9 7.23214 7.9 7.5071H8.1C8.1 7.32406 8.22471 7.16395 8.40336 7.11909L8.35464 6.92511ZM31.8547 1.05008L8.35475 6.92508L8.40325 7.11911L31.9033 1.24411L31.8547 1.05008ZM32.1467 1.05045C32.0509 1.02498 31.9491 1.02498 31.8533 1.05045L31.9047 1.24374C31.9669 1.22722 32.0331 1.22722 32.0953 1.24374L32.1467 1.05045ZM55.6453 6.92508L32.1453 1.05008L32.0967 1.24411L55.5967 7.11911L55.6453 6.92508ZM56.1 7.5071C56.1 7.23214 55.9127 6.99225 55.6454 6.92511L55.5966 7.11909C55.7753 7.16395 55.9 7.32406 55.9 7.5071H56.1ZM56.1 38.5551V7.5071H55.9V38.5551H56.1ZM51.1245 48.5857C54.2404 46.2178 56.1 42.4684 56.1 38.5551H55.9C55.9 42.4059 54.0696 46.0964 51.0035 48.4265L51.1245 48.5857ZM32.3635 62.8457L51.1245 48.5857L51.0035 48.4265L32.2425 62.6865L32.3635 62.8457ZM32 62.9681C32.1279 62.9681 32.2557 62.926 32.3627 62.8463L32.2433 62.6859C32.1703 62.7403 32.0841 62.7681 32 62.7681V62.9681ZM9.1 21.5001V16.5001H8.9V21.5001H9.1ZM9.1 32.5281V21.5001H8.9V32.5281H9.1ZM9.1 38.5561V32.5281H8.9V38.5561H9.1ZM13.6025 47.6315C10.7834 45.4894 9.1 42.0968 9.1 38.5561H8.9C8.9 42.1594 10.6126 45.6108 13.4815 47.7907L13.6025 47.6315ZM32.0605 61.6605L13.6025 47.6315L13.4815 47.7907L31.9395 61.8197L32.0605 61.6605ZM50.3985 47.6315L31.9395 61.6605L32.0605 61.8197L50.5195 47.7907L50.3985 47.6315ZM54.9 38.5561C54.9 42.0959 53.2176 45.4894 50.3985 47.6315L50.5195 47.7907C53.3884 45.6108 55.1 42.1583 55.1 38.5561H54.9ZM54.9 7.8981V38.5561H55.1V7.8981H54.9ZM31.9757 2.24511L54.9757 7.99511L55.0243 7.80108L32.0243 2.05108L31.9757 2.24511ZM9.02425 7.99511L32.0243 2.24511L31.9757 2.05108L8.97575 7.80108L9.02425 7.99511ZM9.1 12.7205V7.8981H8.9V12.7205H9.1ZM9.1 13.5001V12.7205H8.9V13.5001H9.1ZM9.1 16.5001V13.5001H8.9V16.5001H9.1ZM31.6367 57.6768C31.7444 57.7582 31.8727 57.799 32 57.799V57.599C31.9153 57.599 31.8296 57.5718 31.7573 57.5172L31.6367 57.6768ZM16.0685 45.8446L31.6365 57.6766L31.7575 57.5174L16.1895 45.6854L16.0685 45.8446ZM11.9 37.44C11.9 40.7193 13.4586 43.8607 16.0685 45.8446L16.1895 45.6854C13.6294 43.7393 12.1 40.6568 12.1 37.44H11.9ZM11.9 11.676V37.44H12.1V11.676H11.9ZM12.3546 11.094C12.0873 11.1612 11.9 11.4011 11.9 11.676H12.1C12.1 11.493 12.2247 11.3329 12.4034 11.288L12.3546 11.094ZM31.8547 6.21903L12.3547 11.094L12.4033 11.2881L31.9033 6.41305L31.8547 6.21903ZM32.1467 6.2194C32.0509 6.19392 31.9491 6.19392 31.8533 6.2194L31.9047 6.41268C31.9669 6.39616 32.0331 6.39616 32.0953 6.41268L32.1467 6.2194ZM51.6453 11.094L32.1453 6.21903L32.0967 6.41305L51.5967 11.2881L51.6453 11.094ZM52.1 11.676C52.1 11.4011 51.9127 11.1612 51.6454 11.094L51.5966 11.288C51.7753 11.3329 51.9 11.493 51.9 11.676H52.1ZM52.1 37.44V11.676H51.9V37.44H52.1ZM47.9315 45.8446C50.5414 43.8597 52.1 40.7183 52.1 37.44H51.9C51.9 40.6558 50.3706 43.7383 47.8105 45.6854L47.9315 45.8446ZM32.3635 57.6766L47.9315 45.8446L47.8105 45.6854L32.2425 57.5174L32.3635 57.6766ZM32 57.799C32.1273 57.799 32.2556 57.7582 32.3633 57.6768L32.2427 57.5172C32.1704 57.5718 32.0847 57.599 32 57.599V57.799ZM13.1 37.44V12.067H12.9V37.44H13.1ZM16.7955 44.8894C14.4814 43.1303 13.1 40.3458 13.1 37.44H12.9C12.9 40.4083 14.3106 43.2517 16.6745 45.0486L16.7955 44.8894ZM32.0605 56.4914L16.7955 44.8894L16.6745 45.0486L31.9395 56.6506L32.0605 56.4914ZM47.2055 44.8894L31.9395 56.4914L32.0605 56.6506L47.3265 45.0486L47.2055 44.8894ZM50.9 37.44C50.9 40.3448 49.5186 43.1303 47.2055 44.8894L47.3265 45.0486C49.6894 43.2517 51.1 40.4073 51.1 37.44H50.9ZM50.9 12.067V37.44H51.1V12.067H50.9ZM31.9757 7.41405L50.9757 12.1641L51.0243 11.97L32.0243 7.22003L31.9757 7.41405ZM13.0243 12.1641L32.0243 7.41405L31.9757 7.22003L12.9757 11.97L13.0243 12.1641ZM18.89 39.5001C18.89 40.9333 20.0568 42.1001 21.49 42.1001V41.9001C20.1672 41.9001 19.09 40.8228 19.09 39.5001H18.89ZM18.89 27.5001V39.5001H19.09V27.5001H18.89ZM21.49 24.9001C20.0568 24.9001 18.89 26.0668 18.89 27.5001H19.09C19.09 26.1773 20.1672 25.1001 21.49 25.1001V24.9001ZM24.09 27.5001C24.09 26.0668 22.9232 24.9001 21.49 24.9001V25.1001C22.8128 25.1001 23.89 26.1773 23.89 27.5001H24.09ZM24.09 39.5001V27.5001H23.89V39.5001H24.09ZM21.49 42.1001C22.9243 42.1001 24.09 40.9333 24.09 39.5001H23.89C23.89 40.8229 22.8137 41.9001 21.49 41.9001V42.1001ZM20.09 27.5001C20.09 26.7283 20.7182 26.1001 21.49 26.1001V25.9001C20.6078 25.9001 19.89 26.6178 19.89 27.5001H20.09ZM20.09 39.5001V27.5001H19.89V39.5001H20.09ZM21.49 40.9001C20.7182 40.9001 20.09 40.2718 20.09 39.5001H19.89C19.89 40.3823 20.6078 41.1001 21.49 41.1001V40.9001ZM22.89 39.5001C22.89 40.2718 22.2618 40.9001 21.49 40.9001V41.1001C22.3722 41.1001 23.09 40.3823 23.09 39.5001H22.89ZM22.89 27.5001V39.5001H23.09V27.5001H22.89ZM21.49 26.1001C22.2618 26.1001 22.89 26.7283 22.89 27.5001H23.09C23.09 26.6178 22.3722 25.9001 21.49 25.9001V26.1001ZM38.76 41.9001H28.987V42.1001H38.76V41.9001ZM42.54 38.9488C42.1051 40.6863 40.5511 41.9001 38.76 41.9001V42.1001C40.6429 42.1001 42.2769 40.8238 42.734 38.9973L42.54 38.9488ZM44.792 29.9428L42.54 38.9488L42.734 38.9973L44.986 29.9913L44.792 29.9428ZM44.0822 26.5996C44.8262 27.5523 45.0835 28.7707 44.792 29.9429L44.986 29.9912C45.2924 28.7594 45.0218 27.4778 44.2398 26.4765L44.0822 26.5996ZM41.011 25.1001C42.2192 25.1001 43.3391 25.6469 44.0821 26.5996L44.2398 26.4766C43.4589 25.4753 42.2808 24.9001 41.011 24.9001V25.1001ZM35.99 25.1001H41.011V24.9001H35.99V25.1001ZM35.89 19.5001V25.0001H36.09V19.5001H35.89ZM32.49 16.1001C34.3648 16.1001 35.89 17.6253 35.89 19.5001H36.09C36.09 17.5148 34.4752 15.9001 32.49 15.9001V16.1001ZM32.1109 16.3737C32.1653 16.2104 32.3182 16.1001 32.49 16.1001V15.9001C32.2318 15.9001 32.0027 16.0657 31.9211 16.3104L32.1109 16.3737ZM29.2249 25.0317L32.1109 16.3737L31.9211 16.3104L29.0351 24.9684L29.2249 25.0317ZM28.987 25.1001H29.13V24.9001H28.987V25.1001ZM25.09 28.9971C25.09 26.8483 26.8382 25.1001 28.987 25.1001V24.9001C26.7278 24.9001 24.89 26.7378 24.89 28.9971H25.09ZM25.09 38.0031V28.9971H24.89V38.0031H25.09ZM28.987 41.9001C26.8382 41.9001 25.09 40.1518 25.09 38.0031H24.89C24.89 40.2623 26.7278 42.1001 28.987 42.1001V41.9001ZM28.987 25.9001C27.2798 25.9001 25.89 27.2888 25.89 28.9971H26.09C26.09 27.3993 27.3902 26.1001 28.987 26.1001V25.9001ZM29.49 25.9001H28.987V26.1001H29.49V25.9001ZM29.8691 25.6264C29.8147 25.7898 29.6627 25.9001 29.49 25.9001V26.1001C29.7493 26.1001 29.9773 25.9343 30.0589 25.6897L29.8691 25.6264ZM32.7471 16.9934L29.8691 25.6264L30.0589 25.6897L32.9369 17.0567L32.7471 16.9934ZM35.09 19.5001C35.09 18.1905 34.1166 17.1039 32.856 16.926L32.828 17.1241C33.9914 17.2882 34.89 18.2916 34.89 19.5001H35.09ZM35.09 25.5001V19.5001H34.89V25.5001H35.09ZM35.49 25.9001C35.2692 25.9001 35.09 25.7208 35.09 25.5001H34.89C34.89 25.8313 35.1588 26.1001 35.49 26.1001V25.9001ZM41.012 25.9001H35.49V26.1001H41.012V25.9001ZM43.4528 27.0915C42.8619 26.3342 41.9708 25.9001 41.012 25.9001V26.1001C41.9092 26.1001 42.7421 26.5059 43.2952 27.2146L43.4528 27.0915ZM44.016 29.7484C44.2495 28.8174 44.0427 27.8477 43.4528 27.0915L43.2951 27.2146C43.8473 27.9224 44.0405 28.8287 43.822 29.6997L44.016 29.7484ZM41.764 38.7533L44.016 29.7483L43.822 29.6998L41.57 38.7048L41.764 38.7533ZM38.76 41.1001C40.1829 41.1001 41.4189 40.1348 41.764 38.7533L41.57 38.7048C41.2471 39.9973 40.0911 40.9001 38.76 40.9001V41.1001ZM28.987 41.1001H38.76V40.9001H28.987V41.1001ZM25.89 38.0031C25.89 39.7113 27.2788 41.1001 28.987 41.1001V40.9001C27.3892 40.9001 26.09 39.6008 26.09 38.0031H25.89ZM25.89 28.9971V38.0031H26.09V28.9971H25.89Z" fill="white" mask="url(#path-1-inside-1)"/>
</svg>
