<svg width="88" height="64" viewBox="0 0 88 64" fill="none" xmlns="http://www.w3.org/2000/svg">
<path d="M59.4508 20.5343C59.2761 20.3663 59.2708 20.0885 59.4388 19.9138C59.6068 19.7392 59.8846 19.7338 60.0592 19.9018C64.5862 24.2716 67.1239 30.2426 67.1239 36.5344C67.1239 49.3007 56.7747 59.6499 44.0085 59.6499C31.2422 59.6499 20.893 49.3007 20.893 36.5344C20.893 30.2425 23.4309 24.2715 27.9579 19.9017C28.3739 19.5015 28.9823 20.1341 28.5663 20.5342C24.2092 24.74 21.773 30.4793 21.773 36.5344C21.773 48.8148 31.7281 58.7699 44.0085 58.7699C56.2888 58.7699 66.2439 48.8148 66.2439 36.5344C66.2439 30.4794 63.8078 24.74 59.4508 20.5343ZM44.3862 52.4301V54.5244C44.3862 55.1031 43.5062 55.1031 43.5062 54.5244V52.3525C43.5062 51.6769 43.5476 51.7268 43.131 51.1665C41.8176 49.3998 40.0927 48.8248 38.8128 48.3984C37.8824 48.0884 37.1553 47.8462 36.8177 47.2689L35.7274 45.4043C35.4522 44.9338 35.3618 44.9888 34.8294 45.1745C34.2142 45.3892 33.6175 45.2378 33.1952 44.7373C32.6245 44.0608 32.0571 43.3796 31.4817 42.7074C30.7679 41.8732 30.7534 41.8562 31.3276 40.532C31.5248 40.0773 31.8074 39.5734 32.1465 39.0469L26.1698 41.4318C25.6339 41.6443 25.3109 40.8295 25.8466 40.6171L33.0681 37.7355C34.1569 36.2943 35.4543 34.8199 36.7882 33.6084L36.7866 32.474C35.9627 31.548 35.2307 30.4272 34.6281 29.1076C34.2458 28.2705 34.0816 27.6175 33.9581 27.1263C33.8252 26.5975 33.8014 26.3608 33.3136 26.0502C32.4269 25.4855 31.6243 22.6446 31.404 21.5294C31.2179 20.5876 31.1706 19.6248 31.486 18.9223C31.6753 18.5005 31.8793 18.301 32.1254 18.1672C32.6193 17.8986 32.6158 18.142 32.4839 17.4837C32.2122 16.1292 32.0263 15.3573 32.0263 13.8857C32.0263 7.99702 38.0825 2.65541 43.7834 2.36473C46.1429 2.24441 48.5555 2.92705 50.7432 4.68891C51.5942 5.37427 51.8703 5.77564 52.0638 6.05683C52.4749 6.65436 53.5645 6.74896 54.3063 7.56514C56.5958 10.0841 56.074 13.9827 55.4713 17.3873C55.342 18.1176 55.2707 17.9705 55.7263 18.1622C56.7704 18.6016 56.7309 19.7126 56.6639 20.6759C56.5799 21.8834 55.8591 24.1894 55.2883 25.2604C54.8982 25.9923 54.7893 25.9239 54.2827 26.4059C54.1788 26.5048 52.6936 30.7346 51.1271 32.4591L51.1254 33.6276C52.451 34.8358 53.7387 36.2986 54.8224 37.7329L62.4248 40.7133C62.9628 40.9235 62.6432 41.7417 62.1051 41.5315L55.7387 39.0356C56.0811 39.5661 56.3662 40.074 56.5648 40.532C57.1391 41.8562 57.1246 41.8732 56.4108 42.7074C55.8354 43.3796 55.268 44.0608 54.6973 44.7373C54.275 45.2378 53.6783 45.3892 53.063 45.1745C52.4651 44.9659 52.4273 44.956 52.1339 45.4577L51.0747 47.2689C50.7371 47.8462 50.0101 48.0884 49.0797 48.3984C47.7944 48.8266 45.9861 49.4218 44.7449 51.1885C44.3897 51.6941 44.3862 51.6482 44.3862 52.4301ZM36.79 34.818C35.986 35.6103 35.0438 36.6482 34.197 37.713C33.3039 38.836 32.522 39.98 32.132 40.8792C31.7756 41.7009 31.7831 41.7097 32.1486 42.1368C32.725 42.8104 33.2937 43.4923 33.8655 44.1701C34.0522 44.3914 34.2696 44.4406 34.5407 44.3461C35.2317 44.105 35.9407 44.0325 36.357 44.7444L37.574 46.8255C37.7459 47.1194 38.3345 47.3156 39.0878 47.5665C40.3335 47.9815 41.9652 48.5253 43.3426 50.0407C42.878 48.384 41.557 46.9656 40.2424 45.5545C38.5503 43.7382 36.8683 41.9327 36.7968 39.538L36.79 34.818ZM51.1236 34.8389L51.1167 39.538C51.0452 41.9327 49.3633 43.7382 47.6712 45.5545C46.3652 46.9563 45.0529 48.3651 44.5801 50.0077C45.9511 48.5174 47.5681 47.9785 48.8047 47.5665C49.5579 47.3156 50.1466 47.1194 50.3185 46.8255L51.329 45.0975C51.87 44.1723 52.2461 43.9604 53.3518 44.3461C53.6228 44.4407 53.8403 44.3914 54.027 44.1701C54.5988 43.4923 55.1675 42.8104 55.7439 42.1368C56.1094 41.7096 56.1168 41.7009 55.7605 40.8792C54.9252 38.9532 52.5335 36.2315 51.1236 34.8389ZM43.9568 49.1115C44.5882 47.576 45.8108 46.2633 47.0284 44.9563C48.6083 43.2605 50.1786 41.5748 50.2402 39.5139L50.2493 33.3266C46.5345 36.6157 41.377 36.6945 37.6644 33.3576L37.6734 39.5139C37.7349 41.5748 39.3053 43.2605 40.8852 44.9563C42.1027 46.2633 43.3254 47.576 43.9568 49.1115ZM53.0838 14.1221C53.6219 14.3323 53.3023 15.1505 52.7641 14.9402C51.4838 14.4382 50.2534 13.5626 49.406 12.475C49.0515 12.0211 49.7424 11.4815 50.0969 11.9353C50.8463 12.8971 51.9521 13.6784 53.0838 14.1221ZM35.6293 15.7532C35.6632 16.3297 34.7867 16.3812 34.7528 15.8047C34.4691 11.1162 39.8052 11.1002 43.1727 11.1282C46.1031 11.1526 48.4184 10.5497 50.2738 8.06459C50.6197 7.60113 51.3244 8.12703 50.9785 8.59051C48.9531 11.3033 46.3841 12.0314 43.1659 12.0048C40.4172 11.9819 35.3932 11.8496 35.6293 15.7532ZM54.544 17.6084C55.0963 14.3073 55.7415 10.4503 53.6566 8.15639C52.8925 7.31564 51.9956 7.50523 51.3419 6.55527C51.1785 6.3177 50.9451 5.97859 50.1932 5.37299C48.1875 3.75764 45.9816 3.13147 43.8281 3.24128C38.5934 3.50818 32.9063 8.46841 32.9063 13.8857C32.9063 15.5425 33.213 16.3645 33.4415 17.8628C33.5599 18.6397 33.6483 18.5248 32.8757 18.8042C32.6127 18.8994 32.4276 18.9664 32.2869 19.2798C32.0591 19.7872 32.1105 20.5699 32.2668 21.3609C32.4213 22.1428 33.2386 24.9635 33.7845 25.3111C34.4796 25.7538 34.618 26.1468 34.8106 26.9132C34.9267 27.375 35.0811 27.9889 35.4256 28.7432C36.0278 30.0621 36.8016 31.1934 37.6927 32.1157C41.3287 35.8787 46.9192 36.1629 50.7913 31.5078C52.144 29.8816 53.3107 26.1191 53.6777 25.77C54.0984 25.3698 54.2094 25.4211 54.5148 24.8479C55.024 23.8926 55.7124 21.6938 55.7873 20.6174C55.8579 19.6038 55.9832 19.2221 55.0421 18.8095C54.1909 18.4363 54.3678 18.6623 54.544 17.6084ZM68.5809 15.8319C69.5288 16.7797 69.5288 18.3354 68.5809 19.2833C67.6331 20.2312 66.0774 20.2311 65.1295 19.2833C64.785 18.9388 64.543 18.4918 64.4532 17.9919H61.473C60.8943 17.9919 60.8943 17.1119 61.473 17.1119H64.4553C64.5467 16.6167 64.7876 16.1738 65.1295 15.8319C66.0774 14.884 67.6331 14.884 68.5809 15.8319ZM67.9587 16.4541C67.3527 15.848 66.3578 15.848 65.7517 16.4541C65.1457 17.0601 65.1457 18.055 65.7517 18.6611C66.3578 19.2671 67.3527 19.2671 67.9587 18.6611C68.5648 18.055 68.5648 17.0601 67.9587 16.4541ZM68.5809 54.0802C69.5288 55.028 69.5288 56.5837 68.5809 57.5316C67.6331 58.4795 66.0774 58.4794 65.1295 57.5316C64.785 57.1871 64.543 56.7401 64.4532 56.2402H61.6338C61.055 56.2402 61.055 55.3602 61.6338 55.3602H64.4553C64.5467 54.865 64.7876 54.4221 65.1295 54.0802C66.0774 53.1323 67.6331 53.1323 68.5809 54.0802ZM67.9587 54.7023C67.3527 54.0963 66.3578 54.0963 65.7517 54.7023C65.1457 55.3084 65.1457 56.3034 65.7517 56.9094C66.3578 57.5154 67.3527 57.5154 67.9587 56.9094C68.5648 56.3034 68.5648 55.3084 67.9587 54.7023ZM78.3646 54.7015C79.3124 55.6493 79.3125 57.2051 78.3646 58.1529C77.4167 59.1007 75.861 59.1007 74.9132 58.1529C74.1726 57.4124 73.9877 56.2738 74.4535 55.3396L68.554 49.914H66.171C65.5922 49.914 65.5922 49.034 66.171 49.034H68.8945L74.9835 54.6339C75.9403 53.7502 77.4432 53.7801 78.3646 54.7015ZM77.7424 55.3237C76.905 54.5173 75.8411 54.8311 75.3383 55.537C74.9468 56.0864 74.9028 56.8981 75.5354 57.5307C76.1414 58.1367 77.1364 58.1367 77.7424 57.5307C78.3485 56.9247 78.3484 55.9297 77.7424 55.3237ZM85.1153 45.8015C86.0631 46.7494 86.0632 48.3051 85.1153 49.2529C84.1674 50.2008 82.6118 50.2008 81.6639 49.2529C81.3223 48.9114 81.0815 48.469 80.9899 47.9743L76.4579 47.9872L71.8253 43.5153H68.8804C68.3017 43.5153 68.3017 42.6353 68.8804 42.6353H72.1774L76.8125 47.1097L80.9867 47.0978C81.0758 46.5959 81.3183 46.1471 81.6639 45.8015C82.6117 44.8536 84.1674 44.8537 85.1153 45.8015ZM84.4931 46.4237C83.8871 45.8177 82.8921 45.8177 82.2861 46.4237C81.68 47.0298 81.68 48.0247 82.2861 48.6307C82.8921 49.2368 83.8871 49.2368 84.4931 48.6307C85.0992 48.0247 85.0991 47.0298 84.4931 46.4237ZM78.3765 34.942C79.3244 35.8898 79.3244 37.4455 78.3765 38.3934C77.4287 39.3412 75.8729 39.3413 74.9251 38.3934C74.58 38.0483 74.3378 37.6003 74.2483 37.0994H69.668C69.0893 37.0994 69.0893 36.2194 69.668 36.2194H74.2514C74.3431 35.7252 74.5838 35.2833 74.9251 34.942C75.873 33.9941 77.4287 33.9941 78.3765 34.942ZM77.7543 35.5642C77.1483 34.9581 76.1533 34.9581 75.5473 35.5642C74.9413 36.1702 74.9413 37.1651 75.5473 37.7712C76.1533 38.3772 77.1483 38.3772 77.7543 37.7712C78.3604 37.1651 78.3604 36.1702 77.7543 35.5642ZM85.1153 24.0893C86.0631 25.0371 86.0632 26.5928 85.1153 27.5407C84.1674 28.4885 82.6118 28.4885 81.6639 27.5407C81.3215 27.1983 81.0804 26.7547 80.9893 26.2586L76.8233 26.2467L72.2418 30.721H68.8804C68.3017 30.721 68.3017 29.841 68.8804 29.841H71.8869L76.4659 25.3691L80.9873 25.382C81.0769 24.8816 81.3191 24.4341 81.6639 24.0893C82.6117 23.1414 84.1674 23.1414 85.1153 24.0893ZM84.4931 24.7115C83.8871 24.1054 82.8921 24.1054 82.2861 24.7115C81.68 25.3175 81.68 26.3124 82.2861 26.9185C82.8921 27.5245 83.8871 27.5245 84.4931 26.9185C85.0992 26.3125 85.0991 25.3175 84.4931 24.7115ZM78.361 15.3542C79.3089 16.302 79.3089 17.8577 78.361 18.8056C77.448 19.7187 75.9616 19.7575 75.0027 18.8939L68.8709 24.3324H66.3758C65.797 24.3324 65.797 23.4524 66.3758 23.4524H68.5419L74.4657 18.1985C73.9806 17.2596 74.1601 16.1037 74.9096 15.3542C75.8575 14.4063 77.4132 14.4063 78.361 15.3542ZM77.7388 15.9764C77.1328 15.3703 76.1378 15.3703 75.5318 15.9764C74.9226 16.5856 74.9229 17.5861 75.5485 18.1832C76.1189 18.7276 77.0818 18.8405 77.7388 18.1834C78.3449 17.5774 78.3449 16.5824 77.7388 15.9764ZM20.0412 16.4541C19.4351 17.0601 19.4351 18.055 20.0412 18.6611C20.6472 19.2671 21.6421 19.2671 22.2482 18.6611C22.8542 18.055 22.8542 17.0601 22.2482 16.4541C21.6421 15.848 20.6472 15.848 20.0412 16.4541ZM19.419 15.8319C20.3668 14.884 21.9225 14.884 22.8704 15.8319C23.2123 16.1738 23.4532 16.6167 23.5446 17.1119H26.5269C27.1056 17.1119 27.1056 17.9919 26.5269 17.9919H23.5467C23.4569 18.4918 23.2149 18.9388 22.8704 19.2833C21.9225 20.2311 20.3668 20.2312 19.419 19.2833C18.4711 18.3354 18.4711 16.7797 19.419 15.8319ZM20.0412 54.7023C19.4351 55.3084 19.4351 56.3034 20.0412 56.9094C20.6472 57.5154 21.6421 57.5154 22.2482 56.9094C22.8542 56.3034 22.8542 55.3084 22.2482 54.7023C21.6421 54.0963 20.6472 54.0963 20.0412 54.7023ZM19.419 54.0802C20.3668 53.1323 21.9225 53.1323 22.8704 54.0802C23.2123 54.4221 23.4532 54.865 23.5446 55.3602H26.3661C26.9449 55.3602 26.9449 56.2402 26.3661 56.2402H23.5467C23.4569 56.7401 23.2149 57.1871 22.8704 57.5316C21.9225 58.4794 20.3668 58.4795 19.419 57.5316C18.4711 56.5837 18.4711 55.028 19.419 54.0802ZM10.2575 55.3237C9.65148 55.9297 9.65146 56.9247 10.2575 57.5307C10.8636 58.1367 11.8585 58.1367 12.4645 57.5307C13.1443 56.8509 12.9963 55.9466 12.5904 55.4658C12.0167 54.7332 10.9186 54.6626 10.2575 55.3237ZM9.63532 54.7015C10.5567 53.7801 12.0596 53.7502 13.0164 54.6339L19.1054 49.034H21.875C22.4537 49.034 22.4537 49.914 21.875 49.914H19.4459L13.5464 55.3396C14.0122 56.2738 13.8273 57.4124 13.0867 58.1529C12.1389 59.1007 10.5832 59.1007 9.63532 58.1529C8.68742 57.2051 8.68747 55.6493 9.63532 54.7015ZM3.50681 46.4237C2.90077 47.0298 2.90075 48.0247 3.50681 48.6307C4.11285 49.2368 5.10779 49.2368 5.71383 48.6307C6.31989 48.0247 6.31987 47.0298 5.71383 46.4237C5.10781 45.8177 4.11285 45.8177 3.50681 46.4237ZM2.88461 45.8015C3.83246 44.8537 5.38819 44.8536 6.33603 45.8015C6.68165 46.1471 6.92411 46.5959 7.0132 47.0978L11.1874 47.1097L15.8225 42.6353H19.2286C19.8073 42.6353 19.8073 43.5153 19.2286 43.5153H16.1746L11.542 47.9872L7.00998 47.9743C6.91839 48.469 6.67762 48.9114 6.33603 49.2529C5.38816 50.2008 3.83248 50.2008 2.88461 49.2529C1.93671 48.3051 1.93676 46.7494 2.88461 45.8015ZM10.2456 35.5642C9.63953 36.1702 9.63954 37.1651 10.2456 37.7712C10.8516 38.3772 11.8466 38.3772 12.4526 37.7712C13.0586 37.1651 13.0586 36.1702 12.4526 35.5642C11.8466 34.9581 10.8516 34.9581 10.2456 35.5642ZM9.62339 34.942C10.5713 33.9941 12.1269 33.9941 13.0748 34.942C13.4161 35.2833 13.6568 35.7252 13.7485 36.2194H18.4094C18.9882 36.2194 18.9882 37.0994 18.4094 37.0994H13.7516C13.6621 37.6003 13.4199 38.0483 13.0748 38.3934C12.127 39.3413 10.5712 39.3412 9.62339 38.3934C8.67554 37.4455 8.67549 35.8898 9.62339 34.942ZM3.50681 24.7115C2.90077 25.3175 2.90075 26.3125 3.50681 26.9185C4.11285 27.5245 5.10779 27.5245 5.71383 26.9185C6.31987 26.3124 6.31987 25.3175 5.71383 24.7115C5.10781 24.1054 4.11285 24.1054 3.50681 24.7115ZM2.88461 24.0893C3.83246 23.1414 5.38819 23.1414 6.33603 24.0893C6.68086 24.4341 6.923 24.8816 7.01259 25.382L11.534 25.3691L16.113 29.841H19.1656C19.7443 29.841 19.7443 30.721 19.1656 30.721H15.7581L11.1766 26.2467L7.01062 26.2586C6.9195 26.7547 6.6784 27.1983 6.33603 27.5407C5.38816 28.4885 3.83248 28.4885 2.88461 27.5407C1.93671 26.5928 1.93676 25.0371 2.88461 24.0893ZM10.2611 15.9764C9.65505 16.5824 9.65505 17.5774 10.2611 18.1834C10.9701 18.8924 11.9538 18.7397 12.4929 18.2103C13.0626 17.6511 13.1976 16.7059 12.4681 15.9764C11.8621 15.3703 10.8671 15.3703 10.2611 15.9764ZM9.63889 15.3542C10.5867 14.4063 12.1425 14.4063 13.0903 15.3542C13.8399 16.1037 14.0193 17.2596 13.5342 18.1985L19.458 23.4524H21.6545C22.2332 23.4524 22.2332 24.3324 21.6545 24.3324H19.129L12.9972 18.8939C12.0383 19.7575 10.5519 19.7187 9.63889 18.8056C8.69103 17.8577 8.69103 16.302 9.63889 15.3542Z" fill="#007CC3"/>
</svg>
