<svg width="64" height="64" viewBox="0 0 64 64" fill="none" xmlns="http://www.w3.org/2000/svg">
<path d="M52.6691 40.8327V1.51878C52.6691 0.917822 52.1807 0.428223 51.5804 0.428223H31.6201H21.4831H1.51833C0.918008 0.428223 0.429688 0.917822 0.429688 1.51878V51.5841C0.429688 52.1831 0.918008 52.6695 1.51833 52.6695H40.8316C41.085 58.7226 46.0745 63.5719 52.1891 63.5719C58.4655 63.5719 63.5708 58.466 63.5708 52.1901C63.5708 46.0756 58.7215 41.0868 52.6691 40.8327ZM31.1401 1.38822V17.4189L26.8815 13.3319C26.7881 13.2429 26.6684 13.1981 26.5487 13.1981C26.4291 13.1981 26.3087 13.2429 26.2159 13.3319L21.9625 17.4183V1.38822H31.1401ZM1.38969 51.5841V1.51878C1.38969 1.4471 1.44729 1.38822 1.51833 1.38822H21.0031V18.5447C21.0031 18.7373 21.1183 18.9108 21.295 18.9863C21.3558 19.0125 21.4198 19.0247 21.4831 19.0247C21.6047 19.0247 21.7244 18.9786 21.8159 18.8909L26.5494 14.3437L31.2879 18.8909C31.4268 19.0241 31.6316 19.0618 31.8082 18.9863C31.9855 18.9108 32.1001 18.7373 32.1001 18.5447V1.38822H51.5804C51.6527 1.38822 51.7091 1.44582 51.7091 1.51878V40.8327C45.8166 41.0804 41.0793 45.8177 40.8316 51.7095H27.0294V41.6493C27.0294 41.3844 26.8143 41.1693 26.5494 41.1693C26.2844 41.1693 26.0694 41.3844 26.0694 41.6493V51.7095H1.51833C1.44601 51.7095 1.38969 51.6545 1.38969 51.5841ZM52.1891 62.6119C46.4425 62.6119 41.7673 57.9367 41.7673 52.1901C41.7673 46.4436 46.4425 41.7684 52.1891 41.7684C57.9356 41.7684 62.6108 46.4436 62.6108 52.1901C62.6108 57.9367 57.9356 62.6119 52.1891 62.6119Z" fill="#007CC3"/>
<path d="M52.1886 45.4438C50.6321 45.4438 49.2209 46.4704 48.5047 48.1216C48.0113 49.2602 46.7915 53.3933 51.8379 58.7846C51.8417 58.7885 51.8468 58.7898 51.8513 58.7936C51.8551 58.7981 51.8564 58.8038 51.8609 58.807C51.8897 58.8339 51.9242 58.8486 51.9569 58.8678C51.9742 58.8781 51.9902 58.8922 52.0081 58.8998C52.0663 58.9235 52.1278 58.937 52.1886 58.937C52.2494 58.937 52.3108 58.9235 52.3691 58.8998C52.387 58.8922 52.403 58.8781 52.4202 58.8678C52.4535 58.8493 52.4875 58.8339 52.5163 58.807C52.5207 58.8032 52.522 58.7974 52.5258 58.7936C52.5303 58.7898 52.5355 58.7885 52.5393 58.7846C57.5857 53.3933 56.3659 49.2602 55.8724 48.1216C55.1563 46.4698 53.745 45.4438 52.1886 45.4438ZM52.1886 57.7299C47.9652 52.9709 48.9623 49.4784 49.3854 48.503C49.9467 47.2083 51.0212 46.4038 52.1886 46.4038C53.3559 46.4038 54.4305 47.2083 54.9918 48.503C55.4148 49.479 56.4119 52.9715 52.1886 57.7299Z" fill="#007CC3"/>
<path d="M52.1889 47.5762C51.0126 47.5762 50.0552 48.533 50.0552 49.7086C50.0552 50.885 51.0126 51.8424 52.1889 51.8424C53.3653 51.8424 54.3227 50.885 54.3227 49.7086C54.3227 48.533 53.3653 47.5762 52.1889 47.5762ZM52.1889 50.8824C51.5413 50.8824 51.0152 50.3563 51.0152 49.7086C51.0152 49.0622 51.5413 48.5362 52.1889 48.5362C52.8366 48.5362 53.3627 49.0622 53.3627 49.7086C53.3627 50.3563 52.8366 50.8824 52.1889 50.8824Z" fill="#007CC3"/>
</svg>
