 <svg version="1.1" id="Слой_1" xmlns="http://www.w3.org/2000/svg" xmlns:xlink="http://www.w3.org/1999/xlink" x="0px" y="0px"
	 viewBox="0 0 40 48" style="enable-background:new 0 0 40 48;" xml:space="preserve">
<g>
	<polygon points="9.9,25.3 20.1,35.5 30.3,25.3 28.9,23.9 21.1,31.7 21.1,0 19.1,0 19.1,31.7 11.4,23.9 	"/>
	<path d="M25,8.7v2.1c7.5,2.2,13,9.1,13,17.3c0,9.9-8.1,18-18,18S2,37.9,2,28c0-8.2,5.5-15.1,13-17.3V8.7C6.4,10.9,0,18.7,0,28
		c0,11,9,20,20,20s20-9,20-20C40,18.7,33.6,10.9,25,8.7z"/>
</g>
</svg>
