<svg width="65" height="65" viewBox="0 0 65 65" fill="none" xmlns="http://www.w3.org/2000/svg">
<path d="M37.245 36.0751C36.985 36.0751 36.79 35.9451 36.66 35.7501C36.465 35.4251 36.595 35.0351 36.92 34.8401L53.755 25.0901L47.84 21.7101C47.515 21.5151 47.385 21.1251 47.58 20.8001C47.775 20.4751 48.165 20.3451 48.49 20.5401L55.38 24.5051C55.575 24.6351 55.705 24.8301 55.705 25.0901C55.705 25.3501 55.575 25.5451 55.38 25.6751L37.57 36.0101C37.44 36.0751 37.31 36.0751 37.245 36.0751Z" fill="#007CC3"/>
<path d="M27.7551 36.0751C27.6251 36.0751 27.5601 36.0751 27.4301 36.0101L9.5551 25.6751C9.3601 25.5451 9.2301 25.3501 9.2301 25.0901C9.2301 24.8301 9.3601 24.6351 9.5551 24.5051L16.4451 20.5401C16.7701 20.3451 17.1601 20.4751 17.3551 20.8001C17.5501 21.1251 17.4201 21.5151 17.0951 21.7101L11.1801 25.0901L28.0151 34.7751C28.3401 34.9701 28.4701 35.3601 28.2751 35.6851C28.2101 35.9451 27.9501 36.0751 27.7551 36.0751Z" fill="#007CC3"/>
<path d="M32.5001 65L9.2301 51.61V39.65C9.2301 39.26 9.5551 39 9.8801 39C10.2701 39 10.5301 39.325 10.5301 39.65V50.765L32.5001 63.44L54.4051 50.765V40.04C54.4051 39.65 54.7301 39.39 55.0551 39.39C55.4451 39.39 55.7051 39.715 55.7051 40.04V51.61L32.5001 65Z" fill="#007CC3"/>
<path d="M32.5001 56.1599C32.1101 56.1599 31.8501 55.8349 31.8501 55.5099V43.8099C31.8501 43.4199 32.1751 43.1599 32.5001 43.1599C32.8251 43.1599 33.1501 43.4849 33.1501 43.8099V55.5099C33.1501 55.8349 32.8901 56.1599 32.5001 56.1599Z" fill="#007CC3"/>
<path d="M41.275 43.8749C41.145 43.8749 41.015 43.8749 40.95 43.8099L32.175 38.7399C31.85 38.5449 31.72 38.1549 31.915 37.8299C32.11 37.5049 32.5 37.3749 32.825 37.5699L41.21 42.445L62.465 30.16L54.73 25.6749C54.405 25.4799 54.275 25.0899 54.47 24.7649C54.665 24.4399 55.055 24.31 55.38 24.505L64.155 29.5749C64.35 29.7049 64.48 29.9 64.48 30.16C64.48 30.42 64.35 30.6149 64.155 30.7449L41.6 43.8099C41.47 43.8099 41.34 43.8749 41.275 43.8749Z" fill="#007CC3"/>
<path d="M23.725 43.8749C23.595 43.8749 23.465 43.8749 23.4 43.8099L0.84502 30.7449C0.650019 30.6149 0.52002 30.42 0.52002 30.16C0.52002 29.9 0.650019 29.7049 0.84502 29.5749L9.62002 24.505C9.94502 24.31 10.335 24.4399 10.53 24.7649C10.725 25.0899 10.595 25.4799 10.27 25.6749L2.47002 30.16L23.725 42.445L32.11 37.5699C32.435 37.3749 32.825 37.5049 33.02 37.8299C33.215 38.1549 33.085 38.5449 32.76 38.7399L23.985 43.8099C23.985 43.8099 23.855 43.8749 23.725 43.8749Z" fill="#007CC3"/>
<path d="M32.5001 16.25C32.3701 16.25 32.2401 16.25 32.1751 16.185L19.1751 8.64503C18.9801 8.51503 18.8501 8.32003 18.8501 8.06003C18.8501 7.80003 18.9801 7.60503 19.1751 7.47503L32.1751 0.0650293C32.3701 -0.0649707 32.6301 -0.0649707 32.8251 0.0650293L45.8251 7.47503C46.0201 7.60503 46.1501 7.80003 46.1501 8.06003C46.1501 8.32003 46.0201 8.51503 45.8251 8.64503L32.8251 16.185C32.7601 16.185 32.6301 16.25 32.5001 16.25ZM20.8001 8.06003L32.5001 14.82L44.2001 8.06003L32.5001 1.43003L20.8001 8.06003Z" fill="#007CC3"/>
<path d="M32.5001 31.2649C32.3701 31.2649 32.3051 31.2649 32.1751 31.1999L18.8501 23.4649V8.05991C18.8501 7.66991 19.1751 7.40991 19.5001 7.40991C19.8251 7.40991 20.1501 7.73491 20.1501 8.05991V22.6849L32.8251 30.0299C33.1501 30.2249 33.2801 30.6149 33.0851 30.9399C32.9551 31.1349 32.7601 31.2649 32.5001 31.2649Z" fill="#007CC3"/>
<path d="M32.5 31.2649C32.24 31.2649 32.045 31.1349 31.915 30.9399C31.72 30.6149 31.85 30.2249 32.175 30.0299L44.85 22.6849V8.05991C44.85 7.66991 45.175 7.40991 45.5 7.40991C45.89 7.40991 46.15 7.73491 46.15 8.05991V23.4649L32.825 31.1999C32.695 31.2649 32.63 31.2649 32.5 31.2649Z" fill="#007CC3"/>
<path d="M32.5001 26.1952C32.1101 26.1952 31.8501 25.8702 31.8501 25.5452V15.6002C31.8501 15.2102 32.1751 14.9502 32.5001 14.9502C32.8251 14.9502 33.1501 15.2752 33.1501 15.6002V25.6102C33.1501 25.9352 32.8901 26.1952 32.5001 26.1952Z" fill="#007CC3"/>
</svg>
