<svg width="59" height="57" viewBox="0 0 59 57" fill="none" xmlns="http://www.w3.org/2000/svg">
<path d="M29.5379 21.3057C29.5379 17.3183 26.293 14.072 22.3042 14.072C18.3154 14.072 15.0706 17.3169 15.0706 21.3057C15.0706 25.2945 18.3154 28.5393 22.3042 28.5393C26.293 28.5393 29.5379 25.2931 29.5379 21.3057ZM16.5251 21.3057C16.5251 18.119 19.1175 15.5251 22.3057 15.5251C25.4938 15.5251 28.0862 18.1175 28.0862 21.3057C28.0862 24.4938 25.4938 27.0862 22.3057 27.0862C19.1175 27.0862 16.5251 24.4924 16.5251 21.3057Z" fill="#007CC3"/>
<path d="M36.6946 28.4622C32.7072 28.4622 29.4609 31.707 29.4609 35.6958C29.4609 39.6847 32.7058 42.9295 36.6946 42.9295C40.6834 42.9295 43.9282 39.6847 43.9282 35.6958C43.9282 31.707 40.682 28.4622 36.6946 28.4622ZM36.6946 41.4749C33.5079 41.4749 30.9141 38.8825 30.9141 35.6944C30.9141 32.5062 33.5064 29.9138 36.6946 29.9138C39.8827 29.9138 42.4751 32.5062 42.4751 35.6944C42.4751 38.8825 39.8827 41.4749 36.6946 41.4749Z" fill="#007CC3"/>
<path d="M39.7465 14.3443L17.7207 41.7456L18.8533 42.656L40.8791 15.2547L39.7465 14.3443Z" fill="#007CC3"/>
<path d="M56.13 23.4054C55.3628 22.378 54.6377 21.4073 54.3209 20.4337C53.9852 19.3976 53.9954 18.1465 54.0085 16.8227C54.0259 14.9147 54.0433 12.9429 52.9593 11.4549C51.8637 9.94796 49.9717 9.35654 48.1437 8.78401C46.8882 8.39166 45.701 8.02112 44.8363 7.39046C43.9877 6.77143 43.2786 5.76877 42.5259 4.70363C41.4128 3.12844 40.2604 1.49949 38.4629 0.915336C36.9008 0.411102 34.9202 0.969101 33.1024 1.57796C31.8832 1.98629 30.6233 2.40915 29.5001 2.40915C28.3768 2.40915 27.1169 1.98629 25.8978 1.57796C24.0886 0.972007 22.0949 0.408196 20.5386 0.915336C18.7411 1.49949 17.5888 3.12845 16.4742 4.70509C15.723 5.76732 15.0153 6.77288 14.1667 7.39046C13.3006 8.02112 12.1149 8.39021 10.8594 8.78401C9.02988 9.35654 7.13791 9.94651 6.04226 11.4534C4.95822 12.9429 4.97712 14.9162 4.9931 16.8212C5.00618 18.1465 5.0178 19.3976 4.68068 20.4337C4.3639 21.4073 3.63879 22.378 2.87154 23.4054C1.70758 24.9616 0.504395 26.5717 0.504395 28.5C0.504395 30.4283 1.70758 32.0384 2.87154 33.5947C3.63879 34.622 4.3639 35.5927 4.68068 36.5663C5.01635 37.6024 5.00618 38.8535 4.9931 40.1773C4.97566 42.0853 4.95822 44.0572 6.04226 45.5452C7.13791 47.0521 9.02988 47.6435 10.8579 48.216C12.1134 48.6084 13.3006 48.9789 14.1652 49.6096C15.0139 50.2286 15.723 51.2312 16.4757 52.2964C17.5888 53.8716 18.7411 55.5005 20.5386 56.0847C22.1051 56.5904 24.0814 56.0309 25.8978 55.4221C27.1184 55.0137 28.3782 54.5909 29.5001 54.5909C30.6219 54.5909 31.8832 55.0137 33.1024 55.4221C34.3942 55.8551 35.7296 56.3027 37.0127 56.3027C37.5271 56.3027 38.0154 56.2285 38.4615 56.0847C40.259 55.5005 41.4113 53.8716 42.5259 52.2949C43.2771 51.2327 43.9848 50.2271 44.8334 49.6096C45.6995 48.9789 46.8852 48.6098 48.1407 48.216C49.9702 47.6435 51.8622 47.0535 52.9579 45.5466C54.0419 44.0572 54.023 42.0838 54.007 40.1788C53.9939 38.8535 53.9823 37.6024 54.3194 36.5663C54.6362 35.5927 55.3613 34.622 56.1286 33.5947C57.2925 32.0384 58.4957 30.4283 58.4957 28.5C58.4957 26.5717 57.294 24.9616 56.13 23.4054ZM54.9661 32.7242C54.161 33.801 53.3284 34.9141 52.9375 36.1173C52.5277 37.3772 52.5423 38.8085 52.5539 40.1919C52.5699 41.94 52.5844 43.5907 51.7837 44.6936C50.9685 45.8111 49.3861 46.3052 47.7063 46.8312C46.3941 47.241 45.0369 47.6653 43.979 48.4354C42.9357 49.194 42.1248 50.3434 41.3387 51.4565C40.3171 52.9023 39.3522 54.2697 38.0139 54.7028C36.8427 55.0849 35.2355 54.6054 33.563 54.0445C32.2334 53.5984 30.8587 53.1377 29.4986 53.1377C28.1385 53.1377 26.7638 53.5984 25.4342 54.0445C23.7631 54.6054 22.1545 55.0849 20.9833 54.7028C19.645 54.2683 18.6801 52.9023 17.6585 51.4579C16.8724 50.3448 16.0586 49.194 15.0168 48.4354C13.9574 47.6653 12.6017 47.241 11.2895 46.8297C9.61259 46.3066 8.02722 45.8111 7.21347 44.6922C6.41135 43.5907 6.42733 41.94 6.44332 40.1919C6.4564 38.8085 6.47093 37.3772 6.05969 36.1173C5.6688 34.9141 4.83616 33.801 4.03113 32.7242C2.96308 31.2958 1.95316 29.9459 1.95316 28.5C1.95316 27.0541 2.96163 25.7042 4.03113 24.2758C4.83616 23.199 5.6688 22.0859 6.05969 20.8827C6.46947 19.6229 6.45494 18.1915 6.44332 16.8082C6.42733 15.0601 6.4128 13.4093 7.21347 12.3064C8.02868 11.1889 9.61113 10.6949 11.2909 10.1688C12.6031 9.75906 13.9603 9.33474 15.0182 8.56459C16.0616 7.80606 16.8724 6.65663 17.6585 5.54354C18.6801 4.09768 19.645 2.73029 20.9833 2.29726C22.1545 1.91654 23.7617 2.39462 25.4342 2.95552C26.7638 3.40163 28.1385 3.86227 29.4986 3.86227C30.8587 3.86227 32.2334 3.40163 33.563 2.95552C35.2341 2.39462 36.8427 1.91654 38.0139 2.29726C39.3522 2.73174 40.3171 4.09768 41.3387 5.54209C42.1248 6.65518 42.9386 7.80606 43.9804 8.56459C45.0398 9.33474 46.3955 9.75905 47.7077 10.1703C49.3846 10.6934 50.97 11.1889 51.7837 12.3078C52.5859 13.4093 52.5699 15.0601 52.5539 16.8082C52.5408 18.1915 52.5263 19.6229 52.9375 20.8827C53.3284 22.0859 54.161 23.199 54.9661 24.2758C56.0341 25.7042 57.0441 27.0541 57.0441 28.5C57.0441 29.9459 56.0356 31.2958 54.9661 32.7242Z" fill="#007CC3"/>
</svg>
