<svg width="64" height="64" viewBox="0 0 64 64" fill="none" xmlns="http://www.w3.org/2000/svg">
<path d="M55.2955 11C56.2299 11 57 11.7701 57 12.7045V50.2045C57 51.139 56.2299 51.9091 55.2955 51.9091H15.5227C15.4462 51.9085 15.3706 51.8925 15.3004 51.862C15.2302 51.8315 15.1669 51.7871 15.1143 51.7315L7.15977 43.777C7.05834 43.6721 7.00114 43.5322 7 43.3864V12.7045C7 11.7701 7.77006 11 8.70455 11H55.2955ZM55.2955 12.1364H8.70455C8.37994 12.1364 8.13636 12.3799 8.13636 12.7045V22.3636H55.8636V12.7045C55.8636 12.3799 55.6201 12.1364 55.2955 12.1364ZM45.0682 14.4091C46.6305 14.4091 47.9091 15.6877 47.9091 17.25C47.9091 18.8123 46.6305 20.0909 45.0682 20.0909C43.5059 20.0909 42.2273 18.8123 42.2273 17.25C42.2273 15.6877 43.5059 14.4091 45.0682 14.4091ZM18.9318 14.4091C20.4941 14.4091 21.7727 15.6877 21.7727 17.25C21.7727 18.8123 20.4941 20.0909 18.9318 20.0909C17.3695 20.0909 16.0909 18.8123 16.0909 17.25C16.0909 15.6877 17.3695 14.4091 18.9318 14.4091ZM45.0682 15.5455C44.1201 15.5455 43.3636 16.3019 43.3636 17.25C43.3636 18.1981 44.1201 18.9545 45.0682 18.9545C46.0163 18.9545 46.7727 18.1981 46.7727 17.25C46.7727 16.3019 46.0163 15.5455 45.0682 15.5455ZM18.9318 15.5455C17.9837 15.5455 17.2273 16.3019 17.2273 17.25C17.2273 18.1981 17.9837 18.9545 18.9318 18.9545C19.8799 18.9545 20.6364 18.1981 20.6364 17.25C20.6364 16.3019 19.8799 15.5455 18.9318 15.5455ZM55.8636 23.5H8.13636V42.8182H14.3864C15.3209 42.8182 16.0909 43.5882 16.0909 44.5227V50.7727H55.2955C55.6201 50.7727 55.8636 50.5291 55.8636 50.2045V23.5ZM50.75 27.4773V46.7955H22.3409V37.7045H13.25V27.4773H50.75ZM49.6136 28.6136H41.6591V36.5682H49.6136V28.6136ZM40.5227 28.6136H32.5682V36.5682H40.5227V28.6136ZM31.4318 28.6136H23.4773V36.5682H31.4318V28.6136ZM22.3409 28.6136H14.3864V36.5682H22.3409V28.6136ZM49.6136 37.7045H41.6591V45.6591H49.6136V37.7045ZM40.5227 37.7045H32.5682V45.6591H40.5227V37.7045ZM31.4318 37.7045H23.4773V45.6591H31.4318V37.7045ZM14.3864 43.9545H8.95312L14.9545 49.956V44.5227C14.9545 44.1981 14.711 43.9545 14.3864 43.9545Z" fill="#007CC3" stroke="#007CC3" stroke-width="0.2"/>
</svg>
