<svg width="61" height="61" viewBox="0 0 61 61" fill="none" xmlns="http://www.w3.org/2000/svg">
<path d="M26.6594 23.6325C26.6594 23.9832 26.9441 24.2679 27.2948 24.2679H32.8611C33.2131 24.2679 33.4965 23.9832 33.4965 23.6325C33.4965 23.2817 33.2131 22.9971 32.8611 22.9971H27.2948C26.9441 22.9971 26.6594 23.2817 26.6594 23.6325Z" fill="#007CC3"/>
<path d="M2.15275 56.3234H45.5149C46.895 56.3234 48.1264 55.7058 48.9779 54.745C49.0046 54.7222 49.0351 54.7107 49.0579 54.6828L57.2866 44.9927C57.2917 44.9876 57.2917 44.9799 57.2968 44.9749C57.3069 44.9622 57.312 44.9494 57.3196 44.9355C57.387 44.8389 57.4213 44.7296 57.4264 44.6178C57.4289 44.6025 57.4391 44.5949 57.4391 44.5834V23.6325C57.4391 23.2817 57.1557 22.9971 56.8037 22.9971H53.1424C52.7929 22.9971 52.507 23.2817 52.507 23.6325C52.507 23.9832 52.7929 24.2679 53.1424 24.2679H56.1683V44.0967L46.5125 46.735C46.2812 46.7972 46.0931 46.9459 45.9762 47.1493C45.8542 47.3577 45.8249 47.5991 45.8898 47.8317C45.9736 48.1291 46.1998 48.3578 46.4909 48.4442C47.9282 48.8763 48.894 50.1738 48.894 51.676C48.894 53.5377 47.3804 55.0488 45.5187 55.0488H2.78817V24.2641C3.10715 24.231 3.35623 23.9604 3.35623 23.6325C3.35623 23.2817 3.07156 22.9971 2.72081 22.9971H2.15275C1.802 22.9971 1.51733 23.2817 1.51733 23.6325V55.688C1.51733 56.0387 1.80073 56.3234 2.15275 56.3234ZM47.8824 47.6792L54.9864 45.7386L50.1432 51.4396C50.0644 49.8549 49.213 48.4582 47.8824 47.6792Z" fill="#007CC3"/>
<path d="M5.92337 25.2486C5.92337 25.2651 5.91574 25.2791 5.91701 25.2956C5.91829 25.3134 5.92718 25.3274 5.92972 25.3439C6.06189 27.3646 6.5842 29.3598 7.48395 31.2076C7.48649 31.2152 7.48522 31.2228 7.48904 31.2304C7.49285 31.2355 7.4992 31.2381 7.50301 31.2457C8.38243 33.0452 9.61895 34.7036 11.2113 36.1104C11.2698 36.1625 11.3384 36.1994 11.4083 36.2273C11.482 36.254 11.5557 36.2693 11.632 36.2693C11.6459 36.2693 11.6586 36.2693 11.6713 36.2667C11.7171 36.2642 11.7578 36.2439 11.8022 36.2324C11.834 36.2248 11.8683 36.2223 11.8988 36.207C11.9789 36.1702 12.0501 36.1206 12.1085 36.0532L15.2055 32.5407L20.2482 26.8219C20.2495 26.8219 20.2495 26.8219 20.2495 26.8219L23.9336 22.6447H23.9349C23.9349 22.6434 23.9349 22.6434 23.9362 22.6421L28.975 16.9285C28.9763 16.9272 28.9776 16.9272 28.9788 16.9259C28.9801 16.9247 28.9801 16.9234 28.9814 16.9221L30.9702 14.6664C30.9753 14.6626 30.9791 14.6575 30.9829 14.6524L32.0746 13.4146C32.1966 13.2761 32.2487 13.0982 32.2284 12.9279C32.2284 12.9266 32.2284 12.9266 32.2284 12.9253V12.9241C32.2106 12.7728 32.1419 12.628 32.0174 12.5199C30.4276 11.1182 28.6306 10.1028 26.7422 9.45343C26.7307 9.44961 26.7231 9.43945 26.7129 9.43563C26.7053 9.43309 26.6977 9.43563 26.6901 9.43309C24.7444 8.77226 22.7009 8.50538 20.6803 8.62484C20.6625 8.62484 20.6485 8.61722 20.6295 8.61849C20.6117 8.61976 20.599 8.62866 20.5824 8.6312C18.5593 8.76336 16.5641 9.28568 14.715 10.1854C14.7099 10.188 14.7036 10.1867 14.6985 10.1892C14.6908 10.1931 14.6858 10.2007 14.6781 10.2045C12.8812 11.0852 11.2215 12.3192 9.81847 13.9115C8.41547 15.5013 7.40008 17.3008 6.75068 19.1931C6.74687 19.202 6.73924 19.2083 6.73543 19.2185C6.73289 19.2249 6.73543 19.2312 6.73289 19.2376C6.06951 21.1794 5.80137 23.2254 5.92337 25.2486ZM14.2816 17.8435C17.7053 13.9623 23.5435 13.4604 27.5822 16.5815L23.3592 21.3688C22.7721 21.0193 22.0947 20.8503 21.3996 20.8947C20.4871 20.9519 19.6522 21.3611 19.0473 22.0461C18.4423 22.7311 18.1412 23.6105 18.1983 24.523C18.2416 25.2194 18.4932 25.8701 18.9138 26.4076L14.6921 31.1948C11.0893 27.5806 10.8555 21.7271 14.2816 17.8435ZM19.7831 25.424C19.6026 25.1304 19.4882 24.7987 19.4654 24.4454C19.4298 23.8723 19.6191 23.3195 19.9991 22.8874C20.3791 22.4566 20.904 22.1986 21.4771 22.163C21.8304 22.1452 22.1735 22.2177 22.4874 22.3562L19.7831 25.424ZM14.6947 11.6304L15.1293 12.5174C15.2398 12.7423 15.4661 12.8732 15.6999 12.8732C15.7939 12.8732 15.8892 12.8529 15.9795 12.8084C16.2946 12.6534 16.4255 12.2734 16.2705 11.9582L15.8321 11.0636C17.188 10.4752 18.619 10.1003 20.0741 9.94524L20.1364 10.9352C20.158 11.272 20.4363 11.53 20.7705 11.53C20.7832 11.53 20.7972 11.53 20.8099 11.5287C21.1607 11.5058 21.4263 11.2046 21.4047 10.8539L21.3424 9.87407C21.4339 9.8728 21.5267 9.86009 21.6194 9.86009C22.9881 9.86009 24.3581 10.066 25.6874 10.4536L25.3671 11.3864C25.2527 11.7181 25.4307 12.079 25.7624 12.1933C25.831 12.2162 25.8996 12.2277 25.9682 12.2277C26.2326 12.2277 26.4791 12.0624 26.5693 11.7981L26.8896 10.8641C28.2316 11.3889 29.5151 12.1095 30.6868 13.0575L28.4209 15.6284C23.8561 12.0459 17.216 12.5962 13.3272 17.0034C9.43977 21.412 9.72443 28.0686 13.8496 32.1505L12.2432 33.9729L11.773 34.5066L11.5824 34.7227C10.4971 33.6781 9.61514 32.4936 8.92762 31.2304L9.81847 30.7933C10.1336 30.6382 10.2645 30.2582 10.1095 29.9431C9.95445 29.6279 9.57066 29.497 9.25931 29.6521L8.36591 30.0905C7.77624 28.7345 7.41279 27.3036 7.25774 25.8497L8.23501 25.7887C8.58449 25.7658 8.85137 25.4647 8.82976 25.1152C8.80689 24.7657 8.53112 24.5052 8.15622 24.5204L7.17641 24.5814C7.14972 23.1212 7.34416 21.6572 7.75845 20.239L8.6887 20.5567C8.7586 20.577 8.82722 20.5885 8.89585 20.5885C9.16018 20.5885 9.40672 20.4233 9.49695 20.1589C9.61133 19.826 9.43341 19.4651 9.10172 19.3519L8.1702 19.033C8.69379 17.6935 9.42706 16.4163 10.3726 15.2446L11.1096 15.8953C11.2316 16.002 11.3803 16.0541 11.5316 16.0541C11.7082 16.0541 11.8823 15.9817 12.0081 15.8394C12.2407 15.5763 12.2153 15.1747 11.9522 14.9422L11.2177 14.294C12.2597 13.21 13.4327 12.3179 14.6947 11.6304Z" fill="#007CC3"/>
<path d="M55.1796 7.91226L40.6044 24.747C40.3731 25.0113 40.4036 25.4129 40.6692 25.6429C40.7912 25.7471 40.9373 25.798 41.0835 25.798C41.2627 25.798 41.438 25.723 41.5651 25.5781L56.1429 8.74338C56.3716 8.47905 56.3411 8.07747 56.0755 7.84745C55.8099 7.61743 55.4109 7.64538 55.1796 7.91226Z" fill="#007CC3"/>
<path d="M54.196 4.69071C52.8807 4.78475 51.681 5.38585 50.8207 6.38219L36.2442 23.2169C36.2417 23.2182 36.2417 23.222 36.2391 23.2245C36.2315 23.2334 36.2289 23.2449 36.2213 23.2538C36.1641 23.3288 36.1298 23.4114 36.1095 23.4978C36.1069 23.5105 36.0968 23.5181 36.0942 23.5308L34.7967 31.5968C34.7624 31.8154 34.8412 32.034 35.0077 32.1776C35.1246 32.2792 35.2733 32.3339 35.422 32.3339C35.4868 32.3339 35.5516 32.3237 35.6126 32.3046L43.4092 29.8672C43.4193 29.8647 43.4269 29.8545 43.4358 29.8494C43.5172 29.8202 43.5922 29.7719 43.657 29.7083C43.6697 29.6982 43.6837 29.6918 43.6938 29.6817C43.6964 29.6791 43.6989 29.6791 43.7014 29.6766L58.2792 12.8418C59.1408 11.8455 59.5653 10.5734 59.4712 9.25936C59.3772 7.94404 58.7761 6.74565 57.781 5.88275C56.7859 5.01986 55.524 4.59413 54.196 4.69071ZM36.2137 30.786L37.1694 24.8601L41.9426 28.9941L36.2137 30.786ZM57.3197 12.0094L43.1563 28.3638L37.6192 23.5689L51.7827 7.21331C52.4232 6.47369 53.3115 6.02763 54.29 5.95773C55.2609 5.88148 56.2115 6.20046 56.9511 6.84223C57.6908 7.48273 58.1356 8.37358 58.2067 9.34831C58.2728 10.3243 57.9589 11.2698 57.3197 12.0094Z" fill="#007CC3"/>
<path d="M31.4977 48.6617C35.4068 48.6617 38.5889 45.4821 38.5889 41.573C38.5889 37.6639 35.4068 34.4843 31.4977 34.4843C30.3806 34.4843 29.3271 34.7499 28.3841 35.2137L28.1935 29.2828C28.1859 29.0553 28.0588 28.852 27.858 28.7439C27.6572 28.6372 27.4145 28.6448 27.2226 28.7643L16.3926 35.4908C16.1994 35.6102 16.085 35.8237 16.0926 36.0512C16.1003 36.2787 16.2274 36.4833 16.4281 36.5926L24.4458 40.8817C24.423 41.1079 24.4115 41.3379 24.4115 41.5717C24.409 45.4821 27.5873 48.6617 31.4977 48.6617ZM31.4977 35.7551C34.7065 35.7551 37.3181 38.3641 37.3181 41.573C37.3181 44.7819 34.7065 47.3909 31.4977 47.3909C28.2914 47.3909 25.6798 44.7793 25.6798 41.573C25.6798 41.5654 25.6824 41.5552 25.6824 41.5463L27.6687 42.6087C27.7627 42.6608 27.8656 42.6862 27.9686 42.6862C28.0855 42.6862 28.2024 42.6545 28.3041 42.5897C28.4972 42.4702 28.6116 42.2567 28.604 42.0292L28.4299 36.6511C29.3246 36.0893 30.3692 35.7551 31.4977 35.7551ZM27.2989 40.9694L25.8603 40.2005C26.0928 39.2499 26.558 38.3985 27.1934 37.6957L27.2989 40.9694ZM17.9976 35.9902L26.9595 30.4252L27.14 35.9928C25.9899 36.8938 25.1232 38.1392 24.7013 39.5765L17.9976 35.9902Z" fill="#007CC3"/>
</svg>
