<svg width="16" height="15" viewBox="0 0 16 15" fill="none" xmlns="http://www.w3.org/2000/svg">
<path d="M8.48969 1.0365C9.42543 1.25792 10.1223 2.09959 10.1223 3.10204C10.1223 4.10505 9.42501 4.9462 8.48969 5.16757V13.551C8.48969 13.8215 8.2704 14.0408 7.99989 14.0408C7.72938 14.0408 7.51009 13.8215 7.51009 13.551V5.16759C6.57434 4.94616 5.87744 4.1045 5.87744 3.10204C5.87744 2.09904 6.57477 1.25788 7.51009 1.03651V0.489796C7.51009 0.219289 7.72938 0 7.99989 0C8.2704 0 8.48969 0.219289 8.48969 0.489796V1.0365ZM6.85703 3.10204C6.85703 3.73211 7.36943 4.2449 7.99989 4.2449C8.62996 4.2449 9.14275 3.73251 9.14275 3.10204C9.14275 2.47198 8.63035 1.95918 7.99989 1.95918C7.36982 1.95918 6.85703 2.47158 6.85703 3.10204Z" fill="white"/>
<path d="M2.61224 8.87323C3.54799 9.09466 4.2449 9.93633 4.2449 10.9388C4.2449 11.9418 3.54757 12.7829 2.61224 13.0043V13.551C2.61224 13.8215 2.39296 14.0408 2.12245 14.0408C1.85194 14.0408 1.63265 13.8215 1.63265 13.551V13.0043C0.696903 12.7829 0 11.9412 0 10.9388C0 9.93578 0.697328 9.09462 1.63265 8.87325V0.489796C1.63265 0.219289 1.85194 0 2.12245 0C2.39296 0 2.61224 0.219289 2.61224 0.489796V8.87323ZM0.979592 10.9388C0.979592 11.5688 1.49198 12.0816 2.12245 12.0816C2.75252 12.0816 3.26531 11.5692 3.26531 10.9388C3.26531 10.3087 2.75291 9.79592 2.12245 9.79592C1.49238 9.79592 0.979592 10.3083 0.979592 10.9388Z" fill="white"/>
<path d="M14.3674 5.93446C15.3031 6.15588 16 6.99755 16 8C16 9.00301 15.3027 9.84417 14.3674 10.0655V13.551C14.3674 13.8215 14.1481 14.0408 13.8776 14.0408C13.6071 14.0408 13.3878 13.8215 13.3878 13.551V10.0656C12.452 9.84412 11.7551 9.00246 11.7551 8C11.7551 6.997 12.4525 6.15584 13.3878 5.93447V0.489796C13.3878 0.219289 13.6071 0 13.8776 0C14.1481 0 14.3674 0.219289 14.3674 0.489796V5.93446ZM12.7347 8C12.7347 8.63007 13.2471 9.14286 13.8776 9.14286C14.5076 9.14286 15.0204 8.63047 15.0204 8C15.0204 7.36994 14.508 6.85715 13.8776 6.85715C13.2475 6.85715 12.7347 7.36954 12.7347 8Z" fill="white"/>
</svg>
