<svg width="23" height="20" viewBox="0 0 23 20" fill="none" xmlns="http://www.w3.org/2000/svg">
<path d="M22.7241 2.91293C21.9034 3.28578 21.0289 3.53293 20.1172 3.65293C21.0552 3.07293 21.771 2.1615 22.1076 1.06293C21.2331 1.60293 20.2676 1.98436 19.2386 2.19721C18.4083 1.2815 17.2248 0.714355 15.9338 0.714355C13.4289 0.714355 11.4124 2.82007 11.4124 5.4015C11.4124 5.77293 11.4427 6.13007 11.5172 6.47007C7.75584 6.28007 4.42757 4.41293 2.1917 1.56864C1.80136 2.27007 1.57239 3.07293 1.57239 3.93721C1.57239 5.56007 2.37929 6.99864 3.58205 7.8315C2.85515 7.81721 2.14205 7.59864 1.53791 7.25436C1.53791 7.26864 1.53791 7.28721 1.53791 7.30578C1.53791 9.58293 3.10619 11.4744 5.16274 11.9101C4.79446 12.0144 4.39308 12.0644 3.97653 12.0644C3.68688 12.0644 3.39446 12.0472 3.11998 11.9844C3.70619 13.8401 5.36964 15.2044 7.34757 15.2486C5.80826 16.4958 3.85377 17.2472 1.73791 17.2472C1.36688 17.2472 1.01101 17.2301 0.655151 17.1829C2.65929 18.5215 5.03446 19.2858 7.59584 19.2858C15.9214 19.2858 20.4731 12.1429 20.4731 5.9515C20.4731 5.74436 20.4662 5.54436 20.4565 5.34578C21.3545 4.68578 22.1089 3.8615 22.7241 2.91293Z" fill="white"/>
</svg>
