<svg width="64" height="64" viewBox="0 0 64 64" fill="none" xmlns="http://www.w3.org/2000/svg">
<mask id="path-1-outside-1" maskUnits="userSpaceOnUse" x="1.0199" y="0.0751953" width="62" height="63" fill="black">
<rect fill="white" x="1.0199" y="0.0751953" width="62" height="63"/>
<path d="M32.0426 1.0752C33.8432 1.0752 35.4688 1.94986 36.6421 3.3632C37.7962 4.75413 38.5098 6.67093 38.5098 8.78399C38.5098 10.8683 37.8154 12.7627 36.688 14.1483C36.081 15.0464 35.8048 15.9008 35.728 16.6421C35.6256 17.6384 35.8762 18.4128 36.16 18.7979C36.336 19.0379 36.5642 19.2203 36.8181 19.3611C37.0869 19.5104 37.3867 19.6149 37.6864 19.6917C37.8506 19.7344 38.1632 19.8123 38.4693 19.888C39.6448 20.1813 40.7381 20.4533 41.7248 20.896C42.3114 20.4821 42.992 20.1408 43.7205 19.8507C44.5322 19.5275 45.4048 19.2704 46.273 19.0464C46.5152 18.9845 46.7562 18.9003 46.9728 18.7797C47.1744 18.6677 47.3546 18.5248 47.4933 18.3349C47.7194 18.0277 47.9189 17.4059 47.8368 16.6027C47.7749 16.0011 47.5509 15.3077 47.0581 14.5771C46.1173 13.4187 45.537 11.8368 45.537 10.096C45.537 8.33066 46.1333 6.72959 47.0986 5.56586C48.0821 4.3808 49.4464 3.64693 50.9589 3.64693C52.4714 3.64693 53.8357 4.37973 54.8192 5.56586C55.7834 6.72853 56.3808 8.33066 56.3808 10.096C56.3808 11.792 55.8304 13.3365 54.9312 14.4875C54.9205 14.512 54.9066 14.5365 54.8917 14.56C54.3904 15.296 54.1632 15.9968 54.1013 16.6027C54.0181 17.4059 54.2186 18.0267 54.4448 18.3349C54.5834 18.5237 54.7637 18.6677 54.9653 18.7797C55.1818 18.9003 55.4229 18.9835 55.665 19.0464C55.7845 19.0773 56.0501 19.1435 56.3125 19.2085C58.6794 19.7984 60.6453 20.2891 61.9424 22.9291C62.0458 23.1403 61.9584 23.3941 61.7472 23.4976C61.536 23.6011 61.2821 23.5136 61.1786 23.3024C60.0576 21.0197 58.2666 20.5728 56.1088 20.0352C55.9434 19.9936 55.776 19.952 55.4549 19.8699C55.1477 19.7909 54.8373 19.6821 54.5514 19.5232C54.2496 19.3557 53.9754 19.1349 53.7578 18.8384C53.4368 18.4011 53.1477 17.5563 53.2544 16.5163C53.2757 16.3115 53.312 16.0981 53.3664 15.8784C52.6421 16.3051 51.825 16.5451 50.96 16.5451C50.1045 16.5451 49.296 16.3104 48.577 15.8923C48.6293 16.1077 48.6645 16.3157 48.6858 16.5163C48.7925 17.5552 48.5045 18.4 48.1824 18.8384C47.9648 19.1349 47.6906 19.3557 47.3888 19.5232C47.1029 19.6821 46.7925 19.7909 46.4853 19.8699C45.649 20.0853 44.8106 20.3328 44.0362 20.6411C43.52 20.8459 43.0314 21.0795 42.5909 21.3483C43.6181 21.9755 44.5056 22.8843 45.2202 24.3392C45.3237 24.5504 45.2362 24.8043 45.025 24.9077C44.8138 25.0112 44.56 24.9237 44.4565 24.7125C43.7376 23.248 42.7957 22.4011 41.6853 21.8325C41.6 21.8197 41.5189 21.7813 41.4528 21.7184C40.4981 21.2704 39.4261 21.0037 38.2677 20.7147C38.0576 20.6624 37.8453 20.6091 37.4773 20.5152C37.1125 20.4213 36.7445 20.2923 36.4064 20.1045C36.0522 19.9083 35.7301 19.6491 35.4752 19.3013C35.0965 18.7861 34.7562 17.7877 34.8832 16.5557C34.9141 16.2517 34.9738 15.9317 35.0677 15.6011C34.1664 16.1707 33.137 16.4928 32.0448 16.4928C30.9397 16.4928 29.9008 16.1632 28.992 15.5829C29.089 15.9211 29.1498 16.2464 29.1818 16.5568C29.3088 17.7888 28.9685 18.7872 28.5898 19.3024C28.3349 19.6501 28.0128 19.9083 27.6586 20.1056C27.3195 20.2933 26.9525 20.4224 26.5877 20.5163C26.2208 20.6112 26.0075 20.6635 25.7973 20.7157C23.1669 21.3717 20.9824 21.9157 19.6085 24.7136C19.5051 24.9248 19.2512 25.0112 19.04 24.9088C18.8288 24.8053 18.7424 24.5515 18.8448 24.3403C19.5531 22.8992 20.4299 21.9936 21.4443 21.3675C20.9963 21.0901 20.4971 20.8512 19.9691 20.6421C19.1947 20.3339 18.3563 20.0864 17.52 19.8709C17.2128 19.792 16.9024 19.6832 16.6165 19.5243C16.3147 19.3568 16.0405 19.136 15.8229 18.8395C15.5019 18.4021 15.2128 17.5573 15.3195 16.5173C15.3397 16.3168 15.3749 16.1077 15.4283 15.8933C14.7093 16.3115 13.9008 16.5461 13.0453 16.5461C12.1803 16.5461 11.3632 16.3061 10.6389 15.8795C10.6933 16.0992 10.7296 16.3125 10.7509 16.5173C10.8576 17.5563 10.5696 18.4011 10.2475 18.8395C10.0299 19.136 9.75572 19.3568 9.45386 19.5243C9.16799 19.6832 8.85759 19.792 8.55039 19.8709C8.22932 19.9531 8.06186 19.9957 7.89652 20.0363C5.73972 20.5739 3.94772 21.0208 2.82666 23.3035C2.72319 23.5147 2.46933 23.6011 2.25813 23.4987C2.04693 23.3952 1.96053 23.1413 2.06293 22.9301C3.35999 20.2901 5.32586 19.7995 7.69279 19.2096C7.95412 19.1445 8.22079 19.0784 8.34026 19.0475C8.58239 18.9856 8.82346 18.9013 9.03999 18.7808C9.24159 18.6699 9.42186 18.5259 9.56052 18.336C9.78666 18.0288 9.98612 17.4069 9.90399 16.6037C9.84106 15.9979 9.61492 15.2981 9.11359 14.5611C9.09759 14.5376 9.08479 14.5131 9.07412 14.4885C8.17492 13.3387 7.62452 11.7931 7.62452 10.0971C7.62452 8.33173 8.22079 6.73066 9.18612 5.56693C10.1696 4.38186 11.5339 3.64799 13.0464 3.64799C14.5589 3.64799 15.9232 4.3808 16.9067 5.56693C17.8709 6.72959 18.4683 8.33173 18.4683 10.0971C18.4683 11.8379 17.888 13.4197 16.9472 14.5781C16.4544 15.3088 16.2304 16.0021 16.1685 16.6037C16.0853 17.4069 16.2859 18.0277 16.512 18.336C16.6507 18.5248 16.8309 18.6688 17.0325 18.7808C17.2491 18.9013 17.4901 18.9845 17.7323 19.0475C18.6005 19.2715 19.4731 19.5285 20.2848 19.8517C21.024 20.1451 21.712 20.4917 22.304 20.9131C23.3013 20.4608 24.4064 20.1856 25.5968 19.8891C25.9029 19.8123 26.2155 19.7344 26.3797 19.6928C26.6795 19.616 26.9781 19.5115 27.248 19.3621C27.5019 19.2213 27.7301 19.0389 27.9061 18.7989C28.1888 18.4139 28.4405 17.6384 28.3381 16.6432C28.2613 15.8965 27.9818 15.0368 27.3675 14.1323C27.3493 14.1056 27.3344 14.0779 27.3226 14.0491C26.2432 12.6731 25.5819 10.8203 25.5819 8.78506C25.5819 6.67199 26.2955 4.75519 27.4496 3.36426C28.6218 1.95093 30.2474 1.07626 32.049 1.07626L32.0426 1.0752ZM35.5424 25.1883V34.5269H37.9946C38.2304 34.5269 38.4213 34.7179 38.4213 34.9536C38.4213 35.0421 38.3946 35.1243 38.3477 35.1925L32.6037 44.9355C32.4842 45.1381 32.2229 45.2053 32.0202 45.0859C31.9541 45.0464 31.9018 44.992 31.8666 44.9291L26.1131 35.1712C25.9936 34.9685 26.0608 34.7072 26.2635 34.5877C26.3317 34.5472 26.4064 34.528 26.48 34.528V34.5269H28.9322V25.1883C28.9322 24.9525 29.1232 24.7616 29.3589 24.7616H35.1168C35.3525 24.7616 35.5434 24.9525 35.5434 25.1883H35.5424ZM34.689 34.9536V25.6149H29.7845V34.9536C29.7845 35.1893 29.5936 35.3803 29.3578 35.3803H27.2256L32.2368 43.8795L37.248 35.3803H35.1157C34.88 35.3803 34.689 35.1893 34.689 34.9536ZM32.944 55.1051V62.0683C38.0192 61.9573 42.5696 59.8677 45.8741 56.5909C49.2501 53.2416 51.3248 48.6496 51.3248 43.6608C51.3248 43.3728 51.3269 43.8251 51.3258 43.5861L51.3066 36.7915H44.032L44.0352 43.6789C44.0352 46.7648 42.7488 49.6224 40.6677 51.7077C38.6773 53.7024 35.9584 54.9931 32.944 55.1051ZM32.0906 62.0683V55.1051C29.0763 54.9931 26.3573 53.7024 24.3669 51.7077C22.2848 49.6213 20.9973 46.7648 20.9973 43.6789H20.9995L21.0027 36.7915H13.728L13.7088 43.5861C13.7077 43.824 13.7099 43.3728 13.7099 43.6608C13.7099 48.6496 15.7835 53.2416 19.1605 56.5909C22.464 59.8688 27.0154 61.9573 32.0906 62.0693V62.0683ZM13.3259 28.0917H21.4315C21.6672 28.0917 21.8581 28.2827 21.8581 28.5184V36.3637C21.8581 36.3883 21.856 36.4117 21.8517 36.4352L21.8475 43.6789H21.8496C21.8496 46.5323 23.0411 49.1755 24.9685 51.1072C26.8971 53.04 29.5594 54.2592 32.5002 54.2635H32.5312C35.472 54.2592 38.1354 53.04 40.0629 51.1072C41.9914 49.1744 43.184 46.5312 43.184 43.6789L43.1797 36.4352C43.1754 36.4117 43.1733 36.3883 43.1733 36.3637V28.5184C43.1733 28.2827 43.3642 28.0917 43.6 28.0917H51.7056C51.9413 28.0917 52.1322 28.2827 52.1322 28.5184V29.1104L52.1728 43.5819V43.6597H52.1738C52.1738 43.6128 52.1749 43.5243 52.1749 43.6597C52.1749 48.8821 50.0042 53.6885 46.4714 57.1936C42.9408 60.6965 38.0469 62.9003 32.5994 62.9227H32.5152C32.5514 62.9227 32.5386 62.9237 32.5152 62.9237C32.5589 62.9237 32.64 62.9248 32.5152 62.9248C32.3904 62.9248 32.4714 62.9248 32.5152 62.9237C32.4917 62.9237 32.4789 62.9237 32.5152 62.9227H32.4309C26.9824 62.9003 22.0896 60.6965 18.5589 57.1936C15.0251 53.6885 12.8555 48.8821 12.8555 43.6597C12.8555 43.5243 12.8555 43.6128 12.8565 43.6597H12.8576C12.8853 38.8107 12.8853 33.9595 12.8992 29.1104V28.5184C12.8992 28.2827 13.0901 28.0917 13.3259 28.0917ZM21.0048 28.9451H13.7525V35.9371H21.0027L21.0048 31.6149V28.9451ZM12.8565 43.6597C12.8565 43.6843 12.8565 43.6971 12.8576 43.6597H12.8565ZM44.0277 31.6149L44.0298 35.9371H51.28V28.9451H44.0277V31.6149ZM52.1749 43.6597C52.1749 43.6971 52.176 43.6843 52.176 43.6597H52.1749ZM52.9781 12.7296C53.1306 12.5515 53.3994 12.5301 53.5786 12.6827C53.7568 12.8352 53.7781 13.104 53.6256 13.2832C53.28 13.6875 52.8682 14.0149 52.4085 14.2389C51.9584 14.4587 51.4688 14.5803 50.9568 14.5803C50.4448 14.5803 49.9552 14.4587 49.505 14.2389C49.0453 14.0139 48.6336 13.6875 48.288 13.2832C48.1354 13.1051 48.1557 12.8363 48.3349 12.6827C48.513 12.5301 48.7818 12.5504 48.9354 12.7296C49.2074 13.0485 49.5274 13.3035 49.8794 13.4763C50.2101 13.6384 50.5749 13.728 50.9578 13.728C51.3408 13.728 51.7045 13.6384 52.0362 13.4763C52.3882 13.3045 52.7082 13.0485 52.9802 12.7296H52.9781ZM50.9557 4.50133C49.7098 4.50133 48.577 5.11573 47.7525 6.10986C46.9098 7.12639 46.3882 8.53546 46.3882 10.096C46.3882 11.6565 46.9098 13.0656 47.7525 14.0821C48.577 15.0763 49.7098 15.6907 50.9557 15.6907C52.2016 15.6907 53.3344 15.0763 54.1589 14.0821C55.0016 13.0656 55.5232 11.6565 55.5232 10.096C55.5232 8.53546 55.0016 7.12639 54.1589 6.10986C53.3344 5.11573 52.2016 4.50133 50.9557 4.50133ZM10.3733 13.2832C10.2208 13.1051 10.2411 12.8363 10.4203 12.6827C10.5984 12.5301 10.8672 12.5504 11.0208 12.7296C11.2928 13.0485 11.6128 13.3035 11.9648 13.4763C12.2955 13.6384 12.6603 13.728 13.0432 13.728C13.4261 13.728 13.7899 13.6384 14.1216 13.4763C14.4736 13.3045 14.7936 13.0485 15.0656 12.7296C15.2181 12.5515 15.4869 12.5301 15.6661 12.6827C15.8443 12.8352 15.8656 13.104 15.7131 13.2832C15.3675 13.6875 14.9557 14.0149 14.496 14.2389C14.0459 14.4587 13.5563 14.5803 13.0443 14.5803C12.5323 14.5803 12.0427 14.4587 11.5925 14.2389C11.1328 14.0139 10.7211 13.6875 10.3755 13.2832H10.3733ZM16.2453 6.10986C15.4208 5.11573 14.288 4.50133 13.0421 4.50133C11.7963 4.50133 10.6635 5.11573 9.83892 6.10986C8.99626 7.12639 8.47466 8.53546 8.47466 10.096C8.47466 11.6565 8.99626 13.0656 9.83892 14.0821C10.6635 15.0763 11.7963 15.6907 13.0421 15.6907C14.288 15.6907 15.4208 15.0763 16.2453 14.0821C17.088 13.0656 17.6096 11.6565 17.6096 10.096C17.6096 8.53546 17.088 7.12639 16.2453 6.10986ZM28.8821 12.5781C28.7296 12.4 28.7498 12.1312 28.929 11.9776C29.1072 11.8251 29.376 11.8453 29.5296 12.0245C29.8666 12.4192 30.2634 12.7349 30.6997 12.9483C31.1125 13.1499 31.5658 13.2619 32.0426 13.2619C32.5194 13.2619 32.9728 13.1509 33.3856 12.9483C33.8218 12.7349 34.2186 12.4192 34.5557 12.0245C34.7082 11.8464 34.977 11.8251 35.1562 11.9776C35.3344 12.1301 35.3557 12.3989 35.2032 12.5781C34.7936 13.0581 34.304 13.4464 33.76 13.712C33.2288 13.9723 32.6496 14.1152 32.0437 14.1152C31.4389 14.1152 30.8586 13.9723 30.3274 13.712C29.7834 13.4453 29.2938 13.0581 28.8842 12.5781H28.8821ZM35.984 3.90613C34.9706 2.68373 33.5765 1.92853 32.0416 1.92853C30.5066 1.92853 29.1125 2.6848 28.0992 3.90613C27.0667 5.15093 26.4288 6.87466 26.4288 8.78293C26.4288 10.6912 27.0677 12.416 28.0992 13.6597C29.1125 14.8821 30.5066 15.6373 32.0416 15.6373C33.5765 15.6373 34.9706 14.8811 35.984 13.6597C37.0165 12.4149 37.6544 10.6912 37.6544 8.78293C37.6544 6.87466 37.0154 5.14986 35.984 3.90613Z"/>
</mask>
<path d="M32.0426 1.0752C33.8432 1.0752 35.4688 1.94986 36.6421 3.3632C37.7962 4.75413 38.5098 6.67093 38.5098 8.78399C38.5098 10.8683 37.8154 12.7627 36.688 14.1483C36.081 15.0464 35.8048 15.9008 35.728 16.6421C35.6256 17.6384 35.8762 18.4128 36.16 18.7979C36.336 19.0379 36.5642 19.2203 36.8181 19.3611C37.0869 19.5104 37.3867 19.6149 37.6864 19.6917C37.8506 19.7344 38.1632 19.8123 38.4693 19.888C39.6448 20.1813 40.7381 20.4533 41.7248 20.896C42.3114 20.4821 42.992 20.1408 43.7205 19.8507C44.5322 19.5275 45.4048 19.2704 46.273 19.0464C46.5152 18.9845 46.7562 18.9003 46.9728 18.7797C47.1744 18.6677 47.3546 18.5248 47.4933 18.3349C47.7194 18.0277 47.9189 17.4059 47.8368 16.6027C47.7749 16.0011 47.5509 15.3077 47.0581 14.5771C46.1173 13.4187 45.537 11.8368 45.537 10.096C45.537 8.33066 46.1333 6.72959 47.0986 5.56586C48.0821 4.3808 49.4464 3.64693 50.9589 3.64693C52.4714 3.64693 53.8357 4.37973 54.8192 5.56586C55.7834 6.72853 56.3808 8.33066 56.3808 10.096C56.3808 11.792 55.8304 13.3365 54.9312 14.4875C54.9205 14.512 54.9066 14.5365 54.8917 14.56C54.3904 15.296 54.1632 15.9968 54.1013 16.6027C54.0181 17.4059 54.2186 18.0267 54.4448 18.3349C54.5834 18.5237 54.7637 18.6677 54.9653 18.7797C55.1818 18.9003 55.4229 18.9835 55.665 19.0464C55.7845 19.0773 56.0501 19.1435 56.3125 19.2085C58.6794 19.7984 60.6453 20.2891 61.9424 22.9291C62.0458 23.1403 61.9584 23.3941 61.7472 23.4976C61.536 23.6011 61.2821 23.5136 61.1786 23.3024C60.0576 21.0197 58.2666 20.5728 56.1088 20.0352C55.9434 19.9936 55.776 19.952 55.4549 19.8699C55.1477 19.7909 54.8373 19.6821 54.5514 19.5232C54.2496 19.3557 53.9754 19.1349 53.7578 18.8384C53.4368 18.4011 53.1477 17.5563 53.2544 16.5163C53.2757 16.3115 53.312 16.0981 53.3664 15.8784C52.6421 16.3051 51.825 16.5451 50.96 16.5451C50.1045 16.5451 49.296 16.3104 48.577 15.8923C48.6293 16.1077 48.6645 16.3157 48.6858 16.5163C48.7925 17.5552 48.5045 18.4 48.1824 18.8384C47.9648 19.1349 47.6906 19.3557 47.3888 19.5232C47.1029 19.6821 46.7925 19.7909 46.4853 19.8699C45.649 20.0853 44.8106 20.3328 44.0362 20.6411C43.52 20.8459 43.0314 21.0795 42.5909 21.3483C43.6181 21.9755 44.5056 22.8843 45.2202 24.3392C45.3237 24.5504 45.2362 24.8043 45.025 24.9077C44.8138 25.0112 44.56 24.9237 44.4565 24.7125C43.7376 23.248 42.7957 22.4011 41.6853 21.8325C41.6 21.8197 41.5189 21.7813 41.4528 21.7184C40.4981 21.2704 39.4261 21.0037 38.2677 20.7147C38.0576 20.6624 37.8453 20.6091 37.4773 20.5152C37.1125 20.4213 36.7445 20.2923 36.4064 20.1045C36.0522 19.9083 35.7301 19.6491 35.4752 19.3013C35.0965 18.7861 34.7562 17.7877 34.8832 16.5557C34.9141 16.2517 34.9738 15.9317 35.0677 15.6011C34.1664 16.1707 33.137 16.4928 32.0448 16.4928C30.9397 16.4928 29.9008 16.1632 28.992 15.5829C29.089 15.9211 29.1498 16.2464 29.1818 16.5568C29.3088 17.7888 28.9685 18.7872 28.5898 19.3024C28.3349 19.6501 28.0128 19.9083 27.6586 20.1056C27.3195 20.2933 26.9525 20.4224 26.5877 20.5163C26.2208 20.6112 26.0075 20.6635 25.7973 20.7157C23.1669 21.3717 20.9824 21.9157 19.6085 24.7136C19.5051 24.9248 19.2512 25.0112 19.04 24.9088C18.8288 24.8053 18.7424 24.5515 18.8448 24.3403C19.5531 22.8992 20.4299 21.9936 21.4443 21.3675C20.9963 21.0901 20.4971 20.8512 19.9691 20.6421C19.1947 20.3339 18.3563 20.0864 17.52 19.8709C17.2128 19.792 16.9024 19.6832 16.6165 19.5243C16.3147 19.3568 16.0405 19.136 15.8229 18.8395C15.5019 18.4021 15.2128 17.5573 15.3195 16.5173C15.3397 16.3168 15.3749 16.1077 15.4283 15.8933C14.7093 16.3115 13.9008 16.5461 13.0453 16.5461C12.1803 16.5461 11.3632 16.3061 10.6389 15.8795C10.6933 16.0992 10.7296 16.3125 10.7509 16.5173C10.8576 17.5563 10.5696 18.4011 10.2475 18.8395C10.0299 19.136 9.75572 19.3568 9.45386 19.5243C9.16799 19.6832 8.85759 19.792 8.55039 19.8709C8.22932 19.9531 8.06186 19.9957 7.89652 20.0363C5.73972 20.5739 3.94772 21.0208 2.82666 23.3035C2.72319 23.5147 2.46933 23.6011 2.25813 23.4987C2.04693 23.3952 1.96053 23.1413 2.06293 22.9301C3.35999 20.2901 5.32586 19.7995 7.69279 19.2096C7.95412 19.1445 8.22079 19.0784 8.34026 19.0475C8.58239 18.9856 8.82346 18.9013 9.03999 18.7808C9.24159 18.6699 9.42186 18.5259 9.56052 18.336C9.78666 18.0288 9.98612 17.4069 9.90399 16.6037C9.84106 15.9979 9.61492 15.2981 9.11359 14.5611C9.09759 14.5376 9.08479 14.5131 9.07412 14.4885C8.17492 13.3387 7.62452 11.7931 7.62452 10.0971C7.62452 8.33173 8.22079 6.73066 9.18612 5.56693C10.1696 4.38186 11.5339 3.64799 13.0464 3.64799C14.5589 3.64799 15.9232 4.3808 16.9067 5.56693C17.8709 6.72959 18.4683 8.33173 18.4683 10.0971C18.4683 11.8379 17.888 13.4197 16.9472 14.5781C16.4544 15.3088 16.2304 16.0021 16.1685 16.6037C16.0853 17.4069 16.2859 18.0277 16.512 18.336C16.6507 18.5248 16.8309 18.6688 17.0325 18.7808C17.2491 18.9013 17.4901 18.9845 17.7323 19.0475C18.6005 19.2715 19.4731 19.5285 20.2848 19.8517C21.024 20.1451 21.712 20.4917 22.304 20.9131C23.3013 20.4608 24.4064 20.1856 25.5968 19.8891C25.9029 19.8123 26.2155 19.7344 26.3797 19.6928C26.6795 19.616 26.9781 19.5115 27.248 19.3621C27.5019 19.2213 27.7301 19.0389 27.9061 18.7989C28.1888 18.4139 28.4405 17.6384 28.3381 16.6432C28.2613 15.8965 27.9818 15.0368 27.3675 14.1323C27.3493 14.1056 27.3344 14.0779 27.3226 14.0491C26.2432 12.6731 25.5819 10.8203 25.5819 8.78506C25.5819 6.67199 26.2955 4.75519 27.4496 3.36426C28.6218 1.95093 30.2474 1.07626 32.049 1.07626L32.0426 1.0752ZM35.5424 25.1883V34.5269H37.9946C38.2304 34.5269 38.4213 34.7179 38.4213 34.9536C38.4213 35.0421 38.3946 35.1243 38.3477 35.1925L32.6037 44.9355C32.4842 45.1381 32.2229 45.2053 32.0202 45.0859C31.9541 45.0464 31.9018 44.992 31.8666 44.9291L26.1131 35.1712C25.9936 34.9685 26.0608 34.7072 26.2635 34.5877C26.3317 34.5472 26.4064 34.528 26.48 34.528V34.5269H28.9322V25.1883C28.9322 24.9525 29.1232 24.7616 29.3589 24.7616H35.1168C35.3525 24.7616 35.5434 24.9525 35.5434 25.1883H35.5424ZM34.689 34.9536V25.6149H29.7845V34.9536C29.7845 35.1893 29.5936 35.3803 29.3578 35.3803H27.2256L32.2368 43.8795L37.248 35.3803H35.1157C34.88 35.3803 34.689 35.1893 34.689 34.9536ZM32.944 55.1051V62.0683C38.0192 61.9573 42.5696 59.8677 45.8741 56.5909C49.2501 53.2416 51.3248 48.6496 51.3248 43.6608C51.3248 43.3728 51.3269 43.8251 51.3258 43.5861L51.3066 36.7915H44.032L44.0352 43.6789C44.0352 46.7648 42.7488 49.6224 40.6677 51.7077C38.6773 53.7024 35.9584 54.9931 32.944 55.1051ZM32.0906 62.0683V55.1051C29.0763 54.9931 26.3573 53.7024 24.3669 51.7077C22.2848 49.6213 20.9973 46.7648 20.9973 43.6789H20.9995L21.0027 36.7915H13.728L13.7088 43.5861C13.7077 43.824 13.7099 43.3728 13.7099 43.6608C13.7099 48.6496 15.7835 53.2416 19.1605 56.5909C22.464 59.8688 27.0154 61.9573 32.0906 62.0693V62.0683ZM13.3259 28.0917H21.4315C21.6672 28.0917 21.8581 28.2827 21.8581 28.5184V36.3637C21.8581 36.3883 21.856 36.4117 21.8517 36.4352L21.8475 43.6789H21.8496C21.8496 46.5323 23.0411 49.1755 24.9685 51.1072C26.8971 53.04 29.5594 54.2592 32.5002 54.2635H32.5312C35.472 54.2592 38.1354 53.04 40.0629 51.1072C41.9914 49.1744 43.184 46.5312 43.184 43.6789L43.1797 36.4352C43.1754 36.4117 43.1733 36.3883 43.1733 36.3637V28.5184C43.1733 28.2827 43.3642 28.0917 43.6 28.0917H51.7056C51.9413 28.0917 52.1322 28.2827 52.1322 28.5184V29.1104L52.1728 43.5819V43.6597H52.1738C52.1738 43.6128 52.1749 43.5243 52.1749 43.6597C52.1749 48.8821 50.0042 53.6885 46.4714 57.1936C42.9408 60.6965 38.0469 62.9003 32.5994 62.9227H32.5152C32.5514 62.9227 32.5386 62.9237 32.5152 62.9237C32.5589 62.9237 32.64 62.9248 32.5152 62.9248C32.3904 62.9248 32.4714 62.9248 32.5152 62.9237C32.4917 62.9237 32.4789 62.9237 32.5152 62.9227H32.4309C26.9824 62.9003 22.0896 60.6965 18.5589 57.1936C15.0251 53.6885 12.8555 48.8821 12.8555 43.6597C12.8555 43.5243 12.8555 43.6128 12.8565 43.6597H12.8576C12.8853 38.8107 12.8853 33.9595 12.8992 29.1104V28.5184C12.8992 28.2827 13.0901 28.0917 13.3259 28.0917ZM21.0048 28.9451H13.7525V35.9371H21.0027L21.0048 31.6149V28.9451ZM12.8565 43.6597C12.8565 43.6843 12.8565 43.6971 12.8576 43.6597H12.8565ZM44.0277 31.6149L44.0298 35.9371H51.28V28.9451H44.0277V31.6149ZM52.1749 43.6597C52.1749 43.6971 52.176 43.6843 52.176 43.6597H52.1749ZM52.9781 12.7296C53.1306 12.5515 53.3994 12.5301 53.5786 12.6827C53.7568 12.8352 53.7781 13.104 53.6256 13.2832C53.28 13.6875 52.8682 14.0149 52.4085 14.2389C51.9584 14.4587 51.4688 14.5803 50.9568 14.5803C50.4448 14.5803 49.9552 14.4587 49.505 14.2389C49.0453 14.0139 48.6336 13.6875 48.288 13.2832C48.1354 13.1051 48.1557 12.8363 48.3349 12.6827C48.513 12.5301 48.7818 12.5504 48.9354 12.7296C49.2074 13.0485 49.5274 13.3035 49.8794 13.4763C50.2101 13.6384 50.5749 13.728 50.9578 13.728C51.3408 13.728 51.7045 13.6384 52.0362 13.4763C52.3882 13.3045 52.7082 13.0485 52.9802 12.7296H52.9781ZM50.9557 4.50133C49.7098 4.50133 48.577 5.11573 47.7525 6.10986C46.9098 7.12639 46.3882 8.53546 46.3882 10.096C46.3882 11.6565 46.9098 13.0656 47.7525 14.0821C48.577 15.0763 49.7098 15.6907 50.9557 15.6907C52.2016 15.6907 53.3344 15.0763 54.1589 14.0821C55.0016 13.0656 55.5232 11.6565 55.5232 10.096C55.5232 8.53546 55.0016 7.12639 54.1589 6.10986C53.3344 5.11573 52.2016 4.50133 50.9557 4.50133ZM10.3733 13.2832C10.2208 13.1051 10.2411 12.8363 10.4203 12.6827C10.5984 12.5301 10.8672 12.5504 11.0208 12.7296C11.2928 13.0485 11.6128 13.3035 11.9648 13.4763C12.2955 13.6384 12.6603 13.728 13.0432 13.728C13.4261 13.728 13.7899 13.6384 14.1216 13.4763C14.4736 13.3045 14.7936 13.0485 15.0656 12.7296C15.2181 12.5515 15.4869 12.5301 15.6661 12.6827C15.8443 12.8352 15.8656 13.104 15.7131 13.2832C15.3675 13.6875 14.9557 14.0149 14.496 14.2389C14.0459 14.4587 13.5563 14.5803 13.0443 14.5803C12.5323 14.5803 12.0427 14.4587 11.5925 14.2389C11.1328 14.0139 10.7211 13.6875 10.3755 13.2832H10.3733ZM16.2453 6.10986C15.4208 5.11573 14.288 4.50133 13.0421 4.50133C11.7963 4.50133 10.6635 5.11573 9.83892 6.10986C8.99626 7.12639 8.47466 8.53546 8.47466 10.096C8.47466 11.6565 8.99626 13.0656 9.83892 14.0821C10.6635 15.0763 11.7963 15.6907 13.0421 15.6907C14.288 15.6907 15.4208 15.0763 16.2453 14.0821C17.088 13.0656 17.6096 11.6565 17.6096 10.096C17.6096 8.53546 17.088 7.12639 16.2453 6.10986ZM28.8821 12.5781C28.7296 12.4 28.7498 12.1312 28.929 11.9776C29.1072 11.8251 29.376 11.8453 29.5296 12.0245C29.8666 12.4192 30.2634 12.7349 30.6997 12.9483C31.1125 13.1499 31.5658 13.2619 32.0426 13.2619C32.5194 13.2619 32.9728 13.1509 33.3856 12.9483C33.8218 12.7349 34.2186 12.4192 34.5557 12.0245C34.7082 11.8464 34.977 11.8251 35.1562 11.9776C35.3344 12.1301 35.3557 12.3989 35.2032 12.5781C34.7936 13.0581 34.304 13.4464 33.76 13.712C33.2288 13.9723 32.6496 14.1152 32.0437 14.1152C31.4389 14.1152 30.8586 13.9723 30.3274 13.712C29.7834 13.4453 29.2938 13.0581 28.8842 12.5781H28.8821ZM35.984 3.90613C34.9706 2.68373 33.5765 1.92853 32.0416 1.92853C30.5066 1.92853 29.1125 2.6848 28.0992 3.90613C27.0667 5.15093 26.4288 6.87466 26.4288 8.78293C26.4288 10.6912 27.0677 12.416 28.0992 13.6597C29.1125 14.8821 30.5066 15.6373 32.0416 15.6373C33.5765 15.6373 34.9706 14.8811 35.984 13.6597C37.0165 12.4149 37.6544 10.6912 37.6544 8.78293C37.6544 6.87466 37.0154 5.14986 35.984 3.90613Z" fill="#007CC3"/>
<path d="M32.0426 1.0752C33.8432 1.0752 35.4688 1.94986 36.6421 3.3632C37.7962 4.75413 38.5098 6.67093 38.5098 8.78399C38.5098 10.8683 37.8154 12.7627 36.688 14.1483C36.081 15.0464 35.8048 15.9008 35.728 16.6421C35.6256 17.6384 35.8762 18.4128 36.16 18.7979C36.336 19.0379 36.5642 19.2203 36.8181 19.3611C37.0869 19.5104 37.3867 19.6149 37.6864 19.6917C37.8506 19.7344 38.1632 19.8123 38.4693 19.888C39.6448 20.1813 40.7381 20.4533 41.7248 20.896C42.3114 20.4821 42.992 20.1408 43.7205 19.8507C44.5322 19.5275 45.4048 19.2704 46.273 19.0464C46.5152 18.9845 46.7562 18.9003 46.9728 18.7797C47.1744 18.6677 47.3546 18.5248 47.4933 18.3349C47.7194 18.0277 47.9189 17.4059 47.8368 16.6027C47.7749 16.0011 47.5509 15.3077 47.0581 14.5771C46.1173 13.4187 45.537 11.8368 45.537 10.096C45.537 8.33066 46.1333 6.72959 47.0986 5.56586C48.0821 4.3808 49.4464 3.64693 50.9589 3.64693C52.4714 3.64693 53.8357 4.37973 54.8192 5.56586C55.7834 6.72853 56.3808 8.33066 56.3808 10.096C56.3808 11.792 55.8304 13.3365 54.9312 14.4875C54.9205 14.512 54.9066 14.5365 54.8917 14.56C54.3904 15.296 54.1632 15.9968 54.1013 16.6027C54.0181 17.4059 54.2186 18.0267 54.4448 18.3349C54.5834 18.5237 54.7637 18.6677 54.9653 18.7797C55.1818 18.9003 55.4229 18.9835 55.665 19.0464C55.7845 19.0773 56.0501 19.1435 56.3125 19.2085C58.6794 19.7984 60.6453 20.2891 61.9424 22.9291C62.0458 23.1403 61.9584 23.3941 61.7472 23.4976C61.536 23.6011 61.2821 23.5136 61.1786 23.3024C60.0576 21.0197 58.2666 20.5728 56.1088 20.0352C55.9434 19.9936 55.776 19.952 55.4549 19.8699C55.1477 19.7909 54.8373 19.6821 54.5514 19.5232C54.2496 19.3557 53.9754 19.1349 53.7578 18.8384C53.4368 18.4011 53.1477 17.5563 53.2544 16.5163C53.2757 16.3115 53.312 16.0981 53.3664 15.8784C52.6421 16.3051 51.825 16.5451 50.96 16.5451C50.1045 16.5451 49.296 16.3104 48.577 15.8923C48.6293 16.1077 48.6645 16.3157 48.6858 16.5163C48.7925 17.5552 48.5045 18.4 48.1824 18.8384C47.9648 19.1349 47.6906 19.3557 47.3888 19.5232C47.1029 19.6821 46.7925 19.7909 46.4853 19.8699C45.649 20.0853 44.8106 20.3328 44.0362 20.6411C43.52 20.8459 43.0314 21.0795 42.5909 21.3483C43.6181 21.9755 44.5056 22.8843 45.2202 24.3392C45.3237 24.5504 45.2362 24.8043 45.025 24.9077C44.8138 25.0112 44.56 24.9237 44.4565 24.7125C43.7376 23.248 42.7957 22.4011 41.6853 21.8325C41.6 21.8197 41.5189 21.7813 41.4528 21.7184C40.4981 21.2704 39.4261 21.0037 38.2677 20.7147C38.0576 20.6624 37.8453 20.6091 37.4773 20.5152C37.1125 20.4213 36.7445 20.2923 36.4064 20.1045C36.0522 19.9083 35.7301 19.6491 35.4752 19.3013C35.0965 18.7861 34.7562 17.7877 34.8832 16.5557C34.9141 16.2517 34.9738 15.9317 35.0677 15.6011C34.1664 16.1707 33.137 16.4928 32.0448 16.4928C30.9397 16.4928 29.9008 16.1632 28.992 15.5829C29.089 15.9211 29.1498 16.2464 29.1818 16.5568C29.3088 17.7888 28.9685 18.7872 28.5898 19.3024C28.3349 19.6501 28.0128 19.9083 27.6586 20.1056C27.3195 20.2933 26.9525 20.4224 26.5877 20.5163C26.2208 20.6112 26.0075 20.6635 25.7973 20.7157C23.1669 21.3717 20.9824 21.9157 19.6085 24.7136C19.5051 24.9248 19.2512 25.0112 19.04 24.9088C18.8288 24.8053 18.7424 24.5515 18.8448 24.3403C19.5531 22.8992 20.4299 21.9936 21.4443 21.3675C20.9963 21.0901 20.4971 20.8512 19.9691 20.6421C19.1947 20.3339 18.3563 20.0864 17.52 19.8709C17.2128 19.792 16.9024 19.6832 16.6165 19.5243C16.3147 19.3568 16.0405 19.136 15.8229 18.8395C15.5019 18.4021 15.2128 17.5573 15.3195 16.5173C15.3397 16.3168 15.3749 16.1077 15.4283 15.8933C14.7093 16.3115 13.9008 16.5461 13.0453 16.5461C12.1803 16.5461 11.3632 16.3061 10.6389 15.8795C10.6933 16.0992 10.7296 16.3125 10.7509 16.5173C10.8576 17.5563 10.5696 18.4011 10.2475 18.8395C10.0299 19.136 9.75572 19.3568 9.45386 19.5243C9.16799 19.6832 8.85759 19.792 8.55039 19.8709C8.22932 19.9531 8.06186 19.9957 7.89652 20.0363C5.73972 20.5739 3.94772 21.0208 2.82666 23.3035C2.72319 23.5147 2.46933 23.6011 2.25813 23.4987C2.04693 23.3952 1.96053 23.1413 2.06293 22.9301C3.35999 20.2901 5.32586 19.7995 7.69279 19.2096C7.95412 19.1445 8.22079 19.0784 8.34026 19.0475C8.58239 18.9856 8.82346 18.9013 9.03999 18.7808C9.24159 18.6699 9.42186 18.5259 9.56052 18.336C9.78666 18.0288 9.98612 17.4069 9.90399 16.6037C9.84106 15.9979 9.61492 15.2981 9.11359 14.5611C9.09759 14.5376 9.08479 14.5131 9.07412 14.4885C8.17492 13.3387 7.62452 11.7931 7.62452 10.0971C7.62452 8.33173 8.22079 6.73066 9.18612 5.56693C10.1696 4.38186 11.5339 3.64799 13.0464 3.64799C14.5589 3.64799 15.9232 4.3808 16.9067 5.56693C17.8709 6.72959 18.4683 8.33173 18.4683 10.0971C18.4683 11.8379 17.888 13.4197 16.9472 14.5781C16.4544 15.3088 16.2304 16.0021 16.1685 16.6037C16.0853 17.4069 16.2859 18.0277 16.512 18.336C16.6507 18.5248 16.8309 18.6688 17.0325 18.7808C17.2491 18.9013 17.4901 18.9845 17.7323 19.0475C18.6005 19.2715 19.4731 19.5285 20.2848 19.8517C21.024 20.1451 21.712 20.4917 22.304 20.9131C23.3013 20.4608 24.4064 20.1856 25.5968 19.8891C25.9029 19.8123 26.2155 19.7344 26.3797 19.6928C26.6795 19.616 26.9781 19.5115 27.248 19.3621C27.5019 19.2213 27.7301 19.0389 27.9061 18.7989C28.1888 18.4139 28.4405 17.6384 28.3381 16.6432C28.2613 15.8965 27.9818 15.0368 27.3675 14.1323C27.3493 14.1056 27.3344 14.0779 27.3226 14.0491C26.2432 12.6731 25.5819 10.8203 25.5819 8.78506C25.5819 6.67199 26.2955 4.75519 27.4496 3.36426C28.6218 1.95093 30.2474 1.07626 32.049 1.07626L32.0426 1.0752ZM35.5424 25.1883V34.5269H37.9946C38.2304 34.5269 38.4213 34.7179 38.4213 34.9536C38.4213 35.0421 38.3946 35.1243 38.3477 35.1925L32.6037 44.9355C32.4842 45.1381 32.2229 45.2053 32.0202 45.0859C31.9541 45.0464 31.9018 44.992 31.8666 44.9291L26.1131 35.1712C25.9936 34.9685 26.0608 34.7072 26.2635 34.5877C26.3317 34.5472 26.4064 34.528 26.48 34.528V34.5269H28.9322V25.1883C28.9322 24.9525 29.1232 24.7616 29.3589 24.7616H35.1168C35.3525 24.7616 35.5434 24.9525 35.5434 25.1883H35.5424ZM34.689 34.9536V25.6149H29.7845V34.9536C29.7845 35.1893 29.5936 35.3803 29.3578 35.3803H27.2256L32.2368 43.8795L37.248 35.3803H35.1157C34.88 35.3803 34.689 35.1893 34.689 34.9536ZM32.944 55.1051V62.0683C38.0192 61.9573 42.5696 59.8677 45.8741 56.5909C49.2501 53.2416 51.3248 48.6496 51.3248 43.6608C51.3248 43.3728 51.3269 43.8251 51.3258 43.5861L51.3066 36.7915H44.032L44.0352 43.6789C44.0352 46.7648 42.7488 49.6224 40.6677 51.7077C38.6773 53.7024 35.9584 54.9931 32.944 55.1051ZM32.0906 62.0683V55.1051C29.0763 54.9931 26.3573 53.7024 24.3669 51.7077C22.2848 49.6213 20.9973 46.7648 20.9973 43.6789H20.9995L21.0027 36.7915H13.728L13.7088 43.5861C13.7077 43.824 13.7099 43.3728 13.7099 43.6608C13.7099 48.6496 15.7835 53.2416 19.1605 56.5909C22.464 59.8688 27.0154 61.9573 32.0906 62.0693V62.0683ZM13.3259 28.0917H21.4315C21.6672 28.0917 21.8581 28.2827 21.8581 28.5184V36.3637C21.8581 36.3883 21.856 36.4117 21.8517 36.4352L21.8475 43.6789H21.8496C21.8496 46.5323 23.0411 49.1755 24.9685 51.1072C26.8971 53.04 29.5594 54.2592 32.5002 54.2635H32.5312C35.472 54.2592 38.1354 53.04 40.0629 51.1072C41.9914 49.1744 43.184 46.5312 43.184 43.6789L43.1797 36.4352C43.1754 36.4117 43.1733 36.3883 43.1733 36.3637V28.5184C43.1733 28.2827 43.3642 28.0917 43.6 28.0917H51.7056C51.9413 28.0917 52.1322 28.2827 52.1322 28.5184V29.1104L52.1728 43.5819V43.6597H52.1738C52.1738 43.6128 52.1749 43.5243 52.1749 43.6597C52.1749 48.8821 50.0042 53.6885 46.4714 57.1936C42.9408 60.6965 38.0469 62.9003 32.5994 62.9227H32.5152C32.5514 62.9227 32.5386 62.9237 32.5152 62.9237C32.5589 62.9237 32.64 62.9248 32.5152 62.9248C32.3904 62.9248 32.4714 62.9248 32.5152 62.9237C32.4917 62.9237 32.4789 62.9237 32.5152 62.9227H32.4309C26.9824 62.9003 22.0896 60.6965 18.5589 57.1936C15.0251 53.6885 12.8555 48.8821 12.8555 43.6597C12.8555 43.5243 12.8555 43.6128 12.8565 43.6597H12.8576C12.8853 38.8107 12.8853 33.9595 12.8992 29.1104V28.5184C12.8992 28.2827 13.0901 28.0917 13.3259 28.0917ZM21.0048 28.9451H13.7525V35.9371H21.0027L21.0048 31.6149V28.9451ZM12.8565 43.6597C12.8565 43.6843 12.8565 43.6971 12.8576 43.6597H12.8565ZM44.0277 31.6149L44.0298 35.9371H51.28V28.9451H44.0277V31.6149ZM52.1749 43.6597C52.1749 43.6971 52.176 43.6843 52.176 43.6597H52.1749ZM52.9781 12.7296C53.1306 12.5515 53.3994 12.5301 53.5786 12.6827C53.7568 12.8352 53.7781 13.104 53.6256 13.2832C53.28 13.6875 52.8682 14.0149 52.4085 14.2389C51.9584 14.4587 51.4688 14.5803 50.9568 14.5803C50.4448 14.5803 49.9552 14.4587 49.505 14.2389C49.0453 14.0139 48.6336 13.6875 48.288 13.2832C48.1354 13.1051 48.1557 12.8363 48.3349 12.6827C48.513 12.5301 48.7818 12.5504 48.9354 12.7296C49.2074 13.0485 49.5274 13.3035 49.8794 13.4763C50.2101 13.6384 50.5749 13.728 50.9578 13.728C51.3408 13.728 51.7045 13.6384 52.0362 13.4763C52.3882 13.3045 52.7082 13.0485 52.9802 12.7296H52.9781ZM50.9557 4.50133C49.7098 4.50133 48.577 5.11573 47.7525 6.10986C46.9098 7.12639 46.3882 8.53546 46.3882 10.096C46.3882 11.6565 46.9098 13.0656 47.7525 14.0821C48.577 15.0763 49.7098 15.6907 50.9557 15.6907C52.2016 15.6907 53.3344 15.0763 54.1589 14.0821C55.0016 13.0656 55.5232 11.6565 55.5232 10.096C55.5232 8.53546 55.0016 7.12639 54.1589 6.10986C53.3344 5.11573 52.2016 4.50133 50.9557 4.50133ZM10.3733 13.2832C10.2208 13.1051 10.2411 12.8363 10.4203 12.6827C10.5984 12.5301 10.8672 12.5504 11.0208 12.7296C11.2928 13.0485 11.6128 13.3035 11.9648 13.4763C12.2955 13.6384 12.6603 13.728 13.0432 13.728C13.4261 13.728 13.7899 13.6384 14.1216 13.4763C14.4736 13.3045 14.7936 13.0485 15.0656 12.7296C15.2181 12.5515 15.4869 12.5301 15.6661 12.6827C15.8443 12.8352 15.8656 13.104 15.7131 13.2832C15.3675 13.6875 14.9557 14.0149 14.496 14.2389C14.0459 14.4587 13.5563 14.5803 13.0443 14.5803C12.5323 14.5803 12.0427 14.4587 11.5925 14.2389C11.1328 14.0139 10.7211 13.6875 10.3755 13.2832H10.3733ZM16.2453 6.10986C15.4208 5.11573 14.288 4.50133 13.0421 4.50133C11.7963 4.50133 10.6635 5.11573 9.83892 6.10986C8.99626 7.12639 8.47466 8.53546 8.47466 10.096C8.47466 11.6565 8.99626 13.0656 9.83892 14.0821C10.6635 15.0763 11.7963 15.6907 13.0421 15.6907C14.288 15.6907 15.4208 15.0763 16.2453 14.0821C17.088 13.0656 17.6096 11.6565 17.6096 10.096C17.6096 8.53546 17.088 7.12639 16.2453 6.10986ZM28.8821 12.5781C28.7296 12.4 28.7498 12.1312 28.929 11.9776C29.1072 11.8251 29.376 11.8453 29.5296 12.0245C29.8666 12.4192 30.2634 12.7349 30.6997 12.9483C31.1125 13.1499 31.5658 13.2619 32.0426 13.2619C32.5194 13.2619 32.9728 13.1509 33.3856 12.9483C33.8218 12.7349 34.2186 12.4192 34.5557 12.0245C34.7082 11.8464 34.977 11.8251 35.1562 11.9776C35.3344 12.1301 35.3557 12.3989 35.2032 12.5781C34.7936 13.0581 34.304 13.4464 33.76 13.712C33.2288 13.9723 32.6496 14.1152 32.0437 14.1152C31.4389 14.1152 30.8586 13.9723 30.3274 13.712C29.7834 13.4453 29.2938 13.0581 28.8842 12.5781H28.8821ZM35.984 3.90613C34.9706 2.68373 33.5765 1.92853 32.0416 1.92853C30.5066 1.92853 29.1125 2.6848 28.0992 3.90613C27.0667 5.15093 26.4288 6.87466 26.4288 8.78293C26.4288 10.6912 27.0677 12.416 28.0992 13.6597C29.1125 14.8821 30.5066 15.6373 32.0416 15.6373C33.5765 15.6373 34.9706 14.8811 35.984 13.6597C37.0165 12.4149 37.6544 10.6912 37.6544 8.78293C37.6544 6.87466 37.0154 5.14986 35.984 3.90613Z" stroke="#007CC3" stroke-width="0.2" mask="url(#path-1-outside-1)"/>
</svg>
