<svg width="66" height="66" viewBox="0 0 66 66" fill="none" xmlns="http://www.w3.org/2000/svg">
<path fill-rule="evenodd" clip-rule="evenodd" d="M47.7327 5.35195C47.6475 5.35016 47.5629 5.3654 47.4837 5.39675C47.4045 5.42811 47.3323 5.47493 47.2715 5.53453C47.2106 5.59412 47.1622 5.66529 47.1292 5.74382C47.0962 5.82235 47.0792 5.90669 47.0792 5.99187C47.0792 6.07705 47.0962 6.16139 47.1292 6.23992C47.1622 6.31844 47.2106 6.38957 47.2715 6.44917C47.3323 6.50877 47.4045 6.55563 47.4837 6.58699C47.5629 6.61834 47.6475 6.63358 47.7327 6.63179H59.3682V18.2673C59.3665 18.3524 59.3817 18.4371 59.4131 18.5163C59.4445 18.5955 59.4913 18.6676 59.5509 18.7284C59.6105 18.7893 59.6816 18.8376 59.7602 18.8706C59.8387 18.9036 59.923 18.9206 60.0082 18.9206C60.0933 18.9206 60.1776 18.9036 60.2562 18.8706C60.3347 18.8376 60.4058 18.7893 60.4654 18.7284C60.525 18.6676 60.5719 18.5955 60.6032 18.5163C60.6346 18.4371 60.6498 18.3524 60.6481 18.2673V5.99187C60.648 5.82216 60.5806 5.65941 60.4606 5.53941C60.3406 5.41941 60.1779 5.35198 60.0082 5.35195H47.7327Z" fill="#007CC3" stroke="#007CC3" stroke-width="0.3"/>
<path fill-rule="evenodd" clip-rule="evenodd" d="M5.99175 5.35195C5.82204 5.35198 5.6593 5.41941 5.5393 5.53941C5.41929 5.65941 5.35186 5.82216 5.35182 5.99187V18.2673C5.35006 18.3525 5.36531 18.4371 5.39668 18.5162C5.42804 18.5954 5.4749 18.6676 5.5345 18.7284C5.59409 18.7893 5.66523 18.8376 5.74375 18.8706C5.82227 18.9036 5.90658 18.9206 5.99175 18.9206C6.07692 18.9206 6.16123 18.9036 6.23975 18.8706C6.31826 18.8376 6.3894 18.7893 6.449 18.7284C6.5086 18.6676 6.55545 18.5954 6.58682 18.5162C6.61819 18.4371 6.63344 18.3525 6.63168 18.2673V6.63179H18.2672C18.3523 6.63358 18.437 6.61834 18.5162 6.58699C18.5954 6.55563 18.6676 6.50877 18.7284 6.44917C18.7893 6.38958 18.8376 6.31841 18.8706 6.23988C18.9037 6.16135 18.9207 6.07705 18.9207 5.99187C18.9207 5.90669 18.9037 5.82235 18.8706 5.74382C18.8376 5.66529 18.7893 5.59413 18.7284 5.53453C18.6676 5.47493 18.5954 5.42807 18.5162 5.39671C18.437 5.36536 18.3523 5.35016 18.2672 5.35195H5.99175Z" fill="#007CC3" stroke="#007CC3" stroke-width="0.3"/>
<path fill-rule="evenodd" clip-rule="evenodd" d="M5.98174 47.0836C5.81216 47.0862 5.65055 47.1561 5.53243 47.2778C5.41431 47.3995 5.34932 47.5631 5.35175 47.7327V60.0081C5.35178 60.1778 5.41922 60.3406 5.53922 60.4606C5.65922 60.5806 5.82197 60.6481 5.99168 60.6481H18.2671C18.3523 60.65 18.4371 60.6348 18.5164 60.6035C18.5957 60.5722 18.668 60.5254 18.7289 60.4658C18.7899 60.4062 18.8383 60.335 18.8714 60.2564C18.9044 60.1778 18.9215 60.0934 18.9215 60.0082C18.9215 59.9229 18.9044 59.8385 18.8714 59.7599C18.8383 59.6813 18.7899 59.6101 18.7289 59.5505C18.668 59.4909 18.5957 59.4441 18.5164 59.4128C18.4371 59.3815 18.3523 59.3664 18.2671 59.3683H6.6316V47.7327C6.63283 47.6471 6.61685 47.5621 6.58462 47.4827C6.55239 47.4034 6.50455 47.3313 6.44395 47.2708C6.38335 47.2102 6.31122 47.1624 6.23182 47.1303C6.15243 47.0981 6.06739 47.0823 5.98174 47.0836Z" fill="#007CC3" stroke="#007CC3" stroke-width="0.3"/>
<path fill-rule="evenodd" clip-rule="evenodd" d="M59.9981 47.0836C59.8285 47.0862 59.6669 47.1561 59.5488 47.2778C59.4307 47.3995 59.3657 47.5631 59.3681 47.7327V59.3683H47.7326C47.6474 59.3664 47.5626 59.3815 47.4833 59.4128C47.404 59.4441 47.3318 59.4909 47.2708 59.5505C47.2098 59.6101 47.1614 59.6813 47.1283 59.7599C47.0953 59.8385 47.0782 59.9229 47.0782 60.0082C47.0782 60.0934 47.0953 60.1778 47.1283 60.2564C47.1614 60.335 47.2098 60.4062 47.2708 60.4658C47.3318 60.5254 47.404 60.5722 47.4833 60.6035C47.5626 60.6348 47.6474 60.65 47.7326 60.6481H60.0081C60.1778 60.6481 60.3405 60.5806 60.4605 60.4606C60.5805 60.3406 60.648 60.1778 60.648 60.0081V47.7327C60.6492 47.6471 60.6332 47.5621 60.601 47.4827C60.5688 47.4034 60.5209 47.3313 60.4603 47.2708C60.3997 47.2102 60.3276 47.1624 60.2482 47.1303C60.1688 47.0981 60.0838 47.0823 59.9981 47.0836Z" fill="#007CC3" stroke="#007CC3" stroke-width="0.3"/>
<path fill-rule="evenodd" clip-rule="evenodd" d="M33.1373 21.5475C24.4409 21.5925 15.7369 25.3056 7.05727 32.4475C6.62804 32.8176 6.73321 33.2118 7.11724 33.5675C15.7782 40.6917 24.4594 44.4026 33.1372 44.4475C41.812 44.4923 50.417 40.8666 58.9172 33.5675C59.3804 33.0768 59.2711 32.7641 58.8973 32.4075C50.4008 25.1277 41.8077 21.5027 33.1373 21.5475ZM33.1373 22.8275C41.2992 22.7854 49.439 26.1107 57.6173 32.9875C49.439 39.8762 41.2989 43.2097 33.1373 43.1675C24.9851 43.1252 16.7669 39.7069 8.43727 32.9875C16.7669 26.28 24.9848 22.8697 33.1373 22.8275Z" fill="#007CC3" stroke="#007CC3" stroke-width="0.3"/>
<path fill-rule="evenodd" clip-rule="evenodd" d="M33.0124 25.9448C29.1134 25.9448 25.9705 29.1143 25.9705 32.9875C25.9705 36.8835 29.1165 40.0294 33.0124 40.0294C36.8856 40.0294 40.0551 36.8865 40.0551 32.9875C40.0551 29.1112 36.8887 25.9448 33.0124 25.9448ZM33.0124 27.2254C36.1938 27.2254 38.7746 29.8061 38.7746 32.9875C38.7746 36.1966 36.1969 38.7496 33.0124 38.7496C29.8003 38.7496 27.2503 36.1996 27.2503 32.9875C27.2503 29.8031 29.8034 27.2254 33.0124 27.2254Z" fill="#007CC3" stroke="#007CC3" stroke-width="0.3"/>
<rect x="0.5" y="0.5" width="65" height="65" stroke="white"/>
</svg>
