<svg width="24" height="13" viewBox="0 0 24 13" fill="none" xmlns="http://www.w3.org/2000/svg">
<path d="M23.0583 0.559499H19.1637C19.0047 0.559498 18.8487 0.599804 18.7123 0.676126C18.5759 0.752448 18.4642 0.861932 18.389 0.992925C18.389 0.992925 16.8357 3.66827 16.3368 4.56939C14.9945 6.99348 14.1253 6.23247 14.1253 5.10743V1.22827C14.1253 0.904112 13.9876 0.593234 13.7425 0.364021C13.4974 0.134809 13.165 0.00603906 12.8184 0.00603906H9.8902C9.49142 -0.0216897 9.09169 0.0463834 8.72896 0.203793C8.36624 0.361203 8.05256 0.602722 7.81773 0.905412C7.81773 0.905412 9.30463 0.680575 9.30463 2.55426C9.30463 3.01888 9.33021 4.35547 9.35353 5.47653C9.35793 5.64173 9.30802 5.80421 9.21054 5.94204C9.11306 6.07988 8.97271 6.18641 8.80843 6.24728C8.64416 6.30814 8.46387 6.3204 8.2919 6.2824C8.11994 6.24439 7.96459 6.15796 7.84682 6.03476C6.64826 4.47576 5.65546 2.78706 4.88998 1.00537C4.82424 0.872086 4.719 0.759237 4.58674 0.680208C4.45449 0.601179 4.30077 0.559286 4.14383 0.559499C3.29922 0.559499 1.60908 0.559499 0.605355 0.559499C0.508024 0.55888 0.411987 0.580368 0.325495 0.622119C0.239003 0.663869 0.164641 0.724632 0.108799 0.799189C0.0529563 0.873746 0.0173026 0.959868 0.0049008 1.05015C-0.00750104 1.14044 0.00371968 1.23219 0.037599 1.31753C1.11205 4.07383 5.74045 12.7356 11.0233 12.7356H13.2468C13.4798 12.7356 13.7033 12.6491 13.868 12.495C14.0327 12.3409 14.1253 12.132 14.1253 11.9141V10.6584C14.1253 10.5009 14.1746 10.3468 14.267 10.2151C14.3595 10.0835 14.4912 9.98002 14.6458 9.91748C14.8004 9.85494 14.9711 9.83607 15.1371 9.86318C15.303 9.89029 15.4568 9.96221 15.5795 10.0701L18.241 12.4087C18.48 12.6187 18.7956 12.7356 19.1236 12.7356H22.6185C24.3041 12.7356 24.3041 11.6417 23.3851 10.7953C22.7383 10.1996 20.4044 7.89886 20.4044 7.89886C20.2046 7.70522 20.0854 7.4511 20.0683 7.18244C20.0513 6.91377 20.1376 6.64828 20.3117 6.43393C21.0661 5.50549 22.3 3.9857 22.8233 3.33463C23.5385 2.44473 24.8331 0.559499 23.0583 0.559499Z" fill="white"/>
</svg>
