<svg width="40" height="40" viewBox="0 0 40 40" fill="none" xmlns="http://www.w3.org/2000/svg">
<path d="M4.34624 14.386H36.1924C36.3465 14.386 36.4824 14.2839 36.525 14.1358C36.5676 13.9878 36.5075 13.8289 36.377 13.7467L21.4281 4.33669C20.7135 3.88811 19.8272 3.88743 19.1112 4.33669L4.16167 13.7467C4.03119 13.8289 3.97102 13.9878 4.01361 14.1358C4.05621 14.2839 4.1921 14.386 4.34624 14.386ZM34.993 13.6937H5.54629L19.4803 4.92285C19.9685 4.61591 20.5736 4.61659 21.059 4.92285L34.993 13.6937Z" fill="#007CC3"/>
<path d="M4.34632 36.5398H36.1932C36.3845 36.5398 36.5393 36.385 36.5393 36.1937V34.809C36.5393 33.8548 35.7632 33.0783 34.8085 33.0783H5.73094C4.77631 33.0783 4.00017 33.8548 4.00017 34.809V36.1937C4.00017 36.385 4.15499 36.5398 4.34632 36.5398ZM35.847 35.8475H4.69248V34.809C4.69248 34.2364 5.1583 33.7706 5.73094 33.7706H34.8085C35.3812 33.7706 35.847 34.2364 35.847 34.809V35.8475Z" fill="#007CC3"/>
<path d="M34.1155 33.7706C34.3068 33.7706 34.4617 33.6158 34.4617 33.4244V14.0398C34.4617 13.8485 34.3068 13.6937 34.1155 13.6937C33.9242 13.6937 33.7694 13.8485 33.7694 14.0398V33.4244C33.7694 33.6158 33.9242 33.7706 34.1155 33.7706Z" fill="#007CC3"/>
<path d="M31.3462 33.7706C31.5376 33.7706 31.6924 33.6158 31.6924 33.4244V14.0398C31.6924 13.8485 31.5376 13.6937 31.3462 13.6937C31.1549 13.6937 31.0001 13.8485 31.0001 14.0398V33.4244C31.0001 33.6158 31.1549 33.7706 31.3462 33.7706Z" fill="#007CC3"/>
<path d="M9.19242 33.7706C9.38375 33.7706 9.53857 33.6158 9.53857 33.4244V14.0398C9.53857 13.8485 9.38375 13.6937 9.19242 13.6937C9.00108 13.6937 8.84626 13.8485 8.84626 14.0398V33.4244C8.84626 33.6158 9.00108 33.7706 9.19242 33.7706Z" fill="#007CC3"/>
<path d="M6.42313 33.7706C6.61446 33.7706 6.76929 33.6158 6.76929 33.4244V14.0398C6.76929 13.8485 6.61446 13.6937 6.42313 13.6937C6.2318 13.6937 6.07698 13.8485 6.07698 14.0398V33.4244C6.07698 33.6158 6.2318 33.7706 6.42313 33.7706Z" fill="#007CC3"/>
<path d="M24.4231 33.7706C24.6145 33.7706 24.7693 33.6158 24.7693 33.4244V14.0398C24.7693 13.8485 24.6145 13.6937 24.4231 13.6937C24.2318 13.6937 24.077 13.8485 24.077 14.0398V33.4244C24.077 33.6158 24.2318 33.7706 24.4231 33.7706Z" fill="#007CC3"/>
<path d="M16.1155 33.7706C16.3068 33.7706 16.4617 33.6158 16.4617 33.4244V14.0398C16.4617 13.8485 16.3068 13.6937 16.1155 13.6937C15.9242 13.6937 15.7694 13.8485 15.7694 14.0398V33.4244C15.7694 33.6158 15.9242 33.7706 16.1155 33.7706Z" fill="#007CC3"/>
<path d="M20.2693 10.9244C21.2239 10.9244 22.0007 10.148 22.0007 9.19368C22.0007 8.23939 21.2239 7.46291 20.2693 7.46291C19.3147 7.46291 18.5385 8.23939 18.5385 9.19368C18.5385 10.148 19.3147 10.9244 20.2693 10.9244ZM20.2693 8.15521C20.8419 8.15521 21.3084 8.62103 21.3084 9.19368C21.3084 9.76632 20.8419 10.2321 20.2693 10.2321C19.6966 10.2321 19.2308 9.76632 19.2308 9.19368C19.2308 8.62103 19.6966 8.15521 20.2693 8.15521Z" fill="#007CC3"/>
</svg>
