<svg width="18" height="18" viewBox="0 0 18 18" fill="none" xmlns="http://www.w3.org/2000/svg">
<path d="M17.9983 8.99999C17.9983 13.9704 13.9704 18 9 18C4.02958 18 0 13.9704 0 8.99999C0 4.02957 4.02958 0 9 0C13.9704 0 17.9983 4.02957 17.9983 8.99999Z" fill="#FEDC00"/>
<path d="M9 3.9375V6.65625V3.9375Z" fill="black"/>
<path d="M9 3.9375V6.65625" stroke="#00A0FF" stroke-width="1.5" stroke-linecap="round"/>
<path d="M13.993 7.56519L11.4074 8.40532L13.993 7.56519Z" fill="black"/>
<path d="M13.993 7.56519L11.4074 8.40532" stroke="#00A0FF" stroke-width="1.5" stroke-linecap="round"/>
<path d="M12.0859 13.4346L10.4878 11.2351L12.0859 13.4346Z" fill="black"/>
<path d="M12.0859 13.4346L10.4878 11.2351" stroke="#00A0FF" stroke-width="1.5" stroke-linecap="round"/>
<path d="M5.91412 13.4346L7.51216 11.2351L5.91412 13.4346Z" fill="black"/>
<path d="M5.91412 13.4346L7.51216 11.2351" stroke="#00A0FF" stroke-width="1.5" stroke-linecap="round"/>
<path d="M4.00696 7.56519L6.59264 8.40533L4.00696 7.56519Z" fill="black"/>
<path d="M4.00696 7.56519L6.59264 8.40533" stroke="#00A0FF" stroke-width="1.5" stroke-linecap="round"/>
</svg>
