<svg width="56" height="56" viewBox="0 0 56 56" fill="none" xmlns="http://www.w3.org/2000/svg">
<path d="M28.5469 28.7656H7.76562C7.64488 28.7656 7.54688 28.6676 7.54688 28.5469V3.39062C7.54688 3.26988 7.64488 3.17188 7.76562 3.17188H21.1094C25.331 3.17188 28.7656 6.60647 28.7656 10.8281V28.5469C28.7656 28.6676 28.6676 28.7656 28.5469 28.7656ZM7.98438 28.3281H28.3281V10.8281C28.3281 6.84764 25.0899 3.60938 21.1094 3.60938H7.98438V28.3281Z" fill="white" stroke="white" stroke-width="0.3"/>
<path d="M49.3281 28.7656H28.5469C28.4261 28.7656 28.3281 28.6676 28.3281 28.5469V10.8281C28.3281 6.60647 31.7627 3.17188 35.9844 3.17188H49.3281C49.4489 3.17188 49.5469 3.26988 49.5469 3.39062V28.5469C49.5469 28.6676 49.4489 28.7656 49.3281 28.7656ZM28.7656 28.3281H49.1094V3.60938H35.9844C32.0039 3.60938 28.7656 6.84764 28.7656 10.8281V28.3281Z" fill="white" stroke="white" stroke-width="0.3"/>
<path d="M44.9531 23.2969H32.9219C32.8011 23.2969 32.7031 23.1989 32.7031 23.0781V16.5156C32.7031 16.3949 32.8011 16.2969 32.9219 16.2969H44.9531C45.0739 16.2969 45.1719 16.3949 45.1719 16.5156V23.0781C45.1719 23.1989 45.0739 23.2969 44.9531 23.2969ZM33.1406 22.8594H44.7344V16.7344H33.1406V22.8594Z" fill="white" stroke="white" stroke-width="0.3"/>
<path d="M44.9531 13.4531H32.9219C32.8011 13.4531 32.7031 13.3551 32.7031 13.2344C32.7031 13.1136 32.8011 13.0156 32.9219 13.0156H44.9531C45.0739 13.0156 45.1719 13.1136 45.1719 13.2344C45.1719 13.3551 45.0739 13.4531 44.9531 13.4531Z" fill="white" stroke="white" stroke-width="0.3"/>
<path d="M44.9531 10.1719H32.9219C32.8011 10.1719 32.7031 10.0739 32.7031 9.95312C32.7031 9.83238 32.8011 9.73438 32.9219 9.73438H44.9531C45.0739 9.73438 45.1719 9.83238 45.1719 9.95312C45.1719 10.0739 45.0739 10.1719 44.9531 10.1719Z" fill="white" stroke="white" stroke-width="0.3"/>
<path d="M24.1719 10.1719H12.1406C12.0199 10.1719 11.9219 10.0739 11.9219 9.95312C11.9219 9.83238 12.0199 9.73438 12.1406 9.73438H24.1719C24.2926 9.73438 24.3906 9.83238 24.3906 9.95312C24.3906 10.0739 24.2926 10.1719 24.1719 10.1719Z" fill="white" stroke="white" stroke-width="0.3"/>
<path d="M18.7031 13.4531H12.1406C12.0199 13.4531 11.9219 13.3551 11.9219 13.2344C11.9219 13.1136 12.0199 13.0156 12.1406 13.0156H18.7031C18.8239 13.0156 18.9219 13.1136 18.9219 13.2344C18.9219 13.3551 18.8239 13.4531 18.7031 13.4531Z" fill="white" stroke="white" stroke-width="0.3"/>
<path d="M24.1719 16.7344H17.6094C17.4886 16.7344 17.3906 16.6364 17.3906 16.5156C17.3906 16.3949 17.4886 16.2969 17.6094 16.2969H24.1719C24.2926 16.2969 24.3906 16.3949 24.3906 16.5156C24.3906 16.6364 24.2926 16.7344 24.1719 16.7344Z" fill="white" stroke="white" stroke-width="0.3"/>
<path d="M13.2344 16.9531H12.1406C12.0199 16.9531 11.9219 16.8551 11.9219 16.7344C11.9219 16.6136 12.0199 16.5156 12.1406 16.5156H13.2344C13.3551 16.5156 13.4531 16.6136 13.4531 16.7344C13.4531 16.8551 13.3551 16.9531 13.2344 16.9531Z" fill="white" stroke="white" stroke-width="0.3"/>
<path d="M53.7032 33.1406H31.8282C31.7593 33.1406 31.6944 33.1081 31.6532 33.0531L28.3719 28.6781C28.2994 28.5814 28.319 28.4443 28.4156 28.3719C28.5126 28.2991 28.6495 28.3192 28.7218 28.4155L31.9375 32.7031H53.4844V8.85938C53.4844 8.73863 53.5824 8.64062 53.7032 8.64062C53.8239 8.64062 53.9219 8.73863 53.9219 8.85938V32.9219C53.9219 33.0426 53.8239 33.1406 53.7032 33.1406Z" fill="white" stroke="white" stroke-width="0.3"/>
<path d="M25.2656 33.1406H3.39062C3.26988 33.1406 3.17188 33.0426 3.17188 32.9219V8.85938C3.17188 8.73863 3.26988 8.64062 3.39062 8.64062C3.51138 8.64062 3.60938 8.73863 3.60938 8.85938V32.7031H25.1562L28.3719 28.4156C28.4443 28.3192 28.5812 28.2992 28.6781 28.372C28.7748 28.4444 28.7944 28.5815 28.7218 28.6782L25.4405 33.0532C25.3993 33.1081 25.3344 33.1406 25.2656 33.1406Z" fill="white" stroke="white" stroke-width="0.3"/>
<path d="M50.8958 52.8281H33.5417C32.4763 52.8281 31.6094 51.9612 31.6094 50.8958V39.0105C31.6094 37.945 32.4763 37.0781 33.5417 37.0781H50.8958C51.9612 37.0781 52.8281 37.945 52.8281 39.0105V50.8958C52.8281 51.9612 51.9612 52.8281 50.8958 52.8281ZM33.5417 37.5156C32.7175 37.5156 32.0469 38.1862 32.0469 39.0105V50.8958C32.0469 51.72 32.7175 52.3906 33.5417 52.3906H50.8958C51.72 52.3906 52.3906 51.72 52.3906 50.8958V39.0105C52.3906 38.1862 51.72 37.5156 50.8958 37.5156H33.5417Z" fill="white" stroke="white" stroke-width="0.3"/>
<path d="M39.4844 48.4532C39.4454 48.4532 39.4064 48.4427 39.3718 48.422C39.3059 48.3825 39.2656 48.3112 39.2656 48.2344V41.6719C39.2656 41.5971 39.3038 41.5276 39.3669 41.4874C39.4299 41.4471 39.5093 41.4421 39.5769 41.4736L46.1394 44.5361C46.2145 44.5711 46.2634 44.6457 46.2655 44.7285C46.2678 44.8114 46.2229 44.8884 46.1498 44.9273L39.5873 48.4273C39.555 48.4446 39.5197 48.4532 39.4844 48.4532ZM39.7031 42.0154V47.8699L45.5575 44.7474L39.7031 42.0154Z" fill="white" stroke="white" stroke-width="0.3"/>
<path d="M48.2344 37.5156C48.1136 37.5156 48.0156 37.4176 48.0156 37.2969V32.9219C48.0156 32.8011 48.1136 32.7031 48.2344 32.7031C48.3551 32.7031 48.4531 32.8011 48.4531 32.9219V37.2969C48.4531 37.4176 48.3551 37.5156 48.2344 37.5156Z" fill="white" stroke="white" stroke-width="0.3"/>
<path d="M43.8594 37.5156C43.7386 37.5156 43.6406 37.4176 43.6406 37.2969V32.9219C43.6406 32.8011 43.7386 32.7031 43.8594 32.7031C43.9801 32.7031 44.0781 32.8011 44.0781 32.9219V37.2969C44.0781 37.4176 43.9801 37.5156 43.8594 37.5156Z" fill="white" stroke="white" stroke-width="0.3"/>
<path d="M27.4531 52.8281H5.57812C5.45738 52.8281 5.35938 52.7301 5.35938 52.6094C5.35938 52.4886 5.45738 52.3906 5.57812 52.3906H27.4531C27.5739 52.3906 27.6719 52.4886 27.6719 52.6094C27.6719 52.7301 27.5739 52.8281 27.4531 52.8281Z" fill="white" stroke="white" stroke-width="0.3"/>
<path d="M2.29688 52.8283C2.23891 52.8283 2.18313 52.8054 2.14266 52.7638C2.10109 52.7233 2.07812 52.6675 2.07812 52.6096C2.07812 52.5526 2.10109 52.4958 2.14266 52.4543C2.22359 52.3733 2.37016 52.3733 2.45109 52.4543C2.49266 52.4958 2.51562 52.5516 2.51562 52.6096C2.51562 52.6675 2.49266 52.7233 2.45219 52.7638C2.41063 52.8054 2.35484 52.8283 2.29688 52.8283Z" fill="white" stroke="white" stroke-width="0.3"/>
<path d="M27.4529 47.359C27.4184 47.359 27.3834 47.3509 27.3507 47.3336L8.75699 37.4899C8.65013 37.4333 8.60944 37.3009 8.66599 37.1942C8.72243 37.0875 8.85477 37.0464 8.96163 37.1032L27.5554 46.947C27.6622 47.0035 27.7029 47.136 27.6464 47.2426C27.6072 47.3167 27.5313 47.359 27.4529 47.359Z" fill="white" stroke="white" stroke-width="0.3"/>
</svg>
