<svg width="30" height="21" viewBox="0 0 30 21" fill="none" xmlns="http://www.w3.org/2000/svg">
<path fill-rule="evenodd" clip-rule="evenodd" d="M29.1937 4.88591C29.1937 4.88591 28.9105 2.92639 28.0419 2.06321C26.9408 0.930841 25.7059 0.92547 25.1398 0.85912C21.0866 0.571289 15.0064 0.571289 15.0064 0.571289H14.9935C14.9935 0.571289 8.91367 0.571289 4.86011 0.85912C4.29399 0.92547 3.05974 0.930841 1.95809 2.06321C1.08944 2.92639 0.806867 4.88591 0.806867 4.88591C0.806867 4.88591 0.517212 7.18698 0.517212 9.48805V11.6457C0.517212 13.9464 0.806867 16.2475 0.806867 16.2475C0.806867 16.2475 1.08944 18.207 1.95809 19.0702C3.05974 20.2029 4.50705 20.1666 5.15169 20.2854C7.46926 20.5037 15 20.5713 15 20.5713C15 20.5713 21.0866 20.5621 25.1398 20.2746C25.7059 20.2083 26.9408 20.2029 28.0419 19.0702C28.9105 18.207 29.1937 16.2475 29.1937 16.2475C29.1937 16.2475 29.4827 13.9464 29.4827 11.6457V9.48805C29.4827 7.18698 29.1937 4.88591 29.1937 4.88591ZM12.0098 14.2595L12.0085 6.27009L19.835 10.2786L12.0098 14.2595Z" fill="white"/>
</svg>
