<svg width="53" height="48" viewBox="0 0 53 48" fill="none" xmlns="http://www.w3.org/2000/svg">
<path d="M6.79057 3.36002C6.66784 3.38123 6.55732 3.44103 6.47853 3.52885C6.39974 3.61667 6.35774 3.72688 6.35995 3.84002V39.36C6.35996 39.4873 6.4158 39.6094 6.51519 39.6994C6.61459 39.7894 6.74939 39.84 6.88995 39.84H15.1878C15.258 39.8409 15.3277 39.8292 15.3929 39.8055C15.4581 39.7817 15.5174 39.7465 15.5674 39.7019C15.6174 39.6572 15.6571 39.604 15.6842 39.5453C15.7113 39.4866 15.7253 39.4236 15.7253 39.36C15.7253 39.2964 15.7113 39.2334 15.6842 39.1747C15.6571 39.1161 15.6174 39.0628 15.5674 39.0182C15.5174 38.9735 15.4581 38.9383 15.3929 38.9146C15.3277 38.8909 15.258 38.8791 15.1878 38.88H7.41995V4.32002H27.5599V10.56C27.56 10.6873 27.6158 10.8094 27.7152 10.8994C27.8146 10.9894 27.9494 11.04 28.0899 11.04H34.9799V18.075C33.953 17.871 32.8938 17.76 31.7999 17.76C23.6103 17.76 16.9599 23.783 16.9599 31.2C16.9599 38.617 23.6103 44.64 31.7999 44.64C39.9896 44.64 46.6399 38.617 46.6399 31.2C46.6399 25.1183 42.1665 19.9717 36.0399 18.315V10.56C36.0416 10.4964 36.0292 10.4332 36.0036 10.374C35.978 10.3148 35.9397 10.2607 35.8909 10.215L28.4709 3.49502C28.4204 3.45079 28.3608 3.41608 28.2954 3.3929C28.23 3.36973 28.1601 3.35855 28.0899 3.36002H6.88995C6.85689 3.35721 6.82362 3.35721 6.79057 3.36002ZM28.6199 4.99502L34.2346 10.08H28.6199V4.99502ZM12.0906 10.08C11.95 10.092 11.8204 10.154 11.7304 10.2524C11.6403 10.3509 11.5971 10.4777 11.6103 10.605C11.6234 10.7323 11.6919 10.8497 11.8006 10.9313C11.9093 11.0128 12.0494 11.052 12.1899 11.04H22.7899C22.8602 11.0409 22.9299 11.0292 22.9951 11.0055C23.0602 10.9817 23.1196 10.9465 23.1696 10.9019C23.2196 10.8572 23.2593 10.804 23.2864 10.7453C23.3135 10.6866 23.3275 10.6236 23.3275 10.56C23.3275 10.4964 23.3135 10.4334 23.2864 10.3748C23.2593 10.3161 23.2196 10.2628 23.1696 10.2182C23.1196 10.1735 23.0602 10.1383 22.9951 10.1146C22.9299 10.0909 22.8602 10.0791 22.7899 10.08H12.1899C12.1569 10.0772 12.1236 10.0772 12.0906 10.08ZM12.0906 14.4C11.95 14.412 11.8204 14.474 11.7304 14.5724C11.6403 14.6709 11.5971 14.7977 11.6103 14.925C11.6234 15.0523 11.6919 15.1697 11.8006 15.2513C11.9093 15.3328 12.0494 15.372 12.1899 15.36H22.7899C22.8602 15.3609 22.9299 15.3492 22.9951 15.3255C23.0602 15.3017 23.1196 15.2665 23.1696 15.2219C23.2196 15.1772 23.2593 15.124 23.2864 15.0653C23.3135 15.0066 23.3275 14.9436 23.3275 14.88C23.3275 14.8164 23.3135 14.7534 23.2864 14.6948C23.2593 14.6361 23.2196 14.5828 23.1696 14.5382C23.1196 14.4935 23.0602 14.4583 22.9951 14.4346C22.9299 14.4109 22.8602 14.3991 22.7899 14.4H12.1899C12.1569 14.3972 12.1236 14.3972 12.0906 14.4ZM12.0906 18.72C11.95 18.732 11.8204 18.794 11.7304 18.8924C11.6403 18.9909 11.5971 19.1177 11.6103 19.245C11.6234 19.3723 11.6919 19.4897 11.8006 19.5713C11.9093 19.6528 12.0494 19.692 12.1899 19.68H17.6721C17.7424 19.6809 17.8121 19.6692 17.8773 19.6455C17.9424 19.6217 18.0018 19.5865 18.0518 19.5419C18.1018 19.4972 18.1415 19.444 18.1686 19.3853C18.1957 19.3266 18.2097 19.2636 18.2097 19.2C18.2097 19.1364 18.1957 19.0734 18.1686 19.0147C18.1415 18.9561 18.1018 18.9028 18.0518 18.8582C18.0018 18.8135 17.9424 18.7783 17.8773 18.7546C17.8121 18.7309 17.7424 18.7191 17.6721 18.72H12.1899C12.1569 18.7172 12.1236 18.7172 12.0906 18.72ZM31.7999 18.72C39.4167 18.72 45.5799 24.3018 45.5799 31.2C45.5799 38.0982 39.4167 43.68 31.7999 43.68C24.1832 43.68 18.0199 38.0982 18.0199 31.2C18.0199 24.3018 24.1832 18.72 31.7999 18.72ZM31.7337 23.085C31.6049 23.0997 31.4865 23.1567 31.4011 23.2452C31.3156 23.3337 31.2689 23.4475 31.2699 23.565V25.425C30.5129 25.507 29.769 25.7374 29.1665 26.16C28.4223 26.6821 27.9078 27.5053 27.9078 28.53C27.9267 29.5058 28.395 30.251 29.1003 30.72C29.8055 31.189 30.6886 31.4388 31.6674 31.665C32.6126 31.8834 33.3978 32.1198 33.8868 32.445C34.3718 32.7675 34.614 33.1279 34.6321 33.855C34.6323 33.8613 34.632 33.8643 34.6321 33.87C34.6273 34.6088 34.3042 35.1125 33.7874 35.475C33.2668 35.8403 32.5364 36.0387 31.7999 36.045C30.1 36.045 29.316 35.3114 28.9015 34.545C28.877 34.4806 28.8377 34.4217 28.7862 34.3721C28.7346 34.3225 28.672 34.2835 28.6025 34.2575C28.533 34.2315 28.4582 34.2192 28.383 34.2215C28.3079 34.2237 28.2341 34.2404 28.1666 34.2704C28.0991 34.3004 28.0394 34.3431 27.9916 34.3956C27.9437 34.4481 27.9087 34.5092 27.8889 34.5749C27.8691 34.6406 27.865 34.7094 27.8768 34.7767C27.8886 34.8439 27.9161 34.9081 27.9574 34.965C28.4561 35.887 29.5216 36.8306 31.2699 36.99V38.82C31.2689 38.8836 31.2819 38.9468 31.3081 39.0058C31.3343 39.0648 31.3732 39.1185 31.4225 39.1638C31.4718 39.2091 31.5306 39.2451 31.5954 39.2697C31.6602 39.2942 31.7297 39.3069 31.7999 39.3069C31.8702 39.3069 31.9397 39.2942 32.0045 39.2697C32.0693 39.2451 32.1281 39.2091 32.1774 39.1638C32.2267 39.1185 32.2656 39.0648 32.2918 39.0058C32.318 38.9468 32.3309 38.8836 32.3299 38.82V36.975C33.0871 36.8968 33.8309 36.6627 34.4334 36.24C35.1776 35.718 35.6921 34.8798 35.6921 33.855C35.6732 32.8793 35.2048 32.134 34.4996 31.665C33.7944 31.196 32.9113 30.9613 31.9324 30.735C30.9873 30.5166 30.2021 30.2802 29.7131 29.955C29.2281 29.6326 28.9859 29.2572 28.9678 28.53C28.9676 28.5238 28.9679 28.5208 28.9678 28.515C28.9726 27.7763 29.2957 27.2726 29.8124 26.91C30.3331 26.5447 31.0635 26.3464 31.7999 26.34C33.4999 26.34 34.2839 27.0736 34.6984 27.84C34.7228 27.9044 34.7622 27.9634 34.8137 28.0129C34.8653 28.0625 34.9279 28.1016 34.9974 28.1276C35.0669 28.1535 35.1417 28.1658 35.2169 28.1636C35.292 28.1614 35.3658 28.1447 35.4333 28.1147C35.5008 28.0846 35.5604 28.042 35.6083 27.9894C35.6562 27.9369 35.6912 27.8758 35.711 27.8101C35.7307 27.7444 35.7349 27.6756 35.723 27.6084C35.7112 27.5411 35.6838 27.4769 35.6424 27.42C35.1438 26.4981 34.0777 25.5696 32.3299 25.41V23.565C32.3305 23.4966 32.315 23.4289 32.2843 23.3664C32.2536 23.3038 32.2085 23.248 32.1521 23.2025C32.0956 23.1571 32.0291 23.1231 31.9569 23.1028C31.8847 23.0825 31.8086 23.0765 31.7337 23.085Z" fill="white"/>
</svg>
