<svg width="34" height="34" viewBox="0 0 34 34" fill="none" xmlns="http://www.w3.org/2000/svg">
<path d="M24.3951 15.9099L16.2634 24.0416C14.7007 25.6043 12.1692 25.6043 10.6065 24.0416C9.04383 22.4789 9.04383 19.9475 10.6065 18.3848L19.4454 9.54595C20.4212 8.57014 22.0051 8.57014 22.9809 9.54595C23.9567 10.5218 23.9567 12.1057 22.9809 13.0815L15.5563 20.5061C15.1674 20.895 14.531 20.895 14.1421 20.5061C13.7532 20.1172 13.7532 19.4808 14.1421 19.0919L20.8596 12.3744L19.7989 11.3137L13.0814 18.0312C12.1056 19.007 12.1056 20.591 13.0814 21.5668C14.0572 22.5426 15.6411 22.5426 16.6169 21.5668L24.0416 14.1421C25.6043 12.5794 25.6043 10.048 24.0416 8.48529C22.4789 6.92258 19.9474 6.92258 18.3847 8.48529L9.54587 17.3241C7.39627 19.4737 7.39627 22.9527 9.54587 25.1023C11.6955 27.2519 15.1744 27.2519 17.324 25.1023L25.4558 16.9706L24.3951 15.9099Z" fill="#858E93"/>
</svg>
