<svg width="23" height="24" viewBox="0 0 23 24" fill="none" xmlns="http://www.w3.org/2000/svg">
<path d="M21.0409 0.571289H2.2815C1.38322 0.571289 0.655151 1.30427 0.655151 2.20895V21.7901C0.655151 22.6948 1.38348 23.4284 2.2815 23.4284H21.0409C21.939 23.4284 22.6662 22.6943 22.6662 21.7901V2.20895C22.6662 1.30454 21.939 0.571289 21.0409 0.571289ZM7.32829 19.7043H4.00257V9.38455H7.32829V19.7043ZM5.66576 7.97471H5.6434C4.52814 7.97471 3.80519 7.18268 3.80519 6.19112C3.80519 5.17957 4.54937 4.40901 5.68674 4.40901C6.82421 4.40901 7.52388 5.17935 7.54599 6.19112C7.54599 7.1829 6.82447 7.97471 5.66576 7.97471ZM19.3165 19.7043H15.9919V14.1829C15.9919 12.7955 15.5102 11.8488 14.3079 11.8488C13.3881 11.8488 12.8421 12.4875 12.6023 13.1041C12.5135 13.3243 12.4915 13.6323 12.4915 13.9399V19.7041H9.16747C9.16747 19.7041 9.21097 10.3523 9.16747 9.38439H12.492V10.8474C12.9333 10.1444 13.722 9.14159 15.4875 9.14159C17.6757 9.14159 19.3165 10.6157 19.3165 13.7869V19.7043ZM12.4705 10.8802C12.4762 10.8705 12.4841 10.8589 12.492 10.8476V10.8802H12.4705Z" fill="white"/>
</svg>
